%TF.GenerationSoftware,KiCad,Pcbnew,9.0.2*%
%TF.CreationDate,2025-11-18T17:18:59+08:00*%
%TF.ProjectId,swerve-hub,73776572-7665-42d6-9875-622e6b696361,rev?*%
%TF.SameCoordinates,Original*%
%TF.FileFunction,Copper,L1,Top*%
%TF.FilePolarity,Positive*%
%FSLAX46Y46*%
G04 Gerber Fmt 4.6, Leading zero omitted, Abs format (unit mm)*
G04 Created by KiCad (PCBNEW 9.0.2) date 2025-11-18 17:18:59*
%MOMM*%
%LPD*%
G01*
G04 APERTURE LIST*
G04 Aperture macros list*
%AMRoundRect*
0 Rectangle with rounded corners*
0 $1 Rounding radius*
0 $2 $3 $4 $5 $6 $7 $8 $9 X,Y pos of 4 corners*
0 Add a 4 corners polygon primitive as box body*
4,1,4,$2,$3,$4,$5,$6,$7,$8,$9,$2,$3,0*
0 Add four circle primitives for the rounded corners*
1,1,$1+$1,$2,$3*
1,1,$1+$1,$4,$5*
1,1,$1+$1,$6,$7*
1,1,$1+$1,$8,$9*
0 Add four rect primitives between the rounded corners*
20,1,$1+$1,$2,$3,$4,$5,0*
20,1,$1+$1,$4,$5,$6,$7,0*
20,1,$1+$1,$6,$7,$8,$9,0*
20,1,$1+$1,$8,$9,$2,$3,0*%
G04 Aperture macros list end*
%TA.AperFunction,ComponentPad*%
%ADD10R,1.500000X2.300000*%
%TD*%
%TA.AperFunction,ComponentPad*%
%ADD11RoundRect,0.250001X0.499999X0.899999X-0.499999X0.899999X-0.499999X-0.899999X0.499999X-0.899999X0*%
%TD*%
%TA.AperFunction,ComponentPad*%
%ADD12O,1.500000X2.300000*%
%TD*%
%TA.AperFunction,ComponentPad*%
%ADD13R,1.408000X1.408000*%
%TD*%
%TA.AperFunction,ComponentPad*%
%ADD14C,1.408000*%
%TD*%
%TA.AperFunction,ComponentPad*%
%ADD15C,2.400000*%
%TD*%
%TA.AperFunction,ComponentPad*%
%ADD16RoundRect,0.249999X-0.850001X-0.850001X0.850001X-0.850001X0.850001X0.850001X-0.850001X0.850001X0*%
%TD*%
%TA.AperFunction,ComponentPad*%
%ADD17C,2.200000*%
%TD*%
%TA.AperFunction,ComponentPad*%
%ADD18C,1.600000*%
%TD*%
%TA.AperFunction,ComponentPad*%
%ADD19R,1.700000X1.700000*%
%TD*%
%TA.AperFunction,ComponentPad*%
%ADD20C,1.700000*%
%TD*%
%TA.AperFunction,Conductor*%
%ADD21C,0.200000*%
%TD*%
G04 APERTURE END LIST*
D10*
%TO.P,J3,1,Pin_1*%
%TO.N,Net-(D1-A)*%
X99766000Y-71812500D03*
D11*
X99766000Y-66812500D03*
D12*
%TO.P,J3,2,Pin_2*%
%TO.N,/GND*%
X96266000Y-71812500D03*
X96266000Y-66812500D03*
%TD*%
D13*
%TO.P,J1,1,1*%
%TO.N,/CANh*%
X101526000Y-101843500D03*
D14*
%TO.P,J1,2,2*%
%TO.N,/CANl*%
X100506000Y-100063500D03*
%TO.P,J1,3,3*%
%TO.N,/12v*%
X99486000Y-101843500D03*
%TO.P,J1,4,4*%
%TO.N,/GND*%
X98466000Y-100063500D03*
%TO.P,J1,5,5*%
%TO.N,unconnected-(J1-Pad5)*%
X97446000Y-101843500D03*
%TO.P,J1,6,6*%
%TO.N,unconnected-(J1-Pad6)*%
X96426000Y-100063500D03*
%TO.P,J1,7,7*%
%TO.N,unconnected-(J1-Pad7)*%
X95406000Y-101843500D03*
%TO.P,J1,8,8*%
%TO.N,unconnected-(J1-Pad8)*%
X94386000Y-100063500D03*
%TO.P,J1,9*%
%TO.N,Net-(J1-Pad9)*%
X104816000Y-95243500D03*
%TO.P,J1,10*%
%TO.N,/12v*%
X102526000Y-95243500D03*
%TO.P,J1,11*%
%TO.N,unconnected-(J1-Pad11)*%
X93386000Y-95243500D03*
%TO.P,J1,12*%
%TO.N,unconnected-(J1-Pad12)*%
X91096000Y-95243500D03*
D15*
%TO.P,J1,SH1,SHIELD*%
%TO.N,/GND*%
X89831000Y-100953500D03*
%TO.P,J1,SH2,SHIELD__1*%
X106081000Y-100953500D03*
%TD*%
D16*
%TO.P,D1,1,K*%
%TO.N,/12v*%
X91694000Y-84582000D03*
D17*
%TO.P,D1,2,A*%
%TO.N,Net-(D1-A)*%
X101854000Y-84582000D03*
%TD*%
D18*
%TO.P,R1,1*%
%TO.N,/GND*%
X95504000Y-91440000D03*
%TO.P,R1,2*%
%TO.N,Net-(J1-Pad9)*%
X105664000Y-91440000D03*
%TD*%
D19*
%TO.P,J2,1,Pin_1*%
%TO.N,/CANh*%
X91440000Y-61463000D03*
D20*
%TO.P,J2,2,Pin_2*%
%TO.N,/CANl*%
X91440000Y-64003000D03*
%TD*%
D19*
%TO.P,J4,1,Pin_1*%
%TO.N,/12v*%
X104648000Y-61463000D03*
D20*
%TO.P,J4,2,Pin_2*%
%TO.N,/GND*%
X104648000Y-64003000D03*
%TD*%
D21*
%TO.N,/CANl*%
X100506000Y-87829450D02*
X91440000Y-78763450D01*
X91440000Y-78763450D02*
X91440000Y-64003000D01*
X100506000Y-100063500D02*
X100506000Y-87829450D01*
%TO.N,/CANh*%
X91841000Y-65229760D02*
X91841000Y-78597350D01*
X91841000Y-78597350D02*
X100907000Y-87663350D01*
X92591000Y-63526240D02*
X92591000Y-64479760D01*
X101526000Y-99662215D02*
X101526000Y-101843500D01*
X91440000Y-62375240D02*
X92591000Y-63526240D01*
X92591000Y-64479760D02*
X91841000Y-65229760D01*
X100907000Y-99043215D02*
X100907000Y-87663350D01*
X91440000Y-61463000D02*
X91440000Y-62375240D01*
X101526000Y-99662215D02*
X100907000Y-99043215D01*
%TD*%
%TA.AperFunction,Conductor*%
%TO.N,/GND*%
G36*
X90379476Y-59945685D02*
G01*
X90425231Y-59998489D01*
X90435175Y-60067647D01*
X90406150Y-60131203D01*
X90355771Y-60166182D01*
X90347669Y-60169203D01*
X90347664Y-60169206D01*
X90232455Y-60255452D01*
X90232452Y-60255455D01*
X90146206Y-60370664D01*
X90146202Y-60370671D01*
X90095908Y-60505517D01*
X90089501Y-60565116D01*
X90089501Y-60565123D01*
X90089500Y-60565135D01*
X90089500Y-62360870D01*
X90089501Y-62360876D01*
X90095908Y-62420483D01*
X90146202Y-62555328D01*
X90146206Y-62555335D01*
X90232452Y-62670544D01*
X90232455Y-62670547D01*
X90347664Y-62756793D01*
X90347671Y-62756797D01*
X90479082Y-62805810D01*
X90535016Y-62847681D01*
X90559433Y-62913145D01*
X90544582Y-62981418D01*
X90523431Y-63009673D01*
X90409889Y-63123215D01*
X90284951Y-63295179D01*
X90188444Y-63484585D01*
X90122753Y-63686760D01*
X90089500Y-63896713D01*
X90089500Y-64109286D01*
X90122753Y-64319239D01*
X90188444Y-64521414D01*
X90284951Y-64710820D01*
X90409890Y-64882786D01*
X90560213Y-65033109D01*
X90732184Y-65158051D01*
X90732184Y-65158052D01*
X90771793Y-65178233D01*
X90822590Y-65226206D01*
X90839500Y-65288718D01*
X90839500Y-78676780D01*
X90839499Y-78676798D01*
X90839499Y-78842504D01*
X90839498Y-78842504D01*
X90880423Y-78995235D01*
X90909358Y-79045350D01*
X90909359Y-79045354D01*
X90909360Y-79045354D01*
X90959479Y-79132164D01*
X90959481Y-79132167D01*
X91078349Y-79251035D01*
X91078355Y-79251040D01*
X99869181Y-88041866D01*
X99902666Y-88103189D01*
X99905500Y-88129547D01*
X99905500Y-98947763D01*
X99885815Y-99014802D01*
X99854386Y-99048081D01*
X99721319Y-99144760D01*
X99587258Y-99278821D01*
X99587251Y-99278829D01*
X99534483Y-99351458D01*
X99516560Y-99365278D01*
X99517167Y-99365885D01*
X98908137Y-99974914D01*
X98885333Y-99889806D01*
X98826090Y-99787194D01*
X98742306Y-99703410D01*
X98639694Y-99644167D01*
X98554584Y-99621361D01*
X99123193Y-99052753D01*
X99097033Y-99033746D01*
X98928178Y-98947710D01*
X98747937Y-98889145D01*
X98560762Y-98859500D01*
X98371238Y-98859500D01*
X98184062Y-98889145D01*
X98003821Y-98947710D01*
X97834969Y-99033745D01*
X97808806Y-99052753D01*
X98377415Y-99621361D01*
X98292306Y-99644167D01*
X98189694Y-99703410D01*
X98105910Y-99787194D01*
X98046667Y-99889806D01*
X98023861Y-99974914D01*
X97432551Y-99383604D01*
X97431398Y-99383273D01*
X97419996Y-99372567D01*
X97404591Y-99360315D01*
X97400849Y-99356046D01*
X97344741Y-99278821D01*
X97210679Y-99144759D01*
X97057296Y-99033319D01*
X97026499Y-99017627D01*
X96888372Y-98947247D01*
X96829905Y-98928250D01*
X96708055Y-98888658D01*
X96708051Y-98888657D01*
X96708050Y-98888657D01*
X96520800Y-98859000D01*
X96520796Y-98859000D01*
X96331204Y-98859000D01*
X96331200Y-98859000D01*
X96143949Y-98888657D01*
X96143946Y-98888657D01*
X96143945Y-98888658D01*
X96085482Y-98907653D01*
X95963627Y-98947247D01*
X95794703Y-99033319D01*
X95641319Y-99144760D01*
X95507258Y-99278821D01*
X95506317Y-99280118D01*
X95505832Y-99280491D01*
X95504095Y-99282526D01*
X95503667Y-99282160D01*
X95450987Y-99322783D01*
X95381373Y-99328761D01*
X95319579Y-99296154D01*
X95305683Y-99280118D01*
X95304741Y-99278821D01*
X95170680Y-99144760D01*
X95017296Y-99033319D01*
X94848372Y-98947247D01*
X94789905Y-98928250D01*
X94668055Y-98888658D01*
X94668051Y-98888657D01*
X94668050Y-98888657D01*
X94480800Y-98859000D01*
X94480796Y-98859000D01*
X94291204Y-98859000D01*
X94291200Y-98859000D01*
X94103949Y-98888657D01*
X94103946Y-98888657D01*
X94103945Y-98888658D01*
X94045482Y-98907653D01*
X93923627Y-98947247D01*
X93754703Y-99033319D01*
X93601319Y-99144760D01*
X93467260Y-99278819D01*
X93355819Y-99432203D01*
X93269747Y-99601127D01*
X93211157Y-99781449D01*
X93181500Y-99968699D01*
X93181500Y-100158300D01*
X93209027Y-100332099D01*
X93211158Y-100345555D01*
X93250750Y-100467405D01*
X93269747Y-100525872D01*
X93330655Y-100645409D01*
X93355819Y-100694796D01*
X93467259Y-100848179D01*
X93601321Y-100982241D01*
X93754704Y-101093681D01*
X93834515Y-101134346D01*
X93923627Y-101179752D01*
X93923629Y-101179752D01*
X93923632Y-101179754D01*
X94103945Y-101238342D01*
X94103951Y-101238343D01*
X94103949Y-101238343D01*
X94181378Y-101250606D01*
X94244513Y-101280535D01*
X94281445Y-101339846D01*
X94280447Y-101409709D01*
X94279912Y-101411397D01*
X94231157Y-101561447D01*
X94201500Y-101748699D01*
X94201500Y-101938300D01*
X94231157Y-102125550D01*
X94231158Y-102125555D01*
X94270750Y-102247405D01*
X94289747Y-102305872D01*
X94375819Y-102474796D01*
X94487259Y-102628179D01*
X94621321Y-102762241D01*
X94774704Y-102873681D01*
X94854515Y-102914346D01*
X94943627Y-102959752D01*
X94943629Y-102959752D01*
X94943632Y-102959754D01*
X95123945Y-103018342D01*
X95217574Y-103033171D01*
X95311200Y-103048000D01*
X95311204Y-103048000D01*
X95500800Y-103048000D01*
X95584022Y-103034818D01*
X95688055Y-103018342D01*
X95868368Y-102959754D01*
X96037296Y-102873681D01*
X96190679Y-102762241D01*
X96324741Y-102628179D01*
X96325677Y-102626889D01*
X96326158Y-102626518D01*
X96327905Y-102624474D01*
X96328334Y-102624840D01*
X96381003Y-102584220D01*
X96450616Y-102578236D01*
X96512413Y-102610837D01*
X96526319Y-102626885D01*
X96527259Y-102628179D01*
X96661321Y-102762241D01*
X96814704Y-102873681D01*
X96894515Y-102914346D01*
X96983627Y-102959752D01*
X96983629Y-102959752D01*
X96983632Y-102959754D01*
X97163945Y-103018342D01*
X97257574Y-103033171D01*
X97351200Y-103048000D01*
X97351204Y-103048000D01*
X97540800Y-103048000D01*
X97624022Y-103034818D01*
X97728055Y-103018342D01*
X97908368Y-102959754D01*
X98077296Y-102873681D01*
X98230679Y-102762241D01*
X98364741Y-102628179D01*
X98365677Y-102626889D01*
X98366158Y-102626518D01*
X98367905Y-102624474D01*
X98368334Y-102624840D01*
X98421003Y-102584220D01*
X98490616Y-102578236D01*
X98552413Y-102610837D01*
X98566319Y-102626885D01*
X98567259Y-102628179D01*
X98701321Y-102762241D01*
X98854704Y-102873681D01*
X98934515Y-102914346D01*
X99023627Y-102959752D01*
X99023629Y-102959752D01*
X99023632Y-102959754D01*
X99203945Y-103018342D01*
X99297574Y-103033171D01*
X99391200Y-103048000D01*
X99391204Y-103048000D01*
X99580800Y-103048000D01*
X99664022Y-103034818D01*
X99768055Y-103018342D01*
X99948368Y-102959754D01*
X100117296Y-102873681D01*
X100228053Y-102793210D01*
X100293855Y-102769731D01*
X100361909Y-102785556D01*
X100400202Y-102819217D01*
X100464455Y-102905047D01*
X100579664Y-102991293D01*
X100579671Y-102991297D01*
X100714517Y-103041591D01*
X100714516Y-103041591D01*
X100721444Y-103042335D01*
X100774127Y-103048000D01*
X102277872Y-103047999D01*
X102337483Y-103041591D01*
X102472331Y-102991296D01*
X102587546Y-102905046D01*
X102673796Y-102789831D01*
X102724091Y-102654983D01*
X102730500Y-102595373D01*
X102730499Y-101753500D01*
X102730499Y-101091629D01*
X102730498Y-101091623D01*
X102724091Y-101032016D01*
X102673797Y-100897170D01*
X102673793Y-100897165D01*
X102632553Y-100842075D01*
X104381000Y-100842075D01*
X104381000Y-101064924D01*
X104410085Y-101285854D01*
X104410088Y-101285867D01*
X104467763Y-101501118D01*
X104553045Y-101707002D01*
X104553054Y-101707020D01*
X104664464Y-101899991D01*
X104664473Y-101900004D01*
X104715040Y-101965903D01*
X104715043Y-101965903D01*
X105365152Y-101315793D01*
X105372049Y-101332442D01*
X105459599Y-101463470D01*
X105571030Y-101574901D01*
X105702058Y-101662451D01*
X105718705Y-101669346D01*
X105068595Y-102319455D01*
X105068595Y-102319456D01*
X105134507Y-102370033D01*
X105327485Y-102481449D01*
X105327497Y-102481454D01*
X105533381Y-102566736D01*
X105748632Y-102624411D01*
X105748645Y-102624414D01*
X105969575Y-102653500D01*
X106192425Y-102653500D01*
X106413354Y-102624414D01*
X106413367Y-102624411D01*
X106628618Y-102566736D01*
X106834502Y-102481454D01*
X106834514Y-102481449D01*
X107027498Y-102370030D01*
X107093403Y-102319457D01*
X107093404Y-102319456D01*
X106443294Y-101669346D01*
X106459942Y-101662451D01*
X106590970Y-101574901D01*
X106702401Y-101463470D01*
X106789951Y-101332442D01*
X106796846Y-101315794D01*
X107446956Y-101965904D01*
X107446957Y-101965903D01*
X107497530Y-101899998D01*
X107608949Y-101707014D01*
X107608954Y-101707002D01*
X107694236Y-101501118D01*
X107751911Y-101285867D01*
X107751914Y-101285854D01*
X107781000Y-101064924D01*
X107781000Y-100842075D01*
X107751914Y-100621145D01*
X107751911Y-100621132D01*
X107694236Y-100405881D01*
X107608954Y-100199997D01*
X107608949Y-100199985D01*
X107497533Y-100007007D01*
X107446956Y-99941095D01*
X107446955Y-99941095D01*
X106796846Y-100591204D01*
X106789951Y-100574558D01*
X106702401Y-100443530D01*
X106590970Y-100332099D01*
X106459942Y-100244549D01*
X106443293Y-100237652D01*
X107093403Y-99587543D01*
X107093403Y-99587540D01*
X107027504Y-99536973D01*
X107027491Y-99536964D01*
X106834520Y-99425554D01*
X106834502Y-99425545D01*
X106628618Y-99340263D01*
X106413367Y-99282588D01*
X106413354Y-99282585D01*
X106192425Y-99253500D01*
X105969575Y-99253500D01*
X105748645Y-99282585D01*
X105748632Y-99282588D01*
X105533381Y-99340263D01*
X105327497Y-99425545D01*
X105327479Y-99425554D01*
X105134511Y-99536962D01*
X105068595Y-99587542D01*
X105718706Y-100237652D01*
X105702058Y-100244549D01*
X105571030Y-100332099D01*
X105459599Y-100443530D01*
X105372049Y-100574558D01*
X105365153Y-100591206D01*
X104715042Y-99941095D01*
X104664462Y-100007011D01*
X104553054Y-100199979D01*
X104553045Y-100199997D01*
X104467763Y-100405881D01*
X104410088Y-100621132D01*
X104410085Y-100621145D01*
X104381000Y-100842075D01*
X102632553Y-100842075D01*
X102587547Y-100781955D01*
X102587544Y-100781952D01*
X102472335Y-100695706D01*
X102472328Y-100695702D01*
X102337482Y-100645408D01*
X102337483Y-100645408D01*
X102277883Y-100639001D01*
X102277881Y-100639000D01*
X102277873Y-100639000D01*
X102277865Y-100639000D01*
X102250500Y-100639000D01*
X102183461Y-100619315D01*
X102137706Y-100566511D01*
X102126500Y-100515000D01*
X102126500Y-99647191D01*
X102126500Y-99583158D01*
X102085577Y-99430431D01*
X102085577Y-99430430D01*
X102024821Y-99325198D01*
X102006520Y-99293499D01*
X101894716Y-99181695D01*
X101894715Y-99181694D01*
X101890385Y-99177364D01*
X101890374Y-99177354D01*
X101543819Y-98830799D01*
X101510334Y-98769476D01*
X101507500Y-98743118D01*
X101507500Y-96227782D01*
X101527185Y-96160743D01*
X101579989Y-96114988D01*
X101649147Y-96105044D01*
X101712703Y-96134069D01*
X101719181Y-96140101D01*
X101741321Y-96162241D01*
X101894704Y-96273681D01*
X101974515Y-96314346D01*
X102063627Y-96359752D01*
X102063629Y-96359752D01*
X102063632Y-96359754D01*
X102243945Y-96418342D01*
X102337574Y-96433171D01*
X102431200Y-96448000D01*
X102431204Y-96448000D01*
X102620800Y-96448000D01*
X102704022Y-96434818D01*
X102808055Y-96418342D01*
X102988368Y-96359754D01*
X103157296Y-96273681D01*
X103310679Y-96162241D01*
X103444741Y-96028179D01*
X103556181Y-95874796D01*
X103560514Y-95866292D01*
X103608487Y-95815495D01*
X103676308Y-95798698D01*
X103742443Y-95821234D01*
X103781486Y-95866292D01*
X103785819Y-95874796D01*
X103897259Y-96028179D01*
X104031321Y-96162241D01*
X104184704Y-96273681D01*
X104264515Y-96314346D01*
X104353627Y-96359752D01*
X104353629Y-96359752D01*
X104353632Y-96359754D01*
X104533945Y-96418342D01*
X104627574Y-96433171D01*
X104721200Y-96448000D01*
X104721204Y-96448000D01*
X104910800Y-96448000D01*
X104994022Y-96434818D01*
X105098055Y-96418342D01*
X105278368Y-96359754D01*
X105447296Y-96273681D01*
X105600679Y-96162241D01*
X105734741Y-96028179D01*
X105846181Y-95874796D01*
X105932254Y-95705868D01*
X105990842Y-95525555D01*
X106007318Y-95421522D01*
X106020500Y-95338300D01*
X106020500Y-95148699D01*
X106004023Y-95044671D01*
X105990842Y-94961445D01*
X105932254Y-94781132D01*
X105932252Y-94781129D01*
X105932252Y-94781127D01*
X105876397Y-94671506D01*
X105846181Y-94612204D01*
X105734741Y-94458821D01*
X105600679Y-94324759D01*
X105447296Y-94213319D01*
X105278372Y-94127247D01*
X105219905Y-94108250D01*
X105098055Y-94068658D01*
X105098051Y-94068657D01*
X105098050Y-94068657D01*
X104910800Y-94039000D01*
X104910796Y-94039000D01*
X104721204Y-94039000D01*
X104721200Y-94039000D01*
X104533949Y-94068657D01*
X104533946Y-94068657D01*
X104533945Y-94068658D01*
X104475482Y-94087653D01*
X104353627Y-94127247D01*
X104184703Y-94213319D01*
X104031319Y-94324760D01*
X103897260Y-94458819D01*
X103785817Y-94612206D01*
X103781484Y-94620711D01*
X103733510Y-94671506D01*
X103665689Y-94688301D01*
X103599554Y-94665763D01*
X103560516Y-94620711D01*
X103556182Y-94612206D01*
X103556180Y-94612203D01*
X103444741Y-94458821D01*
X103310679Y-94324759D01*
X103157296Y-94213319D01*
X102988372Y-94127247D01*
X102929905Y-94108250D01*
X102808055Y-94068658D01*
X102808051Y-94068657D01*
X102808050Y-94068657D01*
X102620800Y-94039000D01*
X102620796Y-94039000D01*
X102431204Y-94039000D01*
X102431200Y-94039000D01*
X102243949Y-94068657D01*
X102243946Y-94068657D01*
X102243945Y-94068658D01*
X102185482Y-94087653D01*
X102063627Y-94127247D01*
X101894703Y-94213319D01*
X101741319Y-94324760D01*
X101741318Y-94324761D01*
X101719181Y-94346899D01*
X101657858Y-94380384D01*
X101588166Y-94375400D01*
X101532233Y-94333528D01*
X101507816Y-94268064D01*
X101507500Y-94259218D01*
X101507500Y-91337648D01*
X104363500Y-91337648D01*
X104363500Y-91542351D01*
X104395522Y-91744534D01*
X104458781Y-91939223D01*
X104522691Y-92064653D01*
X104551585Y-92121359D01*
X104551715Y-92121613D01*
X104672028Y-92287213D01*
X104816786Y-92431971D01*
X104937226Y-92519474D01*
X104982390Y-92552287D01*
X105098607Y-92611503D01*
X105164776Y-92645218D01*
X105164778Y-92645218D01*
X105164781Y-92645220D01*
X105269137Y-92679127D01*
X105359465Y-92708477D01*
X105460557Y-92724488D01*
X105561648Y-92740500D01*
X105561649Y-92740500D01*
X105766351Y-92740500D01*
X105766352Y-92740500D01*
X105968534Y-92708477D01*
X106163219Y-92645220D01*
X106345610Y-92552287D01*
X106438590Y-92484732D01*
X106511213Y-92431971D01*
X106511215Y-92431968D01*
X106511219Y-92431966D01*
X106655966Y-92287219D01*
X106655968Y-92287215D01*
X106655971Y-92287213D01*
X106708732Y-92214590D01*
X106776287Y-92121610D01*
X106869220Y-91939219D01*
X106932477Y-91744534D01*
X106964500Y-91542352D01*
X106964500Y-91337648D01*
X106956257Y-91285606D01*
X106932477Y-91135465D01*
X106901458Y-91040000D01*
X106869220Y-90940781D01*
X106869218Y-90940778D01*
X106869218Y-90940776D01*
X106776419Y-90758650D01*
X106776287Y-90758390D01*
X106744092Y-90714077D01*
X106655971Y-90592786D01*
X106511213Y-90448028D01*
X106345613Y-90327715D01*
X106345612Y-90327714D01*
X106345610Y-90327713D01*
X106288653Y-90298691D01*
X106163223Y-90234781D01*
X105968534Y-90171522D01*
X105793995Y-90143878D01*
X105766352Y-90139500D01*
X105561648Y-90139500D01*
X105537329Y-90143351D01*
X105359465Y-90171522D01*
X105164776Y-90234781D01*
X104982386Y-90327715D01*
X104816786Y-90448028D01*
X104672028Y-90592786D01*
X104551715Y-90758386D01*
X104458781Y-90940776D01*
X104395522Y-91135465D01*
X104363500Y-91337648D01*
X101507500Y-91337648D01*
X101507500Y-87584295D01*
X101507500Y-87584293D01*
X101466577Y-87431566D01*
X101466577Y-87431565D01*
X101466577Y-87431564D01*
X101437639Y-87381445D01*
X101437637Y-87381442D01*
X101387520Y-87294634D01*
X101275716Y-87182830D01*
X101275715Y-87182829D01*
X101271385Y-87178499D01*
X101271374Y-87178489D01*
X98548923Y-84456038D01*
X100253500Y-84456038D01*
X100253500Y-84707961D01*
X100292910Y-84956785D01*
X100370760Y-85196383D01*
X100485132Y-85420848D01*
X100633201Y-85624649D01*
X100633205Y-85624654D01*
X100811345Y-85802794D01*
X100811350Y-85802798D01*
X100989117Y-85931952D01*
X101015155Y-85950870D01*
X101158184Y-86023747D01*
X101239616Y-86065239D01*
X101239618Y-86065239D01*
X101239621Y-86065241D01*
X101479215Y-86143090D01*
X101728038Y-86182500D01*
X101728039Y-86182500D01*
X101979961Y-86182500D01*
X101979962Y-86182500D01*
X102228785Y-86143090D01*
X102468379Y-86065241D01*
X102692845Y-85950870D01*
X102896656Y-85802793D01*
X103074793Y-85624656D01*
X103222870Y-85420845D01*
X103337241Y-85196379D01*
X103415090Y-84956785D01*
X103454500Y-84707962D01*
X103454500Y-84456038D01*
X103415090Y-84207215D01*
X103337241Y-83967621D01*
X103337239Y-83967618D01*
X103337239Y-83967616D01*
X103295747Y-83886184D01*
X103222870Y-83743155D01*
X103178425Y-83681982D01*
X103074798Y-83539350D01*
X103074794Y-83539345D01*
X102896654Y-83361205D01*
X102896649Y-83361201D01*
X102692848Y-83213132D01*
X102692847Y-83213131D01*
X102692845Y-83213130D01*
X102622747Y-83177413D01*
X102468383Y-83098760D01*
X102228785Y-83020910D01*
X101979962Y-82981500D01*
X101728038Y-82981500D01*
X101661738Y-82992001D01*
X101479214Y-83020910D01*
X101239616Y-83098760D01*
X101015151Y-83213132D01*
X100811350Y-83361201D01*
X100811345Y-83361205D01*
X100633205Y-83539345D01*
X100633201Y-83539350D01*
X100485132Y-83743151D01*
X100370760Y-83967616D01*
X100292910Y-84207214D01*
X100253500Y-84456038D01*
X98548923Y-84456038D01*
X92477819Y-78384934D01*
X92444334Y-78323611D01*
X92441500Y-78297253D01*
X92441500Y-71314117D01*
X95016000Y-71314117D01*
X95016000Y-71562500D01*
X95717518Y-71562500D01*
X95706889Y-71580909D01*
X95666000Y-71733509D01*
X95666000Y-71891491D01*
X95706889Y-72044091D01*
X95717518Y-72062500D01*
X95016000Y-72062500D01*
X95016000Y-72310882D01*
X95046778Y-72505205D01*
X95107581Y-72692335D01*
X95196904Y-72867643D01*
X95312555Y-73026821D01*
X95451678Y-73165944D01*
X95610856Y-73281595D01*
X95786162Y-73370918D01*
X95973283Y-73431718D01*
X96016000Y-73438484D01*
X96016000Y-72360982D01*
X96034409Y-72371611D01*
X96187009Y-72412500D01*
X96344991Y-72412500D01*
X96497591Y-72371611D01*
X96516000Y-72360982D01*
X96516000Y-73438483D01*
X96558716Y-73431718D01*
X96745837Y-73370918D01*
X96921143Y-73281595D01*
X97080321Y-73165944D01*
X97219444Y-73026821D01*
X97335095Y-72867643D01*
X97424418Y-72692335D01*
X97485221Y-72505205D01*
X97516000Y-72310882D01*
X97516000Y-72062500D01*
X96814482Y-72062500D01*
X96825111Y-72044091D01*
X96866000Y-71891491D01*
X96866000Y-71733509D01*
X96825111Y-71580909D01*
X96814482Y-71562500D01*
X97516000Y-71562500D01*
X97516000Y-71314117D01*
X97485221Y-71119794D01*
X97424418Y-70932664D01*
X97335095Y-70757356D01*
X97281938Y-70684192D01*
X97281937Y-70684189D01*
X97231401Y-70614635D01*
X98515500Y-70614635D01*
X98515500Y-73010370D01*
X98515501Y-73010376D01*
X98521908Y-73069983D01*
X98572202Y-73204828D01*
X98572206Y-73204835D01*
X98658452Y-73320044D01*
X98658455Y-73320047D01*
X98773664Y-73406293D01*
X98773671Y-73406297D01*
X98908517Y-73456591D01*
X98908516Y-73456591D01*
X98915444Y-73457335D01*
X98968127Y-73463000D01*
X100563872Y-73462999D01*
X100623483Y-73456591D01*
X100758331Y-73406296D01*
X100873546Y-73320046D01*
X100959796Y-73204831D01*
X101010091Y-73069983D01*
X101016500Y-73010373D01*
X101016499Y-70614628D01*
X101010091Y-70555017D01*
X100959796Y-70420169D01*
X100959795Y-70420168D01*
X100959793Y-70420164D01*
X100873547Y-70304955D01*
X100873544Y-70304952D01*
X100758335Y-70218706D01*
X100758328Y-70218702D01*
X100623482Y-70168408D01*
X100623483Y-70168408D01*
X100563883Y-70162001D01*
X100563881Y-70162000D01*
X100563873Y-70162000D01*
X100563864Y-70162000D01*
X98968129Y-70162000D01*
X98968123Y-70162001D01*
X98908516Y-70168408D01*
X98773671Y-70218702D01*
X98773664Y-70218706D01*
X98658455Y-70304952D01*
X98658452Y-70304955D01*
X98572206Y-70420164D01*
X98572202Y-70420171D01*
X98521908Y-70555017D01*
X98515501Y-70614616D01*
X98515501Y-70614623D01*
X98515500Y-70614635D01*
X97231401Y-70614635D01*
X97219450Y-70598186D01*
X97219443Y-70598177D01*
X97080321Y-70459055D01*
X96921143Y-70343404D01*
X96745835Y-70254081D01*
X96558705Y-70193278D01*
X96516000Y-70186514D01*
X96516000Y-71264017D01*
X96497591Y-71253389D01*
X96344991Y-71212500D01*
X96187009Y-71212500D01*
X96034409Y-71253389D01*
X96016000Y-71264017D01*
X96016000Y-70186514D01*
X96015999Y-70186514D01*
X95973294Y-70193278D01*
X95786164Y-70254081D01*
X95610856Y-70343404D01*
X95451678Y-70459055D01*
X95312555Y-70598178D01*
X95196904Y-70757356D01*
X95107581Y-70932664D01*
X95046778Y-71119794D01*
X95016000Y-71314117D01*
X92441500Y-71314117D01*
X92441500Y-66314117D01*
X95016000Y-66314117D01*
X95016000Y-66562500D01*
X95717518Y-66562500D01*
X95706889Y-66580909D01*
X95666000Y-66733509D01*
X95666000Y-66891491D01*
X95706889Y-67044091D01*
X95717518Y-67062500D01*
X95016000Y-67062500D01*
X95016000Y-67310882D01*
X95046778Y-67505205D01*
X95107581Y-67692335D01*
X95196904Y-67867643D01*
X95312555Y-68026821D01*
X95451678Y-68165944D01*
X95610856Y-68281595D01*
X95786162Y-68370918D01*
X95973283Y-68431718D01*
X96016000Y-68438484D01*
X96016000Y-67360982D01*
X96034409Y-67371611D01*
X96187009Y-67412500D01*
X96344991Y-67412500D01*
X96497591Y-67371611D01*
X96516000Y-67360982D01*
X96516000Y-68438483D01*
X96558716Y-68431718D01*
X96745837Y-68370918D01*
X96921143Y-68281595D01*
X97080321Y-68165944D01*
X97219444Y-68026821D01*
X97335095Y-67867643D01*
X97424418Y-67692335D01*
X97485221Y-67505205D01*
X97516000Y-67310882D01*
X97516000Y-67062500D01*
X96814482Y-67062500D01*
X96825111Y-67044091D01*
X96866000Y-66891491D01*
X96866000Y-66733509D01*
X96825111Y-66580909D01*
X96814482Y-66562500D01*
X97516000Y-66562500D01*
X97516000Y-66314117D01*
X97485221Y-66119794D01*
X97424418Y-65932662D01*
X97415740Y-65915631D01*
X97415739Y-65915629D01*
X97388661Y-65862484D01*
X98515500Y-65862484D01*
X98515500Y-67762515D01*
X98526000Y-67865295D01*
X98526001Y-67865297D01*
X98553593Y-67948565D01*
X98581186Y-68031835D01*
X98581187Y-68031837D01*
X98673286Y-68181151D01*
X98673289Y-68181155D01*
X98797344Y-68305210D01*
X98797348Y-68305213D01*
X98946662Y-68397312D01*
X98946664Y-68397313D01*
X98946666Y-68397314D01*
X99113203Y-68452499D01*
X99215992Y-68463000D01*
X99215997Y-68463000D01*
X100316003Y-68463000D01*
X100316008Y-68463000D01*
X100418797Y-68452499D01*
X100585334Y-68397314D01*
X100734655Y-68305211D01*
X100858711Y-68181155D01*
X100950814Y-68031834D01*
X101005999Y-67865297D01*
X101016500Y-67762508D01*
X101016500Y-65862492D01*
X101005999Y-65759703D01*
X100950814Y-65593166D01*
X100858711Y-65443845D01*
X100734655Y-65319789D01*
X100734651Y-65319786D01*
X100585337Y-65227687D01*
X100585335Y-65227686D01*
X100509886Y-65202685D01*
X100418797Y-65172501D01*
X100418795Y-65172500D01*
X100316015Y-65162000D01*
X100316008Y-65162000D01*
X99215992Y-65162000D01*
X99215984Y-65162000D01*
X99113204Y-65172500D01*
X99113203Y-65172501D01*
X98946664Y-65227686D01*
X98946662Y-65227687D01*
X98797348Y-65319786D01*
X98797344Y-65319789D01*
X98673289Y-65443844D01*
X98673286Y-65443848D01*
X98581187Y-65593162D01*
X98581186Y-65593164D01*
X98526001Y-65759703D01*
X98526000Y-65759704D01*
X98515500Y-65862484D01*
X97388661Y-65862484D01*
X97335097Y-65757358D01*
X97219444Y-65598178D01*
X97080321Y-65459055D01*
X96921143Y-65343404D01*
X96745835Y-65254081D01*
X96558705Y-65193278D01*
X96516000Y-65186514D01*
X96516000Y-66264017D01*
X96497591Y-66253389D01*
X96344991Y-66212500D01*
X96187009Y-66212500D01*
X96034409Y-66253389D01*
X96016000Y-66264017D01*
X96016000Y-65186514D01*
X96015999Y-65186514D01*
X95973294Y-65193278D01*
X95786164Y-65254081D01*
X95610856Y-65343404D01*
X95451678Y-65459055D01*
X95312555Y-65598178D01*
X95196904Y-65757356D01*
X95107581Y-65932664D01*
X95046778Y-66119794D01*
X95016000Y-66314117D01*
X92441500Y-66314117D01*
X92441500Y-65529856D01*
X92461185Y-65462817D01*
X92477815Y-65442179D01*
X92949506Y-64970487D01*
X92949511Y-64970484D01*
X92959714Y-64960280D01*
X92959716Y-64960280D01*
X93071520Y-64848476D01*
X93127220Y-64752000D01*
X93150577Y-64711545D01*
X93191500Y-64558817D01*
X93191500Y-64400703D01*
X93191500Y-63615300D01*
X93191501Y-63615287D01*
X93191501Y-63447185D01*
X93191501Y-63447183D01*
X93150577Y-63294455D01*
X93089981Y-63189500D01*
X93071520Y-63157524D01*
X92959716Y-63045720D01*
X92959713Y-63045718D01*
X92696549Y-62782554D01*
X92663064Y-62721231D01*
X92668048Y-62651539D01*
X92684961Y-62620564D01*
X92733796Y-62555331D01*
X92784091Y-62420483D01*
X92790500Y-62360873D01*
X92790499Y-60565128D01*
X92784091Y-60505517D01*
X92775273Y-60481876D01*
X92733797Y-60370671D01*
X92733793Y-60370664D01*
X92647547Y-60255455D01*
X92647544Y-60255452D01*
X92532335Y-60169206D01*
X92532330Y-60169203D01*
X92524229Y-60166182D01*
X92468296Y-60124310D01*
X92443879Y-60058846D01*
X92458731Y-59990573D01*
X92508136Y-59941168D01*
X92567563Y-59926000D01*
X103520437Y-59926000D01*
X103587476Y-59945685D01*
X103633231Y-59998489D01*
X103643175Y-60067647D01*
X103614150Y-60131203D01*
X103563771Y-60166182D01*
X103555669Y-60169203D01*
X103555664Y-60169206D01*
X103440455Y-60255452D01*
X103440452Y-60255455D01*
X103354206Y-60370664D01*
X103354202Y-60370671D01*
X103303908Y-60505517D01*
X103297501Y-60565116D01*
X103297501Y-60565123D01*
X103297500Y-60565135D01*
X103297500Y-62360870D01*
X103297501Y-62360876D01*
X103303908Y-62420483D01*
X103354202Y-62555328D01*
X103354206Y-62555335D01*
X103440452Y-62670544D01*
X103440455Y-62670547D01*
X103555664Y-62756793D01*
X103555671Y-62756797D01*
X103600618Y-62773561D01*
X103690517Y-62807091D01*
X103750127Y-62813500D01*
X103760685Y-62813499D01*
X103827723Y-62833179D01*
X103848372Y-62849818D01*
X104518591Y-63520037D01*
X104455007Y-63537075D01*
X104340993Y-63602901D01*
X104247901Y-63695993D01*
X104182075Y-63810007D01*
X104165037Y-63873591D01*
X103532728Y-63241282D01*
X103532727Y-63241282D01*
X103493380Y-63295439D01*
X103396904Y-63484782D01*
X103331242Y-63686869D01*
X103331242Y-63686872D01*
X103298000Y-63896753D01*
X103298000Y-64109246D01*
X103331242Y-64319127D01*
X103331242Y-64319130D01*
X103396904Y-64521217D01*
X103493375Y-64710550D01*
X103532728Y-64764716D01*
X104165037Y-64132408D01*
X104182075Y-64195993D01*
X104247901Y-64310007D01*
X104340993Y-64403099D01*
X104455007Y-64468925D01*
X104518590Y-64485962D01*
X103886282Y-65118269D01*
X103886282Y-65118270D01*
X103940449Y-65157624D01*
X104129782Y-65254095D01*
X104331870Y-65319757D01*
X104541754Y-65353000D01*
X104754246Y-65353000D01*
X104964127Y-65319757D01*
X104964130Y-65319757D01*
X105166217Y-65254095D01*
X105355554Y-65157622D01*
X105409716Y-65118270D01*
X105409717Y-65118270D01*
X104777408Y-64485962D01*
X104840993Y-64468925D01*
X104955007Y-64403099D01*
X105048099Y-64310007D01*
X105113925Y-64195993D01*
X105130962Y-64132409D01*
X105763270Y-64764717D01*
X105763270Y-64764716D01*
X105802622Y-64710554D01*
X105899095Y-64521217D01*
X105964757Y-64319130D01*
X105964757Y-64319127D01*
X105997795Y-64110541D01*
X107235500Y-64110541D01*
X107235500Y-64392458D01*
X107272295Y-64671939D01*
X107345259Y-64944243D01*
X107453135Y-65204679D01*
X107453140Y-65204690D01*
X107591217Y-65443845D01*
X107594088Y-65448817D01*
X107765700Y-65672465D01*
X107765704Y-65672470D01*
X107965029Y-65871795D01*
X107965033Y-65871798D01*
X107965035Y-65871800D01*
X108188683Y-66043412D01*
X108188690Y-66043416D01*
X108432809Y-66184359D01*
X108432814Y-66184361D01*
X108432817Y-66184363D01*
X108693261Y-66292242D01*
X108965558Y-66365204D01*
X109245049Y-66402000D01*
X109245056Y-66402000D01*
X109526944Y-66402000D01*
X109526951Y-66402000D01*
X109806442Y-66365204D01*
X110078739Y-66292242D01*
X110339183Y-66184363D01*
X110583317Y-66043412D01*
X110806965Y-65871800D01*
X111006300Y-65672465D01*
X111177912Y-65448817D01*
X111318863Y-65204683D01*
X111426742Y-64944239D01*
X111499704Y-64671942D01*
X111536500Y-64392451D01*
X111536500Y-64110549D01*
X111536328Y-64109246D01*
X111519728Y-63983155D01*
X111499704Y-63831058D01*
X111426742Y-63558761D01*
X111318863Y-63298317D01*
X111318861Y-63298314D01*
X111318859Y-63298309D01*
X111177916Y-63054190D01*
X111177912Y-63054183D01*
X111006300Y-62830535D01*
X111006298Y-62830533D01*
X111006295Y-62830529D01*
X110806970Y-62631204D01*
X110708096Y-62555335D01*
X110583317Y-62459588D01*
X110583311Y-62459584D01*
X110583309Y-62459583D01*
X110339190Y-62318640D01*
X110339179Y-62318635D01*
X110078743Y-62210759D01*
X109806439Y-62137795D01*
X109526958Y-62101000D01*
X109526951Y-62101000D01*
X109245049Y-62101000D01*
X109245041Y-62101000D01*
X108965560Y-62137795D01*
X108693256Y-62210759D01*
X108432820Y-62318635D01*
X108432809Y-62318640D01*
X108188690Y-62459583D01*
X108188682Y-62459589D01*
X107965029Y-62631204D01*
X107765704Y-62830529D01*
X107702311Y-62913145D01*
X107600584Y-63045718D01*
X107594089Y-63054182D01*
X107594083Y-63054190D01*
X107453140Y-63298309D01*
X107453135Y-63298320D01*
X107345259Y-63558756D01*
X107272295Y-63831060D01*
X107235500Y-64110541D01*
X105997795Y-64110541D01*
X105998000Y-64109246D01*
X105998000Y-63896753D01*
X105964757Y-63686872D01*
X105964757Y-63686869D01*
X105899095Y-63484782D01*
X105802624Y-63295449D01*
X105763270Y-63241282D01*
X105763269Y-63241282D01*
X105130962Y-63873590D01*
X105113925Y-63810007D01*
X105048099Y-63695993D01*
X104955007Y-63602901D01*
X104840993Y-63537075D01*
X104777409Y-63520037D01*
X105447627Y-62849818D01*
X105508950Y-62816333D01*
X105535307Y-62813499D01*
X105545872Y-62813499D01*
X105605483Y-62807091D01*
X105740331Y-62756796D01*
X105855546Y-62670546D01*
X105941796Y-62555331D01*
X105992091Y-62420483D01*
X105998500Y-62360873D01*
X105998499Y-60565128D01*
X105992091Y-60505517D01*
X105983273Y-60481876D01*
X105941797Y-60370671D01*
X105941793Y-60370664D01*
X105855547Y-60255455D01*
X105855544Y-60255452D01*
X105740335Y-60169206D01*
X105740330Y-60169203D01*
X105732229Y-60166182D01*
X105676296Y-60124310D01*
X105651879Y-60058846D01*
X105666731Y-59990573D01*
X105716136Y-59941168D01*
X105775563Y-59926000D01*
X109320108Y-59926000D01*
X109383128Y-59926000D01*
X109388855Y-59926132D01*
X109779390Y-59944187D01*
X109790780Y-59945243D01*
X110175141Y-59998859D01*
X110186385Y-60000961D01*
X110564158Y-60089812D01*
X110575148Y-60092939D01*
X110943133Y-60216275D01*
X110953787Y-60220403D01*
X111308806Y-60377159D01*
X111319032Y-60382251D01*
X111580593Y-60527939D01*
X111658069Y-60571094D01*
X111667807Y-60577123D01*
X111987971Y-60796439D01*
X111997111Y-60803342D01*
X112295660Y-61051254D01*
X112304124Y-61058970D01*
X112578529Y-61333375D01*
X112586245Y-61341839D01*
X112834157Y-61640388D01*
X112841060Y-61649528D01*
X113060376Y-61969692D01*
X113066405Y-61979430D01*
X113255241Y-62318453D01*
X113260344Y-62328702D01*
X113360411Y-62555331D01*
X113417091Y-62683699D01*
X113421229Y-62694379D01*
X113544556Y-63062338D01*
X113547690Y-63073354D01*
X113636536Y-63451106D01*
X113638641Y-63462365D01*
X113692255Y-63846712D01*
X113693312Y-63858116D01*
X113711368Y-64248644D01*
X113711500Y-64254371D01*
X113711500Y-104888628D01*
X113711368Y-104894355D01*
X113693312Y-105284883D01*
X113692255Y-105296287D01*
X113638641Y-105680634D01*
X113636536Y-105691893D01*
X113547690Y-106069645D01*
X113544556Y-106080661D01*
X113421229Y-106448620D01*
X113417091Y-106459300D01*
X113260346Y-106814293D01*
X113255241Y-106824546D01*
X113066405Y-107163569D01*
X113060376Y-107173307D01*
X112841060Y-107493471D01*
X112834157Y-107502611D01*
X112586245Y-107801160D01*
X112578529Y-107809624D01*
X112304124Y-108084029D01*
X112295660Y-108091745D01*
X111997111Y-108339657D01*
X111987971Y-108346560D01*
X111667807Y-108565876D01*
X111658069Y-108571905D01*
X111319046Y-108760741D01*
X111308793Y-108765846D01*
X110953800Y-108922591D01*
X110943120Y-108926729D01*
X110575161Y-109050056D01*
X110564145Y-109053190D01*
X110186393Y-109142036D01*
X110175134Y-109144141D01*
X109790787Y-109197755D01*
X109779383Y-109198812D01*
X109388855Y-109216868D01*
X109383128Y-109217000D01*
X86528872Y-109217000D01*
X86523145Y-109216868D01*
X86132616Y-109198812D01*
X86121212Y-109197755D01*
X85736865Y-109144141D01*
X85725606Y-109142036D01*
X85347854Y-109053190D01*
X85336838Y-109050056D01*
X84968879Y-108926729D01*
X84958199Y-108922591D01*
X84603206Y-108765846D01*
X84592958Y-108760743D01*
X84481297Y-108698548D01*
X84253930Y-108571905D01*
X84244192Y-108565876D01*
X83924028Y-108346560D01*
X83914888Y-108339657D01*
X83616339Y-108091745D01*
X83607875Y-108084029D01*
X83333470Y-107809624D01*
X83325754Y-107801160D01*
X83077842Y-107502611D01*
X83070939Y-107493471D01*
X82851623Y-107173307D01*
X82845594Y-107163569D01*
X82777880Y-107042000D01*
X82656751Y-106824532D01*
X82651659Y-106814306D01*
X82494903Y-106459287D01*
X82490775Y-106448633D01*
X82367439Y-106080648D01*
X82364312Y-106069658D01*
X82275461Y-105691885D01*
X82273358Y-105680634D01*
X82262980Y-105606238D01*
X82219743Y-105296280D01*
X82218687Y-105284883D01*
X82214934Y-105203714D01*
X82200632Y-104894355D01*
X82200500Y-104888628D01*
X82200500Y-104750541D01*
X84375500Y-104750541D01*
X84375500Y-105032458D01*
X84412295Y-105311939D01*
X84485259Y-105584243D01*
X84593135Y-105844679D01*
X84593140Y-105844690D01*
X84723019Y-106069645D01*
X84734088Y-106088817D01*
X84905700Y-106312465D01*
X84905704Y-106312470D01*
X85105029Y-106511795D01*
X85105033Y-106511798D01*
X85105035Y-106511800D01*
X85328683Y-106683412D01*
X85328690Y-106683416D01*
X85572809Y-106824359D01*
X85572814Y-106824361D01*
X85572817Y-106824363D01*
X85833261Y-106932242D01*
X86105558Y-107005204D01*
X86385049Y-107042000D01*
X86385056Y-107042000D01*
X86666944Y-107042000D01*
X86666951Y-107042000D01*
X86946442Y-107005204D01*
X87218739Y-106932242D01*
X87479183Y-106824363D01*
X87723317Y-106683412D01*
X87946965Y-106511800D01*
X88146300Y-106312465D01*
X88317912Y-106088817D01*
X88458863Y-105844683D01*
X88566742Y-105584239D01*
X88639704Y-105311942D01*
X88676500Y-105032451D01*
X88676500Y-104750549D01*
X88639704Y-104471058D01*
X88583743Y-104262211D01*
X89755500Y-104262211D01*
X89755500Y-104504788D01*
X89787161Y-104745285D01*
X89849947Y-104979604D01*
X89871840Y-105032458D01*
X89942776Y-105203712D01*
X90064064Y-105413789D01*
X90064066Y-105413792D01*
X90064067Y-105413793D01*
X90211733Y-105606236D01*
X90211739Y-105606243D01*
X90383256Y-105777760D01*
X90383263Y-105777766D01*
X90496321Y-105864518D01*
X90575711Y-105925436D01*
X90785788Y-106046724D01*
X91009900Y-106139554D01*
X91244211Y-106202338D01*
X91424586Y-106226084D01*
X91484711Y-106234000D01*
X91484712Y-106234000D01*
X91727289Y-106234000D01*
X91775388Y-106227667D01*
X91967789Y-106202338D01*
X92202100Y-106139554D01*
X92426212Y-106046724D01*
X92636289Y-105925436D01*
X92828738Y-105777765D01*
X93000265Y-105606238D01*
X93147936Y-105413789D01*
X93269224Y-105203712D01*
X93362054Y-104979600D01*
X93424838Y-104745289D01*
X93456500Y-104504788D01*
X93456500Y-104262212D01*
X93456500Y-104262211D01*
X102455500Y-104262211D01*
X102455500Y-104504788D01*
X102487161Y-104745285D01*
X102549947Y-104979604D01*
X102571840Y-105032458D01*
X102642776Y-105203712D01*
X102764064Y-105413789D01*
X102764066Y-105413792D01*
X102764067Y-105413793D01*
X102911733Y-105606236D01*
X102911739Y-105606243D01*
X103083256Y-105777760D01*
X103083263Y-105777766D01*
X103196321Y-105864518D01*
X103275711Y-105925436D01*
X103485788Y-106046724D01*
X103709900Y-106139554D01*
X103944211Y-106202338D01*
X104124586Y-106226084D01*
X104184711Y-106234000D01*
X104184712Y-106234000D01*
X104427289Y-106234000D01*
X104475388Y-106227667D01*
X104667789Y-106202338D01*
X104902100Y-106139554D01*
X105126212Y-106046724D01*
X105336289Y-105925436D01*
X105528738Y-105777765D01*
X105700265Y-105606238D01*
X105847936Y-105413789D01*
X105969224Y-105203712D01*
X106062054Y-104979600D01*
X106123431Y-104750541D01*
X107235500Y-104750541D01*
X107235500Y-105032458D01*
X107272295Y-105311939D01*
X107345259Y-105584243D01*
X107453135Y-105844679D01*
X107453140Y-105844690D01*
X107583019Y-106069645D01*
X107594088Y-106088817D01*
X107765700Y-106312465D01*
X107765704Y-106312470D01*
X107965029Y-106511795D01*
X107965033Y-106511798D01*
X107965035Y-106511800D01*
X108188683Y-106683412D01*
X108188690Y-106683416D01*
X108432809Y-106824359D01*
X108432814Y-106824361D01*
X108432817Y-106824363D01*
X108693261Y-106932242D01*
X108965558Y-107005204D01*
X109245049Y-107042000D01*
X109245056Y-107042000D01*
X109526944Y-107042000D01*
X109526951Y-107042000D01*
X109806442Y-107005204D01*
X110078739Y-106932242D01*
X110339183Y-106824363D01*
X110583317Y-106683412D01*
X110806965Y-106511800D01*
X111006300Y-106312465D01*
X111177912Y-106088817D01*
X111318863Y-105844683D01*
X111426742Y-105584239D01*
X111499704Y-105311942D01*
X111536500Y-105032451D01*
X111536500Y-104750549D01*
X111499704Y-104471058D01*
X111426742Y-104198761D01*
X111318863Y-103938317D01*
X111318861Y-103938314D01*
X111318859Y-103938309D01*
X111177916Y-103694190D01*
X111177912Y-103694183D01*
X111006300Y-103470535D01*
X111006298Y-103470533D01*
X111006295Y-103470529D01*
X110806970Y-103271204D01*
X110663041Y-103160763D01*
X110583317Y-103099588D01*
X110583311Y-103099584D01*
X110583309Y-103099583D01*
X110339190Y-102958640D01*
X110339179Y-102958635D01*
X110078743Y-102850759D01*
X109806439Y-102777795D01*
X109526958Y-102741000D01*
X109526951Y-102741000D01*
X109245049Y-102741000D01*
X109245041Y-102741000D01*
X108965560Y-102777795D01*
X108693256Y-102850759D01*
X108432820Y-102958635D01*
X108432809Y-102958640D01*
X108188690Y-103099583D01*
X108188682Y-103099589D01*
X107965029Y-103271204D01*
X107765704Y-103470529D01*
X107594089Y-103694182D01*
X107594083Y-103694190D01*
X107453140Y-103938309D01*
X107453135Y-103938320D01*
X107345259Y-104198756D01*
X107272295Y-104471060D01*
X107235500Y-104750541D01*
X106123431Y-104750541D01*
X106124838Y-104745289D01*
X106156500Y-104504788D01*
X106156500Y-104262212D01*
X106124838Y-104021711D01*
X106062054Y-103787400D01*
X105969224Y-103563288D01*
X105847936Y-103353211D01*
X105700265Y-103160762D01*
X105700260Y-103160756D01*
X105528743Y-102989239D01*
X105528736Y-102989233D01*
X105336293Y-102841567D01*
X105336292Y-102841566D01*
X105336289Y-102841564D01*
X105126212Y-102720276D01*
X105126205Y-102720273D01*
X104902104Y-102627447D01*
X104667785Y-102564661D01*
X104427289Y-102533000D01*
X104427288Y-102533000D01*
X104184712Y-102533000D01*
X104184711Y-102533000D01*
X103944214Y-102564661D01*
X103709895Y-102627447D01*
X103485794Y-102720273D01*
X103485785Y-102720277D01*
X103275706Y-102841567D01*
X103083263Y-102989233D01*
X103083256Y-102989239D01*
X102911739Y-103160756D01*
X102911733Y-103160763D01*
X102764067Y-103353206D01*
X102642777Y-103563285D01*
X102642773Y-103563294D01*
X102549947Y-103787395D01*
X102487161Y-104021714D01*
X102455500Y-104262211D01*
X93456500Y-104262211D01*
X93424838Y-104021711D01*
X93362054Y-103787400D01*
X93269224Y-103563288D01*
X93147936Y-103353211D01*
X93000265Y-103160762D01*
X93000260Y-103160756D01*
X92828743Y-102989239D01*
X92828736Y-102989233D01*
X92636293Y-102841567D01*
X92636292Y-102841566D01*
X92636289Y-102841564D01*
X92426212Y-102720276D01*
X92426205Y-102720273D01*
X92202104Y-102627447D01*
X91967785Y-102564661D01*
X91727289Y-102533000D01*
X91727288Y-102533000D01*
X91484712Y-102533000D01*
X91484711Y-102533000D01*
X91244214Y-102564661D01*
X91009895Y-102627447D01*
X90785794Y-102720273D01*
X90785785Y-102720277D01*
X90575706Y-102841567D01*
X90383263Y-102989233D01*
X90383256Y-102989239D01*
X90211739Y-103160756D01*
X90211733Y-103160763D01*
X90064067Y-103353206D01*
X89942777Y-103563285D01*
X89942773Y-103563294D01*
X89849947Y-103787395D01*
X89787161Y-104021714D01*
X89755500Y-104262211D01*
X88583743Y-104262211D01*
X88566742Y-104198761D01*
X88458863Y-103938317D01*
X88458861Y-103938314D01*
X88458859Y-103938309D01*
X88317916Y-103694190D01*
X88317912Y-103694183D01*
X88146300Y-103470535D01*
X88146298Y-103470533D01*
X88146295Y-103470529D01*
X87946970Y-103271204D01*
X87803041Y-103160763D01*
X87723317Y-103099588D01*
X87723311Y-103099584D01*
X87723309Y-103099583D01*
X87479190Y-102958640D01*
X87479179Y-102958635D01*
X87218743Y-102850759D01*
X86946439Y-102777795D01*
X86666958Y-102741000D01*
X86666951Y-102741000D01*
X86385049Y-102741000D01*
X86385041Y-102741000D01*
X86105560Y-102777795D01*
X85833256Y-102850759D01*
X85572820Y-102958635D01*
X85572809Y-102958640D01*
X85328690Y-103099583D01*
X85328682Y-103099589D01*
X85105029Y-103271204D01*
X84905704Y-103470529D01*
X84734089Y-103694182D01*
X84734083Y-103694190D01*
X84593140Y-103938309D01*
X84593135Y-103938320D01*
X84485259Y-104198756D01*
X84412295Y-104471060D01*
X84375500Y-104750541D01*
X82200500Y-104750541D01*
X82200500Y-100842075D01*
X88131000Y-100842075D01*
X88131000Y-101064924D01*
X88160085Y-101285854D01*
X88160088Y-101285867D01*
X88217763Y-101501118D01*
X88303045Y-101707002D01*
X88303054Y-101707020D01*
X88414464Y-101899991D01*
X88414473Y-101900004D01*
X88465040Y-101965903D01*
X88465043Y-101965903D01*
X89115152Y-101315793D01*
X89122049Y-101332442D01*
X89209599Y-101463470D01*
X89321030Y-101574901D01*
X89452058Y-101662451D01*
X89468705Y-101669346D01*
X88818595Y-102319455D01*
X88818595Y-102319456D01*
X88884507Y-102370033D01*
X89077485Y-102481449D01*
X89077497Y-102481454D01*
X89283381Y-102566736D01*
X89498632Y-102624411D01*
X89498645Y-102624414D01*
X89719575Y-102653500D01*
X89942425Y-102653500D01*
X90163354Y-102624414D01*
X90163367Y-102624411D01*
X90378618Y-102566736D01*
X90584502Y-102481454D01*
X90584514Y-102481449D01*
X90777498Y-102370030D01*
X90843403Y-102319457D01*
X90843404Y-102319456D01*
X90193294Y-101669346D01*
X90209942Y-101662451D01*
X90340970Y-101574901D01*
X90452401Y-101463470D01*
X90539951Y-101332442D01*
X90546846Y-101315794D01*
X91196956Y-101965904D01*
X91196957Y-101965903D01*
X91247530Y-101899998D01*
X91358949Y-101707014D01*
X91358954Y-101707002D01*
X91444236Y-101501118D01*
X91501911Y-101285867D01*
X91501914Y-101285854D01*
X91531000Y-101064924D01*
X91531000Y-100842075D01*
X91501914Y-100621145D01*
X91501911Y-100621132D01*
X91444236Y-100405881D01*
X91358954Y-100199997D01*
X91358949Y-100199985D01*
X91247533Y-100007007D01*
X91196956Y-99941095D01*
X91196955Y-99941095D01*
X90546846Y-100591204D01*
X90539951Y-100574558D01*
X90452401Y-100443530D01*
X90340970Y-100332099D01*
X90209942Y-100244549D01*
X90193293Y-100237652D01*
X90843403Y-99587543D01*
X90843403Y-99587540D01*
X90777504Y-99536973D01*
X90777491Y-99536964D01*
X90584520Y-99425554D01*
X90584502Y-99425545D01*
X90378618Y-99340263D01*
X90163367Y-99282588D01*
X90163354Y-99282585D01*
X89942425Y-99253500D01*
X89719575Y-99253500D01*
X89498645Y-99282585D01*
X89498632Y-99282588D01*
X89283381Y-99340263D01*
X89077497Y-99425545D01*
X89077479Y-99425554D01*
X88884511Y-99536962D01*
X88818595Y-99587542D01*
X89468706Y-100237652D01*
X89452058Y-100244549D01*
X89321030Y-100332099D01*
X89209599Y-100443530D01*
X89122049Y-100574558D01*
X89115153Y-100591206D01*
X88465042Y-99941095D01*
X88414462Y-100007011D01*
X88303054Y-100199979D01*
X88303045Y-100199997D01*
X88217763Y-100405881D01*
X88160088Y-100621132D01*
X88160085Y-100621145D01*
X88131000Y-100842075D01*
X82200500Y-100842075D01*
X82200500Y-95148699D01*
X89891500Y-95148699D01*
X89891500Y-95338300D01*
X89921157Y-95525550D01*
X89921158Y-95525555D01*
X89951000Y-95617398D01*
X89979747Y-95705872D01*
X90038528Y-95821234D01*
X90065819Y-95874796D01*
X90177259Y-96028179D01*
X90311321Y-96162241D01*
X90464704Y-96273681D01*
X90544515Y-96314346D01*
X90633627Y-96359752D01*
X90633629Y-96359752D01*
X90633632Y-96359754D01*
X90813945Y-96418342D01*
X90907574Y-96433171D01*
X91001200Y-96448000D01*
X91001204Y-96448000D01*
X91190800Y-96448000D01*
X91274022Y-96434818D01*
X91378055Y-96418342D01*
X91558368Y-96359754D01*
X91727296Y-96273681D01*
X91880679Y-96162241D01*
X92014741Y-96028179D01*
X92126181Y-95874796D01*
X92130514Y-95866292D01*
X92178487Y-95815495D01*
X92246308Y-95798698D01*
X92312443Y-95821234D01*
X92351486Y-95866292D01*
X92355819Y-95874796D01*
X92467259Y-96028179D01*
X92601321Y-96162241D01*
X92754704Y-96273681D01*
X92834515Y-96314346D01*
X92923627Y-96359752D01*
X92923629Y-96359752D01*
X92923632Y-96359754D01*
X93103945Y-96418342D01*
X93197574Y-96433171D01*
X93291200Y-96448000D01*
X93291204Y-96448000D01*
X93480800Y-96448000D01*
X93564022Y-96434818D01*
X93668055Y-96418342D01*
X93848368Y-96359754D01*
X94017296Y-96273681D01*
X94170679Y-96162241D01*
X94304741Y-96028179D01*
X94416181Y-95874796D01*
X94502254Y-95705868D01*
X94560842Y-95525555D01*
X94577318Y-95421522D01*
X94590500Y-95338300D01*
X94590500Y-95148699D01*
X94574023Y-95044671D01*
X94560842Y-94961445D01*
X94502254Y-94781132D01*
X94502252Y-94781129D01*
X94502252Y-94781127D01*
X94446397Y-94671506D01*
X94416181Y-94612204D01*
X94304741Y-94458821D01*
X94170679Y-94324759D01*
X94017296Y-94213319D01*
X93848372Y-94127247D01*
X93789905Y-94108250D01*
X93668055Y-94068658D01*
X93668051Y-94068657D01*
X93668050Y-94068657D01*
X93480800Y-94039000D01*
X93480796Y-94039000D01*
X93291204Y-94039000D01*
X93291200Y-94039000D01*
X93103949Y-94068657D01*
X93103946Y-94068657D01*
X93103945Y-94068658D01*
X93045482Y-94087653D01*
X92923627Y-94127247D01*
X92754703Y-94213319D01*
X92601319Y-94324760D01*
X92467260Y-94458819D01*
X92355817Y-94612206D01*
X92351484Y-94620711D01*
X92303510Y-94671506D01*
X92235689Y-94688301D01*
X92169554Y-94665763D01*
X92130516Y-94620711D01*
X92126182Y-94612206D01*
X92126180Y-94612203D01*
X92014741Y-94458821D01*
X91880679Y-94324759D01*
X91727296Y-94213319D01*
X91558372Y-94127247D01*
X91499905Y-94108250D01*
X91378055Y-94068658D01*
X91378051Y-94068657D01*
X91378050Y-94068657D01*
X91190800Y-94039000D01*
X91190796Y-94039000D01*
X91001204Y-94039000D01*
X91001200Y-94039000D01*
X90813949Y-94068657D01*
X90813946Y-94068657D01*
X90813945Y-94068658D01*
X90755482Y-94087653D01*
X90633627Y-94127247D01*
X90464703Y-94213319D01*
X90311319Y-94324760D01*
X90177260Y-94458819D01*
X90065819Y-94612203D01*
X89979747Y-94781127D01*
X89921157Y-94961449D01*
X89891500Y-95148699D01*
X82200500Y-95148699D01*
X82200500Y-91337682D01*
X94204000Y-91337682D01*
X94204000Y-91542317D01*
X94236009Y-91744417D01*
X94299244Y-91939031D01*
X94392141Y-92121350D01*
X94392147Y-92121359D01*
X94424523Y-92165921D01*
X94424524Y-92165922D01*
X95104000Y-91486446D01*
X95104000Y-91492661D01*
X95131259Y-91594394D01*
X95183920Y-91685606D01*
X95258394Y-91760080D01*
X95349606Y-91812741D01*
X95451339Y-91840000D01*
X95457553Y-91840000D01*
X94778076Y-92519474D01*
X94822650Y-92551859D01*
X95004968Y-92644755D01*
X95199582Y-92707990D01*
X95401683Y-92740000D01*
X95606317Y-92740000D01*
X95808417Y-92707990D01*
X96003031Y-92644755D01*
X96185349Y-92551859D01*
X96229921Y-92519474D01*
X95550447Y-91840000D01*
X95556661Y-91840000D01*
X95658394Y-91812741D01*
X95749606Y-91760080D01*
X95824080Y-91685606D01*
X95876741Y-91594394D01*
X95904000Y-91492661D01*
X95904000Y-91486447D01*
X96583474Y-92165921D01*
X96615859Y-92121349D01*
X96708755Y-91939031D01*
X96771990Y-91744417D01*
X96804000Y-91542317D01*
X96804000Y-91337682D01*
X96771990Y-91135582D01*
X96708755Y-90940968D01*
X96615859Y-90758650D01*
X96583474Y-90714077D01*
X96583474Y-90714076D01*
X95904000Y-91393551D01*
X95904000Y-91387339D01*
X95876741Y-91285606D01*
X95824080Y-91194394D01*
X95749606Y-91119920D01*
X95658394Y-91067259D01*
X95556661Y-91040000D01*
X95550446Y-91040000D01*
X96229922Y-90360524D01*
X96229921Y-90360523D01*
X96185359Y-90328147D01*
X96185350Y-90328141D01*
X96003031Y-90235244D01*
X95808417Y-90172009D01*
X95606317Y-90140000D01*
X95401683Y-90140000D01*
X95199582Y-90172009D01*
X95004968Y-90235244D01*
X94822644Y-90328143D01*
X94778077Y-90360523D01*
X94778077Y-90360524D01*
X95457554Y-91040000D01*
X95451339Y-91040000D01*
X95349606Y-91067259D01*
X95258394Y-91119920D01*
X95183920Y-91194394D01*
X95131259Y-91285606D01*
X95104000Y-91387339D01*
X95104000Y-91393553D01*
X94424524Y-90714077D01*
X94424523Y-90714077D01*
X94392143Y-90758644D01*
X94299244Y-90940968D01*
X94236009Y-91135582D01*
X94204000Y-91337682D01*
X82200500Y-91337682D01*
X82200500Y-83681982D01*
X90093500Y-83681982D01*
X90093500Y-85482017D01*
X90104000Y-85584796D01*
X90159185Y-85751332D01*
X90159186Y-85751335D01*
X90251288Y-85900656D01*
X90375344Y-86024712D01*
X90524665Y-86116814D01*
X90691202Y-86171999D01*
X90793990Y-86182500D01*
X90793995Y-86182500D01*
X92594005Y-86182500D01*
X92594010Y-86182500D01*
X92696798Y-86171999D01*
X92863335Y-86116814D01*
X93012656Y-86024712D01*
X93136712Y-85900656D01*
X93228814Y-85751335D01*
X93283999Y-85584798D01*
X93294500Y-85482010D01*
X93294500Y-83681990D01*
X93283999Y-83579202D01*
X93228814Y-83412665D01*
X93136712Y-83263344D01*
X93012656Y-83139288D01*
X92863335Y-83047186D01*
X92696798Y-82992001D01*
X92696796Y-82992000D01*
X92594017Y-82981500D01*
X92594010Y-82981500D01*
X90793990Y-82981500D01*
X90793982Y-82981500D01*
X90691203Y-82992000D01*
X90691202Y-82992001D01*
X90608669Y-83019349D01*
X90524667Y-83047185D01*
X90524662Y-83047187D01*
X90375342Y-83139289D01*
X90251289Y-83263342D01*
X90159187Y-83412662D01*
X90159186Y-83412665D01*
X90104001Y-83579202D01*
X90104001Y-83579203D01*
X90104000Y-83579203D01*
X90093500Y-83681982D01*
X82200500Y-83681982D01*
X82200500Y-64254371D01*
X82200632Y-64248644D01*
X82207017Y-64110541D01*
X84375500Y-64110541D01*
X84375500Y-64392458D01*
X84412295Y-64671939D01*
X84485259Y-64944243D01*
X84593135Y-65204679D01*
X84593140Y-65204690D01*
X84731217Y-65443845D01*
X84734088Y-65448817D01*
X84905700Y-65672465D01*
X84905704Y-65672470D01*
X85105029Y-65871795D01*
X85105033Y-65871798D01*
X85105035Y-65871800D01*
X85328683Y-66043412D01*
X85328690Y-66043416D01*
X85572809Y-66184359D01*
X85572814Y-66184361D01*
X85572817Y-66184363D01*
X85833261Y-66292242D01*
X86105558Y-66365204D01*
X86385049Y-66402000D01*
X86385056Y-66402000D01*
X86666944Y-66402000D01*
X86666951Y-66402000D01*
X86946442Y-66365204D01*
X87218739Y-66292242D01*
X87479183Y-66184363D01*
X87723317Y-66043412D01*
X87946965Y-65871800D01*
X88146300Y-65672465D01*
X88317912Y-65448817D01*
X88458863Y-65204683D01*
X88566742Y-64944239D01*
X88639704Y-64671942D01*
X88676500Y-64392451D01*
X88676500Y-64110549D01*
X88676328Y-64109246D01*
X88659728Y-63983155D01*
X88639704Y-63831058D01*
X88566742Y-63558761D01*
X88458863Y-63298317D01*
X88458861Y-63298314D01*
X88458859Y-63298309D01*
X88317916Y-63054190D01*
X88317912Y-63054183D01*
X88146300Y-62830535D01*
X88146298Y-62830533D01*
X88146295Y-62830529D01*
X87946970Y-62631204D01*
X87848096Y-62555335D01*
X87723317Y-62459588D01*
X87723311Y-62459584D01*
X87723309Y-62459583D01*
X87479190Y-62318640D01*
X87479179Y-62318635D01*
X87218743Y-62210759D01*
X86946439Y-62137795D01*
X86666958Y-62101000D01*
X86666951Y-62101000D01*
X86385049Y-62101000D01*
X86385041Y-62101000D01*
X86105560Y-62137795D01*
X85833256Y-62210759D01*
X85572820Y-62318635D01*
X85572809Y-62318640D01*
X85328690Y-62459583D01*
X85328682Y-62459589D01*
X85105029Y-62631204D01*
X84905704Y-62830529D01*
X84842311Y-62913145D01*
X84740584Y-63045718D01*
X84734089Y-63054182D01*
X84734083Y-63054190D01*
X84593140Y-63298309D01*
X84593135Y-63298320D01*
X84485259Y-63558756D01*
X84412295Y-63831060D01*
X84375500Y-64110541D01*
X82207017Y-64110541D01*
X82207469Y-64100763D01*
X82218687Y-63858116D01*
X82219744Y-63846712D01*
X82273360Y-63462354D01*
X82275460Y-63451117D01*
X82364314Y-63073335D01*
X82367437Y-63062356D01*
X82490777Y-62694358D01*
X82494900Y-62683719D01*
X82651663Y-62328684D01*
X82656746Y-62318475D01*
X82845597Y-61979424D01*
X82851623Y-61969692D01*
X83070949Y-61649513D01*
X83077831Y-61640401D01*
X83325765Y-61341826D01*
X83333459Y-61333386D01*
X83607886Y-61058959D01*
X83616326Y-61051265D01*
X83914901Y-60803331D01*
X83924013Y-60796449D01*
X84244197Y-60577119D01*
X84253924Y-60571097D01*
X84592975Y-60382246D01*
X84603184Y-60377163D01*
X84958219Y-60220400D01*
X84968858Y-60216277D01*
X85336856Y-60092937D01*
X85347835Y-60089814D01*
X85725617Y-60000960D01*
X85736854Y-59998860D01*
X86121221Y-59945243D01*
X86132607Y-59944187D01*
X86523145Y-59926132D01*
X86528872Y-59926000D01*
X86591892Y-59926000D01*
X90312437Y-59926000D01*
X90379476Y-59945685D01*
G37*
%TD.AperFunction*%
%TD*%
M02*
