%TF.GenerationSoftware,KiCad,Pcbnew,9.0.2*%
%TF.CreationDate,2025-11-18T17:18:59+08:00*%
%TF.ProjectId,swerve-hub,73776572-7665-42d6-9875-622e6b696361,rev?*%
%TF.SameCoordinates,Original*%
%TF.FileFunction,Legend,Top*%
%TF.FilePolarity,Positive*%
%FSLAX46Y46*%
G04 Gerber Fmt 4.6, Leading zero omitted, Abs format (unit mm)*
G04 Created by KiCad (PCBNEW 9.0.2) date 2025-11-18 17:18:59*
%MOMM*%
%LPD*%
G01*
G04 APERTURE LIST*
%ADD10C,0.100000*%
%ADD11C,0.150000*%
%ADD12C,0.120000*%
%ADD13C,0.127000*%
%ADD14C,0.200000*%
G04 APERTURE END LIST*
D10*
X88484836Y-62201657D02*
X88446741Y-62163561D01*
X88446741Y-62163561D02*
X88370550Y-62049276D01*
X88370550Y-62049276D02*
X88332455Y-61973085D01*
X88332455Y-61973085D02*
X88294360Y-61858800D01*
X88294360Y-61858800D02*
X88256265Y-61668323D01*
X88256265Y-61668323D02*
X88256265Y-61515942D01*
X88256265Y-61515942D02*
X88294360Y-61325466D01*
X88294360Y-61325466D02*
X88332455Y-61211180D01*
X88332455Y-61211180D02*
X88370550Y-61134990D01*
X88370550Y-61134990D02*
X88446741Y-61020704D01*
X88446741Y-61020704D02*
X88484836Y-60982609D01*
X89208645Y-61134990D02*
X89132455Y-61096895D01*
X89132455Y-61096895D02*
X89018169Y-61096895D01*
X89018169Y-61096895D02*
X88903883Y-61134990D01*
X88903883Y-61134990D02*
X88827693Y-61211180D01*
X88827693Y-61211180D02*
X88789598Y-61287371D01*
X88789598Y-61287371D02*
X88751502Y-61439752D01*
X88751502Y-61439752D02*
X88751502Y-61554038D01*
X88751502Y-61554038D02*
X88789598Y-61706419D01*
X88789598Y-61706419D02*
X88827693Y-61782609D01*
X88827693Y-61782609D02*
X88903883Y-61858800D01*
X88903883Y-61858800D02*
X89018169Y-61896895D01*
X89018169Y-61896895D02*
X89094360Y-61896895D01*
X89094360Y-61896895D02*
X89208645Y-61858800D01*
X89208645Y-61858800D02*
X89246741Y-61820704D01*
X89246741Y-61820704D02*
X89246741Y-61554038D01*
X89246741Y-61554038D02*
X89094360Y-61554038D01*
X89513407Y-62201657D02*
X89551502Y-62163561D01*
X89551502Y-62163561D02*
X89627693Y-62049276D01*
X89627693Y-62049276D02*
X89665788Y-61973085D01*
X89665788Y-61973085D02*
X89703883Y-61858800D01*
X89703883Y-61858800D02*
X89741979Y-61668323D01*
X89741979Y-61668323D02*
X89741979Y-61515942D01*
X89741979Y-61515942D02*
X89703883Y-61325466D01*
X89703883Y-61325466D02*
X89665788Y-61211180D01*
X89665788Y-61211180D02*
X89627693Y-61134990D01*
X89627693Y-61134990D02*
X89551502Y-61020704D01*
X89551502Y-61020704D02*
X89513407Y-60982609D01*
X95875312Y-59934990D02*
X95799122Y-59896895D01*
X95799122Y-59896895D02*
X95684836Y-59896895D01*
X95684836Y-59896895D02*
X95570550Y-59934990D01*
X95570550Y-59934990D02*
X95494360Y-60011180D01*
X95494360Y-60011180D02*
X95456265Y-60087371D01*
X95456265Y-60087371D02*
X95418169Y-60239752D01*
X95418169Y-60239752D02*
X95418169Y-60354038D01*
X95418169Y-60354038D02*
X95456265Y-60506419D01*
X95456265Y-60506419D02*
X95494360Y-60582609D01*
X95494360Y-60582609D02*
X95570550Y-60658800D01*
X95570550Y-60658800D02*
X95684836Y-60696895D01*
X95684836Y-60696895D02*
X95761027Y-60696895D01*
X95761027Y-60696895D02*
X95875312Y-60658800D01*
X95875312Y-60658800D02*
X95913408Y-60620704D01*
X95913408Y-60620704D02*
X95913408Y-60354038D01*
X95913408Y-60354038D02*
X95761027Y-60354038D01*
X96256265Y-60696895D02*
X96256265Y-59896895D01*
X96256265Y-59896895D02*
X96713408Y-60696895D01*
X96713408Y-60696895D02*
X96713408Y-59896895D01*
X97094360Y-60696895D02*
X97094360Y-59896895D01*
X97094360Y-59896895D02*
X97284836Y-59896895D01*
X97284836Y-59896895D02*
X97399122Y-59934990D01*
X97399122Y-59934990D02*
X97475312Y-60011180D01*
X97475312Y-60011180D02*
X97513407Y-60087371D01*
X97513407Y-60087371D02*
X97551503Y-60239752D01*
X97551503Y-60239752D02*
X97551503Y-60354038D01*
X97551503Y-60354038D02*
X97513407Y-60506419D01*
X97513407Y-60506419D02*
X97475312Y-60582609D01*
X97475312Y-60582609D02*
X97399122Y-60658800D01*
X97399122Y-60658800D02*
X97284836Y-60696895D01*
X97284836Y-60696895D02*
X97094360Y-60696895D01*
X104053312Y-65682990D02*
X103977122Y-65644895D01*
X103977122Y-65644895D02*
X103862836Y-65644895D01*
X103862836Y-65644895D02*
X103748550Y-65682990D01*
X103748550Y-65682990D02*
X103672360Y-65759180D01*
X103672360Y-65759180D02*
X103634265Y-65835371D01*
X103634265Y-65835371D02*
X103596169Y-65987752D01*
X103596169Y-65987752D02*
X103596169Y-66102038D01*
X103596169Y-66102038D02*
X103634265Y-66254419D01*
X103634265Y-66254419D02*
X103672360Y-66330609D01*
X103672360Y-66330609D02*
X103748550Y-66406800D01*
X103748550Y-66406800D02*
X103862836Y-66444895D01*
X103862836Y-66444895D02*
X103939027Y-66444895D01*
X103939027Y-66444895D02*
X104053312Y-66406800D01*
X104053312Y-66406800D02*
X104091408Y-66368704D01*
X104091408Y-66368704D02*
X104091408Y-66102038D01*
X104091408Y-66102038D02*
X103939027Y-66102038D01*
X104434265Y-66444895D02*
X104434265Y-65644895D01*
X104434265Y-65644895D02*
X104891408Y-66444895D01*
X104891408Y-66444895D02*
X104891408Y-65644895D01*
X105272360Y-66444895D02*
X105272360Y-65644895D01*
X105272360Y-65644895D02*
X105462836Y-65644895D01*
X105462836Y-65644895D02*
X105577122Y-65682990D01*
X105577122Y-65682990D02*
X105653312Y-65759180D01*
X105653312Y-65759180D02*
X105691407Y-65835371D01*
X105691407Y-65835371D02*
X105729503Y-65987752D01*
X105729503Y-65987752D02*
X105729503Y-66102038D01*
X105729503Y-66102038D02*
X105691407Y-66254419D01*
X105691407Y-66254419D02*
X105653312Y-66330609D01*
X105653312Y-66330609D02*
X105577122Y-66406800D01*
X105577122Y-66406800D02*
X105462836Y-66444895D01*
X105462836Y-66444895D02*
X105272360Y-66444895D01*
X100075312Y-60596895D02*
X99618169Y-60596895D01*
X99846741Y-60596895D02*
X99846741Y-59796895D01*
X99846741Y-59796895D02*
X99770550Y-59911180D01*
X99770550Y-59911180D02*
X99694360Y-59987371D01*
X99694360Y-59987371D02*
X99618169Y-60025466D01*
X100380074Y-59873085D02*
X100418170Y-59834990D01*
X100418170Y-59834990D02*
X100494360Y-59796895D01*
X100494360Y-59796895D02*
X100684836Y-59796895D01*
X100684836Y-59796895D02*
X100761027Y-59834990D01*
X100761027Y-59834990D02*
X100799122Y-59873085D01*
X100799122Y-59873085D02*
X100837217Y-59949276D01*
X100837217Y-59949276D02*
X100837217Y-60025466D01*
X100837217Y-60025466D02*
X100799122Y-60139752D01*
X100799122Y-60139752D02*
X100341979Y-60596895D01*
X100341979Y-60596895D02*
X100837217Y-60596895D01*
X101103884Y-60063561D02*
X101294360Y-60596895D01*
X101294360Y-60596895D02*
X101484837Y-60063561D01*
X106847312Y-61872895D02*
X106390169Y-61872895D01*
X106618741Y-61872895D02*
X106618741Y-61072895D01*
X106618741Y-61072895D02*
X106542550Y-61187180D01*
X106542550Y-61187180D02*
X106466360Y-61263371D01*
X106466360Y-61263371D02*
X106390169Y-61301466D01*
X107152074Y-61149085D02*
X107190170Y-61110990D01*
X107190170Y-61110990D02*
X107266360Y-61072895D01*
X107266360Y-61072895D02*
X107456836Y-61072895D01*
X107456836Y-61072895D02*
X107533027Y-61110990D01*
X107533027Y-61110990D02*
X107571122Y-61149085D01*
X107571122Y-61149085D02*
X107609217Y-61225276D01*
X107609217Y-61225276D02*
X107609217Y-61301466D01*
X107609217Y-61301466D02*
X107571122Y-61415752D01*
X107571122Y-61415752D02*
X107113979Y-61872895D01*
X107113979Y-61872895D02*
X107609217Y-61872895D01*
X107875884Y-61339561D02*
X108066360Y-61872895D01*
X108066360Y-61872895D02*
X108256837Y-61339561D01*
X88660836Y-64801657D02*
X88622741Y-64763561D01*
X88622741Y-64763561D02*
X88546550Y-64649276D01*
X88546550Y-64649276D02*
X88508455Y-64573085D01*
X88508455Y-64573085D02*
X88470360Y-64458800D01*
X88470360Y-64458800D02*
X88432265Y-64268323D01*
X88432265Y-64268323D02*
X88432265Y-64115942D01*
X88432265Y-64115942D02*
X88470360Y-63925466D01*
X88470360Y-63925466D02*
X88508455Y-63811180D01*
X88508455Y-63811180D02*
X88546550Y-63734990D01*
X88546550Y-63734990D02*
X88622741Y-63620704D01*
X88622741Y-63620704D02*
X88660836Y-63582609D01*
X89117979Y-64115942D02*
X89117979Y-64496895D01*
X88851312Y-63696895D02*
X89117979Y-64115942D01*
X89117979Y-64115942D02*
X89384645Y-63696895D01*
X89575121Y-64801657D02*
X89613216Y-64763561D01*
X89613216Y-64763561D02*
X89689407Y-64649276D01*
X89689407Y-64649276D02*
X89727502Y-64573085D01*
X89727502Y-64573085D02*
X89765597Y-64458800D01*
X89765597Y-64458800D02*
X89803693Y-64268323D01*
X89803693Y-64268323D02*
X89803693Y-64115942D01*
X89803693Y-64115942D02*
X89765597Y-63925466D01*
X89765597Y-63925466D02*
X89727502Y-63811180D01*
X89727502Y-63811180D02*
X89689407Y-63734990D01*
X89689407Y-63734990D02*
X89613216Y-63620704D01*
X89613216Y-63620704D02*
X89575121Y-63582609D01*
D11*
X88312666Y-93942819D02*
X88312666Y-94657104D01*
X88312666Y-94657104D02*
X88265047Y-94799961D01*
X88265047Y-94799961D02*
X88169809Y-94895200D01*
X88169809Y-94895200D02*
X88026952Y-94942819D01*
X88026952Y-94942819D02*
X87931714Y-94942819D01*
X89312666Y-94942819D02*
X88741238Y-94942819D01*
X89026952Y-94942819D02*
X89026952Y-93942819D01*
X89026952Y-93942819D02*
X88931714Y-94085676D01*
X88931714Y-94085676D02*
X88836476Y-94180914D01*
X88836476Y-94180914D02*
X88741238Y-94228533D01*
X96543905Y-87322819D02*
X96543905Y-86322819D01*
X96543905Y-86322819D02*
X96782000Y-86322819D01*
X96782000Y-86322819D02*
X96924857Y-86370438D01*
X96924857Y-86370438D02*
X97020095Y-86465676D01*
X97020095Y-86465676D02*
X97067714Y-86560914D01*
X97067714Y-86560914D02*
X97115333Y-86751390D01*
X97115333Y-86751390D02*
X97115333Y-86894247D01*
X97115333Y-86894247D02*
X97067714Y-87084723D01*
X97067714Y-87084723D02*
X97020095Y-87179961D01*
X97020095Y-87179961D02*
X96924857Y-87275200D01*
X96924857Y-87275200D02*
X96782000Y-87322819D01*
X96782000Y-87322819D02*
X96543905Y-87322819D01*
X98067714Y-87322819D02*
X97496286Y-87322819D01*
X97782000Y-87322819D02*
X97782000Y-86322819D01*
X97782000Y-86322819D02*
X97686762Y-86465676D01*
X97686762Y-86465676D02*
X97591524Y-86560914D01*
X97591524Y-86560914D02*
X97496286Y-86608533D01*
X89654095Y-85036819D02*
X89654095Y-84036819D01*
X90225523Y-85036819D02*
X89796952Y-84465390D01*
X90225523Y-84036819D02*
X89654095Y-84608247D01*
X100417333Y-89524819D02*
X100084000Y-89048628D01*
X99845905Y-89524819D02*
X99845905Y-88524819D01*
X99845905Y-88524819D02*
X100226857Y-88524819D01*
X100226857Y-88524819D02*
X100322095Y-88572438D01*
X100322095Y-88572438D02*
X100369714Y-88620057D01*
X100369714Y-88620057D02*
X100417333Y-88715295D01*
X100417333Y-88715295D02*
X100417333Y-88858152D01*
X100417333Y-88858152D02*
X100369714Y-88953390D01*
X100369714Y-88953390D02*
X100322095Y-89001009D01*
X100322095Y-89001009D02*
X100226857Y-89048628D01*
X100226857Y-89048628D02*
X99845905Y-89048628D01*
X101369714Y-89524819D02*
X100798286Y-89524819D01*
X101084000Y-89524819D02*
X101084000Y-88524819D01*
X101084000Y-88524819D02*
X100988762Y-88667676D01*
X100988762Y-88667676D02*
X100893524Y-88762914D01*
X100893524Y-88762914D02*
X100798286Y-88810533D01*
D12*
%TO.C,J3*%
X93586000Y-61342500D02*
X99466000Y-61342500D01*
X93586000Y-76082500D02*
X93586000Y-61342500D01*
X100066000Y-61342500D02*
X102326000Y-61342500D01*
X102326000Y-61342500D02*
X102326000Y-76082500D01*
X102326000Y-76082500D02*
X93586000Y-76082500D01*
X99766000Y-61342500D02*
X99326000Y-60732500D01*
X100206000Y-60732500D01*
X99766000Y-61342500D01*
G36*
X99766000Y-61342500D02*
G01*
X99326000Y-60732500D01*
X100206000Y-60732500D01*
X99766000Y-61342500D01*
G37*
D13*
%TO.C,J1*%
X89706000Y-94093500D02*
X106206000Y-94093500D01*
X89706000Y-99433500D02*
X89706000Y-94093500D01*
X89706000Y-109383500D02*
X89706000Y-106303500D01*
X106206000Y-94093500D02*
X106206000Y-99433500D01*
X106206000Y-109383500D02*
X89706000Y-109383500D01*
X106206000Y-109383500D02*
X106206000Y-106303500D01*
D14*
X108131000Y-103113500D02*
G75*
G02*
X107931000Y-103113500I-100000J0D01*
G01*
X107931000Y-103113500D02*
G75*
G02*
X108131000Y-103113500I100000J0D01*
G01*
D12*
%TO.C,D1*%
X93034000Y-84582000D02*
X94054000Y-84582000D01*
X94834000Y-83112000D02*
X94834000Y-86052000D01*
X94954000Y-83112000D02*
X94954000Y-86052000D01*
X95074000Y-83112000D02*
X95074000Y-86052000D01*
X100514000Y-84582000D02*
X99494000Y-84582000D01*
X94054000Y-83112000D02*
X99494000Y-83112000D01*
X99494000Y-86052000D01*
X94054000Y-86052000D01*
X94054000Y-83112000D01*
%TO.C,R1*%
X96544000Y-91440000D02*
X97314000Y-91440000D01*
X104624000Y-91440000D02*
X103854000Y-91440000D01*
X97314000Y-90070000D02*
X103854000Y-90070000D01*
X103854000Y-92810000D01*
X97314000Y-92810000D01*
X97314000Y-90070000D01*
%TO.C,J2*%
X90060000Y-60083000D02*
X91440000Y-60083000D01*
X90060000Y-61463000D02*
X90060000Y-60083000D01*
X90060000Y-62733000D02*
X90060000Y-65383000D01*
X90060000Y-62733000D02*
X92820000Y-62733000D01*
X90060000Y-65383000D02*
X92820000Y-65383000D01*
X92820000Y-62733000D02*
X92820000Y-65383000D01*
%TO.C,J4*%
X103268000Y-60083000D02*
X104648000Y-60083000D01*
X103268000Y-61463000D02*
X103268000Y-60083000D01*
X103268000Y-62733000D02*
X103268000Y-65383000D01*
X103268000Y-62733000D02*
X106028000Y-62733000D01*
X103268000Y-65383000D02*
X106028000Y-65383000D01*
X106028000Y-62733000D02*
X106028000Y-65383000D01*
%TD*%
M02*
