G04 #@! TF.GenerationSoftware,KiCad,Pcbnew,9.0.2*
G04 #@! TF.CreationDate,2025-11-18T17:40:05+08:00*
G04 #@! TF.ProjectId,rio hub,72696f20-6875-4622-9e6b-696361645f70,rev?*
G04 #@! TF.SameCoordinates,Original*
G04 #@! TF.FileFunction,Legend,Bot*
G04 #@! TF.FilePolarity,Positive*
%FSLAX46Y46*%
G04 Gerber Fmt 4.6, Leading zero omitted, Abs format (unit mm)*
G04 Created by KiCad (PCBNEW 9.0.2) date 2025-11-18 17:40:05*
%MOMM*%
%LPD*%
G01*
G04 APERTURE LIST*
G04 Aperture macros list*
%AMRoundRect*
0 Rectangle with rounded corners*
0 $1 Rounding radius*
0 $2 $3 $4 $5 $6 $7 $8 $9 X,Y pos of 4 corners*
0 Add a 4 corners polygon primitive as box body*
4,1,4,$2,$3,$4,$5,$6,$7,$8,$9,$2,$3,0*
0 Add four circle primitives for the rounded corners*
1,1,$1+$1,$2,$3*
1,1,$1+$1,$4,$5*
1,1,$1+$1,$6,$7*
1,1,$1+$1,$8,$9*
0 Add four rect primitives between the rounded corners*
20,1,$1+$1,$2,$3,$4,$5,0*
20,1,$1+$1,$4,$5,$6,$7,0*
20,1,$1+$1,$6,$7,$8,$9,0*
20,1,$1+$1,$8,$9,$2,$3,0*%
G04 Aperture macros list end*
%ADD10R,2.300000X1.500000*%
%ADD11RoundRect,0.250001X-0.899999X0.499999X-0.899999X-0.499999X0.899999X-0.499999X0.899999X0.499999X0*%
%ADD12O,2.300000X1.500000*%
%ADD13RoundRect,0.249999X0.850001X0.850001X-0.850001X0.850001X-0.850001X-0.850001X0.850001X-0.850001X0*%
%ADD14C,2.200000*%
%ADD15RoundRect,0.250000X-0.620000X0.620000X-0.620000X-0.620000X0.620000X-0.620000X0.620000X0.620000X0*%
%ADD16C,1.740000*%
%ADD17C,3.200000*%
%ADD18RoundRect,0.102000X0.704000X-0.704000X0.704000X0.704000X-0.704000X0.704000X-0.704000X-0.704000X0*%
%ADD19C,1.612000*%
%ADD20C,2.604000*%
%ADD21R,1.700000X1.700000*%
%ADD22C,1.700000*%
%ADD23C,1.600000*%
%ADD24C,4.064000*%
%ADD25O,1.700000X1.700000*%
G04 APERTURE END LIST*
%LPC*%
D10*
X112500000Y-129000000D03*
D11*
X107500000Y-129000000D03*
D12*
X112500000Y-132500000D03*
X107500000Y-132500000D03*
D13*
X128660000Y-129000000D03*
D14*
X118500000Y-129000000D03*
D15*
X115000000Y-156960000D03*
D16*
X115000000Y-159500000D03*
X115000000Y-162040000D03*
D15*
X106250000Y-143170000D03*
D16*
X106250000Y-145710000D03*
X106250000Y-148250000D03*
X106250000Y-150790000D03*
D17*
X151320000Y-137936000D03*
X151320000Y-125236000D03*
D18*
X148780000Y-128016000D03*
D19*
X147000000Y-129036000D03*
X148780000Y-130056000D03*
X147000000Y-131076000D03*
X148780000Y-132096000D03*
X147000000Y-133116000D03*
X148780000Y-134136000D03*
X147000000Y-135156000D03*
X142180000Y-124726000D03*
X142180000Y-127016000D03*
X142180000Y-136156000D03*
X142180000Y-138446000D03*
D20*
X147890000Y-139711000D03*
X147890000Y-123461000D03*
D21*
X104250000Y-121725000D03*
D22*
X104250000Y-124265000D03*
D21*
X101850000Y-118350000D03*
D22*
X101850000Y-115810000D03*
X101850000Y-113270000D03*
X101850000Y-110730000D03*
D15*
X132500000Y-143170000D03*
D16*
X132500000Y-145710000D03*
X132500000Y-148250000D03*
X132500000Y-150790000D03*
D15*
X123750000Y-143170000D03*
D16*
X123750000Y-145710000D03*
X123750000Y-148250000D03*
X123750000Y-150790000D03*
D23*
X133400000Y-124586000D03*
X123240000Y-124586000D03*
D21*
X109500000Y-121725000D03*
D22*
X109500000Y-124265000D03*
D15*
X106250000Y-156960000D03*
D16*
X106250000Y-159500000D03*
X106250000Y-162040000D03*
D15*
X115000000Y-143170000D03*
D16*
X115000000Y-145710000D03*
X115000000Y-148250000D03*
X115000000Y-150790000D03*
D24*
X103504200Y-103504200D03*
X153135800Y-103504200D03*
D25*
X148640000Y-171500000D03*
X148640000Y-174040000D03*
X146100000Y-171500000D03*
X146100000Y-174040000D03*
X143560000Y-171500000D03*
X143560000Y-174040000D03*
X141020000Y-171500000D03*
X141020000Y-174040000D03*
X138480000Y-171500000D03*
X138480000Y-174040000D03*
X135940000Y-171500000D03*
X135940000Y-174040000D03*
X133400000Y-171500000D03*
X133400000Y-174040000D03*
X130860000Y-171500000D03*
X130860000Y-174040000D03*
X128320000Y-171500000D03*
X128320000Y-174040000D03*
X125780000Y-171500000D03*
X125780000Y-174040000D03*
X123240000Y-171500000D03*
X123240000Y-174040000D03*
X120700000Y-171500000D03*
X120700000Y-174040000D03*
X118160000Y-171500000D03*
X118160000Y-174040000D03*
X115620000Y-171500000D03*
X115620000Y-174040000D03*
X113080000Y-171500000D03*
X113080000Y-174040000D03*
X110540000Y-171500000D03*
X110540000Y-174040000D03*
X108000000Y-171500000D03*
X108000000Y-174040000D03*
%LPD*%
M02*
