M48
; DRILL file {KiCad 9.0.2} date 2025-11-18T17:40:45+0800
; FORMAT={-:-/ absolute / metric / decimal}
; #@! TF.CreationDate,2025-11-18T17:40:45+08:00
; #@! TF.GenerationSoftware,Kicad,Pcbnew,9.0.2
; #@! TF.FileFunction,MixedPlating,1,2
FMAT,2
METRIC
; #@! TA.AperFunction,Plated,PTH,ComponentDrill
T1C0.800
; #@! TA.AperFunction,Plated,PTH,ComponentDrill
T2C0.900
; #@! TA.AperFunction,Plated,PTH,ComponentDrill
T3C1.000
; #@! TA.AperFunction,Plated,PTH,ComponentDrill
T4C1.090
; #@! TA.AperFunction,Plated,PTH,ComponentDrill
T5C1.100
; #@! TA.AperFunction,Plated,PTH,ComponentDrill
T6C1.200
; #@! TA.AperFunction,Plated,PTH,ComponentDrill
T7C1.600
; #@! TA.AperFunction,NonPlated,NPTH,ComponentDrill
T8C3.200
; #@! TA.AperFunction,NonPlated,NPTH,ComponentDrill
T9C4.064
%
G90
G05
T1
X123.24Y-124.586
X133.4Y-124.586
T2
X142.18Y-124.726
X142.18Y-127.016
X142.18Y-136.156
X142.18Y-138.446
X147.0Y-129.036
X147.0Y-131.076
X147.0Y-133.116
X147.0Y-135.156
X148.78Y-128.016
X148.78Y-130.056
X148.78Y-132.096
X148.78Y-134.136
T3
X101.85Y-110.73
X101.85Y-113.27
X101.85Y-115.81
X101.85Y-118.35
X104.25Y-121.725
X104.25Y-124.265
X108.0Y-171.5
X108.0Y-174.04
X109.5Y-121.725
X109.5Y-124.265
X110.54Y-171.5
X110.54Y-174.04
X113.08Y-171.5
X113.08Y-174.04
X115.62Y-171.5
X115.62Y-174.04
X118.16Y-171.5
X118.16Y-174.04
X120.7Y-171.5
X120.7Y-174.04
X123.24Y-171.5
X123.24Y-174.04
X125.78Y-171.5
X125.78Y-174.04
X128.32Y-171.5
X128.32Y-174.04
X130.86Y-171.5
X130.86Y-174.04
X133.4Y-171.5
X133.4Y-174.04
X135.94Y-171.5
X135.94Y-174.04
X138.48Y-171.5
X138.48Y-174.04
X141.02Y-171.5
X141.02Y-174.04
X143.56Y-171.5
X143.56Y-174.04
X146.1Y-171.5
X146.1Y-174.04
X148.64Y-171.5
X148.64Y-174.04
T4
X106.25Y-143.17
X106.25Y-145.71
X106.25Y-148.25
X106.25Y-150.79
X106.25Y-156.96
X106.25Y-159.5
X106.25Y-162.04
X115.0Y-143.17
X115.0Y-145.71
X115.0Y-148.25
X115.0Y-150.79
X115.0Y-156.96
X115.0Y-159.5
X115.0Y-162.04
X123.75Y-143.17
X123.75Y-145.71
X123.75Y-148.25
X123.75Y-150.79
X132.5Y-143.17
X132.5Y-145.71
X132.5Y-148.25
X132.5Y-150.79
T5
X118.5Y-129.0
X128.66Y-129.0
T6
X107.5Y-129.0
X107.5Y-132.5
X112.5Y-129.0
X112.5Y-132.5
T7
X147.89Y-123.461
X147.89Y-139.711
T8
X151.32Y-125.236
X151.32Y-137.936
T9
X103.504Y-103.504
X153.136Y-103.504
M30
