G04 #@! TF.GenerationSoftware,KiCad,Pcbnew,9.0.2*
G04 #@! TF.CreationDate,2025-11-18T17:40:05+08:00*
G04 #@! TF.ProjectId,rio hub,72696f20-6875-4622-9e6b-696361645f70,rev?*
G04 #@! TF.SameCoordinates,Original*
G04 #@! TF.FileFunction,Copper,L1,Top*
G04 #@! TF.FilePolarity,Positive*
%FSLAX46Y46*%
G04 Gerber Fmt 4.6, Leading zero omitted, Abs format (unit mm)*
G04 Created by KiCad (PCBNEW 9.0.2) date 2025-11-18 17:40:05*
%MOMM*%
%LPD*%
G01*
G04 APERTURE LIST*
G04 Aperture macros list*
%AMRoundRect*
0 Rectangle with rounded corners*
0 $1 Rounding radius*
0 $2 $3 $4 $5 $6 $7 $8 $9 X,Y pos of 4 corners*
0 Add a 4 corners polygon primitive as box body*
4,1,4,$2,$3,$4,$5,$6,$7,$8,$9,$2,$3,0*
0 Add four circle primitives for the rounded corners*
1,1,$1+$1,$2,$3*
1,1,$1+$1,$4,$5*
1,1,$1+$1,$6,$7*
1,1,$1+$1,$8,$9*
0 Add four rect primitives between the rounded corners*
20,1,$1+$1,$2,$3,$4,$5,0*
20,1,$1+$1,$4,$5,$6,$7,0*
20,1,$1+$1,$6,$7,$8,$9,0*
20,1,$1+$1,$8,$9,$2,$3,0*%
G04 Aperture macros list end*
G04 #@! TA.AperFunction,ComponentPad*
%ADD10R,2.300000X1.500000*%
G04 #@! TD*
G04 #@! TA.AperFunction,ComponentPad*
%ADD11RoundRect,0.250001X-0.899999X0.499999X-0.899999X-0.499999X0.899999X-0.499999X0.899999X0.499999X0*%
G04 #@! TD*
G04 #@! TA.AperFunction,ComponentPad*
%ADD12O,2.300000X1.500000*%
G04 #@! TD*
G04 #@! TA.AperFunction,ComponentPad*
%ADD13RoundRect,0.249999X0.850001X0.850001X-0.850001X0.850001X-0.850001X-0.850001X0.850001X-0.850001X0*%
G04 #@! TD*
G04 #@! TA.AperFunction,ComponentPad*
%ADD14C,2.200000*%
G04 #@! TD*
G04 #@! TA.AperFunction,ComponentPad*
%ADD15RoundRect,0.250000X-0.620000X0.620000X-0.620000X-0.620000X0.620000X-0.620000X0.620000X0.620000X0*%
G04 #@! TD*
G04 #@! TA.AperFunction,ComponentPad*
%ADD16C,1.740000*%
G04 #@! TD*
G04 #@! TA.AperFunction,ComponentPad*
%ADD17R,1.408000X1.408000*%
G04 #@! TD*
G04 #@! TA.AperFunction,ComponentPad*
%ADD18C,1.408000*%
G04 #@! TD*
G04 #@! TA.AperFunction,ComponentPad*
%ADD19C,2.400000*%
G04 #@! TD*
G04 #@! TA.AperFunction,ComponentPad*
%ADD20R,1.700000X1.700000*%
G04 #@! TD*
G04 #@! TA.AperFunction,ComponentPad*
%ADD21C,1.700000*%
G04 #@! TD*
G04 #@! TA.AperFunction,ComponentPad*
%ADD22C,1.600000*%
G04 #@! TD*
G04 #@! TA.AperFunction,ComponentPad*
%ADD23O,1.700000X1.700000*%
G04 #@! TD*
G04 #@! TA.AperFunction,Conductor*
%ADD24C,0.200000*%
G04 #@! TD*
G04 APERTURE END LIST*
D10*
X112500000Y-129000000D03*
D11*
X107500000Y-129000000D03*
D12*
X112500000Y-132500000D03*
X107500000Y-132500000D03*
D13*
X128660000Y-129000000D03*
D14*
X118500000Y-129000000D03*
D15*
X115000000Y-156960000D03*
D16*
X115000000Y-159500000D03*
X115000000Y-162040000D03*
D15*
X106250000Y-143170000D03*
D16*
X106250000Y-145710000D03*
X106250000Y-148250000D03*
X106250000Y-150790000D03*
D17*
X148780000Y-128016000D03*
D18*
X147000000Y-129036000D03*
X148780000Y-130056000D03*
X147000000Y-131076000D03*
X148780000Y-132096000D03*
X147000000Y-133116000D03*
X148780000Y-134136000D03*
X147000000Y-135156000D03*
X142180000Y-124726000D03*
X142180000Y-127016000D03*
X142180000Y-136156000D03*
X142180000Y-138446000D03*
D19*
X147890000Y-139711000D03*
X147890000Y-123461000D03*
D20*
X104250000Y-121725000D03*
D21*
X104250000Y-124265000D03*
D20*
X101850000Y-118350000D03*
D21*
X101850000Y-115810000D03*
X101850000Y-113270000D03*
X101850000Y-110730000D03*
D15*
X132500000Y-143170000D03*
D16*
X132500000Y-145710000D03*
X132500000Y-148250000D03*
X132500000Y-150790000D03*
D15*
X123750000Y-143170000D03*
D16*
X123750000Y-145710000D03*
X123750000Y-148250000D03*
X123750000Y-150790000D03*
D22*
X133400000Y-124586000D03*
X123240000Y-124586000D03*
D20*
X109500000Y-121725000D03*
D21*
X109500000Y-124265000D03*
D15*
X106250000Y-156960000D03*
D16*
X106250000Y-159500000D03*
X106250000Y-162040000D03*
D15*
X115000000Y-143170000D03*
D16*
X115000000Y-145710000D03*
X115000000Y-148250000D03*
X115000000Y-150790000D03*
D23*
X148640000Y-171500000D03*
X148640000Y-174040000D03*
X146100000Y-171500000D03*
X146100000Y-174040000D03*
X143560000Y-171500000D03*
X143560000Y-174040000D03*
X141020000Y-171500000D03*
X141020000Y-174040000D03*
X138480000Y-171500000D03*
X138480000Y-174040000D03*
X135940000Y-171500000D03*
X135940000Y-174040000D03*
X133400000Y-171500000D03*
X133400000Y-174040000D03*
X130860000Y-171500000D03*
X130860000Y-174040000D03*
X128320000Y-171500000D03*
X128320000Y-174040000D03*
X125780000Y-171500000D03*
X125780000Y-174040000D03*
X123240000Y-171500000D03*
X123240000Y-174040000D03*
X120700000Y-171500000D03*
X120700000Y-174040000D03*
X118160000Y-171500000D03*
X118160000Y-174040000D03*
X115620000Y-171500000D03*
X115620000Y-174040000D03*
X113080000Y-171500000D03*
X113080000Y-174040000D03*
X110540000Y-171500000D03*
X110540000Y-174040000D03*
X108000000Y-171500000D03*
X108000000Y-174040000D03*
D24*
X140863000Y-120099000D02*
X107083900Y-120099000D01*
X148780000Y-128016000D02*
X140863000Y-120099000D01*
X107083900Y-120099000D02*
X105457900Y-121725000D01*
X105457900Y-121725000D02*
X104250000Y-121725000D01*
X147000000Y-129036000D02*
X147000000Y-126803100D01*
X105632500Y-122117500D02*
X105632500Y-122882500D01*
X147000000Y-126803100D02*
X140696900Y-120500000D01*
X105632500Y-122882500D02*
X104250000Y-124265000D01*
X140696900Y-120500000D02*
X107250000Y-120500000D01*
X107250000Y-120500000D02*
X105632500Y-122117500D01*
X127169000Y-171023240D02*
X143250000Y-154942240D01*
X127169000Y-171976760D02*
X127169000Y-171023240D01*
X143250000Y-136866000D02*
X147000000Y-133116000D01*
X143250000Y-154942240D02*
X143250000Y-136866000D01*
X132249000Y-172651000D02*
X127843240Y-172651000D01*
X133400000Y-171500000D02*
X132249000Y-172651000D01*
X127843240Y-172651000D02*
X127169000Y-171976760D01*
X148780000Y-134136000D02*
X148780000Y-135470000D01*
X145250000Y-157110000D02*
X130860000Y-171500000D01*
X145250000Y-139000000D02*
X145250000Y-157110000D01*
X148780000Y-135470000D02*
X145250000Y-139000000D01*
X148780000Y-132096000D02*
X149785000Y-133101000D01*
X146250000Y-161190000D02*
X135940000Y-171500000D01*
X146250000Y-139228265D02*
X146250000Y-161190000D01*
X149785000Y-133101000D02*
X149785000Y-135693265D01*
X149785000Y-135693265D02*
X146250000Y-139228265D01*
X144250000Y-137906000D02*
X144250000Y-155910000D01*
X128660000Y-171500000D02*
X128320000Y-171500000D01*
X147000000Y-135156000D02*
X144250000Y-137906000D01*
X144250000Y-155910000D02*
X128660000Y-171500000D01*
X134750000Y-147960000D02*
X134750000Y-161500000D01*
X134750000Y-161500000D02*
X125780000Y-170470000D01*
X132500000Y-145710000D02*
X134750000Y-147960000D01*
X125780000Y-170470000D02*
X125780000Y-171500000D01*
X132500000Y-148250000D02*
X129500000Y-151250000D01*
X129500000Y-165240000D02*
X123240000Y-171500000D01*
X129500000Y-151250000D02*
X129500000Y-165240000D01*
X125000000Y-167200000D02*
X120700000Y-171500000D01*
X125000000Y-146960000D02*
X125000000Y-167200000D01*
X123750000Y-145710000D02*
X125000000Y-146960000D01*
X121250000Y-150750000D02*
X121250000Y-168410000D01*
X121250000Y-168410000D02*
X118160000Y-171500000D01*
X123750000Y-148250000D02*
X121250000Y-150750000D01*
X119250000Y-167870000D02*
X115620000Y-171500000D01*
X119250000Y-149960000D02*
X119250000Y-167870000D01*
X115000000Y-145710000D02*
X119250000Y-149960000D01*
X117250000Y-150500000D02*
X117250000Y-167330000D01*
X117250000Y-167330000D02*
X113080000Y-171500000D01*
X115000000Y-148250000D02*
X117250000Y-150500000D01*
X110139000Y-172889000D02*
X117009000Y-172889000D01*
X117009000Y-172889000D02*
X118160000Y-174040000D01*
X106250000Y-148250000D02*
X109389000Y-151389000D01*
X109389000Y-151389000D02*
X109389000Y-172139000D01*
X109389000Y-172139000D02*
X110139000Y-172889000D01*
X110460000Y-141500000D02*
X125250000Y-141500000D01*
X106250000Y-145710000D02*
X110460000Y-141500000D01*
X122089000Y-172889000D02*
X123240000Y-174040000D01*
X127500000Y-143750000D02*
X127500000Y-165612240D01*
X125250000Y-141500000D02*
X127500000Y-143750000D01*
X127500000Y-165612240D02*
X122089000Y-171023240D01*
X122089000Y-171023240D02*
X122089000Y-172889000D01*
X110540000Y-171500000D02*
X110540000Y-161420000D01*
X110540000Y-161420000D02*
X115000000Y-156960000D01*
X107250000Y-175500000D02*
X126860000Y-175500000D01*
X106250000Y-156960000D02*
X108250000Y-158960000D01*
X108250000Y-158960000D02*
X108250000Y-163000000D01*
X108250000Y-163000000D02*
X106250000Y-165000000D01*
X126860000Y-175500000D02*
X128320000Y-174040000D01*
X106250000Y-165000000D02*
X106250000Y-174500000D01*
X106250000Y-174500000D02*
X107250000Y-175500000D01*
G04 #@! TA.AperFunction,Conductor*
G36*
X115154075Y-173847007D02*
G01*
X115120000Y-173974174D01*
X115120000Y-174105826D01*
X115154075Y-174232993D01*
X115186988Y-174290000D01*
X113513012Y-174290000D01*
X113545925Y-174232993D01*
X113580000Y-174105826D01*
X113580000Y-173974174D01*
X113545925Y-173847007D01*
X113513012Y-173790000D01*
X115186988Y-173790000D01*
X115154075Y-173847007D01*
G37*
G04 #@! TD.AperFunction*
G04 #@! TA.AperFunction,Conductor*
G36*
X143094075Y-173847007D02*
G01*
X143060000Y-173974174D01*
X143060000Y-174105826D01*
X143094075Y-174232993D01*
X143126988Y-174290000D01*
X141453012Y-174290000D01*
X141485925Y-174232993D01*
X141520000Y-174105826D01*
X141520000Y-173974174D01*
X141485925Y-173847007D01*
X141453012Y-173790000D01*
X143126988Y-173790000D01*
X143094075Y-173847007D01*
G37*
G04 #@! TD.AperFunction*
G04 #@! TA.AperFunction,Conductor*
G36*
X113593922Y-142108522D02*
G01*
X113621957Y-142113543D01*
X113627015Y-142118240D01*
X113633638Y-142120185D01*
X113652285Y-142141704D01*
X113673157Y-142161086D01*
X113674873Y-142167772D01*
X113679393Y-142172989D01*
X113683445Y-142201174D01*
X113690526Y-142228762D01*
X113688799Y-142238406D01*
X113689337Y-142242147D01*
X113684306Y-142263499D01*
X113640001Y-142397203D01*
X113640001Y-142397204D01*
X113640000Y-142397204D01*
X113629500Y-142499983D01*
X113629500Y-143840001D01*
X113629501Y-143840018D01*
X113640000Y-143942796D01*
X113640001Y-143942799D01*
X113675557Y-144050097D01*
X113695186Y-144109334D01*
X113787288Y-144258656D01*
X113911344Y-144382712D01*
X114060666Y-144474814D01*
X114060668Y-144474814D01*
X114060669Y-144474815D01*
X114061348Y-144475132D01*
X114061735Y-144475473D01*
X114066813Y-144478605D01*
X114066277Y-144479472D01*
X114113787Y-144521304D01*
X114132939Y-144588498D01*
X114112723Y-144655379D01*
X114096625Y-144675195D01*
X113954640Y-144817180D01*
X113827843Y-144991700D01*
X113729909Y-145183908D01*
X113663245Y-145389077D01*
X113629500Y-145602133D01*
X113629500Y-145817866D01*
X113663245Y-146030920D01*
X113663246Y-146030926D01*
X113729908Y-146236089D01*
X113827843Y-146428299D01*
X113954641Y-146602821D01*
X114107179Y-146755359D01*
X114228454Y-146843471D01*
X114278294Y-146879682D01*
X114320959Y-146935012D01*
X114326938Y-147004626D01*
X114294332Y-147066421D01*
X114278294Y-147080318D01*
X114107179Y-147204641D01*
X114107177Y-147204643D01*
X114107176Y-147204643D01*
X113954643Y-147357176D01*
X113954643Y-147357177D01*
X113954641Y-147357179D01*
X113900186Y-147432129D01*
X113827843Y-147531700D01*
X113729909Y-147723908D01*
X113729908Y-147723910D01*
X113729908Y-147723911D01*
X113728510Y-147728214D01*
X113663245Y-147929077D01*
X113629500Y-148142133D01*
X113629500Y-148357866D01*
X113663245Y-148570920D01*
X113663246Y-148570926D01*
X113729908Y-148776089D01*
X113827843Y-148968299D01*
X113954641Y-149142821D01*
X114107179Y-149295359D01*
X114107182Y-149295361D01*
X114278720Y-149419991D01*
X114321386Y-149475321D01*
X114327365Y-149544934D01*
X114294759Y-149606729D01*
X114278720Y-149620627D01*
X114223964Y-149660409D01*
X114223964Y-149660410D01*
X114833848Y-150270294D01*
X114789638Y-150282141D01*
X114665362Y-150353891D01*
X114563891Y-150455362D01*
X114492141Y-150579638D01*
X114480294Y-150623848D01*
X113870410Y-150013964D01*
X113828269Y-150071967D01*
X113730372Y-150264098D01*
X113663734Y-150469190D01*
X113630000Y-150682179D01*
X113630000Y-150897820D01*
X113663734Y-151110809D01*
X113730372Y-151315901D01*
X113828271Y-151508036D01*
X113870410Y-151566034D01*
X113870411Y-151566035D01*
X114480294Y-150956151D01*
X114492141Y-151000362D01*
X114563891Y-151124638D01*
X114665362Y-151226109D01*
X114789638Y-151297859D01*
X114833848Y-151309705D01*
X114223963Y-151919588D01*
X114223964Y-151919589D01*
X114281958Y-151961724D01*
X114281971Y-151961732D01*
X114474098Y-152059627D01*
X114679190Y-152126265D01*
X114892180Y-152160000D01*
X115107820Y-152160000D01*
X115320809Y-152126265D01*
X115525901Y-152059627D01*
X115718036Y-151961728D01*
X115776034Y-151919589D01*
X115776034Y-151919588D01*
X115166151Y-151309705D01*
X115210362Y-151297859D01*
X115334638Y-151226109D01*
X115436109Y-151124638D01*
X115507859Y-151000362D01*
X115519705Y-150956151D01*
X116129588Y-151566034D01*
X116129589Y-151566034D01*
X116171728Y-151508036D01*
X116269627Y-151315901D01*
X116336265Y-151110809D01*
X116370000Y-150897820D01*
X116370000Y-150768597D01*
X116376238Y-150747351D01*
X116377818Y-150725263D01*
X116385890Y-150714479D01*
X116389685Y-150701558D01*
X116406418Y-150687058D01*
X116419690Y-150669330D01*
X116432310Y-150664622D01*
X116442489Y-150655803D01*
X116464406Y-150652651D01*
X116485154Y-150644913D01*
X116498314Y-150647775D01*
X116511647Y-150645859D01*
X116531790Y-150655058D01*
X116553427Y-150659765D01*
X116571152Y-150673033D01*
X116575203Y-150674884D01*
X116581680Y-150680915D01*
X116613181Y-150712416D01*
X116646666Y-150773739D01*
X116649500Y-150800097D01*
X116649500Y-167029902D01*
X116629815Y-167096941D01*
X116613181Y-167117583D01*
X113564522Y-170166241D01*
X113503199Y-170199726D01*
X113438523Y-170196491D01*
X113396245Y-170182754D01*
X113229321Y-170156316D01*
X113186287Y-170149500D01*
X112973713Y-170149500D01*
X112930679Y-170156316D01*
X112763760Y-170182753D01*
X112561585Y-170248444D01*
X112372179Y-170344951D01*
X112200213Y-170469890D01*
X112049890Y-170620213D01*
X111924949Y-170792182D01*
X111920484Y-170800946D01*
X111872509Y-170851742D01*
X111804688Y-170868536D01*
X111738553Y-170845998D01*
X111699516Y-170800946D01*
X111695050Y-170792182D01*
X111570109Y-170620213D01*
X111419786Y-170469890D01*
X111247815Y-170344948D01*
X111247814Y-170344947D01*
X111208205Y-170324765D01*
X111157409Y-170276791D01*
X111140500Y-170214281D01*
X111140500Y-161720096D01*
X111160185Y-161653057D01*
X111176814Y-161632420D01*
X113417819Y-159391414D01*
X113479142Y-159357930D01*
X113548834Y-159362914D01*
X113604767Y-159404786D01*
X113629184Y-159470250D01*
X113629500Y-159479096D01*
X113629500Y-159607866D01*
X113663245Y-159820922D01*
X113663246Y-159820926D01*
X113729908Y-160026089D01*
X113827843Y-160218299D01*
X113954641Y-160392821D01*
X114107179Y-160545359D01*
X114107182Y-160545361D01*
X114278720Y-160669991D01*
X114321386Y-160725321D01*
X114327365Y-160794934D01*
X114294759Y-160856729D01*
X114278720Y-160870627D01*
X114223964Y-160910409D01*
X114223964Y-160910410D01*
X114833848Y-161520294D01*
X114789638Y-161532141D01*
X114665362Y-161603891D01*
X114563891Y-161705362D01*
X114492141Y-161829638D01*
X114480294Y-161873848D01*
X113870410Y-161263964D01*
X113828269Y-161321967D01*
X113730372Y-161514098D01*
X113663734Y-161719190D01*
X113630000Y-161932179D01*
X113630000Y-162147820D01*
X113663734Y-162360809D01*
X113730372Y-162565901D01*
X113828271Y-162758036D01*
X113870410Y-162816034D01*
X113870411Y-162816035D01*
X114480294Y-162206151D01*
X114492141Y-162250362D01*
X114563891Y-162374638D01*
X114665362Y-162476109D01*
X114789638Y-162547859D01*
X114833848Y-162559705D01*
X114223963Y-163169588D01*
X114223964Y-163169589D01*
X114281958Y-163211724D01*
X114281971Y-163211732D01*
X114474098Y-163309627D01*
X114679190Y-163376265D01*
X114892180Y-163410000D01*
X115107820Y-163410000D01*
X115320809Y-163376265D01*
X115525901Y-163309627D01*
X115718036Y-163211728D01*
X115776034Y-163169589D01*
X115776034Y-163169588D01*
X115166151Y-162559705D01*
X115210362Y-162547859D01*
X115334638Y-162476109D01*
X115436109Y-162374638D01*
X115507859Y-162250362D01*
X115519705Y-162206151D01*
X116129588Y-162816034D01*
X116129589Y-162816034D01*
X116171728Y-162758036D01*
X116269627Y-162565901D01*
X116336265Y-162360809D01*
X116370000Y-162147820D01*
X116370000Y-161932179D01*
X116336265Y-161719190D01*
X116269627Y-161514098D01*
X116171732Y-161321971D01*
X116171724Y-161321958D01*
X116129589Y-161263964D01*
X116129588Y-161263963D01*
X115519705Y-161873847D01*
X115507859Y-161829638D01*
X115436109Y-161705362D01*
X115334638Y-161603891D01*
X115210362Y-161532141D01*
X115166151Y-161520294D01*
X115776035Y-160910411D01*
X115776034Y-160910410D01*
X115721279Y-160870627D01*
X115678614Y-160815296D01*
X115672635Y-160745683D01*
X115705241Y-160683888D01*
X115721280Y-160669991D01*
X115892821Y-160545359D01*
X116045359Y-160392821D01*
X116172157Y-160218299D01*
X116270092Y-160026089D01*
X116336754Y-159820926D01*
X116351752Y-159726230D01*
X116370500Y-159607866D01*
X116370500Y-159392133D01*
X116336754Y-159179077D01*
X116336754Y-159179074D01*
X116270092Y-158973911D01*
X116172157Y-158781701D01*
X116045359Y-158607179D01*
X115903375Y-158465195D01*
X115869890Y-158403872D01*
X115874874Y-158334180D01*
X115916746Y-158278247D01*
X115938657Y-158265129D01*
X115939322Y-158264817D01*
X115939334Y-158264814D01*
X116088656Y-158172712D01*
X116212712Y-158048656D01*
X116304814Y-157899334D01*
X116359999Y-157732797D01*
X116370500Y-157630009D01*
X116370499Y-156289992D01*
X116359999Y-156187203D01*
X116304814Y-156020666D01*
X116212712Y-155871344D01*
X116088656Y-155747288D01*
X115939334Y-155655186D01*
X115772797Y-155600001D01*
X115772795Y-155600000D01*
X115670010Y-155589500D01*
X114329998Y-155589500D01*
X114329981Y-155589501D01*
X114227203Y-155600000D01*
X114227200Y-155600001D01*
X114060668Y-155655185D01*
X114060663Y-155655187D01*
X113911342Y-155747289D01*
X113787289Y-155871342D01*
X113695187Y-156020663D01*
X113695186Y-156020666D01*
X113640001Y-156187203D01*
X113640001Y-156187204D01*
X113640000Y-156187204D01*
X113629500Y-156289983D01*
X113629500Y-157429902D01*
X113609815Y-157496941D01*
X113593181Y-157517583D01*
X110201181Y-160909583D01*
X110139858Y-160943068D01*
X110070166Y-160938084D01*
X110014233Y-160896212D01*
X109989816Y-160830748D01*
X109989500Y-160821902D01*
X109989500Y-151309945D01*
X109989500Y-151309943D01*
X109948577Y-151157216D01*
X109886732Y-151050096D01*
X109869524Y-151020290D01*
X109869521Y-151020286D01*
X109869520Y-151020284D01*
X109757716Y-150908480D01*
X109757715Y-150908479D01*
X109753385Y-150904149D01*
X109753374Y-150904139D01*
X107599629Y-148750394D01*
X107566144Y-148689071D01*
X107569379Y-148624396D01*
X107586754Y-148570926D01*
X107605160Y-148454708D01*
X107620500Y-148357866D01*
X107620500Y-148142133D01*
X107586754Y-147929077D01*
X107586754Y-147929074D01*
X107520092Y-147723911D01*
X107422157Y-147531701D01*
X107295359Y-147357179D01*
X107142821Y-147204641D01*
X106971704Y-147080317D01*
X106929040Y-147024988D01*
X106923061Y-146955374D01*
X106955667Y-146893580D01*
X106971702Y-146879684D01*
X107142821Y-146755359D01*
X107295359Y-146602821D01*
X107422157Y-146428299D01*
X107520092Y-146236089D01*
X107586754Y-146030926D01*
X107601752Y-145936230D01*
X107620500Y-145817866D01*
X107620500Y-145602133D01*
X107586754Y-145389077D01*
X107586754Y-145389074D01*
X107569379Y-145335603D01*
X107567383Y-145265764D01*
X107599627Y-145209606D01*
X110672416Y-142136819D01*
X110733739Y-142103334D01*
X110760097Y-142100500D01*
X113566599Y-142100500D01*
X113593922Y-142108522D01*
G37*
G04 #@! TD.AperFunction*
G04 #@! TA.AperFunction,Conductor*
G36*
X122299334Y-150652414D02*
G01*
X122355267Y-150694286D01*
X122379684Y-150759750D01*
X122380000Y-150768596D01*
X122380000Y-150897820D01*
X122413734Y-151110809D01*
X122480372Y-151315901D01*
X122578271Y-151508036D01*
X122620410Y-151566034D01*
X122620410Y-151566035D01*
X123230294Y-150956151D01*
X123242141Y-151000362D01*
X123313891Y-151124638D01*
X123415362Y-151226109D01*
X123539638Y-151297859D01*
X123583846Y-151309704D01*
X122973963Y-151919588D01*
X122973964Y-151919589D01*
X123031958Y-151961724D01*
X123031971Y-151961732D01*
X123224098Y-152059627D01*
X123429190Y-152126265D01*
X123642180Y-152160000D01*
X123857820Y-152160000D01*
X124070809Y-152126265D01*
X124237181Y-152072208D01*
X124307023Y-152070213D01*
X124366856Y-152106293D01*
X124397684Y-152168994D01*
X124399500Y-152190139D01*
X124399500Y-166899902D01*
X124379815Y-166966941D01*
X124363181Y-166987583D01*
X121184522Y-170166241D01*
X121123199Y-170199726D01*
X121058523Y-170196491D01*
X121016245Y-170182754D01*
X120849321Y-170156316D01*
X120806287Y-170149500D01*
X120659096Y-170149500D01*
X120592057Y-170129815D01*
X120546302Y-170077011D01*
X120536358Y-170007853D01*
X120565383Y-169944297D01*
X120571415Y-169937819D01*
X121618713Y-168890521D01*
X121618716Y-168890520D01*
X121730520Y-168778716D01*
X121780639Y-168691904D01*
X121809577Y-168641785D01*
X121850501Y-168489057D01*
X121850501Y-168330943D01*
X121850501Y-168323348D01*
X121850500Y-168323330D01*
X121850500Y-151050096D01*
X121870185Y-150983057D01*
X121886814Y-150962420D01*
X122168320Y-150680914D01*
X122229642Y-150647430D01*
X122299334Y-150652414D01*
G37*
G04 #@! TD.AperFunction*
G04 #@! TA.AperFunction,Conductor*
G36*
X134075703Y-148135384D02*
G01*
X134082181Y-148141416D01*
X134113181Y-148172416D01*
X134146666Y-148233739D01*
X134149500Y-148260097D01*
X134149500Y-161199902D01*
X134129815Y-161266941D01*
X134113181Y-161287583D01*
X130312181Y-165088583D01*
X130250858Y-165122068D01*
X130181166Y-165117084D01*
X130125233Y-165075212D01*
X130100816Y-165009748D01*
X130100500Y-165000902D01*
X130100500Y-151550096D01*
X130120185Y-151483057D01*
X130136814Y-151462420D01*
X130918321Y-150680913D01*
X130979642Y-150647430D01*
X131049334Y-150652414D01*
X131105267Y-150694286D01*
X131129684Y-150759750D01*
X131130000Y-150768596D01*
X131130000Y-150897820D01*
X131163734Y-151110809D01*
X131230372Y-151315901D01*
X131328271Y-151508036D01*
X131370410Y-151566034D01*
X131370410Y-151566035D01*
X131980294Y-150956151D01*
X131992141Y-151000362D01*
X132063891Y-151124638D01*
X132165362Y-151226109D01*
X132289638Y-151297859D01*
X132333848Y-151309705D01*
X131723963Y-151919588D01*
X131723964Y-151919589D01*
X131781958Y-151961724D01*
X131781971Y-151961732D01*
X131974098Y-152059627D01*
X132179190Y-152126265D01*
X132392180Y-152160000D01*
X132607820Y-152160000D01*
X132820809Y-152126265D01*
X133025901Y-152059627D01*
X133218036Y-151961728D01*
X133276034Y-151919589D01*
X133276034Y-151919588D01*
X132666151Y-151309705D01*
X132710362Y-151297859D01*
X132834638Y-151226109D01*
X132936109Y-151124638D01*
X133007859Y-151000362D01*
X133019705Y-150956151D01*
X133629588Y-151566034D01*
X133629589Y-151566034D01*
X133671728Y-151508036D01*
X133769627Y-151315901D01*
X133836265Y-151110809D01*
X133870000Y-150897820D01*
X133870000Y-150682179D01*
X133836265Y-150469190D01*
X133769627Y-150264098D01*
X133671732Y-150071971D01*
X133671724Y-150071958D01*
X133629589Y-150013964D01*
X133629588Y-150013963D01*
X133019705Y-150623847D01*
X133007859Y-150579638D01*
X132936109Y-150455362D01*
X132834638Y-150353891D01*
X132710362Y-150282141D01*
X132666151Y-150270294D01*
X133276035Y-149660410D01*
X133221279Y-149620627D01*
X133178614Y-149565296D01*
X133172635Y-149495683D01*
X133205241Y-149433888D01*
X133221280Y-149419991D01*
X133392821Y-149295359D01*
X133545359Y-149142821D01*
X133672157Y-148968299D01*
X133770092Y-148776089D01*
X133836754Y-148570926D01*
X133851752Y-148476230D01*
X133870500Y-148357866D01*
X133870500Y-148229097D01*
X133890185Y-148162058D01*
X133942989Y-148116303D01*
X134012147Y-148106359D01*
X134075703Y-148135384D01*
G37*
G04 #@! TD.AperFunction*
G04 #@! TA.AperFunction,Conductor*
G36*
X107604633Y-160191513D02*
G01*
X107643684Y-160249450D01*
X107649500Y-160286980D01*
X107649500Y-161253982D01*
X107629815Y-161321021D01*
X107577011Y-161366776D01*
X107507853Y-161376720D01*
X107444297Y-161347695D01*
X107425347Y-161325355D01*
X107424592Y-161325905D01*
X107379589Y-161263964D01*
X107379588Y-161263963D01*
X106769705Y-161873847D01*
X106757859Y-161829638D01*
X106686109Y-161705362D01*
X106584638Y-161603891D01*
X106460362Y-161532141D01*
X106416151Y-161520294D01*
X107026035Y-160910411D01*
X107026034Y-160910410D01*
X106971279Y-160870627D01*
X106928614Y-160815296D01*
X106922635Y-160745683D01*
X106955241Y-160683888D01*
X106971280Y-160669991D01*
X107142821Y-160545359D01*
X107295359Y-160392821D01*
X107422157Y-160218299D01*
X107422157Y-160218298D01*
X107425021Y-160214357D01*
X107426921Y-160215738D01*
X107471533Y-160175340D01*
X107540457Y-160163885D01*
X107604633Y-160191513D01*
G37*
G04 #@! TD.AperFunction*
G04 #@! TA.AperFunction,Conductor*
G36*
X148450705Y-100520185D02*
G01*
X148496460Y-100572989D01*
X148506404Y-100642147D01*
X148489393Y-100689290D01*
X148392318Y-100847700D01*
X148392312Y-100847711D01*
X148198505Y-101228078D01*
X148035148Y-101622457D01*
X148035144Y-101622469D01*
X147903228Y-102028462D01*
X147903226Y-102028468D01*
X147903225Y-102028473D01*
X147803572Y-102443559D01*
X147736795Y-102865175D01*
X147736794Y-102865185D01*
X147703300Y-103290757D01*
X147703300Y-103717643D01*
X147736794Y-104143215D01*
X147803573Y-104564846D01*
X147903228Y-104979938D01*
X148035144Y-105385930D01*
X148035148Y-105385942D01*
X148148895Y-105660552D01*
X148198506Y-105780324D01*
X148392309Y-106160683D01*
X148392312Y-106160688D01*
X148392318Y-106160699D01*
X148615350Y-106524654D01*
X148615355Y-106524661D01*
X148615357Y-106524664D01*
X148866275Y-106870023D01*
X149143515Y-107194630D01*
X149445370Y-107496485D01*
X149769977Y-107773725D01*
X150115336Y-108024643D01*
X150115340Y-108024645D01*
X150115345Y-108024649D01*
X150479300Y-108247681D01*
X150479306Y-108247684D01*
X150479317Y-108247691D01*
X150859676Y-108441494D01*
X151254069Y-108604856D01*
X151660062Y-108736772D01*
X152075154Y-108836427D01*
X152496785Y-108903206D01*
X152922357Y-108936700D01*
X152922363Y-108936700D01*
X153349237Y-108936700D01*
X153349243Y-108936700D01*
X153774815Y-108903206D01*
X154196446Y-108836427D01*
X154611538Y-108736772D01*
X155017531Y-108604856D01*
X155411924Y-108441494D01*
X155792283Y-108247691D01*
X155950711Y-108150605D01*
X156018155Y-108132361D01*
X156084758Y-108153477D01*
X156129371Y-108207248D01*
X156139500Y-108256333D01*
X156139500Y-173966753D01*
X156139330Y-173973243D01*
X156123407Y-174277046D01*
X156122050Y-174289953D01*
X156074971Y-174587205D01*
X156072273Y-174599902D01*
X155994374Y-174890623D01*
X155990363Y-174902966D01*
X155882510Y-175183935D01*
X155877231Y-175195793D01*
X155740591Y-175463963D01*
X155734101Y-175475203D01*
X155570187Y-175727608D01*
X155562558Y-175738109D01*
X155373149Y-175972010D01*
X155364464Y-175981655D01*
X155151655Y-176194464D01*
X155142010Y-176203149D01*
X154908109Y-176392558D01*
X154897608Y-176400187D01*
X154645203Y-176564101D01*
X154633963Y-176570591D01*
X154365793Y-176707231D01*
X154353935Y-176712510D01*
X154072966Y-176820363D01*
X154060623Y-176824374D01*
X153769902Y-176902273D01*
X153757205Y-176904971D01*
X153459953Y-176952050D01*
X153447046Y-176953407D01*
X153143244Y-176969330D01*
X153136754Y-176969500D01*
X103503246Y-176969500D01*
X103496756Y-176969330D01*
X103192953Y-176953407D01*
X103180046Y-176952050D01*
X102882794Y-176904971D01*
X102870097Y-176902273D01*
X102579376Y-176824374D01*
X102567033Y-176820363D01*
X102286064Y-176712510D01*
X102274206Y-176707231D01*
X102006036Y-176570591D01*
X101994796Y-176564101D01*
X101742391Y-176400187D01*
X101731890Y-176392558D01*
X101497989Y-176203149D01*
X101488344Y-176194464D01*
X101275535Y-175981655D01*
X101266850Y-175972010D01*
X101077441Y-175738109D01*
X101069812Y-175727608D01*
X100905896Y-175475199D01*
X100899408Y-175463963D01*
X100850120Y-175367231D01*
X100762767Y-175195790D01*
X100757489Y-175183935D01*
X100713647Y-175069723D01*
X100649635Y-174902965D01*
X100645625Y-174890623D01*
X100607290Y-174747555D01*
X100567724Y-174599896D01*
X100565028Y-174587205D01*
X100517949Y-174289953D01*
X100516592Y-174277046D01*
X100500670Y-173973243D01*
X100500500Y-173966753D01*
X100500500Y-132250000D01*
X105874016Y-132250000D01*
X106951518Y-132250000D01*
X106940889Y-132268409D01*
X106900000Y-132421009D01*
X106900000Y-132578991D01*
X106940889Y-132731591D01*
X106951518Y-132750000D01*
X105874016Y-132750000D01*
X105880781Y-132792716D01*
X105941581Y-132979837D01*
X106030904Y-133155143D01*
X106146555Y-133314321D01*
X106285678Y-133453444D01*
X106444856Y-133569095D01*
X106620164Y-133658418D01*
X106807294Y-133719221D01*
X107001618Y-133750000D01*
X107250000Y-133750000D01*
X107250000Y-133048482D01*
X107268409Y-133059111D01*
X107421009Y-133100000D01*
X107578991Y-133100000D01*
X107731591Y-133059111D01*
X107750000Y-133048482D01*
X107750000Y-133750000D01*
X107998382Y-133750000D01*
X108192705Y-133719221D01*
X108379835Y-133658418D01*
X108555143Y-133569095D01*
X108714321Y-133453444D01*
X108853444Y-133314321D01*
X108969095Y-133155143D01*
X109058418Y-132979837D01*
X109119218Y-132792716D01*
X109125984Y-132750000D01*
X108048482Y-132750000D01*
X108059111Y-132731591D01*
X108100000Y-132578991D01*
X108100000Y-132421009D01*
X108059111Y-132268409D01*
X108048482Y-132250000D01*
X109125984Y-132250000D01*
X110874016Y-132250000D01*
X111951518Y-132250000D01*
X111940889Y-132268409D01*
X111900000Y-132421009D01*
X111900000Y-132578991D01*
X111940889Y-132731591D01*
X111951518Y-132750000D01*
X110874016Y-132750000D01*
X110880781Y-132792716D01*
X110941581Y-132979837D01*
X111030904Y-133155143D01*
X111146555Y-133314321D01*
X111285678Y-133453444D01*
X111444856Y-133569095D01*
X111620164Y-133658418D01*
X111807294Y-133719221D01*
X112001618Y-133750000D01*
X112250000Y-133750000D01*
X112250000Y-133048482D01*
X112268409Y-133059111D01*
X112421009Y-133100000D01*
X112578991Y-133100000D01*
X112731591Y-133059111D01*
X112750000Y-133048482D01*
X112750000Y-133750000D01*
X112998382Y-133750000D01*
X113192705Y-133719221D01*
X113379835Y-133658418D01*
X113555143Y-133569095D01*
X113714321Y-133453444D01*
X113853444Y-133314321D01*
X113969095Y-133155143D01*
X114058418Y-132979837D01*
X114119218Y-132792716D01*
X114125984Y-132750000D01*
X113048482Y-132750000D01*
X113059111Y-132731591D01*
X113100000Y-132578991D01*
X113100000Y-132421009D01*
X113059111Y-132268409D01*
X113048482Y-132250000D01*
X114125984Y-132250000D01*
X114119218Y-132207283D01*
X114058418Y-132020162D01*
X113969095Y-131844856D01*
X113853444Y-131685678D01*
X113714321Y-131546555D01*
X113555143Y-131430904D01*
X113379835Y-131341581D01*
X113192705Y-131280778D01*
X112998382Y-131250000D01*
X112750000Y-131250000D01*
X112750000Y-131951517D01*
X112731591Y-131940889D01*
X112578991Y-131900000D01*
X112421009Y-131900000D01*
X112268409Y-131940889D01*
X112250000Y-131951517D01*
X112250000Y-131250000D01*
X112001618Y-131250000D01*
X111807294Y-131280778D01*
X111620164Y-131341581D01*
X111444856Y-131430904D01*
X111285678Y-131546555D01*
X111146555Y-131685678D01*
X111030904Y-131844856D01*
X110941581Y-132020162D01*
X110880781Y-132207283D01*
X110874016Y-132250000D01*
X109125984Y-132250000D01*
X109119218Y-132207283D01*
X109058418Y-132020162D01*
X108969095Y-131844856D01*
X108853444Y-131685678D01*
X108714321Y-131546555D01*
X108555143Y-131430904D01*
X108379835Y-131341581D01*
X108192705Y-131280778D01*
X107998382Y-131250000D01*
X107750000Y-131250000D01*
X107750000Y-131951517D01*
X107731591Y-131940889D01*
X107578991Y-131900000D01*
X107421009Y-131900000D01*
X107268409Y-131940889D01*
X107250000Y-131951517D01*
X107250000Y-131250000D01*
X107001618Y-131250000D01*
X106807294Y-131280778D01*
X106620164Y-131341581D01*
X106444856Y-131430904D01*
X106285678Y-131546555D01*
X106146555Y-131685678D01*
X106030904Y-131844856D01*
X105941581Y-132020162D01*
X105880781Y-132207283D01*
X105874016Y-132250000D01*
X100500500Y-132250000D01*
X100500500Y-128449984D01*
X105849500Y-128449984D01*
X105849500Y-129550015D01*
X105860000Y-129652795D01*
X105860001Y-129652796D01*
X105915186Y-129819335D01*
X105915187Y-129819337D01*
X106007286Y-129968651D01*
X106007289Y-129968655D01*
X106131344Y-130092710D01*
X106131348Y-130092713D01*
X106280662Y-130184812D01*
X106280664Y-130184813D01*
X106280666Y-130184814D01*
X106447203Y-130239999D01*
X106549992Y-130250500D01*
X106549997Y-130250500D01*
X108450003Y-130250500D01*
X108450008Y-130250500D01*
X108552797Y-130239999D01*
X108719334Y-130184814D01*
X108868655Y-130092711D01*
X108992711Y-129968655D01*
X109084814Y-129819334D01*
X109139999Y-129652797D01*
X109150500Y-129550008D01*
X109150500Y-128449992D01*
X109139999Y-128347203D01*
X109091928Y-128202135D01*
X110849500Y-128202135D01*
X110849500Y-129797870D01*
X110849501Y-129797876D01*
X110855908Y-129857483D01*
X110906202Y-129992328D01*
X110906206Y-129992335D01*
X110992452Y-130107544D01*
X110992455Y-130107547D01*
X111107664Y-130193793D01*
X111107671Y-130193797D01*
X111242517Y-130244091D01*
X111242516Y-130244091D01*
X111249444Y-130244835D01*
X111302127Y-130250500D01*
X113697872Y-130250499D01*
X113757483Y-130244091D01*
X113892331Y-130193796D01*
X114007546Y-130107546D01*
X114093796Y-129992331D01*
X114144091Y-129857483D01*
X114150500Y-129797873D01*
X114150499Y-128874038D01*
X116899500Y-128874038D01*
X116899500Y-129125961D01*
X116938910Y-129374785D01*
X117016760Y-129614383D01*
X117095413Y-129768747D01*
X117121874Y-129820680D01*
X117131132Y-129838848D01*
X117279201Y-130042649D01*
X117279205Y-130042654D01*
X117457345Y-130220794D01*
X117457350Y-130220798D01*
X117618735Y-130338050D01*
X117661155Y-130368870D01*
X117804184Y-130441747D01*
X117885616Y-130483239D01*
X117885618Y-130483239D01*
X117885621Y-130483241D01*
X118125215Y-130561090D01*
X118374038Y-130600500D01*
X118374039Y-130600500D01*
X118625961Y-130600500D01*
X118625962Y-130600500D01*
X118874785Y-130561090D01*
X119114379Y-130483241D01*
X119338845Y-130368870D01*
X119542656Y-130220793D01*
X119720793Y-130042656D01*
X119868870Y-129838845D01*
X119983241Y-129614379D01*
X120061090Y-129374785D01*
X120100500Y-129125962D01*
X120100500Y-128874038D01*
X120061090Y-128625215D01*
X119983241Y-128385621D01*
X119983239Y-128385618D01*
X119983239Y-128385616D01*
X119914811Y-128251319D01*
X119868870Y-128161155D01*
X119847871Y-128132252D01*
X119824426Y-128099982D01*
X127059500Y-128099982D01*
X127059500Y-129900017D01*
X127070000Y-130002796D01*
X127125185Y-130169332D01*
X127125187Y-130169337D01*
X127140272Y-130193793D01*
X127217288Y-130318656D01*
X127341344Y-130442712D01*
X127490665Y-130534814D01*
X127657202Y-130589999D01*
X127759990Y-130600500D01*
X127759995Y-130600500D01*
X129560005Y-130600500D01*
X129560010Y-130600500D01*
X129662798Y-130589999D01*
X129829335Y-130534814D01*
X129978656Y-130442712D01*
X130102712Y-130318656D01*
X130194814Y-130169335D01*
X130249999Y-130002798D01*
X130260500Y-129900010D01*
X130260500Y-128099990D01*
X130249999Y-127997202D01*
X130194814Y-127830665D01*
X130102712Y-127681344D01*
X129978656Y-127557288D01*
X129850713Y-127478372D01*
X129829337Y-127465187D01*
X129829332Y-127465185D01*
X129827863Y-127464698D01*
X129662798Y-127410001D01*
X129662796Y-127410000D01*
X129560017Y-127399500D01*
X129560010Y-127399500D01*
X127759990Y-127399500D01*
X127759982Y-127399500D01*
X127657203Y-127410000D01*
X127657202Y-127410001D01*
X127574669Y-127437349D01*
X127490667Y-127465185D01*
X127490662Y-127465187D01*
X127341342Y-127557289D01*
X127217289Y-127681342D01*
X127125187Y-127830662D01*
X127125186Y-127830665D01*
X127070001Y-127997202D01*
X127070001Y-127997203D01*
X127070000Y-127997203D01*
X127059500Y-128099982D01*
X119824426Y-128099982D01*
X119720798Y-127957350D01*
X119720794Y-127957345D01*
X119542654Y-127779205D01*
X119542649Y-127779201D01*
X119338848Y-127631132D01*
X119338847Y-127631131D01*
X119338845Y-127631130D01*
X119268747Y-127595413D01*
X119114383Y-127516760D01*
X118874785Y-127438910D01*
X118625962Y-127399500D01*
X118374038Y-127399500D01*
X118307738Y-127410001D01*
X118125214Y-127438910D01*
X117885616Y-127516760D01*
X117661151Y-127631132D01*
X117457350Y-127779201D01*
X117457345Y-127779205D01*
X117279205Y-127957345D01*
X117279201Y-127957350D01*
X117131132Y-128161151D01*
X117016760Y-128385616D01*
X116938910Y-128625214D01*
X116899500Y-128874038D01*
X114150499Y-128874038D01*
X114150499Y-128202128D01*
X114144091Y-128142517D01*
X114140263Y-128132254D01*
X114093797Y-128007671D01*
X114093793Y-128007664D01*
X114007547Y-127892455D01*
X114007544Y-127892452D01*
X113892335Y-127806206D01*
X113892328Y-127806202D01*
X113757482Y-127755908D01*
X113757483Y-127755908D01*
X113697883Y-127749501D01*
X113697881Y-127749500D01*
X113697873Y-127749500D01*
X113697864Y-127749500D01*
X111302129Y-127749500D01*
X111302123Y-127749501D01*
X111242516Y-127755908D01*
X111107671Y-127806202D01*
X111107664Y-127806206D01*
X110992455Y-127892452D01*
X110992452Y-127892455D01*
X110906206Y-128007664D01*
X110906202Y-128007671D01*
X110855908Y-128142517D01*
X110851807Y-128180666D01*
X110849501Y-128202123D01*
X110849500Y-128202135D01*
X109091928Y-128202135D01*
X109084814Y-128180666D01*
X109072779Y-128161155D01*
X108992713Y-128031348D01*
X108992710Y-128031344D01*
X108868655Y-127907289D01*
X108868651Y-127907286D01*
X108719337Y-127815187D01*
X108719335Y-127815186D01*
X108636065Y-127787593D01*
X108552797Y-127760001D01*
X108552795Y-127760000D01*
X108450015Y-127749500D01*
X108450008Y-127749500D01*
X106549992Y-127749500D01*
X106549984Y-127749500D01*
X106447204Y-127760000D01*
X106447203Y-127760001D01*
X106280664Y-127815186D01*
X106280662Y-127815187D01*
X106131348Y-127907286D01*
X106131344Y-127907289D01*
X106007289Y-128031344D01*
X106007286Y-128031348D01*
X105915187Y-128180662D01*
X105915186Y-128180664D01*
X105860001Y-128347203D01*
X105860000Y-128347204D01*
X105849500Y-128449984D01*
X100500500Y-128449984D01*
X100500500Y-120827135D01*
X102899500Y-120827135D01*
X102899500Y-122622870D01*
X102899501Y-122622876D01*
X102905908Y-122682483D01*
X102956202Y-122817328D01*
X102956206Y-122817335D01*
X103042452Y-122932544D01*
X103042455Y-122932547D01*
X103157664Y-123018793D01*
X103157671Y-123018797D01*
X103289082Y-123067810D01*
X103345016Y-123109681D01*
X103369433Y-123175145D01*
X103354582Y-123243418D01*
X103333431Y-123271673D01*
X103219889Y-123385215D01*
X103094951Y-123557179D01*
X102998444Y-123746585D01*
X102932753Y-123948760D01*
X102899500Y-124158713D01*
X102899500Y-124371286D01*
X102932735Y-124581127D01*
X102932754Y-124581243D01*
X102951811Y-124639895D01*
X102998444Y-124783414D01*
X103094951Y-124972820D01*
X103219890Y-125144786D01*
X103370213Y-125295109D01*
X103542179Y-125420048D01*
X103542181Y-125420049D01*
X103542184Y-125420051D01*
X103731588Y-125516557D01*
X103933757Y-125582246D01*
X104143713Y-125615500D01*
X104143714Y-125615500D01*
X104356286Y-125615500D01*
X104356287Y-125615500D01*
X104566243Y-125582246D01*
X104768412Y-125516557D01*
X104957816Y-125420051D01*
X105012572Y-125380269D01*
X105129786Y-125295109D01*
X105129788Y-125295106D01*
X105129792Y-125295104D01*
X105280104Y-125144792D01*
X105280106Y-125144788D01*
X105280109Y-125144786D01*
X105405048Y-124972820D01*
X105405047Y-124972820D01*
X105405051Y-124972816D01*
X105501557Y-124783412D01*
X105567246Y-124581243D01*
X105600500Y-124371287D01*
X105600500Y-124158713D01*
X105567246Y-123948757D01*
X105553506Y-123906473D01*
X105551512Y-123836635D01*
X105583755Y-123780478D01*
X106001213Y-123363021D01*
X106001216Y-123363020D01*
X106113020Y-123251216D01*
X106163139Y-123164404D01*
X106192077Y-123114285D01*
X106233000Y-122961558D01*
X106233000Y-122803443D01*
X106233000Y-122417597D01*
X106252685Y-122350558D01*
X106269319Y-122329916D01*
X107462416Y-121136819D01*
X107523739Y-121103334D01*
X107550097Y-121100500D01*
X108025500Y-121100500D01*
X108092539Y-121120185D01*
X108138294Y-121172989D01*
X108149500Y-121224500D01*
X108149500Y-122622870D01*
X108149501Y-122622876D01*
X108155908Y-122682483D01*
X108206202Y-122817328D01*
X108206206Y-122817335D01*
X108292452Y-122932544D01*
X108292455Y-122932547D01*
X108407664Y-123018793D01*
X108407671Y-123018797D01*
X108452618Y-123035561D01*
X108542517Y-123069091D01*
X108602127Y-123075500D01*
X108612685Y-123075499D01*
X108679723Y-123095179D01*
X108700372Y-123111818D01*
X109370591Y-123782037D01*
X109307007Y-123799075D01*
X109192993Y-123864901D01*
X109099901Y-123957993D01*
X109034075Y-124072007D01*
X109017037Y-124135591D01*
X108384728Y-123503282D01*
X108384727Y-123503282D01*
X108345380Y-123557439D01*
X108248904Y-123746782D01*
X108183242Y-123948869D01*
X108183242Y-123948872D01*
X108150000Y-124158753D01*
X108150000Y-124371246D01*
X108183242Y-124581127D01*
X108183242Y-124581130D01*
X108248904Y-124783217D01*
X108345375Y-124972550D01*
X108384728Y-125026716D01*
X109017037Y-124394408D01*
X109034075Y-124457993D01*
X109099901Y-124572007D01*
X109192993Y-124665099D01*
X109307007Y-124730925D01*
X109370590Y-124747962D01*
X108738282Y-125380269D01*
X108738282Y-125380270D01*
X108792449Y-125419624D01*
X108981782Y-125516095D01*
X109183870Y-125581757D01*
X109393754Y-125615000D01*
X109606246Y-125615000D01*
X109816127Y-125581757D01*
X109816130Y-125581757D01*
X110018219Y-125516094D01*
X110034634Y-125507731D01*
X110034635Y-125507730D01*
X110207554Y-125419622D01*
X110261716Y-125380270D01*
X110261717Y-125380270D01*
X109629408Y-124747962D01*
X109692993Y-124730925D01*
X109807007Y-124665099D01*
X109900099Y-124572007D01*
X109965925Y-124457993D01*
X109982962Y-124394408D01*
X110615270Y-125026717D01*
X110615270Y-125026716D01*
X110654622Y-124972554D01*
X110751095Y-124783217D01*
X110816757Y-124581130D01*
X110816757Y-124581127D01*
X110832192Y-124483682D01*
X121940000Y-124483682D01*
X121940000Y-124688317D01*
X121972009Y-124890417D01*
X122035244Y-125085031D01*
X122128141Y-125267350D01*
X122128147Y-125267359D01*
X122160523Y-125311921D01*
X122160524Y-125311922D01*
X122840000Y-124632446D01*
X122840000Y-124638661D01*
X122867259Y-124740394D01*
X122919920Y-124831606D01*
X122994394Y-124906080D01*
X123085606Y-124958741D01*
X123187339Y-124986000D01*
X123193553Y-124986000D01*
X122514076Y-125665474D01*
X122558650Y-125697859D01*
X122740968Y-125790755D01*
X122935582Y-125853990D01*
X123137683Y-125886000D01*
X123342317Y-125886000D01*
X123544417Y-125853990D01*
X123739031Y-125790755D01*
X123921349Y-125697859D01*
X123965921Y-125665474D01*
X123286447Y-124986000D01*
X123292661Y-124986000D01*
X123394394Y-124958741D01*
X123485606Y-124906080D01*
X123560080Y-124831606D01*
X123612741Y-124740394D01*
X123640000Y-124638661D01*
X123640000Y-124632448D01*
X124319474Y-125311922D01*
X124319474Y-125311921D01*
X124351859Y-125267349D01*
X124444755Y-125085031D01*
X124507990Y-124890417D01*
X124540000Y-124688317D01*
X124540000Y-124483682D01*
X124539995Y-124483648D01*
X132099500Y-124483648D01*
X132099500Y-124688351D01*
X132131522Y-124890534D01*
X132194781Y-125085223D01*
X132233392Y-125161000D01*
X132287585Y-125267359D01*
X132287715Y-125267613D01*
X132408028Y-125433213D01*
X132552786Y-125577971D01*
X132673226Y-125665474D01*
X132718390Y-125698287D01*
X132832013Y-125756181D01*
X132900776Y-125791218D01*
X132900778Y-125791218D01*
X132900781Y-125791220D01*
X132953933Y-125808490D01*
X133095465Y-125854477D01*
X133196557Y-125870488D01*
X133297648Y-125886500D01*
X133297649Y-125886500D01*
X133502351Y-125886500D01*
X133502352Y-125886500D01*
X133704534Y-125854477D01*
X133899219Y-125791220D01*
X134081610Y-125698287D01*
X134174590Y-125630732D01*
X134247213Y-125577971D01*
X134247215Y-125577968D01*
X134247219Y-125577966D01*
X134391966Y-125433219D01*
X134391968Y-125433215D01*
X134391971Y-125433213D01*
X134447133Y-125357288D01*
X134512287Y-125267610D01*
X134605220Y-125085219D01*
X134668477Y-124890534D01*
X134700500Y-124688352D01*
X134700500Y-124483648D01*
X134688438Y-124407491D01*
X134668477Y-124281465D01*
X134637458Y-124186000D01*
X134605220Y-124086781D01*
X134605218Y-124086778D01*
X134605218Y-124086776D01*
X134539599Y-123957993D01*
X134512287Y-123904390D01*
X134480092Y-123860077D01*
X134391971Y-123738786D01*
X134247213Y-123594028D01*
X134081613Y-123473715D01*
X134081612Y-123473714D01*
X134081610Y-123473713D01*
X133970623Y-123417162D01*
X133899223Y-123380781D01*
X133704534Y-123317522D01*
X133529995Y-123289878D01*
X133502352Y-123285500D01*
X133297648Y-123285500D01*
X133273329Y-123289351D01*
X133095465Y-123317522D01*
X132900776Y-123380781D01*
X132718386Y-123473715D01*
X132552786Y-123594028D01*
X132408028Y-123738786D01*
X132287715Y-123904386D01*
X132194781Y-124086776D01*
X132131522Y-124281465D01*
X132099500Y-124483648D01*
X124539995Y-124483648D01*
X124507990Y-124281582D01*
X124444755Y-124086968D01*
X124351859Y-123904650D01*
X124319474Y-123860077D01*
X124319474Y-123860076D01*
X123640000Y-124539551D01*
X123640000Y-124533339D01*
X123612741Y-124431606D01*
X123560080Y-124340394D01*
X123485606Y-124265920D01*
X123394394Y-124213259D01*
X123292661Y-124186000D01*
X123286446Y-124186000D01*
X123965922Y-123506524D01*
X123965921Y-123506523D01*
X123921359Y-123474147D01*
X123921350Y-123474141D01*
X123739031Y-123381244D01*
X123544417Y-123318009D01*
X123342317Y-123286000D01*
X123137683Y-123286000D01*
X122935582Y-123318009D01*
X122740968Y-123381244D01*
X122558644Y-123474143D01*
X122514077Y-123506523D01*
X122514077Y-123506524D01*
X123193554Y-124186000D01*
X123187339Y-124186000D01*
X123085606Y-124213259D01*
X122994394Y-124265920D01*
X122919920Y-124340394D01*
X122867259Y-124431606D01*
X122840000Y-124533339D01*
X122840000Y-124539553D01*
X122160524Y-123860077D01*
X122160523Y-123860077D01*
X122128143Y-123904644D01*
X122035244Y-124086968D01*
X121972009Y-124281582D01*
X121940000Y-124483682D01*
X110832192Y-124483682D01*
X110836035Y-124459418D01*
X110850000Y-124371246D01*
X110850000Y-124158753D01*
X110816757Y-123948872D01*
X110816757Y-123948869D01*
X110751094Y-123746779D01*
X110751092Y-123746775D01*
X110681442Y-123610080D01*
X110681440Y-123610078D01*
X110654624Y-123557449D01*
X110615270Y-123503282D01*
X110615269Y-123503282D01*
X109982962Y-124135590D01*
X109965925Y-124072007D01*
X109900099Y-123957993D01*
X109807007Y-123864901D01*
X109692993Y-123799075D01*
X109629409Y-123782037D01*
X110299627Y-123111818D01*
X110360950Y-123078333D01*
X110387307Y-123075499D01*
X110397872Y-123075499D01*
X110457483Y-123069091D01*
X110592331Y-123018796D01*
X110707546Y-122932546D01*
X110793796Y-122817331D01*
X110844091Y-122682483D01*
X110850500Y-122622873D01*
X110850499Y-121224499D01*
X110870184Y-121157461D01*
X110922987Y-121111706D01*
X110974499Y-121100500D01*
X140396803Y-121100500D01*
X140463842Y-121120185D01*
X140484484Y-121136819D01*
X142743825Y-123396160D01*
X142777310Y-123457483D01*
X142772326Y-123527175D01*
X142730454Y-123583108D01*
X142664990Y-123607525D01*
X142617827Y-123601772D01*
X142462055Y-123551158D01*
X142462053Y-123551157D01*
X142462052Y-123551157D01*
X142274800Y-123521500D01*
X142274796Y-123521500D01*
X142085204Y-123521500D01*
X142085200Y-123521500D01*
X141897949Y-123551157D01*
X141897946Y-123551157D01*
X141897945Y-123551158D01*
X141878584Y-123557449D01*
X141717627Y-123609747D01*
X141548703Y-123695819D01*
X141395319Y-123807260D01*
X141261260Y-123941319D01*
X141149819Y-124094703D01*
X141063747Y-124263627D01*
X141005157Y-124443949D01*
X140975500Y-124631199D01*
X140975500Y-124820800D01*
X140999535Y-124972554D01*
X141005158Y-125008055D01*
X141030232Y-125085223D01*
X141063747Y-125188372D01*
X141118131Y-125295105D01*
X141149819Y-125357296D01*
X141261259Y-125510679D01*
X141395321Y-125644741D01*
X141548704Y-125756181D01*
X141548706Y-125756182D01*
X141557211Y-125760516D01*
X141608006Y-125808490D01*
X141624801Y-125876311D01*
X141602263Y-125942446D01*
X141557211Y-125981484D01*
X141548706Y-125985817D01*
X141395319Y-126097260D01*
X141261260Y-126231319D01*
X141149819Y-126384703D01*
X141063747Y-126553627D01*
X141005157Y-126733949D01*
X140975500Y-126921199D01*
X140975500Y-127110800D01*
X140999785Y-127264129D01*
X141005158Y-127298055D01*
X141038120Y-127399500D01*
X141063747Y-127478372D01*
X141103958Y-127557289D01*
X141149819Y-127647296D01*
X141261259Y-127800679D01*
X141395321Y-127934741D01*
X141548704Y-128046181D01*
X141628515Y-128086846D01*
X141717627Y-128132252D01*
X141717629Y-128132252D01*
X141717632Y-128132254D01*
X141897945Y-128190842D01*
X141991574Y-128205671D01*
X142085200Y-128220500D01*
X142085204Y-128220500D01*
X142274800Y-128220500D01*
X142358022Y-128207318D01*
X142462055Y-128190842D01*
X142642368Y-128132254D01*
X142811296Y-128046181D01*
X142964679Y-127934741D01*
X143098741Y-127800679D01*
X143210181Y-127647296D01*
X143296254Y-127478368D01*
X143354842Y-127298055D01*
X143371318Y-127194022D01*
X143384500Y-127110800D01*
X143384500Y-126921199D01*
X143361809Y-126777936D01*
X143354842Y-126733945D01*
X143296254Y-126553632D01*
X143296252Y-126553629D01*
X143296252Y-126553627D01*
X143210180Y-126384703D01*
X143098741Y-126231321D01*
X142964679Y-126097259D01*
X142811296Y-125985819D01*
X142802792Y-125981486D01*
X142751995Y-125933513D01*
X142735198Y-125865692D01*
X142757734Y-125799557D01*
X142802792Y-125760514D01*
X142802803Y-125760508D01*
X142811296Y-125756181D01*
X142964679Y-125644741D01*
X143098741Y-125510679D01*
X143210181Y-125357296D01*
X143296254Y-125188368D01*
X143354842Y-125008055D01*
X143373455Y-124890534D01*
X143384500Y-124820800D01*
X143384500Y-124631199D01*
X143369000Y-124533339D01*
X143354842Y-124443945D01*
X143304226Y-124288169D01*
X143302232Y-124218333D01*
X143338312Y-124158500D01*
X143401012Y-124127671D01*
X143470427Y-124135635D01*
X143509839Y-124162174D01*
X146363181Y-127015516D01*
X146396666Y-127076839D01*
X146399500Y-127103197D01*
X146399500Y-127920263D01*
X146379815Y-127987302D01*
X146348386Y-128020581D01*
X146215319Y-128117260D01*
X146081260Y-128251319D01*
X145969819Y-128404703D01*
X145883747Y-128573627D01*
X145825157Y-128753949D01*
X145795500Y-128941199D01*
X145795500Y-129130800D01*
X145825157Y-129318050D01*
X145825158Y-129318055D01*
X145843591Y-129374785D01*
X145883747Y-129498372D01*
X145962430Y-129652795D01*
X145969819Y-129667296D01*
X146081259Y-129820679D01*
X146215321Y-129954741D01*
X146287958Y-130007515D01*
X146301778Y-130025438D01*
X146302385Y-130024832D01*
X146911414Y-130633861D01*
X146826306Y-130656667D01*
X146723694Y-130715910D01*
X146639910Y-130799694D01*
X146580667Y-130902306D01*
X146557861Y-130987414D01*
X145989253Y-130418806D01*
X145970245Y-130444969D01*
X145884210Y-130613821D01*
X145825645Y-130794062D01*
X145796000Y-130981237D01*
X145796000Y-131170762D01*
X145825645Y-131357937D01*
X145884210Y-131538178D01*
X145970246Y-131707033D01*
X145989253Y-131733192D01*
X145989253Y-131733193D01*
X146557861Y-131164584D01*
X146580667Y-131249694D01*
X146639910Y-131352306D01*
X146723694Y-131436090D01*
X146826306Y-131495333D01*
X146911413Y-131518137D01*
X146307791Y-132121760D01*
X146287958Y-132144483D01*
X146215329Y-132197251D01*
X146215321Y-132197258D01*
X146081260Y-132331319D01*
X145969819Y-132484703D01*
X145883747Y-132653627D01*
X145825157Y-132833949D01*
X145795500Y-133021199D01*
X145795500Y-133210800D01*
X145821229Y-133373247D01*
X145812274Y-133442541D01*
X145786437Y-133480326D01*
X143507237Y-135759526D01*
X143445914Y-135793011D01*
X143376222Y-135788027D01*
X143320289Y-135746155D01*
X143301625Y-135710163D01*
X143296254Y-135693632D01*
X143210181Y-135524704D01*
X143098741Y-135371321D01*
X142964679Y-135237259D01*
X142811296Y-135125819D01*
X142642372Y-135039747D01*
X142583905Y-135020750D01*
X142462055Y-134981158D01*
X142462051Y-134981157D01*
X142462050Y-134981157D01*
X142274800Y-134951500D01*
X142274796Y-134951500D01*
X142085204Y-134951500D01*
X142085200Y-134951500D01*
X141897949Y-134981157D01*
X141897946Y-134981157D01*
X141897945Y-134981158D01*
X141839482Y-135000153D01*
X141717627Y-135039747D01*
X141548703Y-135125819D01*
X141395319Y-135237260D01*
X141261260Y-135371319D01*
X141149819Y-135524703D01*
X141063747Y-135693627D01*
X141005157Y-135873949D01*
X140975500Y-136061199D01*
X140975500Y-136250800D01*
X141003904Y-136430140D01*
X141005158Y-136438055D01*
X141041873Y-136551051D01*
X141063747Y-136618372D01*
X141112097Y-136713263D01*
X141149819Y-136787296D01*
X141261259Y-136940679D01*
X141395321Y-137074741D01*
X141548704Y-137186181D01*
X141548706Y-137186182D01*
X141557211Y-137190516D01*
X141608006Y-137238490D01*
X141624801Y-137306311D01*
X141602263Y-137372446D01*
X141557211Y-137411484D01*
X141548706Y-137415817D01*
X141395319Y-137527260D01*
X141261260Y-137661319D01*
X141149819Y-137814703D01*
X141063747Y-137983627D01*
X141005157Y-138163949D01*
X140975500Y-138351199D01*
X140975500Y-138540800D01*
X141000492Y-138698595D01*
X141005158Y-138728055D01*
X141044750Y-138849905D01*
X141063747Y-138908372D01*
X141149819Y-139077296D01*
X141261259Y-139230679D01*
X141395321Y-139364741D01*
X141548704Y-139476181D01*
X141628515Y-139516846D01*
X141717627Y-139562252D01*
X141717629Y-139562252D01*
X141717632Y-139562254D01*
X141897945Y-139620842D01*
X141991574Y-139635671D01*
X142085200Y-139650500D01*
X142085204Y-139650500D01*
X142274800Y-139650500D01*
X142406523Y-139629637D01*
X142462055Y-139620842D01*
X142487184Y-139612676D01*
X142557022Y-139610681D01*
X142616855Y-139646761D01*
X142647684Y-139709462D01*
X142649500Y-139730608D01*
X142649500Y-154642142D01*
X142629815Y-154709181D01*
X142613181Y-154729823D01*
X135526398Y-161816606D01*
X135465075Y-161850091D01*
X135395383Y-161845107D01*
X135339450Y-161803235D01*
X135315033Y-161737771D01*
X135318941Y-161696836D01*
X135350501Y-161579057D01*
X135350501Y-161420942D01*
X135350501Y-161413347D01*
X135350500Y-161413329D01*
X135350500Y-148049060D01*
X135350501Y-148049047D01*
X135350501Y-147880944D01*
X135350501Y-147880943D01*
X135309577Y-147728216D01*
X135307090Y-147723908D01*
X135230524Y-147591290D01*
X135230518Y-147591282D01*
X133849630Y-146210394D01*
X133816145Y-146149071D01*
X133819379Y-146084397D01*
X133836754Y-146030926D01*
X133855160Y-145914708D01*
X133870500Y-145817866D01*
X133870500Y-145602133D01*
X133836754Y-145389077D01*
X133836754Y-145389074D01*
X133770092Y-145183911D01*
X133672157Y-144991701D01*
X133545359Y-144817179D01*
X133403375Y-144675195D01*
X133369890Y-144613872D01*
X133374874Y-144544180D01*
X133416746Y-144488247D01*
X133438657Y-144475129D01*
X133439322Y-144474817D01*
X133439334Y-144474814D01*
X133588656Y-144382712D01*
X133712712Y-144258656D01*
X133804814Y-144109334D01*
X133859999Y-143942797D01*
X133870500Y-143840009D01*
X133870499Y-142499992D01*
X133859999Y-142397203D01*
X133804814Y-142230666D01*
X133712712Y-142081344D01*
X133588656Y-141957288D01*
X133439334Y-141865186D01*
X133272797Y-141810001D01*
X133272795Y-141810000D01*
X133170010Y-141799500D01*
X131829998Y-141799500D01*
X131829981Y-141799501D01*
X131727203Y-141810000D01*
X131727200Y-141810001D01*
X131560668Y-141865185D01*
X131560663Y-141865187D01*
X131411342Y-141957289D01*
X131287289Y-142081342D01*
X131195187Y-142230663D01*
X131195185Y-142230668D01*
X131184304Y-142263505D01*
X131140001Y-142397203D01*
X131140001Y-142397204D01*
X131140000Y-142397204D01*
X131129500Y-142499983D01*
X131129500Y-143840001D01*
X131129501Y-143840018D01*
X131140000Y-143942796D01*
X131140001Y-143942799D01*
X131175557Y-144050097D01*
X131195186Y-144109334D01*
X131287288Y-144258656D01*
X131411344Y-144382712D01*
X131560666Y-144474814D01*
X131560668Y-144474814D01*
X131560669Y-144474815D01*
X131561348Y-144475132D01*
X131561735Y-144475473D01*
X131566813Y-144478605D01*
X131566277Y-144479472D01*
X131613787Y-144521304D01*
X131632939Y-144588498D01*
X131612723Y-144655379D01*
X131596625Y-144675195D01*
X131454640Y-144817180D01*
X131327843Y-144991700D01*
X131229909Y-145183908D01*
X131163245Y-145389077D01*
X131129500Y-145602133D01*
X131129500Y-145817866D01*
X131163245Y-146030920D01*
X131163246Y-146030926D01*
X131229908Y-146236089D01*
X131327843Y-146428299D01*
X131454641Y-146602821D01*
X131607179Y-146755359D01*
X131728454Y-146843471D01*
X131778294Y-146879682D01*
X131820959Y-146935012D01*
X131826938Y-147004626D01*
X131794332Y-147066421D01*
X131778294Y-147080318D01*
X131607179Y-147204641D01*
X131607177Y-147204643D01*
X131607176Y-147204643D01*
X131454643Y-147357176D01*
X131454643Y-147357177D01*
X131454641Y-147357179D01*
X131400186Y-147432129D01*
X131327843Y-147531700D01*
X131229909Y-147723908D01*
X131229908Y-147723910D01*
X131229908Y-147723911D01*
X131228510Y-147728214D01*
X131163245Y-147929077D01*
X131129500Y-148142133D01*
X131129500Y-148357866D01*
X131163246Y-148570929D01*
X131180618Y-148624396D01*
X131182613Y-148694238D01*
X131150368Y-148750394D01*
X129632555Y-150268209D01*
X129131286Y-150769478D01*
X129131284Y-150769480D01*
X129100667Y-150800097D01*
X129019481Y-150881282D01*
X129019480Y-150881284D01*
X129003779Y-150908480D01*
X128960722Y-150983057D01*
X128950731Y-151000362D01*
X128940423Y-151018215D01*
X128899499Y-151170943D01*
X128899499Y-151170945D01*
X128899499Y-151339046D01*
X128899500Y-151339059D01*
X128899500Y-164939902D01*
X128879815Y-165006941D01*
X128863181Y-165027583D01*
X128312181Y-165578583D01*
X128250858Y-165612068D01*
X128181166Y-165607084D01*
X128125233Y-165565212D01*
X128100816Y-165499748D01*
X128100500Y-165490902D01*
X128100500Y-143839060D01*
X128100501Y-143839047D01*
X128100501Y-143670944D01*
X128059576Y-143518214D01*
X128059573Y-143518209D01*
X127980524Y-143381290D01*
X127980518Y-143381282D01*
X125737590Y-141138355D01*
X125737588Y-141138352D01*
X125618717Y-141019481D01*
X125618716Y-141019480D01*
X125531904Y-140969360D01*
X125531904Y-140969359D01*
X125531900Y-140969358D01*
X125481785Y-140940423D01*
X125329057Y-140899499D01*
X125170943Y-140899499D01*
X125163347Y-140899499D01*
X125163331Y-140899500D01*
X110539057Y-140899500D01*
X110380943Y-140899500D01*
X110228215Y-140940423D01*
X110228214Y-140940423D01*
X110228212Y-140940424D01*
X110228209Y-140940425D01*
X110178096Y-140969359D01*
X110178095Y-140969360D01*
X110134689Y-140994420D01*
X110091285Y-141019479D01*
X110091282Y-141019481D01*
X107832180Y-143278584D01*
X107770857Y-143312069D01*
X107701165Y-143307085D01*
X107645232Y-143265213D01*
X107620815Y-143199749D01*
X107620499Y-143190903D01*
X107620499Y-142499998D01*
X107620498Y-142499981D01*
X107609999Y-142397203D01*
X107609998Y-142397200D01*
X107609719Y-142396358D01*
X107554814Y-142230666D01*
X107462712Y-142081344D01*
X107338656Y-141957288D01*
X107189334Y-141865186D01*
X107022797Y-141810001D01*
X107022795Y-141810000D01*
X106920010Y-141799500D01*
X105579998Y-141799500D01*
X105579981Y-141799501D01*
X105477203Y-141810000D01*
X105477200Y-141810001D01*
X105310668Y-141865185D01*
X105310663Y-141865187D01*
X105161342Y-141957289D01*
X105037289Y-142081342D01*
X104945187Y-142230663D01*
X104945185Y-142230668D01*
X104934304Y-142263505D01*
X104890001Y-142397203D01*
X104890001Y-142397204D01*
X104890000Y-142397204D01*
X104879500Y-142499983D01*
X104879500Y-143840001D01*
X104879501Y-143840018D01*
X104890000Y-143942796D01*
X104890001Y-143942799D01*
X104925557Y-144050097D01*
X104945186Y-144109334D01*
X105037288Y-144258656D01*
X105161344Y-144382712D01*
X105310666Y-144474814D01*
X105310668Y-144474814D01*
X105310669Y-144474815D01*
X105311348Y-144475132D01*
X105311735Y-144475473D01*
X105316813Y-144478605D01*
X105316277Y-144479472D01*
X105363787Y-144521304D01*
X105382939Y-144588498D01*
X105362723Y-144655379D01*
X105346625Y-144675195D01*
X105204640Y-144817180D01*
X105077843Y-144991700D01*
X104979909Y-145183908D01*
X104913245Y-145389077D01*
X104879500Y-145602133D01*
X104879500Y-145817866D01*
X104913245Y-146030920D01*
X104913246Y-146030926D01*
X104979908Y-146236089D01*
X105077843Y-146428299D01*
X105204641Y-146602821D01*
X105357179Y-146755359D01*
X105478454Y-146843471D01*
X105528294Y-146879682D01*
X105570959Y-146935012D01*
X105576938Y-147004626D01*
X105544332Y-147066421D01*
X105528294Y-147080318D01*
X105357179Y-147204641D01*
X105357177Y-147204643D01*
X105357176Y-147204643D01*
X105204643Y-147357176D01*
X105204643Y-147357177D01*
X105204641Y-147357179D01*
X105150186Y-147432129D01*
X105077843Y-147531700D01*
X104979909Y-147723908D01*
X104979908Y-147723910D01*
X104979908Y-147723911D01*
X104978510Y-147728214D01*
X104913245Y-147929077D01*
X104879500Y-148142133D01*
X104879500Y-148357866D01*
X104913245Y-148570920D01*
X104913246Y-148570926D01*
X104979908Y-148776089D01*
X105077843Y-148968299D01*
X105204641Y-149142821D01*
X105357179Y-149295359D01*
X105357182Y-149295361D01*
X105528720Y-149419991D01*
X105571386Y-149475321D01*
X105577365Y-149544934D01*
X105544759Y-149606729D01*
X105528720Y-149620627D01*
X105473964Y-149660409D01*
X105473964Y-149660410D01*
X106083848Y-150270294D01*
X106039638Y-150282141D01*
X105915362Y-150353891D01*
X105813891Y-150455362D01*
X105742141Y-150579638D01*
X105730294Y-150623848D01*
X105120410Y-150013964D01*
X105078269Y-150071967D01*
X104980372Y-150264098D01*
X104913734Y-150469190D01*
X104880000Y-150682179D01*
X104880000Y-150897820D01*
X104913734Y-151110809D01*
X104980372Y-151315901D01*
X105078271Y-151508036D01*
X105120410Y-151566034D01*
X105120411Y-151566035D01*
X105730294Y-150956151D01*
X105742141Y-151000362D01*
X105813891Y-151124638D01*
X105915362Y-151226109D01*
X106039638Y-151297859D01*
X106083848Y-151309705D01*
X105473963Y-151919588D01*
X105473964Y-151919589D01*
X105531958Y-151961724D01*
X105531971Y-151961732D01*
X105724098Y-152059627D01*
X105929190Y-152126265D01*
X106142180Y-152160000D01*
X106357820Y-152160000D01*
X106570809Y-152126265D01*
X106775901Y-152059627D01*
X106968036Y-151961728D01*
X107026034Y-151919589D01*
X107026034Y-151919588D01*
X106416151Y-151309705D01*
X106460362Y-151297859D01*
X106584638Y-151226109D01*
X106686109Y-151124638D01*
X106757859Y-151000362D01*
X106769705Y-150956151D01*
X107379588Y-151566034D01*
X107379589Y-151566034D01*
X107421728Y-151508036D01*
X107519627Y-151315901D01*
X107586265Y-151110809D01*
X107620000Y-150897820D01*
X107620000Y-150768597D01*
X107639685Y-150701558D01*
X107692489Y-150655803D01*
X107761647Y-150645859D01*
X107825203Y-150674884D01*
X107831681Y-150680916D01*
X108752181Y-151601416D01*
X108785666Y-151662739D01*
X108788500Y-151689097D01*
X108788500Y-158349903D01*
X108768815Y-158416942D01*
X108716011Y-158462697D01*
X108646853Y-158472641D01*
X108583297Y-158443616D01*
X108576819Y-158437584D01*
X107656818Y-157517583D01*
X107623333Y-157456260D01*
X107620499Y-157429902D01*
X107620499Y-156289998D01*
X107620498Y-156289981D01*
X107609999Y-156187203D01*
X107609998Y-156187200D01*
X107554814Y-156020666D01*
X107462712Y-155871344D01*
X107338656Y-155747288D01*
X107189334Y-155655186D01*
X107022797Y-155600001D01*
X107022795Y-155600000D01*
X106920010Y-155589500D01*
X105579998Y-155589500D01*
X105579981Y-155589501D01*
X105477203Y-155600000D01*
X105477200Y-155600001D01*
X105310668Y-155655185D01*
X105310663Y-155655187D01*
X105161342Y-155747289D01*
X105037289Y-155871342D01*
X104945187Y-156020663D01*
X104945186Y-156020666D01*
X104890001Y-156187203D01*
X104890001Y-156187204D01*
X104890000Y-156187204D01*
X104879500Y-156289983D01*
X104879500Y-157630001D01*
X104879501Y-157630018D01*
X104890000Y-157732796D01*
X104890001Y-157732799D01*
X104907228Y-157784786D01*
X104945186Y-157899334D01*
X105037288Y-158048656D01*
X105161344Y-158172712D01*
X105310666Y-158264814D01*
X105310668Y-158264814D01*
X105310669Y-158264815D01*
X105311348Y-158265132D01*
X105311735Y-158265473D01*
X105316813Y-158268605D01*
X105316277Y-158269472D01*
X105363787Y-158311304D01*
X105382939Y-158378498D01*
X105362723Y-158445379D01*
X105346625Y-158465195D01*
X105204640Y-158607180D01*
X105077843Y-158781700D01*
X104979909Y-158973908D01*
X104913245Y-159179077D01*
X104879500Y-159392133D01*
X104879500Y-159607866D01*
X104913245Y-159820922D01*
X104913246Y-159820926D01*
X104979908Y-160026089D01*
X105077843Y-160218299D01*
X105204641Y-160392821D01*
X105357179Y-160545359D01*
X105357182Y-160545361D01*
X105528720Y-160669991D01*
X105571386Y-160725321D01*
X105577365Y-160794934D01*
X105544759Y-160856729D01*
X105528720Y-160870627D01*
X105473964Y-160910409D01*
X105473964Y-160910410D01*
X106083848Y-161520294D01*
X106039638Y-161532141D01*
X105915362Y-161603891D01*
X105813891Y-161705362D01*
X105742141Y-161829638D01*
X105730294Y-161873848D01*
X105120410Y-161263964D01*
X105078269Y-161321967D01*
X104980372Y-161514098D01*
X104913734Y-161719190D01*
X104880000Y-161932179D01*
X104880000Y-162147820D01*
X104913734Y-162360809D01*
X104980372Y-162565901D01*
X105078271Y-162758036D01*
X105120410Y-162816034D01*
X105120411Y-162816035D01*
X105730294Y-162206151D01*
X105742141Y-162250362D01*
X105813891Y-162374638D01*
X105915362Y-162476109D01*
X106039638Y-162547859D01*
X106083847Y-162559705D01*
X105473963Y-163169588D01*
X105473964Y-163169589D01*
X105531958Y-163211724D01*
X105531971Y-163211732D01*
X105724098Y-163309627D01*
X105929190Y-163376265D01*
X106142180Y-163410000D01*
X106357820Y-163410000D01*
X106570809Y-163376266D01*
X106751643Y-163317508D01*
X106821484Y-163315513D01*
X106881317Y-163351593D01*
X106912146Y-163414293D01*
X106904182Y-163483707D01*
X106877643Y-163523120D01*
X105884671Y-164516092D01*
X105884665Y-164516098D01*
X105881286Y-164519478D01*
X105881284Y-164519480D01*
X105769480Y-164631284D01*
X105741110Y-164680423D01*
X105735367Y-164690368D01*
X105735365Y-164690372D01*
X105690424Y-164768213D01*
X105690423Y-164768215D01*
X105649499Y-164920943D01*
X105649499Y-164920945D01*
X105649499Y-165089046D01*
X105649500Y-165089059D01*
X105649500Y-174413330D01*
X105649499Y-174413348D01*
X105649499Y-174579054D01*
X105649498Y-174579054D01*
X105690423Y-174731787D01*
X105699679Y-174747817D01*
X105699678Y-174747817D01*
X105699680Y-174747819D01*
X105769475Y-174868709D01*
X105769481Y-174868717D01*
X105888349Y-174987585D01*
X105888354Y-174987589D01*
X106881284Y-175980520D01*
X106881286Y-175980521D01*
X106881290Y-175980524D01*
X107018209Y-176059573D01*
X107018216Y-176059577D01*
X107170943Y-176100501D01*
X107170945Y-176100501D01*
X107336654Y-176100501D01*
X107336670Y-176100500D01*
X126773331Y-176100500D01*
X126773347Y-176100501D01*
X126780943Y-176100501D01*
X126939054Y-176100501D01*
X126939057Y-176100501D01*
X127091785Y-176059577D01*
X127141904Y-176030639D01*
X127228716Y-175980520D01*
X127340520Y-175868716D01*
X127340520Y-175868714D01*
X127350728Y-175858507D01*
X127350730Y-175858504D01*
X127835478Y-175373755D01*
X127896799Y-175340272D01*
X127961473Y-175343506D01*
X128003757Y-175357246D01*
X128213713Y-175390500D01*
X128213714Y-175390500D01*
X128426286Y-175390500D01*
X128426287Y-175390500D01*
X128636243Y-175357246D01*
X128838412Y-175291557D01*
X129027816Y-175195051D01*
X129049789Y-175179086D01*
X129199786Y-175070109D01*
X129199788Y-175070106D01*
X129199792Y-175070104D01*
X129350104Y-174919792D01*
X129350106Y-174919788D01*
X129350109Y-174919786D01*
X129475051Y-174747817D01*
X129479514Y-174739056D01*
X129479793Y-174738508D01*
X129527763Y-174687711D01*
X129595583Y-174670911D01*
X129661719Y-174693445D01*
X129700763Y-174738500D01*
X129705377Y-174747555D01*
X129830272Y-174919459D01*
X129830276Y-174919464D01*
X129980535Y-175069723D01*
X129980540Y-175069727D01*
X130152442Y-175194620D01*
X130341782Y-175291095D01*
X130543871Y-175356757D01*
X130610000Y-175367231D01*
X130610000Y-174473012D01*
X130667007Y-174505925D01*
X130794174Y-174540000D01*
X130925826Y-174540000D01*
X131052993Y-174505925D01*
X131110000Y-174473012D01*
X131110000Y-175367230D01*
X131176126Y-175356757D01*
X131176129Y-175356757D01*
X131378217Y-175291095D01*
X131567557Y-175194620D01*
X131739459Y-175069727D01*
X131739464Y-175069723D01*
X131889723Y-174919464D01*
X131889727Y-174919459D01*
X132014620Y-174747558D01*
X132019232Y-174738507D01*
X132067205Y-174687709D01*
X132135025Y-174670912D01*
X132201161Y-174693447D01*
X132240204Y-174738504D01*
X132244949Y-174747817D01*
X132369890Y-174919786D01*
X132520213Y-175070109D01*
X132692179Y-175195048D01*
X132692181Y-175195049D01*
X132692184Y-175195051D01*
X132881588Y-175291557D01*
X133083757Y-175357246D01*
X133293713Y-175390500D01*
X133293714Y-175390500D01*
X133506286Y-175390500D01*
X133506287Y-175390500D01*
X133716243Y-175357246D01*
X133918412Y-175291557D01*
X134107816Y-175195051D01*
X134129789Y-175179086D01*
X134279786Y-175070109D01*
X134279788Y-175070106D01*
X134279792Y-175070104D01*
X134430104Y-174919792D01*
X134430106Y-174919788D01*
X134430109Y-174919786D01*
X134555051Y-174747817D01*
X134559514Y-174739056D01*
X134559793Y-174738508D01*
X134607763Y-174687711D01*
X134675583Y-174670911D01*
X134741719Y-174693445D01*
X134780763Y-174738500D01*
X134785377Y-174747555D01*
X134910272Y-174919459D01*
X134910276Y-174919464D01*
X135060535Y-175069723D01*
X135060540Y-175069727D01*
X135232442Y-175194620D01*
X135421782Y-175291095D01*
X135623871Y-175356757D01*
X135690000Y-175367231D01*
X135690000Y-174473012D01*
X135747007Y-174505925D01*
X135874174Y-174540000D01*
X136005826Y-174540000D01*
X136132993Y-174505925D01*
X136190000Y-174473012D01*
X136190000Y-175367231D01*
X136256126Y-175356757D01*
X136256129Y-175356757D01*
X136458217Y-175291095D01*
X136647557Y-175194620D01*
X136819459Y-175069727D01*
X136819464Y-175069723D01*
X136969723Y-174919464D01*
X136969727Y-174919459D01*
X137094620Y-174747558D01*
X137099232Y-174738507D01*
X137147205Y-174687709D01*
X137215025Y-174670912D01*
X137281161Y-174693447D01*
X137320204Y-174738504D01*
X137324949Y-174747817D01*
X137449890Y-174919786D01*
X137600213Y-175070109D01*
X137772179Y-175195048D01*
X137772181Y-175195049D01*
X137772184Y-175195051D01*
X137961588Y-175291557D01*
X138163757Y-175357246D01*
X138373713Y-175390500D01*
X138373714Y-175390500D01*
X138586286Y-175390500D01*
X138586287Y-175390500D01*
X138796243Y-175357246D01*
X138998412Y-175291557D01*
X139187816Y-175195051D01*
X139209789Y-175179086D01*
X139359786Y-175070109D01*
X139359788Y-175070106D01*
X139359792Y-175070104D01*
X139510104Y-174919792D01*
X139510106Y-174919788D01*
X139510109Y-174919786D01*
X139635051Y-174747817D01*
X139639514Y-174739056D01*
X139639793Y-174738508D01*
X139687763Y-174687711D01*
X139755583Y-174670911D01*
X139821719Y-174693445D01*
X139860763Y-174738500D01*
X139865377Y-174747555D01*
X139990272Y-174919459D01*
X139990276Y-174919464D01*
X140140535Y-175069723D01*
X140140540Y-175069727D01*
X140312442Y-175194620D01*
X140501782Y-175291095D01*
X140703871Y-175356757D01*
X140770000Y-175367231D01*
X140770000Y-174473012D01*
X140827007Y-174505925D01*
X140954174Y-174540000D01*
X141085826Y-174540000D01*
X141212993Y-174505925D01*
X141270000Y-174473012D01*
X141270000Y-175367230D01*
X141336126Y-175356757D01*
X141336129Y-175356757D01*
X141538217Y-175291095D01*
X141727557Y-175194620D01*
X141899459Y-175069727D01*
X141899464Y-175069723D01*
X142049723Y-174919464D01*
X142049727Y-174919459D01*
X142174620Y-174747558D01*
X142179514Y-174737954D01*
X142227488Y-174687157D01*
X142295308Y-174670361D01*
X142361444Y-174692897D01*
X142400486Y-174737954D01*
X142405379Y-174747558D01*
X142530272Y-174919459D01*
X142530276Y-174919464D01*
X142680535Y-175069723D01*
X142680540Y-175069727D01*
X142852442Y-175194620D01*
X143041782Y-175291095D01*
X143243871Y-175356757D01*
X143310000Y-175367231D01*
X143310000Y-174473012D01*
X143367007Y-174505925D01*
X143494174Y-174540000D01*
X143625826Y-174540000D01*
X143752993Y-174505925D01*
X143810000Y-174473012D01*
X143810000Y-175367231D01*
X143876126Y-175356757D01*
X143876129Y-175356757D01*
X144078217Y-175291095D01*
X144267557Y-175194620D01*
X144439459Y-175069727D01*
X144439464Y-175069723D01*
X144589723Y-174919464D01*
X144589727Y-174919459D01*
X144714620Y-174747558D01*
X144719232Y-174738507D01*
X144767205Y-174687709D01*
X144835025Y-174670912D01*
X144901161Y-174693447D01*
X144940204Y-174738504D01*
X144944949Y-174747817D01*
X145069890Y-174919786D01*
X145220213Y-175070109D01*
X145392179Y-175195048D01*
X145392181Y-175195049D01*
X145392184Y-175195051D01*
X145581588Y-175291557D01*
X145783757Y-175357246D01*
X145993713Y-175390500D01*
X145993714Y-175390500D01*
X146206286Y-175390500D01*
X146206287Y-175390500D01*
X146416243Y-175357246D01*
X146618412Y-175291557D01*
X146807816Y-175195051D01*
X146829789Y-175179086D01*
X146979786Y-175070109D01*
X146979788Y-175070106D01*
X146979792Y-175070104D01*
X147130104Y-174919792D01*
X147130106Y-174919788D01*
X147130109Y-174919786D01*
X147255048Y-174747820D01*
X147255050Y-174747817D01*
X147255051Y-174747816D01*
X147259514Y-174739054D01*
X147307488Y-174688259D01*
X147375308Y-174671463D01*
X147441444Y-174693999D01*
X147480486Y-174739056D01*
X147484951Y-174747820D01*
X147609890Y-174919786D01*
X147760213Y-175070109D01*
X147932179Y-175195048D01*
X147932181Y-175195049D01*
X147932184Y-175195051D01*
X148121588Y-175291557D01*
X148323757Y-175357246D01*
X148533713Y-175390500D01*
X148533714Y-175390500D01*
X148746286Y-175390500D01*
X148746287Y-175390500D01*
X148956243Y-175357246D01*
X149158412Y-175291557D01*
X149347816Y-175195051D01*
X149369789Y-175179086D01*
X149519786Y-175070109D01*
X149519788Y-175070106D01*
X149519792Y-175070104D01*
X149670104Y-174919792D01*
X149670106Y-174919788D01*
X149670109Y-174919786D01*
X149795048Y-174747820D01*
X149795050Y-174747817D01*
X149795051Y-174747816D01*
X149891557Y-174558412D01*
X149957246Y-174356243D01*
X149990500Y-174146287D01*
X149990500Y-173933713D01*
X149957246Y-173723757D01*
X149891557Y-173521588D01*
X149795051Y-173332184D01*
X149795049Y-173332181D01*
X149795048Y-173332179D01*
X149670109Y-173160213D01*
X149519786Y-173009890D01*
X149347820Y-172884951D01*
X149339600Y-172880763D01*
X149339054Y-172880485D01*
X149288259Y-172832512D01*
X149271463Y-172764692D01*
X149293999Y-172698556D01*
X149339054Y-172659515D01*
X149347816Y-172655051D01*
X149446304Y-172583496D01*
X149519786Y-172530109D01*
X149519788Y-172530106D01*
X149519792Y-172530104D01*
X149670104Y-172379792D01*
X149670106Y-172379788D01*
X149670109Y-172379786D01*
X149795048Y-172207820D01*
X149795047Y-172207820D01*
X149795051Y-172207816D01*
X149891557Y-172018412D01*
X149957246Y-171816243D01*
X149990500Y-171606287D01*
X149990500Y-171393713D01*
X149957246Y-171183757D01*
X149891557Y-170981588D01*
X149795051Y-170792184D01*
X149795049Y-170792181D01*
X149795048Y-170792179D01*
X149670109Y-170620213D01*
X149519786Y-170469890D01*
X149347820Y-170344951D01*
X149158414Y-170248444D01*
X149158413Y-170248443D01*
X149158412Y-170248443D01*
X148956243Y-170182754D01*
X148956241Y-170182753D01*
X148956240Y-170182753D01*
X148789321Y-170156316D01*
X148746287Y-170149500D01*
X148533713Y-170149500D01*
X148490679Y-170156316D01*
X148323760Y-170182753D01*
X148121585Y-170248444D01*
X147932179Y-170344951D01*
X147760213Y-170469890D01*
X147609890Y-170620213D01*
X147484949Y-170792182D01*
X147480484Y-170800946D01*
X147432509Y-170851742D01*
X147364688Y-170868536D01*
X147298553Y-170845998D01*
X147259516Y-170800946D01*
X147255050Y-170792182D01*
X147130109Y-170620213D01*
X146979786Y-170469890D01*
X146807820Y-170344951D01*
X146618414Y-170248444D01*
X146618413Y-170248443D01*
X146618412Y-170248443D01*
X146416243Y-170182754D01*
X146416241Y-170182753D01*
X146416240Y-170182753D01*
X146249321Y-170156316D01*
X146206287Y-170149500D01*
X145993713Y-170149500D01*
X145950679Y-170156316D01*
X145783760Y-170182753D01*
X145581585Y-170248444D01*
X145392179Y-170344951D01*
X145220213Y-170469890D01*
X145069890Y-170620213D01*
X144944949Y-170792182D01*
X144940484Y-170800946D01*
X144892509Y-170851742D01*
X144824688Y-170868536D01*
X144758553Y-170845998D01*
X144719516Y-170800946D01*
X144715050Y-170792182D01*
X144590109Y-170620213D01*
X144439786Y-170469890D01*
X144267820Y-170344951D01*
X144078414Y-170248444D01*
X144078413Y-170248443D01*
X144078412Y-170248443D01*
X143876243Y-170182754D01*
X143876241Y-170182753D01*
X143876240Y-170182753D01*
X143709321Y-170156316D01*
X143666287Y-170149500D01*
X143453713Y-170149500D01*
X143410679Y-170156316D01*
X143243760Y-170182753D01*
X143041585Y-170248444D01*
X142852179Y-170344951D01*
X142680213Y-170469890D01*
X142529890Y-170620213D01*
X142404949Y-170792182D01*
X142400484Y-170800946D01*
X142352509Y-170851742D01*
X142284688Y-170868536D01*
X142218553Y-170845998D01*
X142179516Y-170800946D01*
X142175050Y-170792182D01*
X142050109Y-170620213D01*
X141899786Y-170469890D01*
X141727820Y-170344951D01*
X141538414Y-170248444D01*
X141538413Y-170248443D01*
X141538412Y-170248443D01*
X141336243Y-170182754D01*
X141336241Y-170182753D01*
X141336240Y-170182753D01*
X141169321Y-170156316D01*
X141126287Y-170149500D01*
X140913713Y-170149500D01*
X140870679Y-170156316D01*
X140703760Y-170182753D01*
X140501585Y-170248444D01*
X140312179Y-170344951D01*
X140140213Y-170469890D01*
X139989890Y-170620213D01*
X139864949Y-170792182D01*
X139860484Y-170800946D01*
X139812509Y-170851742D01*
X139744688Y-170868536D01*
X139678553Y-170845998D01*
X139639516Y-170800946D01*
X139635050Y-170792182D01*
X139510109Y-170620213D01*
X139359786Y-170469890D01*
X139187820Y-170344951D01*
X138998414Y-170248444D01*
X138998413Y-170248443D01*
X138998412Y-170248443D01*
X138796243Y-170182754D01*
X138796241Y-170182753D01*
X138796240Y-170182753D01*
X138629321Y-170156316D01*
X138586287Y-170149500D01*
X138439096Y-170149500D01*
X138372057Y-170129815D01*
X138326302Y-170077011D01*
X138316358Y-170007853D01*
X138345383Y-169944297D01*
X138351415Y-169937819D01*
X142462745Y-165826489D01*
X146618713Y-161670521D01*
X146618716Y-161670520D01*
X146730520Y-161558716D01*
X146780639Y-161471904D01*
X146809577Y-161421785D01*
X146850501Y-161269057D01*
X146850501Y-161110943D01*
X146850501Y-161103348D01*
X146850500Y-161103330D01*
X146850500Y-141288610D01*
X146870185Y-141221571D01*
X146922989Y-141175816D01*
X146992147Y-141165872D01*
X147036499Y-141181223D01*
X147136479Y-141238945D01*
X147136497Y-141238954D01*
X147342381Y-141324236D01*
X147557632Y-141381911D01*
X147557645Y-141381914D01*
X147778575Y-141411000D01*
X148001425Y-141411000D01*
X148222354Y-141381914D01*
X148222367Y-141381911D01*
X148437618Y-141324236D01*
X148643502Y-141238954D01*
X148643514Y-141238949D01*
X148836498Y-141127530D01*
X148902403Y-141076957D01*
X148902404Y-141076956D01*
X148252294Y-140426846D01*
X148268942Y-140419951D01*
X148399970Y-140332401D01*
X148511401Y-140220970D01*
X148598951Y-140089942D01*
X148605846Y-140073294D01*
X149255956Y-140723404D01*
X149255957Y-140723403D01*
X149306530Y-140657498D01*
X149417949Y-140464514D01*
X149417954Y-140464502D01*
X149503236Y-140258618D01*
X149560911Y-140043367D01*
X149560914Y-140043354D01*
X149590000Y-139822424D01*
X149590000Y-139599575D01*
X149560914Y-139378645D01*
X149560911Y-139378632D01*
X149503236Y-139163381D01*
X149417954Y-138957497D01*
X149417949Y-138957485D01*
X149306533Y-138764507D01*
X149255956Y-138698595D01*
X149255955Y-138698595D01*
X148605846Y-139348704D01*
X148598951Y-139332058D01*
X148511401Y-139201030D01*
X148399970Y-139089599D01*
X148268942Y-139002049D01*
X148252293Y-138995152D01*
X148902403Y-138345043D01*
X148902403Y-138345040D01*
X148836504Y-138294473D01*
X148836491Y-138294464D01*
X148643520Y-138183054D01*
X148643502Y-138183045D01*
X148462074Y-138107894D01*
X148407671Y-138064053D01*
X148385606Y-137997758D01*
X148402886Y-137930059D01*
X148421840Y-137905658D01*
X149615264Y-136712234D01*
X149676585Y-136678751D01*
X149746277Y-136683735D01*
X149802210Y-136725607D01*
X149826627Y-136791071D01*
X149811775Y-136859344D01*
X149801320Y-136875402D01*
X149778066Y-136905707D01*
X149656777Y-137115785D01*
X149656773Y-137115794D01*
X149563947Y-137339895D01*
X149501161Y-137574214D01*
X149469500Y-137814711D01*
X149469500Y-138057288D01*
X149501161Y-138297785D01*
X149563947Y-138532104D01*
X149632910Y-138698595D01*
X149656776Y-138756212D01*
X149778064Y-138966289D01*
X149778066Y-138966292D01*
X149778067Y-138966293D01*
X149925733Y-139158736D01*
X149925739Y-139158743D01*
X150097256Y-139330260D01*
X150097263Y-139330266D01*
X150142189Y-139364739D01*
X150289711Y-139477936D01*
X150499788Y-139599224D01*
X150723900Y-139692054D01*
X150958211Y-139754838D01*
X151138586Y-139778584D01*
X151198711Y-139786500D01*
X151198712Y-139786500D01*
X151441289Y-139786500D01*
X151489388Y-139780167D01*
X151681789Y-139754838D01*
X151916100Y-139692054D01*
X152140212Y-139599224D01*
X152350289Y-139477936D01*
X152542738Y-139330265D01*
X152714265Y-139158738D01*
X152861936Y-138966289D01*
X152983224Y-138756212D01*
X153076054Y-138532100D01*
X153138838Y-138297789D01*
X153170500Y-138057288D01*
X153170500Y-137814712D01*
X153138838Y-137574211D01*
X153076054Y-137339900D01*
X152983224Y-137115788D01*
X152861936Y-136905711D01*
X152714265Y-136713262D01*
X152714260Y-136713256D01*
X152542743Y-136541739D01*
X152542736Y-136541733D01*
X152350293Y-136394067D01*
X152350292Y-136394066D01*
X152350289Y-136394064D01*
X152140212Y-136272776D01*
X152140205Y-136272773D01*
X151916104Y-136179947D01*
X151681785Y-136117161D01*
X151441289Y-136085500D01*
X151441288Y-136085500D01*
X151198712Y-136085500D01*
X151198711Y-136085500D01*
X150958214Y-136117161D01*
X150723895Y-136179947D01*
X150499794Y-136272773D01*
X150499785Y-136272777D01*
X150289707Y-136394066D01*
X150259402Y-136417320D01*
X150234090Y-136427104D01*
X150210275Y-136440109D01*
X150201984Y-136439516D01*
X150194232Y-136442513D01*
X150167650Y-136437060D01*
X150140583Y-136435125D01*
X150133929Y-136430144D01*
X150125787Y-136428474D01*
X150106370Y-136409513D01*
X150084650Y-136393253D01*
X150081745Y-136385466D01*
X150075799Y-136379659D01*
X150069716Y-136353215D01*
X150060233Y-136327789D01*
X150061999Y-136319666D01*
X150060137Y-136311567D01*
X150069316Y-136286032D01*
X150075085Y-136259516D01*
X150082327Y-136249841D01*
X150083774Y-136245817D01*
X150096229Y-136231269D01*
X150153713Y-136173786D01*
X150153716Y-136173785D01*
X150265520Y-136061981D01*
X150315639Y-135975169D01*
X150344577Y-135925050D01*
X150385501Y-135772322D01*
X150385501Y-135614208D01*
X150385501Y-135606613D01*
X150385500Y-135606595D01*
X150385500Y-133190060D01*
X150385501Y-133190047D01*
X150385501Y-133021944D01*
X150385303Y-133021204D01*
X150344577Y-132869216D01*
X150324216Y-132833949D01*
X150265524Y-132732290D01*
X150265518Y-132732282D01*
X149993563Y-132460327D01*
X149960078Y-132399004D01*
X149958771Y-132353248D01*
X149984500Y-132190800D01*
X149984500Y-132001199D01*
X149968023Y-131897171D01*
X149954842Y-131813945D01*
X149896254Y-131633632D01*
X149896252Y-131633629D01*
X149896252Y-131633627D01*
X149810180Y-131464703D01*
X149698741Y-131311321D01*
X149564679Y-131177259D01*
X149563389Y-131176322D01*
X149563018Y-131175841D01*
X149560974Y-131174095D01*
X149561340Y-131173665D01*
X149520720Y-131120997D01*
X149514736Y-131051384D01*
X149547337Y-130989587D01*
X149563385Y-130975680D01*
X149564679Y-130974741D01*
X149698741Y-130840679D01*
X149810181Y-130687296D01*
X149896254Y-130518368D01*
X149954842Y-130338055D01*
X149977690Y-130193793D01*
X149984500Y-130150800D01*
X149984500Y-129961199D01*
X149962244Y-129820680D01*
X149954842Y-129773945D01*
X149896254Y-129593632D01*
X149896252Y-129593629D01*
X149896252Y-129593627D01*
X149810178Y-129424699D01*
X149729712Y-129313949D01*
X149706231Y-129248143D01*
X149722056Y-129180089D01*
X149755715Y-129141798D01*
X149841546Y-129077546D01*
X149927796Y-128962331D01*
X149978091Y-128827483D01*
X149984500Y-128767873D01*
X149984499Y-127264128D01*
X149978091Y-127204517D01*
X149943135Y-127110796D01*
X149927797Y-127069671D01*
X149927793Y-127069664D01*
X149841547Y-126954455D01*
X149841544Y-126954452D01*
X149726335Y-126868206D01*
X149726328Y-126868202D01*
X149591482Y-126817908D01*
X149591483Y-126817908D01*
X149531883Y-126811501D01*
X149531881Y-126811500D01*
X149531873Y-126811500D01*
X149531865Y-126811500D01*
X148476098Y-126811500D01*
X148409059Y-126791815D01*
X148388417Y-126775181D01*
X144962811Y-123349575D01*
X146190000Y-123349575D01*
X146190000Y-123572424D01*
X146219085Y-123793354D01*
X146219088Y-123793367D01*
X146276763Y-124008618D01*
X146362045Y-124214502D01*
X146362054Y-124214520D01*
X146473464Y-124407491D01*
X146473473Y-124407504D01*
X146524040Y-124473403D01*
X146524043Y-124473403D01*
X147174152Y-123823293D01*
X147181049Y-123839942D01*
X147268599Y-123970970D01*
X147380030Y-124082401D01*
X147511058Y-124169951D01*
X147527705Y-124176846D01*
X146877595Y-124826955D01*
X146877595Y-124826956D01*
X146943507Y-124877533D01*
X147136485Y-124988949D01*
X147136497Y-124988954D01*
X147342381Y-125074236D01*
X147557632Y-125131911D01*
X147557645Y-125131914D01*
X147778575Y-125161000D01*
X148001425Y-125161000D01*
X148222354Y-125131914D01*
X148222367Y-125131911D01*
X148286560Y-125114711D01*
X149469500Y-125114711D01*
X149469500Y-125357288D01*
X149501161Y-125597785D01*
X149563947Y-125832104D01*
X149627618Y-125985818D01*
X149656776Y-126056212D01*
X149778064Y-126266289D01*
X149778066Y-126266292D01*
X149778067Y-126266293D01*
X149925733Y-126458736D01*
X149925739Y-126458743D01*
X150097256Y-126630260D01*
X150097262Y-126630265D01*
X150289711Y-126777936D01*
X150499788Y-126899224D01*
X150723900Y-126992054D01*
X150958211Y-127054838D01*
X151125328Y-127076839D01*
X151198711Y-127086500D01*
X151198712Y-127086500D01*
X151441289Y-127086500D01*
X151489388Y-127080167D01*
X151681789Y-127054838D01*
X151916100Y-126992054D01*
X152140212Y-126899224D01*
X152350289Y-126777936D01*
X152542738Y-126630265D01*
X152714265Y-126458738D01*
X152861936Y-126266289D01*
X152983224Y-126056212D01*
X153076054Y-125832100D01*
X153138838Y-125597789D01*
X153170500Y-125357288D01*
X153170500Y-125114712D01*
X153166592Y-125085031D01*
X153158915Y-125026716D01*
X153138838Y-124874211D01*
X153076054Y-124639900D01*
X152983224Y-124415788D01*
X152861936Y-124205711D01*
X152776757Y-124094703D01*
X152714266Y-124013263D01*
X152714260Y-124013256D01*
X152542743Y-123841739D01*
X152542736Y-123841733D01*
X152350293Y-123694067D01*
X152350292Y-123694066D01*
X152350289Y-123694064D01*
X152140212Y-123572776D01*
X152139362Y-123572424D01*
X151916104Y-123479947D01*
X151681785Y-123417161D01*
X151441289Y-123385500D01*
X151441288Y-123385500D01*
X151198712Y-123385500D01*
X151198711Y-123385500D01*
X150958214Y-123417161D01*
X150723895Y-123479947D01*
X150499794Y-123572773D01*
X150499785Y-123572777D01*
X150289706Y-123694067D01*
X150097263Y-123841733D01*
X150097256Y-123841739D01*
X149925739Y-124013256D01*
X149925733Y-124013263D01*
X149778067Y-124205706D01*
X149656777Y-124415785D01*
X149656773Y-124415794D01*
X149563947Y-124639895D01*
X149501161Y-124874214D01*
X149469500Y-125114711D01*
X148286560Y-125114711D01*
X148437618Y-125074236D01*
X148626272Y-124996092D01*
X148643502Y-124988954D01*
X148643514Y-124988949D01*
X148836498Y-124877530D01*
X148902403Y-124826957D01*
X148902404Y-124826956D01*
X148252294Y-124176846D01*
X148268942Y-124169951D01*
X148399970Y-124082401D01*
X148511401Y-123970970D01*
X148598951Y-123839942D01*
X148605846Y-123823294D01*
X149255956Y-124473404D01*
X149255957Y-124473403D01*
X149306530Y-124407498D01*
X149417949Y-124214514D01*
X149417954Y-124214502D01*
X149503236Y-124008618D01*
X149560911Y-123793367D01*
X149560914Y-123793354D01*
X149590000Y-123572424D01*
X149590000Y-123349575D01*
X149560914Y-123128645D01*
X149560911Y-123128632D01*
X149503236Y-122913381D01*
X149417954Y-122707497D01*
X149417949Y-122707485D01*
X149306533Y-122514507D01*
X149255956Y-122448595D01*
X149255955Y-122448595D01*
X148605846Y-123098704D01*
X148598951Y-123082058D01*
X148511401Y-122951030D01*
X148399970Y-122839599D01*
X148268942Y-122752049D01*
X148252293Y-122745152D01*
X148902403Y-122095043D01*
X148902403Y-122095040D01*
X148836504Y-122044473D01*
X148836491Y-122044464D01*
X148643520Y-121933054D01*
X148643502Y-121933045D01*
X148437618Y-121847763D01*
X148222367Y-121790088D01*
X148222354Y-121790085D01*
X148001425Y-121761000D01*
X147778575Y-121761000D01*
X147557645Y-121790085D01*
X147557632Y-121790088D01*
X147342381Y-121847763D01*
X147136497Y-121933045D01*
X147136479Y-121933054D01*
X146943511Y-122044462D01*
X146877595Y-122095042D01*
X147527706Y-122745152D01*
X147511058Y-122752049D01*
X147380030Y-122839599D01*
X147268599Y-122951030D01*
X147181049Y-123082058D01*
X147174153Y-123098706D01*
X146524042Y-122448595D01*
X146473462Y-122514511D01*
X146362054Y-122707479D01*
X146362045Y-122707497D01*
X146276763Y-122913381D01*
X146219088Y-123128632D01*
X146219085Y-123128645D01*
X146190000Y-123349575D01*
X144962811Y-123349575D01*
X143843912Y-122230676D01*
X141350590Y-119737355D01*
X141350588Y-119737352D01*
X141231717Y-119618481D01*
X141231716Y-119618480D01*
X141144904Y-119568360D01*
X141144904Y-119568359D01*
X141144900Y-119568358D01*
X141094785Y-119539423D01*
X140942057Y-119498499D01*
X140783943Y-119498499D01*
X140776347Y-119498499D01*
X140776331Y-119498500D01*
X107162957Y-119498500D01*
X107004842Y-119498500D01*
X106852115Y-119539423D01*
X106852114Y-119539423D01*
X106852112Y-119539424D01*
X106852109Y-119539425D01*
X106801996Y-119568359D01*
X106801995Y-119568360D01*
X106788307Y-119576263D01*
X106715185Y-119618479D01*
X106715182Y-119618481D01*
X106603378Y-119730286D01*
X105712284Y-120621379D01*
X105650961Y-120654864D01*
X105581269Y-120649880D01*
X105525337Y-120608010D01*
X105485008Y-120554138D01*
X105457546Y-120517454D01*
X105457544Y-120517453D01*
X105457544Y-120517452D01*
X105342335Y-120431206D01*
X105342328Y-120431202D01*
X105207482Y-120380908D01*
X105207483Y-120380908D01*
X105147883Y-120374501D01*
X105147881Y-120374500D01*
X105147873Y-120374500D01*
X105147864Y-120374500D01*
X103352129Y-120374500D01*
X103352123Y-120374501D01*
X103292516Y-120380908D01*
X103157671Y-120431202D01*
X103157664Y-120431206D01*
X103042455Y-120517452D01*
X103042452Y-120517455D01*
X102956206Y-120632664D01*
X102956202Y-120632671D01*
X102905908Y-120767517D01*
X102899501Y-120827116D01*
X102899500Y-120827135D01*
X100500500Y-120827135D01*
X100500500Y-119699001D01*
X100520185Y-119631962D01*
X100572989Y-119586207D01*
X100642147Y-119576263D01*
X100698810Y-119599734D01*
X100723853Y-119618481D01*
X100757668Y-119643795D01*
X100757671Y-119643797D01*
X100892517Y-119694091D01*
X100892516Y-119694091D01*
X100899444Y-119694835D01*
X100952127Y-119700500D01*
X102747872Y-119700499D01*
X102807483Y-119694091D01*
X102942331Y-119643796D01*
X103057546Y-119557546D01*
X103143796Y-119442331D01*
X103194091Y-119307483D01*
X103200500Y-119247873D01*
X103200499Y-117452128D01*
X103194091Y-117392517D01*
X103143796Y-117257669D01*
X103143795Y-117257668D01*
X103143793Y-117257664D01*
X103057547Y-117142455D01*
X103057544Y-117142452D01*
X102942335Y-117056206D01*
X102942328Y-117056202D01*
X102807482Y-117005908D01*
X102807483Y-117005908D01*
X102747883Y-116999501D01*
X102747881Y-116999500D01*
X102747873Y-116999500D01*
X102747865Y-116999500D01*
X102737309Y-116999500D01*
X102670270Y-116979815D01*
X102649628Y-116963181D01*
X101979408Y-116292962D01*
X102042993Y-116275925D01*
X102157007Y-116210099D01*
X102250099Y-116117007D01*
X102315925Y-116002993D01*
X102332962Y-115939409D01*
X102965270Y-116571717D01*
X102965270Y-116571716D01*
X103004622Y-116517554D01*
X103101095Y-116328217D01*
X103166757Y-116126130D01*
X103166757Y-116126127D01*
X103200000Y-115916246D01*
X103200000Y-115703753D01*
X103166757Y-115493872D01*
X103166757Y-115493869D01*
X103101095Y-115291782D01*
X103004624Y-115102449D01*
X102965270Y-115048282D01*
X102965269Y-115048282D01*
X102332962Y-115680590D01*
X102315925Y-115617007D01*
X102250099Y-115502993D01*
X102157007Y-115409901D01*
X102042993Y-115344075D01*
X101979409Y-115327037D01*
X102611716Y-114694728D01*
X102557550Y-114655375D01*
X102547954Y-114650486D01*
X102497157Y-114602512D01*
X102480361Y-114534692D01*
X102502897Y-114468556D01*
X102505612Y-114464853D01*
X102578736Y-114368872D01*
X149999500Y-114368872D01*
X149999500Y-114631127D01*
X150007874Y-114694727D01*
X150033730Y-114891116D01*
X150090929Y-115104587D01*
X150101602Y-115144418D01*
X150101605Y-115144428D01*
X150201953Y-115386690D01*
X150201958Y-115386700D01*
X150333075Y-115613803D01*
X150492718Y-115821851D01*
X150492726Y-115821860D01*
X150678140Y-116007274D01*
X150678148Y-116007281D01*
X150886196Y-116166924D01*
X151113299Y-116298041D01*
X151113309Y-116298046D01*
X151355571Y-116398394D01*
X151355581Y-116398398D01*
X151608884Y-116466270D01*
X151868880Y-116500500D01*
X151868887Y-116500500D01*
X152131113Y-116500500D01*
X152131120Y-116500500D01*
X152391116Y-116466270D01*
X152644419Y-116398398D01*
X152886697Y-116298043D01*
X153113803Y-116166924D01*
X153321851Y-116007282D01*
X153321855Y-116007277D01*
X153321860Y-116007274D01*
X153507274Y-115821860D01*
X153507277Y-115821855D01*
X153507282Y-115821851D01*
X153666924Y-115613803D01*
X153798043Y-115386697D01*
X153898398Y-115144419D01*
X153966270Y-114891116D01*
X154000500Y-114631120D01*
X154000500Y-114368880D01*
X153966270Y-114108884D01*
X153898398Y-113855581D01*
X153821569Y-113670099D01*
X153798046Y-113613309D01*
X153798041Y-113613299D01*
X153666924Y-113386196D01*
X153507281Y-113178148D01*
X153507274Y-113178140D01*
X153321860Y-112992726D01*
X153321851Y-112992718D01*
X153113803Y-112833075D01*
X152886700Y-112701958D01*
X152886690Y-112701953D01*
X152644428Y-112601605D01*
X152644421Y-112601603D01*
X152644419Y-112601602D01*
X152391116Y-112533730D01*
X152333339Y-112526123D01*
X152131127Y-112499500D01*
X152131120Y-112499500D01*
X151868880Y-112499500D01*
X151868872Y-112499500D01*
X151637772Y-112529926D01*
X151608884Y-112533730D01*
X151355581Y-112601602D01*
X151355571Y-112601605D01*
X151113309Y-112701953D01*
X151113299Y-112701958D01*
X150886196Y-112833075D01*
X150678148Y-112992718D01*
X150492718Y-113178148D01*
X150333075Y-113386196D01*
X150201958Y-113613299D01*
X150201953Y-113613309D01*
X150101605Y-113855571D01*
X150101602Y-113855581D01*
X150038533Y-114090961D01*
X150033730Y-114108885D01*
X149999500Y-114368872D01*
X102578736Y-114368872D01*
X102585907Y-114359460D01*
X101979408Y-113752962D01*
X102042993Y-113735925D01*
X102157007Y-113670099D01*
X102250099Y-113577007D01*
X102315925Y-113462993D01*
X102332962Y-113399409D01*
X102965270Y-114031717D01*
X102965270Y-114031716D01*
X103004622Y-113977554D01*
X103101095Y-113788217D01*
X103166757Y-113586130D01*
X103166757Y-113586127D01*
X103200000Y-113376246D01*
X103200000Y-113163753D01*
X103166757Y-112953872D01*
X103166757Y-112953869D01*
X103101095Y-112751782D01*
X103004624Y-112562449D01*
X102965270Y-112508282D01*
X102965269Y-112508282D01*
X102332962Y-113140590D01*
X102315925Y-113077007D01*
X102250099Y-112962993D01*
X102157007Y-112869901D01*
X102042993Y-112804075D01*
X101979409Y-112787037D01*
X102611716Y-112154728D01*
X102557547Y-112115373D01*
X102557547Y-112115372D01*
X102548500Y-112110763D01*
X102497706Y-112062788D01*
X102480912Y-111994966D01*
X102503451Y-111928832D01*
X102548508Y-111889793D01*
X102557816Y-111885051D01*
X102637007Y-111827515D01*
X102729786Y-111760109D01*
X102729788Y-111760106D01*
X102729792Y-111760104D01*
X102880104Y-111609792D01*
X102880106Y-111609788D01*
X102880109Y-111609786D01*
X103005048Y-111437820D01*
X103005047Y-111437820D01*
X103005051Y-111437816D01*
X103101557Y-111248412D01*
X103167246Y-111046243D01*
X103200500Y-110836287D01*
X103200500Y-110623713D01*
X103167246Y-110413757D01*
X103101557Y-110211588D01*
X103005051Y-110022184D01*
X103005049Y-110022181D01*
X103005048Y-110022179D01*
X102880109Y-109850213D01*
X102729786Y-109699890D01*
X102557820Y-109574951D01*
X102368414Y-109478444D01*
X102368413Y-109478443D01*
X102368412Y-109478443D01*
X102166243Y-109412754D01*
X102166241Y-109412753D01*
X102166240Y-109412753D01*
X102004957Y-109387208D01*
X101956287Y-109379500D01*
X101743713Y-109379500D01*
X101695042Y-109387208D01*
X101533760Y-109412753D01*
X101331585Y-109478444D01*
X101142179Y-109574951D01*
X100970213Y-109699890D01*
X100819894Y-109850209D01*
X100819890Y-109850214D01*
X100724818Y-109981071D01*
X100669488Y-110023737D01*
X100599875Y-110029716D01*
X100538080Y-109997111D01*
X100503723Y-109936272D01*
X100500500Y-109908186D01*
X100500500Y-108256333D01*
X100520185Y-108189294D01*
X100572989Y-108143539D01*
X100642147Y-108133595D01*
X100689287Y-108150604D01*
X100779634Y-108205969D01*
X100847711Y-108247688D01*
X100847717Y-108247691D01*
X101228076Y-108441494D01*
X101622469Y-108604856D01*
X102028462Y-108736772D01*
X102443554Y-108836427D01*
X102865185Y-108903206D01*
X103290757Y-108936700D01*
X103290763Y-108936700D01*
X103717637Y-108936700D01*
X103717643Y-108936700D01*
X104143215Y-108903206D01*
X104564846Y-108836427D01*
X104979938Y-108736772D01*
X105385931Y-108604856D01*
X105780324Y-108441494D01*
X106160683Y-108247691D01*
X106524664Y-108024643D01*
X106870023Y-107773725D01*
X107194630Y-107496485D01*
X107496485Y-107194630D01*
X107773725Y-106870023D01*
X108024643Y-106524664D01*
X108247691Y-106160683D01*
X108441494Y-105780324D01*
X108604856Y-105385931D01*
X108736772Y-104979938D01*
X108836427Y-104564846D01*
X108903206Y-104143215D01*
X108936700Y-103717643D01*
X108936700Y-103290757D01*
X108903206Y-102865185D01*
X108836427Y-102443554D01*
X108736772Y-102028462D01*
X108604856Y-101622469D01*
X108441494Y-101228076D01*
X108247691Y-100847717D01*
X108150607Y-100689290D01*
X108132362Y-100621844D01*
X108153478Y-100555242D01*
X108207250Y-100510628D01*
X108256334Y-100500500D01*
X148383666Y-100500500D01*
X148450705Y-100520185D01*
G37*
G04 #@! TD.AperFunction*
G04 #@! TA.AperFunction,Conductor*
G36*
X101384075Y-116002993D02*
G01*
X101449901Y-116117007D01*
X101542993Y-116210099D01*
X101657007Y-116275925D01*
X101720590Y-116292962D01*
X101050370Y-116963181D01*
X100989047Y-116996666D01*
X100962698Y-116999500D01*
X100952134Y-116999500D01*
X100952123Y-116999501D01*
X100892516Y-117005908D01*
X100757671Y-117056202D01*
X100757668Y-117056204D01*
X100698811Y-117100265D01*
X100633347Y-117124682D01*
X100565074Y-117109830D01*
X100515668Y-117060425D01*
X100500500Y-117000998D01*
X100500500Y-116630961D01*
X100520185Y-116563922D01*
X100572989Y-116518167D01*
X100642147Y-116508223D01*
X100705703Y-116537248D01*
X100724819Y-116558077D01*
X100734728Y-116571716D01*
X101367037Y-115939408D01*
X101384075Y-116002993D01*
G37*
G04 #@! TD.AperFunction*
G04 #@! TA.AperFunction,Conductor*
G36*
X101384075Y-113462993D02*
G01*
X101449901Y-113577007D01*
X101542993Y-113670099D01*
X101657007Y-113735925D01*
X101720590Y-113752962D01*
X101088282Y-114385269D01*
X101088282Y-114385270D01*
X101142452Y-114424626D01*
X101152048Y-114429516D01*
X101202844Y-114477491D01*
X101219638Y-114545312D01*
X101197100Y-114611447D01*
X101152051Y-114650483D01*
X101142440Y-114655380D01*
X101088282Y-114694727D01*
X101088282Y-114694728D01*
X101720591Y-115327037D01*
X101657007Y-115344075D01*
X101542993Y-115409901D01*
X101449901Y-115502993D01*
X101384075Y-115617007D01*
X101367037Y-115680591D01*
X100734728Y-115048282D01*
X100734727Y-115048282D01*
X100724819Y-115061921D01*
X100669489Y-115104587D01*
X100599876Y-115110566D01*
X100538080Y-115077961D01*
X100503723Y-115017123D01*
X100500500Y-114989036D01*
X100500500Y-114090961D01*
X100520185Y-114023922D01*
X100572989Y-113978167D01*
X100642147Y-113968223D01*
X100705703Y-113997248D01*
X100724819Y-114018077D01*
X100734728Y-114031716D01*
X101367037Y-113399408D01*
X101384075Y-113462993D01*
G37*
G04 #@! TD.AperFunction*
G04 #@! TA.AperFunction,Conductor*
G36*
X100705703Y-111458100D02*
G01*
X100724816Y-111478924D01*
X100729066Y-111484774D01*
X100819896Y-111609792D01*
X100970213Y-111760109D01*
X101142179Y-111885048D01*
X101142181Y-111885049D01*
X101142184Y-111885051D01*
X101151493Y-111889794D01*
X101202290Y-111937766D01*
X101219087Y-112005587D01*
X101196552Y-112071722D01*
X101151505Y-112110760D01*
X101142446Y-112115376D01*
X101142440Y-112115380D01*
X101088282Y-112154727D01*
X101088282Y-112154728D01*
X101720591Y-112787037D01*
X101657007Y-112804075D01*
X101542993Y-112869901D01*
X101449901Y-112962993D01*
X101384075Y-113077007D01*
X101367037Y-113140591D01*
X100734728Y-112508282D01*
X100734727Y-112508282D01*
X100724819Y-112521921D01*
X100669489Y-112564587D01*
X100599876Y-112570566D01*
X100538080Y-112537961D01*
X100503723Y-112477123D01*
X100500500Y-112449036D01*
X100500500Y-111551813D01*
X100520185Y-111484774D01*
X100572989Y-111439019D01*
X100642147Y-111429075D01*
X100705703Y-111458100D01*
G37*
G04 #@! TD.AperFunction*
M02*
