G04 #@! TF.GenerationSoftware,KiCad,Pcbnew,9.0.2*
G04 #@! TF.CreationDate,2025-11-18T17:36:02+08:00*
G04 #@! TF.ProjectId,rio module,72696f20-6d6f-4647-956c-652e6b696361,rev?*
G04 #@! TF.SameCoordinates,Original*
G04 #@! TF.FileFunction,Legend,Top*
G04 #@! TF.FilePolarity,Positive*
%FSLAX46Y46*%
G04 Gerber Fmt 4.6, Leading zero omitted, Abs format (unit mm)*
G04 Created by KiCad (PCBNEW 9.0.2) date 2025-11-18 17:36:02*
%MOMM*%
%LPD*%
G01*
G04 APERTURE LIST*
G04 Aperture macros list*
%AMRoundRect*
0 Rectangle with rounded corners*
0 $1 Rounding radius*
0 $2 $3 $4 $5 $6 $7 $8 $9 X,Y pos of 4 corners*
0 Add a 4 corners polygon primitive as box body*
4,1,4,$2,$3,$4,$5,$6,$7,$8,$9,$2,$3,0*
0 Add four circle primitives for the rounded corners*
1,1,$1+$1,$2,$3*
1,1,$1+$1,$4,$5*
1,1,$1+$1,$6,$7*
1,1,$1+$1,$8,$9*
0 Add four rect primitives between the rounded corners*
20,1,$1+$1,$2,$3,$4,$5,0*
20,1,$1+$1,$4,$5,$6,$7,0*
20,1,$1+$1,$6,$7,$8,$9,0*
20,1,$1+$1,$8,$9,$2,$3,0*%
G04 Aperture macros list end*
%ADD10C,0.150000*%
%ADD11C,0.127000*%
%ADD12C,0.200000*%
%ADD13C,0.120000*%
%ADD14C,3.200000*%
%ADD15RoundRect,0.102000X-0.704000X0.704000X-0.704000X-0.704000X0.704000X-0.704000X0.704000X0.704000X0*%
%ADD16C,1.612000*%
%ADD17C,2.604000*%
%ADD18RoundRect,0.250000X0.620000X0.620000X-0.620000X0.620000X-0.620000X-0.620000X0.620000X-0.620000X0*%
%ADD19C,1.740000*%
%ADD20R,1.500000X2.300000*%
%ADD21RoundRect,0.250001X0.499999X0.899999X-0.499999X0.899999X-0.499999X-0.899999X0.499999X-0.899999X0*%
%ADD22O,1.500000X2.300000*%
%ADD23C,1.600000*%
%ADD24R,1.200000X1.200000*%
%ADD25C,1.200000*%
%ADD26RoundRect,0.102000X0.704000X-0.704000X0.704000X0.704000X-0.704000X0.704000X-0.704000X-0.704000X0*%
G04 APERTURE END LIST*
D10*
X80249999Y-56585771D02*
X80202380Y-56538152D01*
X80202380Y-56538152D02*
X80107142Y-56395295D01*
X80107142Y-56395295D02*
X80059523Y-56300057D01*
X80059523Y-56300057D02*
X80011904Y-56157200D01*
X80011904Y-56157200D02*
X79964285Y-55919104D01*
X79964285Y-55919104D02*
X79964285Y-55728628D01*
X79964285Y-55728628D02*
X80011904Y-55490533D01*
X80011904Y-55490533D02*
X80059523Y-55347676D01*
X80059523Y-55347676D02*
X80107142Y-55252438D01*
X80107142Y-55252438D02*
X80202380Y-55109580D01*
X80202380Y-55109580D02*
X80249999Y-55061961D01*
X80821428Y-55728628D02*
X80821428Y-56204819D01*
X80488095Y-55204819D02*
X80821428Y-55728628D01*
X80821428Y-55728628D02*
X81154761Y-55204819D01*
X81392857Y-56585771D02*
X81440476Y-56538152D01*
X81440476Y-56538152D02*
X81535714Y-56395295D01*
X81535714Y-56395295D02*
X81583333Y-56300057D01*
X81583333Y-56300057D02*
X81630952Y-56157200D01*
X81630952Y-56157200D02*
X81678571Y-55919104D01*
X81678571Y-55919104D02*
X81678571Y-55728628D01*
X81678571Y-55728628D02*
X81630952Y-55490533D01*
X81630952Y-55490533D02*
X81583333Y-55347676D01*
X81583333Y-55347676D02*
X81535714Y-55252438D01*
X81535714Y-55252438D02*
X81440476Y-55109580D01*
X81440476Y-55109580D02*
X81392857Y-55061961D01*
X83964286Y-56585771D02*
X83916667Y-56538152D01*
X83916667Y-56538152D02*
X83821429Y-56395295D01*
X83821429Y-56395295D02*
X83773810Y-56300057D01*
X83773810Y-56300057D02*
X83726191Y-56157200D01*
X83726191Y-56157200D02*
X83678572Y-55919104D01*
X83678572Y-55919104D02*
X83678572Y-55728628D01*
X83678572Y-55728628D02*
X83726191Y-55490533D01*
X83726191Y-55490533D02*
X83773810Y-55347676D01*
X83773810Y-55347676D02*
X83821429Y-55252438D01*
X83821429Y-55252438D02*
X83916667Y-55109580D01*
X83916667Y-55109580D02*
X83964286Y-55061961D01*
X84869048Y-55252438D02*
X84773810Y-55204819D01*
X84773810Y-55204819D02*
X84630953Y-55204819D01*
X84630953Y-55204819D02*
X84488096Y-55252438D01*
X84488096Y-55252438D02*
X84392858Y-55347676D01*
X84392858Y-55347676D02*
X84345239Y-55442914D01*
X84345239Y-55442914D02*
X84297620Y-55633390D01*
X84297620Y-55633390D02*
X84297620Y-55776247D01*
X84297620Y-55776247D02*
X84345239Y-55966723D01*
X84345239Y-55966723D02*
X84392858Y-56061961D01*
X84392858Y-56061961D02*
X84488096Y-56157200D01*
X84488096Y-56157200D02*
X84630953Y-56204819D01*
X84630953Y-56204819D02*
X84726191Y-56204819D01*
X84726191Y-56204819D02*
X84869048Y-56157200D01*
X84869048Y-56157200D02*
X84916667Y-56109580D01*
X84916667Y-56109580D02*
X84916667Y-55776247D01*
X84916667Y-55776247D02*
X84726191Y-55776247D01*
X85250001Y-56585771D02*
X85297620Y-56538152D01*
X85297620Y-56538152D02*
X85392858Y-56395295D01*
X85392858Y-56395295D02*
X85440477Y-56300057D01*
X85440477Y-56300057D02*
X85488096Y-56157200D01*
X85488096Y-56157200D02*
X85535715Y-55919104D01*
X85535715Y-55919104D02*
X85535715Y-55728628D01*
X85535715Y-55728628D02*
X85488096Y-55490533D01*
X85488096Y-55490533D02*
X85440477Y-55347676D01*
X85440477Y-55347676D02*
X85392858Y-55252438D01*
X85392858Y-55252438D02*
X85297620Y-55109580D01*
X85297620Y-55109580D02*
X85250001Y-55061961D01*
X94250000Y-91436128D02*
X94535714Y-91436128D01*
X94535714Y-91436128D02*
X94678571Y-91507557D01*
X94678571Y-91507557D02*
X94821428Y-91650414D01*
X94821428Y-91650414D02*
X94892857Y-91936128D01*
X94892857Y-91936128D02*
X94892857Y-92436128D01*
X94892857Y-92436128D02*
X94821428Y-92721842D01*
X94821428Y-92721842D02*
X94678571Y-92864700D01*
X94678571Y-92864700D02*
X94535714Y-92936128D01*
X94535714Y-92936128D02*
X94250000Y-92936128D01*
X94250000Y-92936128D02*
X94107143Y-92864700D01*
X94107143Y-92864700D02*
X93964285Y-92721842D01*
X93964285Y-92721842D02*
X93892857Y-92436128D01*
X93892857Y-92436128D02*
X93892857Y-91936128D01*
X93892857Y-91936128D02*
X93964285Y-91650414D01*
X93964285Y-91650414D02*
X94107143Y-91507557D01*
X94107143Y-91507557D02*
X94250000Y-91436128D01*
X95535714Y-91436128D02*
X95535714Y-92650414D01*
X95535714Y-92650414D02*
X95607143Y-92793271D01*
X95607143Y-92793271D02*
X95678572Y-92864700D01*
X95678572Y-92864700D02*
X95821429Y-92936128D01*
X95821429Y-92936128D02*
X96107143Y-92936128D01*
X96107143Y-92936128D02*
X96250000Y-92864700D01*
X96250000Y-92864700D02*
X96321429Y-92793271D01*
X96321429Y-92793271D02*
X96392857Y-92650414D01*
X96392857Y-92650414D02*
X96392857Y-91436128D01*
X96892858Y-91436128D02*
X97750001Y-91436128D01*
X97321429Y-92936128D02*
X97321429Y-91436128D01*
X80785714Y-54109580D02*
X80738095Y-54157200D01*
X80738095Y-54157200D02*
X80595238Y-54204819D01*
X80595238Y-54204819D02*
X80500000Y-54204819D01*
X80500000Y-54204819D02*
X80357143Y-54157200D01*
X80357143Y-54157200D02*
X80261905Y-54061961D01*
X80261905Y-54061961D02*
X80214286Y-53966723D01*
X80214286Y-53966723D02*
X80166667Y-53776247D01*
X80166667Y-53776247D02*
X80166667Y-53633390D01*
X80166667Y-53633390D02*
X80214286Y-53442914D01*
X80214286Y-53442914D02*
X80261905Y-53347676D01*
X80261905Y-53347676D02*
X80357143Y-53252438D01*
X80357143Y-53252438D02*
X80500000Y-53204819D01*
X80500000Y-53204819D02*
X80595238Y-53204819D01*
X80595238Y-53204819D02*
X80738095Y-53252438D01*
X80738095Y-53252438D02*
X80785714Y-53300057D01*
X81166667Y-53919104D02*
X81642857Y-53919104D01*
X81071429Y-54204819D02*
X81404762Y-53204819D01*
X81404762Y-53204819D02*
X81738095Y-54204819D01*
X82071429Y-54204819D02*
X82071429Y-53204819D01*
X82071429Y-53204819D02*
X82642857Y-54204819D01*
X82642857Y-54204819D02*
X82642857Y-53204819D01*
X83880953Y-54204819D02*
X83880953Y-53538152D01*
X83880953Y-53204819D02*
X83833334Y-53252438D01*
X83833334Y-53252438D02*
X83880953Y-53300057D01*
X83880953Y-53300057D02*
X83928572Y-53252438D01*
X83928572Y-53252438D02*
X83880953Y-53204819D01*
X83880953Y-53204819D02*
X83880953Y-53300057D01*
X84357143Y-53538152D02*
X84357143Y-54204819D01*
X84357143Y-53633390D02*
X84404762Y-53585771D01*
X84404762Y-53585771D02*
X84500000Y-53538152D01*
X84500000Y-53538152D02*
X84642857Y-53538152D01*
X84642857Y-53538152D02*
X84738095Y-53585771D01*
X84738095Y-53585771D02*
X84785714Y-53681009D01*
X84785714Y-53681009D02*
X84785714Y-54204819D01*
X101750000Y-62204819D02*
X101750000Y-61204819D01*
X101750000Y-61204819D02*
X101988095Y-61204819D01*
X101988095Y-61204819D02*
X102130952Y-61252438D01*
X102130952Y-61252438D02*
X102226190Y-61347676D01*
X102226190Y-61347676D02*
X102273809Y-61442914D01*
X102273809Y-61442914D02*
X102321428Y-61633390D01*
X102321428Y-61633390D02*
X102321428Y-61776247D01*
X102321428Y-61776247D02*
X102273809Y-61966723D01*
X102273809Y-61966723D02*
X102226190Y-62061961D01*
X102226190Y-62061961D02*
X102130952Y-62157200D01*
X102130952Y-62157200D02*
X101988095Y-62204819D01*
X101988095Y-62204819D02*
X101750000Y-62204819D01*
X102750000Y-62204819D02*
X102750000Y-61204819D01*
X103416666Y-61204819D02*
X103607142Y-61204819D01*
X103607142Y-61204819D02*
X103702380Y-61252438D01*
X103702380Y-61252438D02*
X103797618Y-61347676D01*
X103797618Y-61347676D02*
X103845237Y-61538152D01*
X103845237Y-61538152D02*
X103845237Y-61871485D01*
X103845237Y-61871485D02*
X103797618Y-62061961D01*
X103797618Y-62061961D02*
X103702380Y-62157200D01*
X103702380Y-62157200D02*
X103607142Y-62204819D01*
X103607142Y-62204819D02*
X103416666Y-62204819D01*
X103416666Y-62204819D02*
X103321428Y-62157200D01*
X103321428Y-62157200D02*
X103226190Y-62061961D01*
X103226190Y-62061961D02*
X103178571Y-61871485D01*
X103178571Y-61871485D02*
X103178571Y-61538152D01*
X103178571Y-61538152D02*
X103226190Y-61347676D01*
X103226190Y-61347676D02*
X103321428Y-61252438D01*
X103321428Y-61252438D02*
X103416666Y-61204819D01*
X104797618Y-62204819D02*
X104226190Y-62204819D01*
X104511904Y-62204819D02*
X104511904Y-61204819D01*
X104511904Y-61204819D02*
X104416666Y-61347676D01*
X104416666Y-61347676D02*
X104321428Y-61442914D01*
X104321428Y-61442914D02*
X104226190Y-61490533D01*
X41750000Y-62454819D02*
X41750000Y-61454819D01*
X41750000Y-61454819D02*
X41988095Y-61454819D01*
X41988095Y-61454819D02*
X42130952Y-61502438D01*
X42130952Y-61502438D02*
X42226190Y-61597676D01*
X42226190Y-61597676D02*
X42273809Y-61692914D01*
X42273809Y-61692914D02*
X42321428Y-61883390D01*
X42321428Y-61883390D02*
X42321428Y-62026247D01*
X42321428Y-62026247D02*
X42273809Y-62216723D01*
X42273809Y-62216723D02*
X42226190Y-62311961D01*
X42226190Y-62311961D02*
X42130952Y-62407200D01*
X42130952Y-62407200D02*
X41988095Y-62454819D01*
X41988095Y-62454819D02*
X41750000Y-62454819D01*
X42750000Y-62454819D02*
X42750000Y-61454819D01*
X43416666Y-61454819D02*
X43607142Y-61454819D01*
X43607142Y-61454819D02*
X43702380Y-61502438D01*
X43702380Y-61502438D02*
X43797618Y-61597676D01*
X43797618Y-61597676D02*
X43845237Y-61788152D01*
X43845237Y-61788152D02*
X43845237Y-62121485D01*
X43845237Y-62121485D02*
X43797618Y-62311961D01*
X43797618Y-62311961D02*
X43702380Y-62407200D01*
X43702380Y-62407200D02*
X43607142Y-62454819D01*
X43607142Y-62454819D02*
X43416666Y-62454819D01*
X43416666Y-62454819D02*
X43321428Y-62407200D01*
X43321428Y-62407200D02*
X43226190Y-62311961D01*
X43226190Y-62311961D02*
X43178571Y-62121485D01*
X43178571Y-62121485D02*
X43178571Y-61788152D01*
X43178571Y-61788152D02*
X43226190Y-61597676D01*
X43226190Y-61597676D02*
X43321428Y-61502438D01*
X43321428Y-61502438D02*
X43416666Y-61454819D01*
X44464285Y-61454819D02*
X44559523Y-61454819D01*
X44559523Y-61454819D02*
X44654761Y-61502438D01*
X44654761Y-61502438D02*
X44702380Y-61550057D01*
X44702380Y-61550057D02*
X44749999Y-61645295D01*
X44749999Y-61645295D02*
X44797618Y-61835771D01*
X44797618Y-61835771D02*
X44797618Y-62073866D01*
X44797618Y-62073866D02*
X44749999Y-62264342D01*
X44749999Y-62264342D02*
X44702380Y-62359580D01*
X44702380Y-62359580D02*
X44654761Y-62407200D01*
X44654761Y-62407200D02*
X44559523Y-62454819D01*
X44559523Y-62454819D02*
X44464285Y-62454819D01*
X44464285Y-62454819D02*
X44369047Y-62407200D01*
X44369047Y-62407200D02*
X44321428Y-62359580D01*
X44321428Y-62359580D02*
X44273809Y-62264342D01*
X44273809Y-62264342D02*
X44226190Y-62073866D01*
X44226190Y-62073866D02*
X44226190Y-61835771D01*
X44226190Y-61835771D02*
X44273809Y-61645295D01*
X44273809Y-61645295D02*
X44321428Y-61550057D01*
X44321428Y-61550057D02*
X44369047Y-61502438D01*
X44369047Y-61502438D02*
X44464285Y-61454819D01*
X61035713Y-54109580D02*
X60988094Y-54157200D01*
X60988094Y-54157200D02*
X60845237Y-54204819D01*
X60845237Y-54204819D02*
X60749999Y-54204819D01*
X60749999Y-54204819D02*
X60607142Y-54157200D01*
X60607142Y-54157200D02*
X60511904Y-54061961D01*
X60511904Y-54061961D02*
X60464285Y-53966723D01*
X60464285Y-53966723D02*
X60416666Y-53776247D01*
X60416666Y-53776247D02*
X60416666Y-53633390D01*
X60416666Y-53633390D02*
X60464285Y-53442914D01*
X60464285Y-53442914D02*
X60511904Y-53347676D01*
X60511904Y-53347676D02*
X60607142Y-53252438D01*
X60607142Y-53252438D02*
X60749999Y-53204819D01*
X60749999Y-53204819D02*
X60845237Y-53204819D01*
X60845237Y-53204819D02*
X60988094Y-53252438D01*
X60988094Y-53252438D02*
X61035713Y-53300057D01*
X61416666Y-53919104D02*
X61892856Y-53919104D01*
X61321428Y-54204819D02*
X61654761Y-53204819D01*
X61654761Y-53204819D02*
X61988094Y-54204819D01*
X62321428Y-54204819D02*
X62321428Y-53204819D01*
X62321428Y-53204819D02*
X62892856Y-54204819D01*
X62892856Y-54204819D02*
X62892856Y-53204819D01*
X64273809Y-54204819D02*
X64178571Y-54157200D01*
X64178571Y-54157200D02*
X64130952Y-54109580D01*
X64130952Y-54109580D02*
X64083333Y-54014342D01*
X64083333Y-54014342D02*
X64083333Y-53728628D01*
X64083333Y-53728628D02*
X64130952Y-53633390D01*
X64130952Y-53633390D02*
X64178571Y-53585771D01*
X64178571Y-53585771D02*
X64273809Y-53538152D01*
X64273809Y-53538152D02*
X64416666Y-53538152D01*
X64416666Y-53538152D02*
X64511904Y-53585771D01*
X64511904Y-53585771D02*
X64559523Y-53633390D01*
X64559523Y-53633390D02*
X64607142Y-53728628D01*
X64607142Y-53728628D02*
X64607142Y-54014342D01*
X64607142Y-54014342D02*
X64559523Y-54109580D01*
X64559523Y-54109580D02*
X64511904Y-54157200D01*
X64511904Y-54157200D02*
X64416666Y-54204819D01*
X64416666Y-54204819D02*
X64273809Y-54204819D01*
X65464285Y-53538152D02*
X65464285Y-54204819D01*
X65035714Y-53538152D02*
X65035714Y-54061961D01*
X65035714Y-54061961D02*
X65083333Y-54157200D01*
X65083333Y-54157200D02*
X65178571Y-54204819D01*
X65178571Y-54204819D02*
X65321428Y-54204819D01*
X65321428Y-54204819D02*
X65416666Y-54157200D01*
X65416666Y-54157200D02*
X65464285Y-54109580D01*
X65797619Y-53538152D02*
X66178571Y-53538152D01*
X65940476Y-53204819D02*
X65940476Y-54061961D01*
X65940476Y-54061961D02*
X65988095Y-54157200D01*
X65988095Y-54157200D02*
X66083333Y-54204819D01*
X66083333Y-54204819D02*
X66178571Y-54204819D01*
X77595238Y-78788152D02*
X77976190Y-78788152D01*
X77738095Y-78454819D02*
X77738095Y-79311961D01*
X77738095Y-79311961D02*
X77785714Y-79407200D01*
X77785714Y-79407200D02*
X77880952Y-79454819D01*
X77880952Y-79454819D02*
X77976190Y-79454819D01*
X78309524Y-79454819D02*
X78309524Y-78454819D01*
X78738095Y-79454819D02*
X78738095Y-78931009D01*
X78738095Y-78931009D02*
X78690476Y-78835771D01*
X78690476Y-78835771D02*
X78595238Y-78788152D01*
X78595238Y-78788152D02*
X78452381Y-78788152D01*
X78452381Y-78788152D02*
X78357143Y-78835771D01*
X78357143Y-78835771D02*
X78309524Y-78883390D01*
X79214286Y-79454819D02*
X79214286Y-78788152D01*
X79214286Y-78978628D02*
X79261905Y-78883390D01*
X79261905Y-78883390D02*
X79309524Y-78835771D01*
X79309524Y-78835771D02*
X79404762Y-78788152D01*
X79404762Y-78788152D02*
X79500000Y-78788152D01*
X80261905Y-78788152D02*
X80261905Y-79454819D01*
X79833334Y-78788152D02*
X79833334Y-79311961D01*
X79833334Y-79311961D02*
X79880953Y-79407200D01*
X79880953Y-79407200D02*
X79976191Y-79454819D01*
X79976191Y-79454819D02*
X80119048Y-79454819D01*
X80119048Y-79454819D02*
X80214286Y-79407200D01*
X80214286Y-79407200D02*
X80261905Y-79359580D01*
X101750000Y-70204819D02*
X101750000Y-69204819D01*
X101750000Y-69204819D02*
X101988095Y-69204819D01*
X101988095Y-69204819D02*
X102130952Y-69252438D01*
X102130952Y-69252438D02*
X102226190Y-69347676D01*
X102226190Y-69347676D02*
X102273809Y-69442914D01*
X102273809Y-69442914D02*
X102321428Y-69633390D01*
X102321428Y-69633390D02*
X102321428Y-69776247D01*
X102321428Y-69776247D02*
X102273809Y-69966723D01*
X102273809Y-69966723D02*
X102226190Y-70061961D01*
X102226190Y-70061961D02*
X102130952Y-70157200D01*
X102130952Y-70157200D02*
X101988095Y-70204819D01*
X101988095Y-70204819D02*
X101750000Y-70204819D01*
X102750000Y-70204819D02*
X102750000Y-69204819D01*
X103416666Y-69204819D02*
X103607142Y-69204819D01*
X103607142Y-69204819D02*
X103702380Y-69252438D01*
X103702380Y-69252438D02*
X103797618Y-69347676D01*
X103797618Y-69347676D02*
X103845237Y-69538152D01*
X103845237Y-69538152D02*
X103845237Y-69871485D01*
X103845237Y-69871485D02*
X103797618Y-70061961D01*
X103797618Y-70061961D02*
X103702380Y-70157200D01*
X103702380Y-70157200D02*
X103607142Y-70204819D01*
X103607142Y-70204819D02*
X103416666Y-70204819D01*
X103416666Y-70204819D02*
X103321428Y-70157200D01*
X103321428Y-70157200D02*
X103226190Y-70061961D01*
X103226190Y-70061961D02*
X103178571Y-69871485D01*
X103178571Y-69871485D02*
X103178571Y-69538152D01*
X103178571Y-69538152D02*
X103226190Y-69347676D01*
X103226190Y-69347676D02*
X103321428Y-69252438D01*
X103321428Y-69252438D02*
X103416666Y-69204819D01*
X104178571Y-69204819D02*
X104797618Y-69204819D01*
X104797618Y-69204819D02*
X104464285Y-69585771D01*
X104464285Y-69585771D02*
X104607142Y-69585771D01*
X104607142Y-69585771D02*
X104702380Y-69633390D01*
X104702380Y-69633390D02*
X104749999Y-69681009D01*
X104749999Y-69681009D02*
X104797618Y-69776247D01*
X104797618Y-69776247D02*
X104797618Y-70014342D01*
X104797618Y-70014342D02*
X104749999Y-70109580D01*
X104749999Y-70109580D02*
X104702380Y-70157200D01*
X104702380Y-70157200D02*
X104607142Y-70204819D01*
X104607142Y-70204819D02*
X104321428Y-70204819D01*
X104321428Y-70204819D02*
X104226190Y-70157200D01*
X104226190Y-70157200D02*
X104178571Y-70109580D01*
X60999999Y-56585771D02*
X60952380Y-56538152D01*
X60952380Y-56538152D02*
X60857142Y-56395295D01*
X60857142Y-56395295D02*
X60809523Y-56300057D01*
X60809523Y-56300057D02*
X60761904Y-56157200D01*
X60761904Y-56157200D02*
X60714285Y-55919104D01*
X60714285Y-55919104D02*
X60714285Y-55728628D01*
X60714285Y-55728628D02*
X60761904Y-55490533D01*
X60761904Y-55490533D02*
X60809523Y-55347676D01*
X60809523Y-55347676D02*
X60857142Y-55252438D01*
X60857142Y-55252438D02*
X60952380Y-55109580D01*
X60952380Y-55109580D02*
X60999999Y-55061961D01*
X61571428Y-55728628D02*
X61571428Y-56204819D01*
X61238095Y-55204819D02*
X61571428Y-55728628D01*
X61571428Y-55728628D02*
X61904761Y-55204819D01*
X62142857Y-56585771D02*
X62190476Y-56538152D01*
X62190476Y-56538152D02*
X62285714Y-56395295D01*
X62285714Y-56395295D02*
X62333333Y-56300057D01*
X62333333Y-56300057D02*
X62380952Y-56157200D01*
X62380952Y-56157200D02*
X62428571Y-55919104D01*
X62428571Y-55919104D02*
X62428571Y-55728628D01*
X62428571Y-55728628D02*
X62380952Y-55490533D01*
X62380952Y-55490533D02*
X62333333Y-55347676D01*
X62333333Y-55347676D02*
X62285714Y-55252438D01*
X62285714Y-55252438D02*
X62190476Y-55109580D01*
X62190476Y-55109580D02*
X62142857Y-55061961D01*
X64714286Y-56585771D02*
X64666667Y-56538152D01*
X64666667Y-56538152D02*
X64571429Y-56395295D01*
X64571429Y-56395295D02*
X64523810Y-56300057D01*
X64523810Y-56300057D02*
X64476191Y-56157200D01*
X64476191Y-56157200D02*
X64428572Y-55919104D01*
X64428572Y-55919104D02*
X64428572Y-55728628D01*
X64428572Y-55728628D02*
X64476191Y-55490533D01*
X64476191Y-55490533D02*
X64523810Y-55347676D01*
X64523810Y-55347676D02*
X64571429Y-55252438D01*
X64571429Y-55252438D02*
X64666667Y-55109580D01*
X64666667Y-55109580D02*
X64714286Y-55061961D01*
X65619048Y-55252438D02*
X65523810Y-55204819D01*
X65523810Y-55204819D02*
X65380953Y-55204819D01*
X65380953Y-55204819D02*
X65238096Y-55252438D01*
X65238096Y-55252438D02*
X65142858Y-55347676D01*
X65142858Y-55347676D02*
X65095239Y-55442914D01*
X65095239Y-55442914D02*
X65047620Y-55633390D01*
X65047620Y-55633390D02*
X65047620Y-55776247D01*
X65047620Y-55776247D02*
X65095239Y-55966723D01*
X65095239Y-55966723D02*
X65142858Y-56061961D01*
X65142858Y-56061961D02*
X65238096Y-56157200D01*
X65238096Y-56157200D02*
X65380953Y-56204819D01*
X65380953Y-56204819D02*
X65476191Y-56204819D01*
X65476191Y-56204819D02*
X65619048Y-56157200D01*
X65619048Y-56157200D02*
X65666667Y-56109580D01*
X65666667Y-56109580D02*
X65666667Y-55776247D01*
X65666667Y-55776247D02*
X65476191Y-55776247D01*
X66000001Y-56585771D02*
X66047620Y-56538152D01*
X66047620Y-56538152D02*
X66142858Y-56395295D01*
X66142858Y-56395295D02*
X66190477Y-56300057D01*
X66190477Y-56300057D02*
X66238096Y-56157200D01*
X66238096Y-56157200D02*
X66285715Y-55919104D01*
X66285715Y-55919104D02*
X66285715Y-55728628D01*
X66285715Y-55728628D02*
X66238096Y-55490533D01*
X66238096Y-55490533D02*
X66190477Y-55347676D01*
X66190477Y-55347676D02*
X66142858Y-55252438D01*
X66142858Y-55252438D02*
X66047620Y-55109580D01*
X66047620Y-55109580D02*
X66000001Y-55061961D01*
X41750000Y-69954819D02*
X41750000Y-68954819D01*
X41750000Y-68954819D02*
X41988095Y-68954819D01*
X41988095Y-68954819D02*
X42130952Y-69002438D01*
X42130952Y-69002438D02*
X42226190Y-69097676D01*
X42226190Y-69097676D02*
X42273809Y-69192914D01*
X42273809Y-69192914D02*
X42321428Y-69383390D01*
X42321428Y-69383390D02*
X42321428Y-69526247D01*
X42321428Y-69526247D02*
X42273809Y-69716723D01*
X42273809Y-69716723D02*
X42226190Y-69811961D01*
X42226190Y-69811961D02*
X42130952Y-69907200D01*
X42130952Y-69907200D02*
X41988095Y-69954819D01*
X41988095Y-69954819D02*
X41750000Y-69954819D01*
X42750000Y-69954819D02*
X42750000Y-68954819D01*
X43416666Y-68954819D02*
X43607142Y-68954819D01*
X43607142Y-68954819D02*
X43702380Y-69002438D01*
X43702380Y-69002438D02*
X43797618Y-69097676D01*
X43797618Y-69097676D02*
X43845237Y-69288152D01*
X43845237Y-69288152D02*
X43845237Y-69621485D01*
X43845237Y-69621485D02*
X43797618Y-69811961D01*
X43797618Y-69811961D02*
X43702380Y-69907200D01*
X43702380Y-69907200D02*
X43607142Y-69954819D01*
X43607142Y-69954819D02*
X43416666Y-69954819D01*
X43416666Y-69954819D02*
X43321428Y-69907200D01*
X43321428Y-69907200D02*
X43226190Y-69811961D01*
X43226190Y-69811961D02*
X43178571Y-69621485D01*
X43178571Y-69621485D02*
X43178571Y-69288152D01*
X43178571Y-69288152D02*
X43226190Y-69097676D01*
X43226190Y-69097676D02*
X43321428Y-69002438D01*
X43321428Y-69002438D02*
X43416666Y-68954819D01*
X44226190Y-69050057D02*
X44273809Y-69002438D01*
X44273809Y-69002438D02*
X44369047Y-68954819D01*
X44369047Y-68954819D02*
X44607142Y-68954819D01*
X44607142Y-68954819D02*
X44702380Y-69002438D01*
X44702380Y-69002438D02*
X44749999Y-69050057D01*
X44749999Y-69050057D02*
X44797618Y-69145295D01*
X44797618Y-69145295D02*
X44797618Y-69240533D01*
X44797618Y-69240533D02*
X44749999Y-69383390D01*
X44749999Y-69383390D02*
X44178571Y-69954819D01*
X44178571Y-69954819D02*
X44797618Y-69954819D01*
X77404762Y-75788152D02*
X77785714Y-75788152D01*
X77547619Y-75454819D02*
X77547619Y-76311961D01*
X77547619Y-76311961D02*
X77595238Y-76407200D01*
X77595238Y-76407200D02*
X77690476Y-76454819D01*
X77690476Y-76454819D02*
X77785714Y-76454819D01*
X78500000Y-76407200D02*
X78404762Y-76454819D01*
X78404762Y-76454819D02*
X78214286Y-76454819D01*
X78214286Y-76454819D02*
X78119048Y-76407200D01*
X78119048Y-76407200D02*
X78071429Y-76311961D01*
X78071429Y-76311961D02*
X78071429Y-75931009D01*
X78071429Y-75931009D02*
X78119048Y-75835771D01*
X78119048Y-75835771D02*
X78214286Y-75788152D01*
X78214286Y-75788152D02*
X78404762Y-75788152D01*
X78404762Y-75788152D02*
X78500000Y-75835771D01*
X78500000Y-75835771D02*
X78547619Y-75931009D01*
X78547619Y-75931009D02*
X78547619Y-76026247D01*
X78547619Y-76026247D02*
X78071429Y-76121485D01*
X78976191Y-76454819D02*
X78976191Y-75788152D01*
X78976191Y-75978628D02*
X79023810Y-75883390D01*
X79023810Y-75883390D02*
X79071429Y-75835771D01*
X79071429Y-75835771D02*
X79166667Y-75788152D01*
X79166667Y-75788152D02*
X79261905Y-75788152D01*
X79595239Y-76454819D02*
X79595239Y-75788152D01*
X79595239Y-75883390D02*
X79642858Y-75835771D01*
X79642858Y-75835771D02*
X79738096Y-75788152D01*
X79738096Y-75788152D02*
X79880953Y-75788152D01*
X79880953Y-75788152D02*
X79976191Y-75835771D01*
X79976191Y-75835771D02*
X80023810Y-75931009D01*
X80023810Y-75931009D02*
X80023810Y-76454819D01*
X80023810Y-75931009D02*
X80071429Y-75835771D01*
X80071429Y-75835771D02*
X80166667Y-75788152D01*
X80166667Y-75788152D02*
X80309524Y-75788152D01*
X80309524Y-75788152D02*
X80404763Y-75835771D01*
X80404763Y-75835771D02*
X80452382Y-75931009D01*
X80452382Y-75931009D02*
X80452382Y-76454819D01*
X56214285Y-92936128D02*
X56214285Y-91436128D01*
X56928571Y-92936128D02*
X56928571Y-91436128D01*
X56928571Y-91436128D02*
X57785714Y-92936128D01*
X57785714Y-92936128D02*
X57785714Y-91436128D01*
X70726190Y-55954819D02*
X70154762Y-55954819D01*
X70440476Y-55954819D02*
X70440476Y-54954819D01*
X70440476Y-54954819D02*
X70345238Y-55097676D01*
X70345238Y-55097676D02*
X70250000Y-55192914D01*
X70250000Y-55192914D02*
X70154762Y-55240533D01*
X71107143Y-55050057D02*
X71154762Y-55002438D01*
X71154762Y-55002438D02*
X71250000Y-54954819D01*
X71250000Y-54954819D02*
X71488095Y-54954819D01*
X71488095Y-54954819D02*
X71583333Y-55002438D01*
X71583333Y-55002438D02*
X71630952Y-55050057D01*
X71630952Y-55050057D02*
X71678571Y-55145295D01*
X71678571Y-55145295D02*
X71678571Y-55240533D01*
X71678571Y-55240533D02*
X71630952Y-55383390D01*
X71630952Y-55383390D02*
X71059524Y-55954819D01*
X71059524Y-55954819D02*
X71678571Y-55954819D01*
X71964286Y-54954819D02*
X72297619Y-55954819D01*
X72297619Y-55954819D02*
X72630952Y-54954819D01*
X74250000Y-55002438D02*
X74154762Y-54954819D01*
X74154762Y-54954819D02*
X74011905Y-54954819D01*
X74011905Y-54954819D02*
X73869048Y-55002438D01*
X73869048Y-55002438D02*
X73773810Y-55097676D01*
X73773810Y-55097676D02*
X73726191Y-55192914D01*
X73726191Y-55192914D02*
X73678572Y-55383390D01*
X73678572Y-55383390D02*
X73678572Y-55526247D01*
X73678572Y-55526247D02*
X73726191Y-55716723D01*
X73726191Y-55716723D02*
X73773810Y-55811961D01*
X73773810Y-55811961D02*
X73869048Y-55907200D01*
X73869048Y-55907200D02*
X74011905Y-55954819D01*
X74011905Y-55954819D02*
X74107143Y-55954819D01*
X74107143Y-55954819D02*
X74250000Y-55907200D01*
X74250000Y-55907200D02*
X74297619Y-55859580D01*
X74297619Y-55859580D02*
X74297619Y-55526247D01*
X74297619Y-55526247D02*
X74107143Y-55526247D01*
X74726191Y-55954819D02*
X74726191Y-54954819D01*
X74726191Y-54954819D02*
X75297619Y-55954819D01*
X75297619Y-55954819D02*
X75297619Y-54954819D01*
X75773810Y-55954819D02*
X75773810Y-54954819D01*
X75773810Y-54954819D02*
X76011905Y-54954819D01*
X76011905Y-54954819D02*
X76154762Y-55002438D01*
X76154762Y-55002438D02*
X76250000Y-55097676D01*
X76250000Y-55097676D02*
X76297619Y-55192914D01*
X76297619Y-55192914D02*
X76345238Y-55383390D01*
X76345238Y-55383390D02*
X76345238Y-55526247D01*
X76345238Y-55526247D02*
X76297619Y-55716723D01*
X76297619Y-55716723D02*
X76250000Y-55811961D01*
X76250000Y-55811961D02*
X76154762Y-55907200D01*
X76154762Y-55907200D02*
X76011905Y-55954819D01*
X76011905Y-55954819D02*
X75773810Y-55954819D01*
X46416666Y-90694819D02*
X46416666Y-91409104D01*
X46416666Y-91409104D02*
X46369047Y-91551961D01*
X46369047Y-91551961D02*
X46273809Y-91647200D01*
X46273809Y-91647200D02*
X46130952Y-91694819D01*
X46130952Y-91694819D02*
X46035714Y-91694819D01*
X46845238Y-90790057D02*
X46892857Y-90742438D01*
X46892857Y-90742438D02*
X46988095Y-90694819D01*
X46988095Y-90694819D02*
X47226190Y-90694819D01*
X47226190Y-90694819D02*
X47321428Y-90742438D01*
X47321428Y-90742438D02*
X47369047Y-90790057D01*
X47369047Y-90790057D02*
X47416666Y-90885295D01*
X47416666Y-90885295D02*
X47416666Y-90980533D01*
X47416666Y-90980533D02*
X47369047Y-91123390D01*
X47369047Y-91123390D02*
X46797619Y-91694819D01*
X46797619Y-91694819D02*
X47416666Y-91694819D01*
X99416666Y-57704819D02*
X99416666Y-58419104D01*
X99416666Y-58419104D02*
X99369047Y-58561961D01*
X99369047Y-58561961D02*
X99273809Y-58657200D01*
X99273809Y-58657200D02*
X99130952Y-58704819D01*
X99130952Y-58704819D02*
X99035714Y-58704819D01*
X99797619Y-57704819D02*
X100464285Y-57704819D01*
X100464285Y-57704819D02*
X100035714Y-58704819D01*
X67916666Y-72454819D02*
X67916666Y-73169104D01*
X67916666Y-73169104D02*
X67869047Y-73311961D01*
X67869047Y-73311961D02*
X67773809Y-73407200D01*
X67773809Y-73407200D02*
X67630952Y-73454819D01*
X67630952Y-73454819D02*
X67535714Y-73454819D01*
X68821428Y-72788152D02*
X68821428Y-73454819D01*
X68583333Y-72407200D02*
X68345238Y-73121485D01*
X68345238Y-73121485D02*
X68964285Y-73121485D01*
X81954819Y-81416666D02*
X81478628Y-81749999D01*
X81954819Y-81988094D02*
X80954819Y-81988094D01*
X80954819Y-81988094D02*
X80954819Y-81607142D01*
X80954819Y-81607142D02*
X81002438Y-81511904D01*
X81002438Y-81511904D02*
X81050057Y-81464285D01*
X81050057Y-81464285D02*
X81145295Y-81416666D01*
X81145295Y-81416666D02*
X81288152Y-81416666D01*
X81288152Y-81416666D02*
X81383390Y-81464285D01*
X81383390Y-81464285D02*
X81431009Y-81511904D01*
X81431009Y-81511904D02*
X81478628Y-81607142D01*
X81478628Y-81607142D02*
X81478628Y-81988094D01*
X81954819Y-80464285D02*
X81954819Y-81035713D01*
X81954819Y-80749999D02*
X80954819Y-80749999D01*
X80954819Y-80749999D02*
X81097676Y-80845237D01*
X81097676Y-80845237D02*
X81192914Y-80940475D01*
X81192914Y-80940475D02*
X81240533Y-81035713D01*
X56581666Y-57704819D02*
X56581666Y-58419104D01*
X56581666Y-58419104D02*
X56534047Y-58561961D01*
X56534047Y-58561961D02*
X56438809Y-58657200D01*
X56438809Y-58657200D02*
X56295952Y-58704819D01*
X56295952Y-58704819D02*
X56200714Y-58704819D01*
X57486428Y-57704819D02*
X57295952Y-57704819D01*
X57295952Y-57704819D02*
X57200714Y-57752438D01*
X57200714Y-57752438D02*
X57153095Y-57800057D01*
X57153095Y-57800057D02*
X57057857Y-57942914D01*
X57057857Y-57942914D02*
X57010238Y-58133390D01*
X57010238Y-58133390D02*
X57010238Y-58514342D01*
X57010238Y-58514342D02*
X57057857Y-58609580D01*
X57057857Y-58609580D02*
X57105476Y-58657200D01*
X57105476Y-58657200D02*
X57200714Y-58704819D01*
X57200714Y-58704819D02*
X57391190Y-58704819D01*
X57391190Y-58704819D02*
X57486428Y-58657200D01*
X57486428Y-58657200D02*
X57534047Y-58609580D01*
X57534047Y-58609580D02*
X57581666Y-58514342D01*
X57581666Y-58514342D02*
X57581666Y-58276247D01*
X57581666Y-58276247D02*
X57534047Y-58181009D01*
X57534047Y-58181009D02*
X57486428Y-58133390D01*
X57486428Y-58133390D02*
X57391190Y-58085771D01*
X57391190Y-58085771D02*
X57200714Y-58085771D01*
X57200714Y-58085771D02*
X57105476Y-58133390D01*
X57105476Y-58133390D02*
X57057857Y-58181009D01*
X57057857Y-58181009D02*
X57010238Y-58276247D01*
X63106666Y-72454819D02*
X63106666Y-73169104D01*
X63106666Y-73169104D02*
X63059047Y-73311961D01*
X63059047Y-73311961D02*
X62963809Y-73407200D01*
X62963809Y-73407200D02*
X62820952Y-73454819D01*
X62820952Y-73454819D02*
X62725714Y-73454819D01*
X63487619Y-72454819D02*
X64106666Y-72454819D01*
X64106666Y-72454819D02*
X63773333Y-72835771D01*
X63773333Y-72835771D02*
X63916190Y-72835771D01*
X63916190Y-72835771D02*
X64011428Y-72883390D01*
X64011428Y-72883390D02*
X64059047Y-72931009D01*
X64059047Y-72931009D02*
X64106666Y-73026247D01*
X64106666Y-73026247D02*
X64106666Y-73264342D01*
X64106666Y-73264342D02*
X64059047Y-73359580D01*
X64059047Y-73359580D02*
X64011428Y-73407200D01*
X64011428Y-73407200D02*
X63916190Y-73454819D01*
X63916190Y-73454819D02*
X63630476Y-73454819D01*
X63630476Y-73454819D02*
X63535238Y-73407200D01*
X63535238Y-73407200D02*
X63487619Y-73359580D01*
X65704819Y-84166666D02*
X65228628Y-84499999D01*
X65704819Y-84738094D02*
X64704819Y-84738094D01*
X64704819Y-84738094D02*
X64704819Y-84357142D01*
X64704819Y-84357142D02*
X64752438Y-84261904D01*
X64752438Y-84261904D02*
X64800057Y-84214285D01*
X64800057Y-84214285D02*
X64895295Y-84166666D01*
X64895295Y-84166666D02*
X65038152Y-84166666D01*
X65038152Y-84166666D02*
X65133390Y-84214285D01*
X65133390Y-84214285D02*
X65181009Y-84261904D01*
X65181009Y-84261904D02*
X65228628Y-84357142D01*
X65228628Y-84357142D02*
X65228628Y-84738094D01*
X64800057Y-83785713D02*
X64752438Y-83738094D01*
X64752438Y-83738094D02*
X64704819Y-83642856D01*
X64704819Y-83642856D02*
X64704819Y-83404761D01*
X64704819Y-83404761D02*
X64752438Y-83309523D01*
X64752438Y-83309523D02*
X64800057Y-83261904D01*
X64800057Y-83261904D02*
X64895295Y-83214285D01*
X64895295Y-83214285D02*
X64990533Y-83214285D01*
X64990533Y-83214285D02*
X65133390Y-83261904D01*
X65133390Y-83261904D02*
X65704819Y-83833332D01*
X65704819Y-83833332D02*
X65704819Y-83214285D01*
X99416666Y-65454819D02*
X99416666Y-66169104D01*
X99416666Y-66169104D02*
X99369047Y-66311961D01*
X99369047Y-66311961D02*
X99273809Y-66407200D01*
X99273809Y-66407200D02*
X99130952Y-66454819D01*
X99130952Y-66454819D02*
X99035714Y-66454819D01*
X99940476Y-66454819D02*
X100130952Y-66454819D01*
X100130952Y-66454819D02*
X100226190Y-66407200D01*
X100226190Y-66407200D02*
X100273809Y-66359580D01*
X100273809Y-66359580D02*
X100369047Y-66216723D01*
X100369047Y-66216723D02*
X100416666Y-66026247D01*
X100416666Y-66026247D02*
X100416666Y-65645295D01*
X100416666Y-65645295D02*
X100369047Y-65550057D01*
X100369047Y-65550057D02*
X100321428Y-65502438D01*
X100321428Y-65502438D02*
X100226190Y-65454819D01*
X100226190Y-65454819D02*
X100035714Y-65454819D01*
X100035714Y-65454819D02*
X99940476Y-65502438D01*
X99940476Y-65502438D02*
X99892857Y-65550057D01*
X99892857Y-65550057D02*
X99845238Y-65645295D01*
X99845238Y-65645295D02*
X99845238Y-65883390D01*
X99845238Y-65883390D02*
X99892857Y-65978628D01*
X99892857Y-65978628D02*
X99940476Y-66026247D01*
X99940476Y-66026247D02*
X100035714Y-66073866D01*
X100035714Y-66073866D02*
X100226190Y-66073866D01*
X100226190Y-66073866D02*
X100321428Y-66026247D01*
X100321428Y-66026247D02*
X100369047Y-65978628D01*
X100369047Y-65978628D02*
X100416666Y-65883390D01*
X66416667Y-78157200D02*
X66559524Y-78204819D01*
X66559524Y-78204819D02*
X66797619Y-78204819D01*
X66797619Y-78204819D02*
X66892857Y-78157200D01*
X66892857Y-78157200D02*
X66940476Y-78109580D01*
X66940476Y-78109580D02*
X66988095Y-78014342D01*
X66988095Y-78014342D02*
X66988095Y-77919104D01*
X66988095Y-77919104D02*
X66940476Y-77823866D01*
X66940476Y-77823866D02*
X66892857Y-77776247D01*
X66892857Y-77776247D02*
X66797619Y-77728628D01*
X66797619Y-77728628D02*
X66607143Y-77681009D01*
X66607143Y-77681009D02*
X66511905Y-77633390D01*
X66511905Y-77633390D02*
X66464286Y-77585771D01*
X66464286Y-77585771D02*
X66416667Y-77490533D01*
X66416667Y-77490533D02*
X66416667Y-77395295D01*
X66416667Y-77395295D02*
X66464286Y-77300057D01*
X66464286Y-77300057D02*
X66511905Y-77252438D01*
X66511905Y-77252438D02*
X66607143Y-77204819D01*
X66607143Y-77204819D02*
X66845238Y-77204819D01*
X66845238Y-77204819D02*
X66988095Y-77252438D01*
X67321429Y-77204819D02*
X67559524Y-78204819D01*
X67559524Y-78204819D02*
X67750000Y-77490533D01*
X67750000Y-77490533D02*
X67940476Y-78204819D01*
X67940476Y-78204819D02*
X68178572Y-77204819D01*
X69083333Y-78204819D02*
X68511905Y-78204819D01*
X68797619Y-78204819D02*
X68797619Y-77204819D01*
X68797619Y-77204819D02*
X68702381Y-77347676D01*
X68702381Y-77347676D02*
X68607143Y-77442914D01*
X68607143Y-77442914D02*
X68511905Y-77490533D01*
X98916666Y-90704819D02*
X98916666Y-91419104D01*
X98916666Y-91419104D02*
X98869047Y-91561961D01*
X98869047Y-91561961D02*
X98773809Y-91657200D01*
X98773809Y-91657200D02*
X98630952Y-91704819D01*
X98630952Y-91704819D02*
X98535714Y-91704819D01*
X99916666Y-91704819D02*
X99345238Y-91704819D01*
X99630952Y-91704819D02*
X99630952Y-90704819D01*
X99630952Y-90704819D02*
X99535714Y-90847676D01*
X99535714Y-90847676D02*
X99440476Y-90942914D01*
X99440476Y-90942914D02*
X99345238Y-90990533D01*
X72833333Y-86954819D02*
X72500000Y-86478628D01*
X72261905Y-86954819D02*
X72261905Y-85954819D01*
X72261905Y-85954819D02*
X72642857Y-85954819D01*
X72642857Y-85954819D02*
X72738095Y-86002438D01*
X72738095Y-86002438D02*
X72785714Y-86050057D01*
X72785714Y-86050057D02*
X72833333Y-86145295D01*
X72833333Y-86145295D02*
X72833333Y-86288152D01*
X72833333Y-86288152D02*
X72785714Y-86383390D01*
X72785714Y-86383390D02*
X72738095Y-86431009D01*
X72738095Y-86431009D02*
X72642857Y-86478628D01*
X72642857Y-86478628D02*
X72261905Y-86478628D01*
X73166667Y-85954819D02*
X73785714Y-85954819D01*
X73785714Y-85954819D02*
X73452381Y-86335771D01*
X73452381Y-86335771D02*
X73595238Y-86335771D01*
X73595238Y-86335771D02*
X73690476Y-86383390D01*
X73690476Y-86383390D02*
X73738095Y-86431009D01*
X73738095Y-86431009D02*
X73785714Y-86526247D01*
X73785714Y-86526247D02*
X73785714Y-86764342D01*
X73785714Y-86764342D02*
X73738095Y-86859580D01*
X73738095Y-86859580D02*
X73690476Y-86907200D01*
X73690476Y-86907200D02*
X73595238Y-86954819D01*
X73595238Y-86954819D02*
X73309524Y-86954819D01*
X73309524Y-86954819D02*
X73214286Y-86907200D01*
X73214286Y-86907200D02*
X73166667Y-86859580D01*
X82416666Y-72454819D02*
X82416666Y-73169104D01*
X82416666Y-73169104D02*
X82369047Y-73311961D01*
X82369047Y-73311961D02*
X82273809Y-73407200D01*
X82273809Y-73407200D02*
X82130952Y-73454819D01*
X82130952Y-73454819D02*
X82035714Y-73454819D01*
X83369047Y-72454819D02*
X82892857Y-72454819D01*
X82892857Y-72454819D02*
X82845238Y-72931009D01*
X82845238Y-72931009D02*
X82892857Y-72883390D01*
X82892857Y-72883390D02*
X82988095Y-72835771D01*
X82988095Y-72835771D02*
X83226190Y-72835771D01*
X83226190Y-72835771D02*
X83321428Y-72883390D01*
X83321428Y-72883390D02*
X83369047Y-72931009D01*
X83369047Y-72931009D02*
X83416666Y-73026247D01*
X83416666Y-73026247D02*
X83416666Y-73264342D01*
X83416666Y-73264342D02*
X83369047Y-73359580D01*
X83369047Y-73359580D02*
X83321428Y-73407200D01*
X83321428Y-73407200D02*
X83226190Y-73454819D01*
X83226190Y-73454819D02*
X82988095Y-73454819D01*
X82988095Y-73454819D02*
X82892857Y-73407200D01*
X82892857Y-73407200D02*
X82845238Y-73359580D01*
X56926666Y-65454819D02*
X56926666Y-66169104D01*
X56926666Y-66169104D02*
X56879047Y-66311961D01*
X56879047Y-66311961D02*
X56783809Y-66407200D01*
X56783809Y-66407200D02*
X56640952Y-66454819D01*
X56640952Y-66454819D02*
X56545714Y-66454819D01*
X57545714Y-65883390D02*
X57450476Y-65835771D01*
X57450476Y-65835771D02*
X57402857Y-65788152D01*
X57402857Y-65788152D02*
X57355238Y-65692914D01*
X57355238Y-65692914D02*
X57355238Y-65645295D01*
X57355238Y-65645295D02*
X57402857Y-65550057D01*
X57402857Y-65550057D02*
X57450476Y-65502438D01*
X57450476Y-65502438D02*
X57545714Y-65454819D01*
X57545714Y-65454819D02*
X57736190Y-65454819D01*
X57736190Y-65454819D02*
X57831428Y-65502438D01*
X57831428Y-65502438D02*
X57879047Y-65550057D01*
X57879047Y-65550057D02*
X57926666Y-65645295D01*
X57926666Y-65645295D02*
X57926666Y-65692914D01*
X57926666Y-65692914D02*
X57879047Y-65788152D01*
X57879047Y-65788152D02*
X57831428Y-65835771D01*
X57831428Y-65835771D02*
X57736190Y-65883390D01*
X57736190Y-65883390D02*
X57545714Y-65883390D01*
X57545714Y-65883390D02*
X57450476Y-65931009D01*
X57450476Y-65931009D02*
X57402857Y-65978628D01*
X57402857Y-65978628D02*
X57355238Y-66073866D01*
X57355238Y-66073866D02*
X57355238Y-66264342D01*
X57355238Y-66264342D02*
X57402857Y-66359580D01*
X57402857Y-66359580D02*
X57450476Y-66407200D01*
X57450476Y-66407200D02*
X57545714Y-66454819D01*
X57545714Y-66454819D02*
X57736190Y-66454819D01*
X57736190Y-66454819D02*
X57831428Y-66407200D01*
X57831428Y-66407200D02*
X57879047Y-66359580D01*
X57879047Y-66359580D02*
X57926666Y-66264342D01*
X57926666Y-66264342D02*
X57926666Y-66073866D01*
X57926666Y-66073866D02*
X57879047Y-65978628D01*
X57879047Y-65978628D02*
X57831428Y-65931009D01*
X57831428Y-65931009D02*
X57736190Y-65883390D01*
D11*
X45750000Y-73990000D02*
X48830000Y-73990000D01*
X45750000Y-90490000D02*
X45750000Y-73990000D01*
X45750000Y-90490000D02*
X48830000Y-90490000D01*
X55700000Y-73990000D02*
X61040000Y-73990000D01*
X61040000Y-73990000D02*
X61040000Y-90490000D01*
X61040000Y-90490000D02*
X55700000Y-90490000D01*
D12*
X52120000Y-92315000D02*
G75*
G02*
X51920000Y-92315000I-100000J0D01*
G01*
X51920000Y-92315000D02*
G75*
G02*
X52120000Y-92315000I100000J0D01*
G01*
D13*
X88075000Y-59090000D02*
X88075000Y-60070000D01*
X88075000Y-60070000D02*
X88205000Y-60070000D01*
X88075000Y-61880000D02*
X88075000Y-64410000D01*
X88075000Y-64410000D02*
X100915000Y-64410000D01*
X88205000Y-60070000D02*
X88205000Y-61880000D01*
X88205000Y-61880000D02*
X88075000Y-61880000D01*
X90575000Y-57590000D02*
X90575000Y-59090000D01*
X90575000Y-59090000D02*
X88075000Y-59090000D01*
X98415000Y-57590000D02*
X90575000Y-57590000D01*
X98415000Y-59090000D02*
X98415000Y-57590000D01*
X100785000Y-60070000D02*
X100915000Y-60070000D01*
X100785000Y-61880000D02*
X100785000Y-60070000D01*
X100915000Y-59090000D02*
X98415000Y-59090000D01*
X100915000Y-60070000D02*
X100915000Y-59090000D01*
X100915000Y-61880000D02*
X100785000Y-61880000D01*
X100915000Y-64410000D02*
X100915000Y-61880000D01*
X101215000Y-62300000D02*
X101215000Y-64710000D01*
X101215000Y-64710000D02*
X98805000Y-64710000D01*
X68730000Y-57512500D02*
X74610000Y-57512500D01*
X68730000Y-72252500D02*
X68730000Y-57512500D01*
X75210000Y-57512500D02*
X77470000Y-57512500D01*
X77470000Y-57512500D02*
X77470000Y-72252500D01*
X77470000Y-72252500D02*
X68730000Y-72252500D01*
X74910000Y-57512500D02*
X74470000Y-56902500D01*
X75350000Y-56902500D01*
X74910000Y-57512500D01*
G36*
X74910000Y-57512500D02*
G01*
X74470000Y-56902500D01*
X75350000Y-56902500D01*
X74910000Y-57512500D01*
G37*
X83547500Y-77210000D02*
X83547500Y-77980000D01*
X83547500Y-85290000D02*
X83547500Y-84520000D01*
X84917500Y-77980000D02*
X82177500Y-77980000D01*
X82177500Y-84520000D01*
X84917500Y-84520000D01*
X84917500Y-77980000D01*
X45325000Y-59090000D02*
X45325000Y-60070000D01*
X45325000Y-60070000D02*
X45455000Y-60070000D01*
X45325000Y-61880000D02*
X45325000Y-64410000D01*
X45325000Y-64410000D02*
X58165000Y-64410000D01*
X45455000Y-60070000D02*
X45455000Y-61880000D01*
X45455000Y-61880000D02*
X45325000Y-61880000D01*
X47825000Y-57590000D02*
X47825000Y-59090000D01*
X47825000Y-59090000D02*
X45325000Y-59090000D01*
X55665000Y-57590000D02*
X47825000Y-57590000D01*
X55665000Y-59090000D02*
X55665000Y-57590000D01*
X58035000Y-60070000D02*
X58165000Y-60070000D01*
X58035000Y-61880000D02*
X58035000Y-60070000D01*
X58165000Y-59090000D02*
X55665000Y-59090000D01*
X58165000Y-60070000D02*
X58165000Y-59090000D01*
X58165000Y-61880000D02*
X58035000Y-61880000D01*
X58165000Y-64410000D02*
X58165000Y-61880000D01*
X58465000Y-62300000D02*
X58465000Y-64710000D01*
X58465000Y-64710000D02*
X56055000Y-64710000D01*
X59070000Y-57512500D02*
X64950000Y-57512500D01*
X59070000Y-72252500D02*
X59070000Y-57512500D01*
X65550000Y-57512500D02*
X67810000Y-57512500D01*
X67810000Y-57512500D02*
X67810000Y-72252500D01*
X67810000Y-72252500D02*
X59070000Y-72252500D01*
X65250000Y-57512500D02*
X64810000Y-56902500D01*
X65690000Y-56902500D01*
X65250000Y-57512500D01*
G36*
X65250000Y-57512500D02*
G01*
X64810000Y-56902500D01*
X65690000Y-56902500D01*
X65250000Y-57512500D01*
G37*
X63000000Y-79880000D02*
X63000000Y-80650000D01*
X63000000Y-87960000D02*
X63000000Y-87190000D01*
X61630000Y-87190000D02*
X64370000Y-87190000D01*
X64370000Y-80650000D01*
X61630000Y-80650000D01*
X61630000Y-87190000D01*
X88075000Y-66840000D02*
X88075000Y-67820000D01*
X88075000Y-67820000D02*
X88205000Y-67820000D01*
X88075000Y-69630000D02*
X88075000Y-72160000D01*
X88075000Y-72160000D02*
X100915000Y-72160000D01*
X88205000Y-67820000D02*
X88205000Y-69630000D01*
X88205000Y-69630000D02*
X88075000Y-69630000D01*
X90575000Y-65340000D02*
X90575000Y-66840000D01*
X90575000Y-66840000D02*
X88075000Y-66840000D01*
X98415000Y-65340000D02*
X90575000Y-65340000D01*
X98415000Y-66840000D02*
X98415000Y-65340000D01*
X100785000Y-67820000D02*
X100915000Y-67820000D01*
X100785000Y-69630000D02*
X100785000Y-67820000D01*
X100915000Y-66840000D02*
X98415000Y-66840000D01*
X100915000Y-67820000D02*
X100915000Y-66840000D01*
X100915000Y-69630000D02*
X100785000Y-69630000D01*
X100915000Y-72160000D02*
X100915000Y-69630000D01*
X101215000Y-70050000D02*
X101215000Y-72460000D01*
X101215000Y-72460000D02*
X98805000Y-72460000D01*
X69115000Y-72660000D02*
X69115000Y-73660000D01*
X69115000Y-72660000D02*
X70115000Y-72660000D01*
D11*
X85210000Y-74000000D02*
X90550000Y-74000000D01*
X85210000Y-90500000D02*
X85210000Y-74000000D01*
X90550000Y-90500000D02*
X85210000Y-90500000D01*
X100500000Y-74000000D02*
X97420000Y-74000000D01*
X100500000Y-74000000D02*
X100500000Y-90500000D01*
X100500000Y-90500000D02*
X97420000Y-90500000D01*
D12*
X94330000Y-72175000D02*
G75*
G02*
X94130000Y-72175000I-100000J0D01*
G01*
X94130000Y-72175000D02*
G75*
G02*
X94330000Y-72175000I100000J0D01*
G01*
D13*
X69085000Y-84250000D02*
X69855000Y-84250000D01*
X77165000Y-84250000D02*
X76395000Y-84250000D01*
X76395000Y-85620000D02*
X69855000Y-85620000D01*
X69855000Y-82880000D01*
X76395000Y-82880000D01*
X76395000Y-85620000D01*
X78400000Y-57530000D02*
X84280000Y-57530000D01*
X78400000Y-72270000D02*
X78400000Y-57530000D01*
X84880000Y-57530000D02*
X87140000Y-57530000D01*
X87140000Y-57530000D02*
X87140000Y-72270000D01*
X87140000Y-72270000D02*
X78400000Y-72270000D01*
X84580000Y-57530000D02*
X84140000Y-56920000D01*
X85020000Y-56920000D01*
X84580000Y-57530000D01*
G36*
X84580000Y-57530000D02*
G01*
X84140000Y-56920000D01*
X85020000Y-56920000D01*
X84580000Y-57530000D01*
G37*
X45325000Y-66840000D02*
X45325000Y-67820000D01*
X45325000Y-67820000D02*
X45455000Y-67820000D01*
X45325000Y-69630000D02*
X45325000Y-72160000D01*
X45325000Y-72160000D02*
X58165000Y-72160000D01*
X45455000Y-67820000D02*
X45455000Y-69630000D01*
X45455000Y-69630000D02*
X45325000Y-69630000D01*
X47825000Y-65340000D02*
X47825000Y-66840000D01*
X47825000Y-66840000D02*
X45325000Y-66840000D01*
X55665000Y-65340000D02*
X47825000Y-65340000D01*
X55665000Y-66840000D02*
X55665000Y-65340000D01*
X58035000Y-67820000D02*
X58165000Y-67820000D01*
X58035000Y-69630000D02*
X58035000Y-67820000D01*
X58165000Y-66840000D02*
X55665000Y-66840000D01*
X58165000Y-67820000D02*
X58165000Y-66840000D01*
X58165000Y-69630000D02*
X58035000Y-69630000D01*
X58165000Y-72160000D02*
X58165000Y-69630000D01*
X58465000Y-70050000D02*
X58465000Y-72460000D01*
X58465000Y-72460000D02*
X56055000Y-72460000D01*
%LPC*%
D14*
X50750000Y-75890000D03*
X50750000Y-88590000D03*
D15*
X53290000Y-85810000D03*
D16*
X55070000Y-84790000D03*
X53290000Y-83770000D03*
X55070000Y-82750000D03*
X53290000Y-81730000D03*
X55070000Y-80710000D03*
X53290000Y-79690000D03*
X55070000Y-78670000D03*
X59890000Y-89100000D03*
X59890000Y-86810000D03*
X59890000Y-77670000D03*
X59890000Y-75380000D03*
D17*
X54180000Y-74115000D03*
X54180000Y-90365000D03*
D18*
X98305000Y-61750000D03*
D19*
X95765000Y-61750000D03*
X93225000Y-61750000D03*
X90685000Y-61750000D03*
D20*
X74910000Y-67982500D03*
D21*
X74910000Y-62982500D03*
D22*
X71410000Y-67982500D03*
X71410000Y-62982500D03*
D23*
X83547500Y-76170000D03*
X83547500Y-86330000D03*
D18*
X55555000Y-61750000D03*
D19*
X53015000Y-61750000D03*
X50475000Y-61750000D03*
X47935000Y-61750000D03*
D20*
X65250000Y-67982500D03*
D21*
X65250000Y-62982500D03*
D22*
X61750000Y-67982500D03*
X61750000Y-62982500D03*
D23*
X63000000Y-89000000D03*
X63000000Y-78840000D03*
D18*
X98305000Y-69500000D03*
D19*
X95765000Y-69500000D03*
X93225000Y-69500000D03*
X90685000Y-69500000D03*
D24*
X71855000Y-73940000D03*
D25*
X71855000Y-81560000D03*
X74395000Y-73940000D03*
X74395000Y-81560000D03*
D14*
X95500000Y-88600000D03*
X95500000Y-75900000D03*
D26*
X92960000Y-78680000D03*
D16*
X91180000Y-79700000D03*
X92960000Y-80720000D03*
X91180000Y-81740000D03*
X92960000Y-82760000D03*
X91180000Y-83780000D03*
X92960000Y-84800000D03*
X91180000Y-85820000D03*
X86360000Y-75390000D03*
X86360000Y-77680000D03*
X86360000Y-86820000D03*
X86360000Y-89110000D03*
D17*
X92070000Y-90375000D03*
X92070000Y-74125000D03*
D23*
X78205000Y-84250000D03*
X68045000Y-84250000D03*
D20*
X84580000Y-68000000D03*
D21*
X84580000Y-63000000D03*
D22*
X81080000Y-68000000D03*
X81080000Y-63000000D03*
D18*
X55555000Y-69500000D03*
D19*
X53015000Y-69500000D03*
X50475000Y-69500000D03*
X47935000Y-69500000D03*
%LPD*%
M02*
