G04 #@! TF.GenerationSoftware,KiCad,Pcbnew,9.0.2*
G04 #@! TF.CreationDate,2025-11-18T17:36:01+08:00*
G04 #@! TF.ProjectId,rio module,72696f20-6d6f-4647-956c-652e6b696361,rev?*
G04 #@! TF.SameCoordinates,Original*
G04 #@! TF.FileFunction,Copper,L1,Top*
G04 #@! TF.FilePolarity,Positive*
%FSLAX46Y46*%
G04 Gerber Fmt 4.6, Leading zero omitted, Abs format (unit mm)*
G04 Created by KiCad (PCBNEW 9.0.2) date 2025-11-18 17:36:01*
%MOMM*%
%LPD*%
G01*
G04 APERTURE LIST*
G04 Aperture macros list*
%AMRoundRect*
0 Rectangle with rounded corners*
0 $1 Rounding radius*
0 $2 $3 $4 $5 $6 $7 $8 $9 X,Y pos of 4 corners*
0 Add a 4 corners polygon primitive as box body*
4,1,4,$2,$3,$4,$5,$6,$7,$8,$9,$2,$3,0*
0 Add four circle primitives for the rounded corners*
1,1,$1+$1,$2,$3*
1,1,$1+$1,$4,$5*
1,1,$1+$1,$6,$7*
1,1,$1+$1,$8,$9*
0 Add four rect primitives between the rounded corners*
20,1,$1+$1,$2,$3,$4,$5,0*
20,1,$1+$1,$4,$5,$6,$7,0*
20,1,$1+$1,$6,$7,$8,$9,0*
20,1,$1+$1,$8,$9,$2,$3,0*%
G04 Aperture macros list end*
G04 #@! TA.AperFunction,ComponentPad*
%ADD10R,1.408000X1.408000*%
G04 #@! TD*
G04 #@! TA.AperFunction,ComponentPad*
%ADD11C,1.408000*%
G04 #@! TD*
G04 #@! TA.AperFunction,ComponentPad*
%ADD12C,2.400000*%
G04 #@! TD*
G04 #@! TA.AperFunction,ComponentPad*
%ADD13RoundRect,0.250000X0.620000X0.620000X-0.620000X0.620000X-0.620000X-0.620000X0.620000X-0.620000X0*%
G04 #@! TD*
G04 #@! TA.AperFunction,ComponentPad*
%ADD14C,1.740000*%
G04 #@! TD*
G04 #@! TA.AperFunction,ComponentPad*
%ADD15R,1.500000X2.300000*%
G04 #@! TD*
G04 #@! TA.AperFunction,ComponentPad*
%ADD16RoundRect,0.250001X0.499999X0.899999X-0.499999X0.899999X-0.499999X-0.899999X0.499999X-0.899999X0*%
G04 #@! TD*
G04 #@! TA.AperFunction,ComponentPad*
%ADD17O,1.500000X2.300000*%
G04 #@! TD*
G04 #@! TA.AperFunction,ComponentPad*
%ADD18C,1.600000*%
G04 #@! TD*
G04 #@! TA.AperFunction,ComponentPad*
%ADD19R,1.200000X1.200000*%
G04 #@! TD*
G04 #@! TA.AperFunction,ComponentPad*
%ADD20C,1.200000*%
G04 #@! TD*
G04 #@! TA.AperFunction,Conductor*
%ADD21C,0.200000*%
G04 #@! TD*
G04 APERTURE END LIST*
D10*
X53290000Y-85810000D03*
D11*
X55070000Y-84790000D03*
X53290000Y-83770000D03*
X55070000Y-82750000D03*
X53290000Y-81730000D03*
X55070000Y-80710000D03*
X53290000Y-79690000D03*
X55070000Y-78670000D03*
X59890000Y-89100000D03*
X59890000Y-86810000D03*
X59890000Y-77670000D03*
X59890000Y-75380000D03*
D12*
X54180000Y-74115000D03*
X54180000Y-90365000D03*
D13*
X98305000Y-61750000D03*
D14*
X95765000Y-61750000D03*
X93225000Y-61750000D03*
X90685000Y-61750000D03*
D15*
X74910000Y-67982500D03*
D16*
X74910000Y-62982500D03*
D17*
X71410000Y-67982500D03*
X71410000Y-62982500D03*
D18*
X83547500Y-76170000D03*
X83547500Y-86330000D03*
D13*
X55555000Y-61750000D03*
D14*
X53015000Y-61750000D03*
X50475000Y-61750000D03*
X47935000Y-61750000D03*
D15*
X65250000Y-67982500D03*
D16*
X65250000Y-62982500D03*
D17*
X61750000Y-67982500D03*
X61750000Y-62982500D03*
D18*
X63000000Y-89000000D03*
X63000000Y-78840000D03*
D13*
X98305000Y-69500000D03*
D14*
X95765000Y-69500000D03*
X93225000Y-69500000D03*
X90685000Y-69500000D03*
D19*
X71855000Y-73940000D03*
D20*
X71855000Y-81560000D03*
X74395000Y-73940000D03*
X74395000Y-81560000D03*
D10*
X92960000Y-78680000D03*
D11*
X91180000Y-79700000D03*
X92960000Y-80720000D03*
X91180000Y-81740000D03*
X92960000Y-82760000D03*
X91180000Y-83780000D03*
X92960000Y-84800000D03*
X91180000Y-85820000D03*
X86360000Y-75390000D03*
X86360000Y-77680000D03*
X86360000Y-86820000D03*
X86360000Y-89110000D03*
D12*
X92070000Y-90375000D03*
X92070000Y-74125000D03*
D18*
X78205000Y-84250000D03*
X68045000Y-84250000D03*
D15*
X84580000Y-68000000D03*
D16*
X84580000Y-63000000D03*
D17*
X81080000Y-68000000D03*
X81080000Y-63000000D03*
D13*
X55555000Y-69500000D03*
D14*
X53015000Y-69500000D03*
X50475000Y-69500000D03*
X47935000Y-69500000D03*
D21*
X91180000Y-77430000D02*
X91180000Y-79700000D01*
X81080000Y-68000000D02*
X81750000Y-68000000D01*
X81080000Y-63000000D02*
X81080000Y-68000000D01*
X81750000Y-68000000D02*
X91180000Y-77430000D01*
X92960000Y-78642900D02*
X92960000Y-78680000D01*
X84580000Y-68000000D02*
X84580000Y-70262900D01*
X84580000Y-70262900D02*
X92960000Y-78642900D01*
X54294715Y-77264000D02*
X52285000Y-79273715D01*
X55652385Y-77264000D02*
X54294715Y-77264000D01*
X52285000Y-79273715D02*
X52285000Y-80725000D01*
X60987385Y-82599000D02*
X55652385Y-77264000D01*
X52285000Y-80725000D02*
X53290000Y-81730000D01*
X89144815Y-82599000D02*
X60987385Y-82599000D01*
X89305815Y-82760000D02*
X89144815Y-82599000D01*
X92960000Y-82760000D02*
X89305815Y-82760000D01*
X79214775Y-85785225D02*
X80750000Y-84250000D01*
X55070000Y-78670000D02*
X62185225Y-85785225D01*
X80750000Y-84250000D02*
X89610000Y-84250000D01*
X62185225Y-85785225D02*
X79214775Y-85785225D01*
X89610000Y-84250000D02*
X91180000Y-85820000D01*
X93965000Y-84383715D02*
X93361285Y-83780000D01*
X55070000Y-80710000D02*
X56542900Y-80710000D01*
X62019125Y-86186225D02*
X79380875Y-86186225D01*
X80916100Y-84651000D02*
X88589715Y-84651000D01*
X90763715Y-86825000D02*
X92356285Y-86825000D01*
X93965000Y-85216285D02*
X93965000Y-84383715D01*
X79380875Y-86186225D02*
X80916100Y-84651000D01*
X93361285Y-83780000D02*
X91180000Y-83780000D01*
X92356285Y-86825000D02*
X93965000Y-85216285D01*
X88589715Y-84651000D02*
X90763715Y-86825000D01*
X56542900Y-80710000D02*
X62019125Y-86186225D01*
X88978715Y-83000000D02*
X90778715Y-84800000D01*
X90778715Y-84800000D02*
X92960000Y-84800000D01*
X53290000Y-79028715D02*
X54653715Y-77665000D01*
X53290000Y-79690000D02*
X53290000Y-79028715D01*
X55486285Y-77665000D02*
X60821285Y-83000000D01*
X54653715Y-77665000D02*
X55486285Y-77665000D01*
X60821285Y-83000000D02*
X88978715Y-83000000D01*
G04 #@! TA.AperFunction,Conductor*
G36*
X103128244Y-52250670D02*
G01*
X103147324Y-52251670D01*
X103213241Y-52274836D01*
X103256170Y-52329963D01*
X103262480Y-52399547D01*
X103230168Y-52461496D01*
X103169494Y-52496143D01*
X103140834Y-52499500D01*
X102970528Y-52499500D01*
X102663562Y-52534086D01*
X102663544Y-52534089D01*
X102362364Y-52602831D01*
X102362352Y-52602835D01*
X102070777Y-52704862D01*
X102070763Y-52704868D01*
X101792437Y-52838903D01*
X101530858Y-53003264D01*
X101289326Y-53195879D01*
X101070879Y-53414326D01*
X100878264Y-53655858D01*
X100713903Y-53917437D01*
X100579868Y-54195763D01*
X100579862Y-54195777D01*
X100477835Y-54487352D01*
X100477831Y-54487364D01*
X100409089Y-54788544D01*
X100409086Y-54788562D01*
X100374500Y-55095528D01*
X100374500Y-55404471D01*
X100409086Y-55711437D01*
X100409089Y-55711455D01*
X100477831Y-56012635D01*
X100477835Y-56012647D01*
X100579862Y-56304222D01*
X100579868Y-56304236D01*
X100713903Y-56582562D01*
X100713905Y-56582565D01*
X100878265Y-56844143D01*
X101070880Y-57085674D01*
X101289326Y-57304120D01*
X101530857Y-57496735D01*
X101792435Y-57661095D01*
X102070771Y-57795135D01*
X102070777Y-57795137D01*
X102362352Y-57897164D01*
X102362364Y-57897168D01*
X102663548Y-57965911D01*
X102663554Y-57965911D01*
X102663562Y-57965913D01*
X102868206Y-57988970D01*
X102970529Y-58000499D01*
X102970532Y-58000500D01*
X102970535Y-58000500D01*
X103279468Y-58000500D01*
X103279469Y-58000499D01*
X103436356Y-57982822D01*
X103586437Y-57965913D01*
X103586442Y-57965912D01*
X103586452Y-57965911D01*
X103887636Y-57897168D01*
X104179229Y-57795135D01*
X104457565Y-57661095D01*
X104719143Y-57496735D01*
X104960674Y-57304120D01*
X105179120Y-57085674D01*
X105371735Y-56844143D01*
X105536095Y-56582565D01*
X105670135Y-56304229D01*
X105772168Y-56012636D01*
X105840911Y-55711452D01*
X105875500Y-55404465D01*
X105875500Y-55234165D01*
X105884464Y-55203637D01*
X105891819Y-55172677D01*
X105894239Y-55170347D01*
X105895185Y-55167126D01*
X105919224Y-55146295D01*
X105942156Y-55124221D01*
X105945451Y-55123569D01*
X105947989Y-55121371D01*
X105979481Y-55116842D01*
X106010699Y-55110672D01*
X106013822Y-55111905D01*
X106017147Y-55111427D01*
X106046098Y-55124648D01*
X106075687Y-55136331D01*
X106077647Y-55139056D01*
X106080703Y-55140452D01*
X106097905Y-55167219D01*
X106116486Y-55193051D01*
X106117365Y-55197500D01*
X106118477Y-55199230D01*
X106123330Y-55227675D01*
X106124330Y-55246756D01*
X106124500Y-55253246D01*
X106124500Y-95246753D01*
X106124330Y-95253243D01*
X106123330Y-95272324D01*
X106100164Y-95338241D01*
X106045038Y-95381170D01*
X105975453Y-95387480D01*
X105913504Y-95355169D01*
X105878858Y-95294494D01*
X105875500Y-95265834D01*
X105875500Y-95095532D01*
X105875499Y-95095528D01*
X105840913Y-94788562D01*
X105840910Y-94788544D01*
X105772168Y-94487364D01*
X105772164Y-94487352D01*
X105670137Y-94195777D01*
X105670135Y-94195771D01*
X105536095Y-93917435D01*
X105371735Y-93655857D01*
X105179120Y-93414326D01*
X104960674Y-93195880D01*
X104719143Y-93003265D01*
X104457565Y-92838905D01*
X104457562Y-92838903D01*
X104179236Y-92704868D01*
X104179222Y-92704862D01*
X103887647Y-92602835D01*
X103887635Y-92602831D01*
X103586455Y-92534089D01*
X103586437Y-92534086D01*
X103279471Y-92499500D01*
X103279465Y-92499500D01*
X102970535Y-92499500D01*
X102970528Y-92499500D01*
X102663562Y-92534086D01*
X102663544Y-92534089D01*
X102362364Y-92602831D01*
X102362352Y-92602835D01*
X102070777Y-92704862D01*
X102070763Y-92704868D01*
X101792437Y-92838903D01*
X101530858Y-93003264D01*
X101289326Y-93195879D01*
X101070879Y-93414326D01*
X100878264Y-93655858D01*
X100713903Y-93917437D01*
X100579868Y-94195763D01*
X100579862Y-94195777D01*
X100477835Y-94487352D01*
X100477831Y-94487364D01*
X100409089Y-94788544D01*
X100409086Y-94788562D01*
X100374500Y-95095528D01*
X100374500Y-95404471D01*
X100409086Y-95711437D01*
X100409089Y-95711455D01*
X100477831Y-96012635D01*
X100477835Y-96012647D01*
X100579862Y-96304222D01*
X100579868Y-96304236D01*
X100713903Y-96582562D01*
X100713905Y-96582565D01*
X100878265Y-96844143D01*
X101070880Y-97085674D01*
X101289326Y-97304120D01*
X101530857Y-97496735D01*
X101792435Y-97661095D01*
X102070771Y-97795135D01*
X102070777Y-97795137D01*
X102362352Y-97897164D01*
X102362364Y-97897168D01*
X102663548Y-97965911D01*
X102663554Y-97965911D01*
X102663562Y-97965913D01*
X102868206Y-97988970D01*
X102970529Y-98000499D01*
X102970532Y-98000500D01*
X103140834Y-98000500D01*
X103171361Y-98009464D01*
X103202322Y-98016819D01*
X103204651Y-98019239D01*
X103207873Y-98020185D01*
X103228703Y-98044224D01*
X103250778Y-98067156D01*
X103251429Y-98070451D01*
X103253628Y-98072989D01*
X103258156Y-98104481D01*
X103264327Y-98135699D01*
X103263093Y-98138822D01*
X103263572Y-98142147D01*
X103250354Y-98171089D01*
X103238669Y-98200687D01*
X103235941Y-98202648D01*
X103234547Y-98205703D01*
X103207783Y-98222902D01*
X103181948Y-98241486D01*
X103177498Y-98242365D01*
X103175769Y-98243477D01*
X103147324Y-98248330D01*
X103128244Y-98249330D01*
X103121754Y-98249500D01*
X43128246Y-98249500D01*
X43121756Y-98249330D01*
X43102676Y-98248330D01*
X43036759Y-98225164D01*
X42993830Y-98170037D01*
X42987520Y-98100453D01*
X43019832Y-98038504D01*
X43080506Y-98003857D01*
X43109166Y-98000500D01*
X43279468Y-98000500D01*
X43279469Y-98000499D01*
X43436356Y-97982822D01*
X43586437Y-97965913D01*
X43586442Y-97965912D01*
X43586452Y-97965911D01*
X43887636Y-97897168D01*
X44179229Y-97795135D01*
X44457565Y-97661095D01*
X44719143Y-97496735D01*
X44960674Y-97304120D01*
X45179120Y-97085674D01*
X45371735Y-96844143D01*
X45536095Y-96582565D01*
X45670135Y-96304229D01*
X45772168Y-96012636D01*
X45840911Y-95711452D01*
X45875500Y-95404465D01*
X45875500Y-95095535D01*
X45840911Y-94788548D01*
X45772168Y-94487364D01*
X45670135Y-94195771D01*
X45536095Y-93917435D01*
X45371735Y-93655857D01*
X45179120Y-93414326D01*
X44960674Y-93195880D01*
X44719143Y-93003265D01*
X44457565Y-92838905D01*
X44457562Y-92838903D01*
X44179236Y-92704868D01*
X44179222Y-92704862D01*
X43887647Y-92602835D01*
X43887635Y-92602831D01*
X43586455Y-92534089D01*
X43586437Y-92534086D01*
X43279471Y-92499500D01*
X43279465Y-92499500D01*
X42970535Y-92499500D01*
X42970528Y-92499500D01*
X42663562Y-92534086D01*
X42663544Y-92534089D01*
X42362364Y-92602831D01*
X42362352Y-92602835D01*
X42070777Y-92704862D01*
X42070763Y-92704868D01*
X41792437Y-92838903D01*
X41530858Y-93003264D01*
X41289326Y-93195879D01*
X41070879Y-93414326D01*
X40878264Y-93655858D01*
X40713903Y-93917437D01*
X40579868Y-94195763D01*
X40579862Y-94195777D01*
X40477835Y-94487352D01*
X40477831Y-94487364D01*
X40409089Y-94788544D01*
X40409086Y-94788562D01*
X40374500Y-95095528D01*
X40374500Y-95265834D01*
X40365535Y-95296361D01*
X40358181Y-95327322D01*
X40355760Y-95329651D01*
X40354815Y-95332873D01*
X40330775Y-95353703D01*
X40307844Y-95375778D01*
X40304548Y-95376429D01*
X40302011Y-95378628D01*
X40270518Y-95383156D01*
X40239301Y-95389327D01*
X40236177Y-95388093D01*
X40232853Y-95388572D01*
X40203901Y-95375350D01*
X40174313Y-95363668D01*
X40172352Y-95360942D01*
X40169297Y-95359547D01*
X40152094Y-95332779D01*
X40133514Y-95306948D01*
X40132634Y-95302498D01*
X40131523Y-95300769D01*
X40126670Y-95272324D01*
X40125670Y-95253243D01*
X40125500Y-95246753D01*
X40125500Y-88468711D01*
X48899500Y-88468711D01*
X48899500Y-88711288D01*
X48925946Y-88912174D01*
X48931162Y-88951789D01*
X48946503Y-89009042D01*
X48993947Y-89186104D01*
X49086773Y-89410205D01*
X49086777Y-89410214D01*
X49092551Y-89420214D01*
X49208064Y-89620289D01*
X49208066Y-89620292D01*
X49208067Y-89620293D01*
X49355733Y-89812736D01*
X49355739Y-89812743D01*
X49527256Y-89984260D01*
X49527263Y-89984266D01*
X49603344Y-90042645D01*
X49719711Y-90131936D01*
X49929788Y-90253224D01*
X50153900Y-90346054D01*
X50388211Y-90408838D01*
X50568586Y-90432584D01*
X50628711Y-90440500D01*
X50628712Y-90440500D01*
X50871289Y-90440500D01*
X50919388Y-90434167D01*
X51111789Y-90408838D01*
X51346100Y-90346054D01*
X51569365Y-90253575D01*
X52480000Y-90253575D01*
X52480000Y-90476424D01*
X52509085Y-90697354D01*
X52509088Y-90697367D01*
X52566763Y-90912618D01*
X52652045Y-91118502D01*
X52652054Y-91118520D01*
X52763464Y-91311491D01*
X52763473Y-91311504D01*
X52814040Y-91377403D01*
X52814043Y-91377403D01*
X53464152Y-90727293D01*
X53471049Y-90743942D01*
X53558599Y-90874970D01*
X53670030Y-90986401D01*
X53801058Y-91073951D01*
X53817705Y-91080846D01*
X53167595Y-91730955D01*
X53167595Y-91730956D01*
X53233507Y-91781533D01*
X53426485Y-91892949D01*
X53426497Y-91892954D01*
X53632381Y-91978236D01*
X53847632Y-92035911D01*
X53847645Y-92035914D01*
X54068575Y-92065000D01*
X54291425Y-92065000D01*
X54512354Y-92035914D01*
X54512367Y-92035911D01*
X54727618Y-91978236D01*
X54933502Y-91892954D01*
X54933514Y-91892949D01*
X55126498Y-91781530D01*
X55192404Y-91730957D01*
X55192404Y-91730956D01*
X54542294Y-91080846D01*
X54558942Y-91073951D01*
X54689970Y-90986401D01*
X54801401Y-90874970D01*
X54888951Y-90743942D01*
X54895846Y-90727294D01*
X55545956Y-91377404D01*
X55545957Y-91377403D01*
X55596530Y-91311498D01*
X55707949Y-91118514D01*
X55707954Y-91118502D01*
X55793236Y-90912618D01*
X55850911Y-90697367D01*
X55850914Y-90697354D01*
X55880000Y-90476424D01*
X55880000Y-90253575D01*
X55850914Y-90032645D01*
X55850911Y-90032632D01*
X55793236Y-89817381D01*
X55707954Y-89611497D01*
X55707949Y-89611485D01*
X55596533Y-89418507D01*
X55545956Y-89352595D01*
X55545955Y-89352595D01*
X54895846Y-90002704D01*
X54888951Y-89986058D01*
X54801401Y-89855030D01*
X54689970Y-89743599D01*
X54558942Y-89656049D01*
X54542293Y-89649152D01*
X55192403Y-88999043D01*
X55192403Y-88999040D01*
X55126504Y-88948473D01*
X55126491Y-88948464D01*
X54933520Y-88837054D01*
X54933502Y-88837045D01*
X54727618Y-88751763D01*
X54512367Y-88694088D01*
X54512354Y-88694085D01*
X54291425Y-88665000D01*
X54068575Y-88665000D01*
X53847645Y-88694085D01*
X53847632Y-88694088D01*
X53632381Y-88751763D01*
X53426497Y-88837045D01*
X53426479Y-88837054D01*
X53233511Y-88948462D01*
X53167595Y-88999042D01*
X53817706Y-89649152D01*
X53801058Y-89656049D01*
X53670030Y-89743599D01*
X53558599Y-89855030D01*
X53471049Y-89986058D01*
X53464153Y-90002706D01*
X52814042Y-89352595D01*
X52763462Y-89418511D01*
X52652054Y-89611479D01*
X52652045Y-89611497D01*
X52566763Y-89817381D01*
X52509088Y-90032632D01*
X52509085Y-90032645D01*
X52480000Y-90253575D01*
X51569365Y-90253575D01*
X51570212Y-90253224D01*
X51780289Y-90131936D01*
X51972738Y-89984265D01*
X52144265Y-89812738D01*
X52291936Y-89620289D01*
X52413224Y-89410212D01*
X52506054Y-89186100D01*
X52568838Y-88951789D01*
X52600500Y-88711288D01*
X52600500Y-88468712D01*
X52568838Y-88228211D01*
X52506054Y-87993900D01*
X52413224Y-87769788D01*
X52291936Y-87559711D01*
X52188953Y-87425501D01*
X52144266Y-87367263D01*
X52144260Y-87367256D01*
X51972743Y-87195739D01*
X51972736Y-87195733D01*
X51780293Y-87048067D01*
X51780292Y-87048066D01*
X51780289Y-87048064D01*
X51570212Y-86926776D01*
X51570205Y-86926773D01*
X51346104Y-86833947D01*
X51111785Y-86771161D01*
X50871289Y-86739500D01*
X50871288Y-86739500D01*
X50628712Y-86739500D01*
X50628711Y-86739500D01*
X50388214Y-86771161D01*
X50153895Y-86833947D01*
X49929794Y-86926773D01*
X49929785Y-86926777D01*
X49719706Y-87048067D01*
X49527263Y-87195733D01*
X49527256Y-87195739D01*
X49355739Y-87367256D01*
X49355733Y-87367263D01*
X49208067Y-87559706D01*
X49208064Y-87559710D01*
X49208064Y-87559711D01*
X49191817Y-87587851D01*
X49086777Y-87769785D01*
X49086773Y-87769794D01*
X48993947Y-87993895D01*
X48931161Y-88228214D01*
X48899500Y-88468711D01*
X40125500Y-88468711D01*
X40125500Y-80804054D01*
X51684498Y-80804054D01*
X51725423Y-80956786D01*
X51725424Y-80956787D01*
X51748786Y-80997251D01*
X51804481Y-81093717D01*
X51923349Y-81212585D01*
X51923355Y-81212590D01*
X52076437Y-81365672D01*
X52109922Y-81426995D01*
X52111229Y-81472751D01*
X52085500Y-81635199D01*
X52085500Y-81824800D01*
X52113011Y-81998499D01*
X52115158Y-82012055D01*
X52124051Y-82039423D01*
X52173747Y-82192372D01*
X52228587Y-82300000D01*
X52259819Y-82361296D01*
X52341481Y-82473694D01*
X52371260Y-82514680D01*
X52505321Y-82648741D01*
X52506618Y-82649683D01*
X52506991Y-82650167D01*
X52509026Y-82651905D01*
X52508660Y-82652332D01*
X52549283Y-82705013D01*
X52555261Y-82774627D01*
X52522654Y-82836421D01*
X52506618Y-82850317D01*
X52505321Y-82851258D01*
X52371260Y-82985319D01*
X52259819Y-83138703D01*
X52173747Y-83307627D01*
X52115157Y-83487949D01*
X52085500Y-83675199D01*
X52085500Y-83864800D01*
X52098276Y-83945465D01*
X52115158Y-84052055D01*
X52149811Y-84158704D01*
X52173747Y-84232372D01*
X52259821Y-84401300D01*
X52340287Y-84512050D01*
X52363768Y-84577856D01*
X52347943Y-84645910D01*
X52314282Y-84684202D01*
X52228452Y-84748455D01*
X52142206Y-84863664D01*
X52142202Y-84863671D01*
X52091908Y-84998517D01*
X52085501Y-85058116D01*
X52085500Y-85058135D01*
X52085500Y-86561870D01*
X52085501Y-86561876D01*
X52091908Y-86621483D01*
X52142202Y-86756328D01*
X52142206Y-86756335D01*
X52228452Y-86871544D01*
X52228455Y-86871547D01*
X52343664Y-86957793D01*
X52343671Y-86957797D01*
X52478517Y-87008091D01*
X52478516Y-87008091D01*
X52485444Y-87008835D01*
X52538127Y-87014500D01*
X54041872Y-87014499D01*
X54101483Y-87008091D01*
X54236331Y-86957796D01*
X54351546Y-86871546D01*
X54437796Y-86756331D01*
X54488091Y-86621483D01*
X54494500Y-86561873D01*
X54494499Y-86040165D01*
X54514183Y-85973127D01*
X54566987Y-85927372D01*
X54636146Y-85917428D01*
X54656810Y-85922233D01*
X54787945Y-85964842D01*
X54891977Y-85981318D01*
X54975200Y-85994500D01*
X54975204Y-85994500D01*
X55164800Y-85994500D01*
X55248022Y-85981318D01*
X55352055Y-85964842D01*
X55532368Y-85906254D01*
X55701296Y-85820181D01*
X55854679Y-85708741D01*
X55988741Y-85574679D01*
X56100181Y-85421296D01*
X56186254Y-85252368D01*
X56244842Y-85072055D01*
X56267086Y-84931609D01*
X56274500Y-84884800D01*
X56274500Y-84695199D01*
X56255914Y-84577856D01*
X56244842Y-84507945D01*
X56186254Y-84327632D01*
X56186252Y-84327629D01*
X56186252Y-84327627D01*
X56100180Y-84158703D01*
X56022695Y-84052055D01*
X55988741Y-84005321D01*
X55854679Y-83871259D01*
X55845784Y-83864796D01*
X55782039Y-83818482D01*
X55768220Y-83800560D01*
X55767614Y-83801167D01*
X55158585Y-83192138D01*
X55243694Y-83169333D01*
X55346306Y-83110090D01*
X55430090Y-83026306D01*
X55489333Y-82923694D01*
X55512137Y-82838585D01*
X56080745Y-83407193D01*
X56080746Y-83407192D01*
X56099746Y-83381043D01*
X56099756Y-83381027D01*
X56185787Y-83212184D01*
X56185788Y-83212182D01*
X56244354Y-83031937D01*
X56274000Y-82844762D01*
X56274000Y-82655237D01*
X56244354Y-82468062D01*
X56185789Y-82287821D01*
X56099752Y-82118966D01*
X56080745Y-82092806D01*
X55512137Y-82661414D01*
X55489333Y-82576306D01*
X55430090Y-82473694D01*
X55346306Y-82389910D01*
X55243694Y-82330667D01*
X55158584Y-82307861D01*
X55762235Y-81704210D01*
X55782038Y-81681517D01*
X55854679Y-81628741D01*
X55988741Y-81494679D01*
X56085419Y-81361613D01*
X56089751Y-81358273D01*
X56092024Y-81353297D01*
X56117126Y-81337164D01*
X56140750Y-81318949D01*
X56147420Y-81317696D01*
X56150802Y-81315523D01*
X56185737Y-81310500D01*
X56242803Y-81310500D01*
X56309842Y-81330185D01*
X56330483Y-81346818D01*
X60468637Y-85484973D01*
X60502122Y-85546295D01*
X60497138Y-85615987D01*
X60455266Y-85671920D01*
X60389802Y-85696337D01*
X60342638Y-85690584D01*
X60172052Y-85635157D01*
X59984800Y-85605500D01*
X59984796Y-85605500D01*
X59795204Y-85605500D01*
X59795200Y-85605500D01*
X59607949Y-85635157D01*
X59607946Y-85635157D01*
X59607945Y-85635158D01*
X59549482Y-85654153D01*
X59427627Y-85693747D01*
X59258703Y-85779819D01*
X59105319Y-85891260D01*
X58971260Y-86025319D01*
X58859819Y-86178703D01*
X58773747Y-86347627D01*
X58715157Y-86527949D01*
X58685500Y-86715199D01*
X58685500Y-86904800D01*
X58709775Y-87058067D01*
X58715158Y-87092055D01*
X58752095Y-87205733D01*
X58773747Y-87272372D01*
X58851771Y-87425501D01*
X58859819Y-87441296D01*
X58971259Y-87594679D01*
X59105321Y-87728741D01*
X59258704Y-87840181D01*
X59258706Y-87840182D01*
X59267211Y-87844516D01*
X59318006Y-87892490D01*
X59334801Y-87960311D01*
X59312263Y-88026446D01*
X59267211Y-88065484D01*
X59258706Y-88069817D01*
X59105319Y-88181260D01*
X58971260Y-88315319D01*
X58859819Y-88468703D01*
X58773747Y-88637627D01*
X58715157Y-88817949D01*
X58685500Y-89005199D01*
X58685500Y-89194800D01*
X58687084Y-89204800D01*
X58715158Y-89382055D01*
X58730253Y-89428511D01*
X58773747Y-89562372D01*
X58834504Y-89681613D01*
X58859819Y-89731296D01*
X58971259Y-89884679D01*
X59105321Y-90018741D01*
X59258704Y-90130181D01*
X59338515Y-90170846D01*
X59427627Y-90216252D01*
X59427629Y-90216252D01*
X59427632Y-90216254D01*
X59607945Y-90274842D01*
X59701574Y-90289671D01*
X59795200Y-90304500D01*
X59795204Y-90304500D01*
X59984800Y-90304500D01*
X60068022Y-90291318D01*
X60172055Y-90274842D01*
X60352368Y-90216254D01*
X60521296Y-90130181D01*
X60674679Y-90018741D01*
X60808741Y-89884679D01*
X60920181Y-89731296D01*
X61006254Y-89562368D01*
X61064842Y-89382055D01*
X61092916Y-89204800D01*
X61094500Y-89194800D01*
X61094500Y-89005199D01*
X61079766Y-88912174D01*
X61079766Y-88912173D01*
X61077466Y-88897648D01*
X61699500Y-88897648D01*
X61699500Y-89102351D01*
X61731522Y-89304534D01*
X61794781Y-89499223D01*
X61856468Y-89620289D01*
X61879784Y-89666049D01*
X61887715Y-89681613D01*
X62008028Y-89847213D01*
X62152786Y-89991971D01*
X62307749Y-90104556D01*
X62318390Y-90112287D01*
X62434607Y-90171503D01*
X62500776Y-90205218D01*
X62500778Y-90205218D01*
X62500781Y-90205220D01*
X62565508Y-90226251D01*
X62695465Y-90268477D01*
X62735652Y-90274842D01*
X62897648Y-90300500D01*
X62897649Y-90300500D01*
X63102351Y-90300500D01*
X63102352Y-90300500D01*
X63304534Y-90268477D01*
X63499219Y-90205220D01*
X63681610Y-90112287D01*
X63806643Y-90021446D01*
X63847213Y-89991971D01*
X63847215Y-89991968D01*
X63847219Y-89991966D01*
X63991966Y-89847219D01*
X63991968Y-89847215D01*
X63991971Y-89847213D01*
X64059984Y-89753599D01*
X64112287Y-89681610D01*
X64205220Y-89499219D01*
X64268477Y-89304534D01*
X64300500Y-89102352D01*
X64300500Y-88897648D01*
X64268477Y-88695466D01*
X64268029Y-88694088D01*
X64205218Y-88500776D01*
X64171503Y-88434607D01*
X64112287Y-88318390D01*
X64104556Y-88307749D01*
X63991971Y-88152786D01*
X63847213Y-88008028D01*
X63681613Y-87887715D01*
X63681612Y-87887714D01*
X63681610Y-87887713D01*
X63616457Y-87854516D01*
X63499223Y-87794781D01*
X63304534Y-87731522D01*
X63129995Y-87703878D01*
X63102352Y-87699500D01*
X62897648Y-87699500D01*
X62873329Y-87703351D01*
X62695465Y-87731522D01*
X62500776Y-87794781D01*
X62318386Y-87887715D01*
X62152786Y-88008028D01*
X62008028Y-88152786D01*
X61887715Y-88318386D01*
X61794781Y-88500776D01*
X61731522Y-88695465D01*
X61699500Y-88897648D01*
X61077466Y-88897648D01*
X61064843Y-88817950D01*
X61064842Y-88817948D01*
X61064842Y-88817945D01*
X61006254Y-88637632D01*
X61006252Y-88637629D01*
X61006252Y-88637627D01*
X60925280Y-88478712D01*
X60920181Y-88468704D01*
X60808741Y-88315321D01*
X60674679Y-88181259D01*
X60521296Y-88069819D01*
X60512792Y-88065486D01*
X60461995Y-88017513D01*
X60445198Y-87949692D01*
X60467734Y-87883557D01*
X60512792Y-87844514D01*
X60512803Y-87844508D01*
X60521296Y-87840181D01*
X60674679Y-87728741D01*
X60808741Y-87594679D01*
X60920181Y-87441296D01*
X60963975Y-87355343D01*
X60989159Y-87305920D01*
X60989160Y-87305918D01*
X61006251Y-87272375D01*
X61006251Y-87272371D01*
X61006254Y-87272368D01*
X61064842Y-87092055D01*
X61086106Y-86957796D01*
X61094500Y-86904800D01*
X61094500Y-86715199D01*
X61079657Y-86621483D01*
X61064842Y-86527945D01*
X61009414Y-86357360D01*
X61007420Y-86287521D01*
X61043500Y-86227688D01*
X61106201Y-86196860D01*
X61175615Y-86204824D01*
X61215027Y-86231363D01*
X61650409Y-86666745D01*
X61650411Y-86666746D01*
X61650415Y-86666749D01*
X61787334Y-86745798D01*
X61787337Y-86745800D01*
X61787341Y-86745802D01*
X61940068Y-86786726D01*
X61940070Y-86786726D01*
X62105779Y-86786726D01*
X62105795Y-86786725D01*
X79294206Y-86786725D01*
X79294222Y-86786726D01*
X79301818Y-86786726D01*
X79459929Y-86786726D01*
X79459932Y-86786726D01*
X79612660Y-86745802D01*
X79665657Y-86715204D01*
X79749591Y-86666745D01*
X79861395Y-86554941D01*
X79861395Y-86554939D01*
X79871599Y-86544736D01*
X79871602Y-86544731D01*
X81128516Y-85287819D01*
X81189839Y-85254334D01*
X81216197Y-85251500D01*
X82771191Y-85251500D01*
X82838230Y-85271185D01*
X82858872Y-85287819D01*
X83501054Y-85930000D01*
X83494839Y-85930000D01*
X83393106Y-85957259D01*
X83301894Y-86009920D01*
X83227420Y-86084394D01*
X83174759Y-86175606D01*
X83147500Y-86277339D01*
X83147500Y-86283553D01*
X82468024Y-85604077D01*
X82468023Y-85604077D01*
X82435643Y-85648644D01*
X82342744Y-85830968D01*
X82279509Y-86025582D01*
X82247500Y-86227682D01*
X82247500Y-86432317D01*
X82279509Y-86634417D01*
X82342744Y-86829031D01*
X82435641Y-87011350D01*
X82435647Y-87011359D01*
X82468023Y-87055921D01*
X82468024Y-87055922D01*
X83147500Y-86376446D01*
X83147500Y-86382661D01*
X83174759Y-86484394D01*
X83227420Y-86575606D01*
X83301894Y-86650080D01*
X83393106Y-86702741D01*
X83494839Y-86730000D01*
X83501053Y-86730000D01*
X82821576Y-87409474D01*
X82866150Y-87441859D01*
X83048468Y-87534755D01*
X83243082Y-87597990D01*
X83445183Y-87630000D01*
X83649817Y-87630000D01*
X83851917Y-87597990D01*
X84046531Y-87534755D01*
X84228849Y-87441859D01*
X84273421Y-87409474D01*
X83593947Y-86730000D01*
X83600161Y-86730000D01*
X83701894Y-86702741D01*
X83793106Y-86650080D01*
X83867580Y-86575606D01*
X83920241Y-86484394D01*
X83947500Y-86382661D01*
X83947500Y-86376447D01*
X84626974Y-87055921D01*
X84659359Y-87011349D01*
X84752255Y-86829031D01*
X84785993Y-86725199D01*
X85155500Y-86725199D01*
X85155500Y-86914800D01*
X85178191Y-87058067D01*
X85185158Y-87102055D01*
X85224750Y-87223905D01*
X85243747Y-87282372D01*
X85316675Y-87425499D01*
X85329819Y-87451296D01*
X85441259Y-87604679D01*
X85575321Y-87738741D01*
X85728704Y-87850181D01*
X85728706Y-87850182D01*
X85737211Y-87854516D01*
X85788006Y-87902490D01*
X85804801Y-87970311D01*
X85782263Y-88036446D01*
X85737211Y-88075484D01*
X85728706Y-88079817D01*
X85575319Y-88191260D01*
X85441260Y-88325319D01*
X85329819Y-88478703D01*
X85243747Y-88647627D01*
X85185157Y-88827949D01*
X85155500Y-89015199D01*
X85155500Y-89204800D01*
X85171296Y-89304534D01*
X85185158Y-89392055D01*
X85224750Y-89513905D01*
X85243747Y-89572372D01*
X85299409Y-89681613D01*
X85329819Y-89741296D01*
X85441259Y-89894679D01*
X85575321Y-90028741D01*
X85728704Y-90140181D01*
X85808515Y-90180846D01*
X85897627Y-90226252D01*
X85897629Y-90226252D01*
X85897632Y-90226254D01*
X86077945Y-90284842D01*
X86171574Y-90299671D01*
X86265200Y-90314500D01*
X86265204Y-90314500D01*
X86454800Y-90314500D01*
X86543191Y-90300500D01*
X86642055Y-90284842D01*
X86707507Y-90263575D01*
X90370000Y-90263575D01*
X90370000Y-90486424D01*
X90399085Y-90707354D01*
X90399088Y-90707367D01*
X90456763Y-90922618D01*
X90542045Y-91128502D01*
X90542054Y-91128520D01*
X90653464Y-91321491D01*
X90653473Y-91321504D01*
X90704040Y-91387403D01*
X90704043Y-91387403D01*
X91354152Y-90737293D01*
X91361049Y-90753942D01*
X91448599Y-90884970D01*
X91560030Y-90996401D01*
X91691058Y-91083951D01*
X91707705Y-91090846D01*
X91057595Y-91740955D01*
X91057595Y-91740956D01*
X91123507Y-91791533D01*
X91316485Y-91902949D01*
X91316497Y-91902954D01*
X91522381Y-91988236D01*
X91737632Y-92045911D01*
X91737645Y-92045914D01*
X91958575Y-92075000D01*
X92181425Y-92075000D01*
X92402354Y-92045914D01*
X92402367Y-92045911D01*
X92617618Y-91988236D01*
X92823502Y-91902954D01*
X92823514Y-91902949D01*
X93016498Y-91791530D01*
X93082403Y-91740957D01*
X93082404Y-91740956D01*
X92432294Y-91090846D01*
X92448942Y-91083951D01*
X92579970Y-90996401D01*
X92691401Y-90884970D01*
X92778951Y-90753942D01*
X92785846Y-90737294D01*
X93435956Y-91387404D01*
X93435957Y-91387403D01*
X93486530Y-91321498D01*
X93597949Y-91128514D01*
X93597954Y-91128502D01*
X93683236Y-90922618D01*
X93740911Y-90707367D01*
X93740914Y-90707354D01*
X93770000Y-90486424D01*
X93770000Y-90263575D01*
X93740914Y-90042645D01*
X93740911Y-90042632D01*
X93683236Y-89827381D01*
X93597954Y-89621497D01*
X93597949Y-89621485D01*
X93486533Y-89428507D01*
X93435956Y-89362595D01*
X93435955Y-89362595D01*
X92785846Y-90012704D01*
X92778951Y-89996058D01*
X92691401Y-89865030D01*
X92579970Y-89753599D01*
X92448942Y-89666049D01*
X92432293Y-89659152D01*
X93082403Y-89009043D01*
X93082403Y-89009040D01*
X93016504Y-88958473D01*
X93016491Y-88958464D01*
X92823520Y-88847054D01*
X92823502Y-88847045D01*
X92617618Y-88761763D01*
X92402367Y-88704088D01*
X92402354Y-88704085D01*
X92181425Y-88675000D01*
X91958575Y-88675000D01*
X91737645Y-88704085D01*
X91737632Y-88704088D01*
X91522381Y-88761763D01*
X91316497Y-88847045D01*
X91316479Y-88847054D01*
X91123511Y-88958462D01*
X91057595Y-89009042D01*
X91707706Y-89659152D01*
X91691058Y-89666049D01*
X91560030Y-89753599D01*
X91448599Y-89865030D01*
X91361049Y-89996058D01*
X91354153Y-90012706D01*
X90704042Y-89362595D01*
X90653462Y-89428511D01*
X90542054Y-89621479D01*
X90542045Y-89621497D01*
X90456763Y-89827381D01*
X90399088Y-90042632D01*
X90399085Y-90042645D01*
X90370000Y-90263575D01*
X86707507Y-90263575D01*
X86822368Y-90226254D01*
X86991296Y-90140181D01*
X87144679Y-90028741D01*
X87278741Y-89894679D01*
X87390181Y-89741296D01*
X87476254Y-89572368D01*
X87534842Y-89392055D01*
X87551318Y-89288022D01*
X87564500Y-89204800D01*
X87564500Y-89015199D01*
X87548023Y-88911171D01*
X87534842Y-88827945D01*
X87476254Y-88647632D01*
X87390185Y-88478711D01*
X93649500Y-88478711D01*
X93649500Y-88721288D01*
X93679844Y-88951784D01*
X93681162Y-88961789D01*
X93691144Y-88999042D01*
X93743947Y-89196104D01*
X93808768Y-89352595D01*
X93836776Y-89420212D01*
X93958064Y-89630289D01*
X93958066Y-89630292D01*
X93958067Y-89630293D01*
X94105733Y-89822736D01*
X94105739Y-89822743D01*
X94277256Y-89994260D01*
X94277263Y-89994266D01*
X94299653Y-90011446D01*
X94469711Y-90141936D01*
X94679788Y-90263224D01*
X94903900Y-90356054D01*
X95138211Y-90418838D01*
X95302753Y-90440500D01*
X95378711Y-90450500D01*
X95378712Y-90450500D01*
X95621289Y-90450500D01*
X95672234Y-90443793D01*
X95861789Y-90418838D01*
X96096100Y-90356054D01*
X96320212Y-90263224D01*
X96530289Y-90141936D01*
X96722738Y-89994265D01*
X96894265Y-89822738D01*
X97041936Y-89630289D01*
X97163224Y-89420212D01*
X97256054Y-89196100D01*
X97318838Y-88961789D01*
X97350500Y-88721288D01*
X97350500Y-88478712D01*
X97349183Y-88468712D01*
X97330306Y-88325319D01*
X97318838Y-88238211D01*
X97256054Y-88003900D01*
X97163224Y-87779788D01*
X97041936Y-87569711D01*
X96931279Y-87425500D01*
X96894266Y-87377263D01*
X96894260Y-87377256D01*
X96722743Y-87205739D01*
X96722736Y-87205733D01*
X96530293Y-87058067D01*
X96530292Y-87058066D01*
X96530289Y-87058064D01*
X96320212Y-86936776D01*
X96320205Y-86936773D01*
X96096104Y-86843947D01*
X95861785Y-86781161D01*
X95621289Y-86749500D01*
X95621288Y-86749500D01*
X95378712Y-86749500D01*
X95378711Y-86749500D01*
X95138214Y-86781161D01*
X94903895Y-86843947D01*
X94679794Y-86936773D01*
X94679785Y-86936777D01*
X94469706Y-87058067D01*
X94277263Y-87205733D01*
X94277256Y-87205739D01*
X94105739Y-87377256D01*
X94105733Y-87377263D01*
X93958067Y-87569706D01*
X93836777Y-87779785D01*
X93836773Y-87779794D01*
X93743947Y-88003895D01*
X93681161Y-88238214D01*
X93649500Y-88478711D01*
X87390185Y-88478711D01*
X87390181Y-88478704D01*
X87278741Y-88325321D01*
X87144679Y-88191259D01*
X86991296Y-88079819D01*
X86982792Y-88075486D01*
X86931995Y-88027513D01*
X86915198Y-87959692D01*
X86937734Y-87893557D01*
X86982792Y-87854514D01*
X86982803Y-87854508D01*
X86991296Y-87850181D01*
X87144679Y-87738741D01*
X87278741Y-87604679D01*
X87390181Y-87451296D01*
X87476254Y-87282368D01*
X87534842Y-87102055D01*
X87561019Y-86936776D01*
X87564500Y-86914800D01*
X87564500Y-86725199D01*
X87548023Y-86621171D01*
X87534842Y-86537945D01*
X87476254Y-86357632D01*
X87476252Y-86357629D01*
X87476252Y-86357627D01*
X87410041Y-86227682D01*
X87390181Y-86188704D01*
X87278741Y-86035321D01*
X87144679Y-85901259D01*
X86991296Y-85789819D01*
X86971670Y-85779819D01*
X86822372Y-85703747D01*
X86763905Y-85684750D01*
X86642055Y-85645158D01*
X86642051Y-85645157D01*
X86642050Y-85645157D01*
X86454800Y-85615500D01*
X86454796Y-85615500D01*
X86265204Y-85615500D01*
X86265200Y-85615500D01*
X86077949Y-85645157D01*
X86077946Y-85645157D01*
X86077945Y-85645158D01*
X86019482Y-85664153D01*
X85897627Y-85703747D01*
X85728703Y-85789819D01*
X85575319Y-85901260D01*
X85441260Y-86035319D01*
X85329819Y-86188703D01*
X85243747Y-86357627D01*
X85185157Y-86537949D01*
X85155500Y-86725199D01*
X84785993Y-86725199D01*
X84800025Y-86682013D01*
X84815490Y-86634417D01*
X84847500Y-86432317D01*
X84847500Y-86227682D01*
X84815490Y-86025582D01*
X84752255Y-85830968D01*
X84659359Y-85648650D01*
X84626974Y-85604077D01*
X84626974Y-85604076D01*
X83947500Y-86283551D01*
X83947500Y-86277339D01*
X83920241Y-86175606D01*
X83867580Y-86084394D01*
X83793106Y-86009920D01*
X83701894Y-85957259D01*
X83600161Y-85930000D01*
X83593946Y-85930000D01*
X84236128Y-85287819D01*
X84297451Y-85254334D01*
X84323809Y-85251500D01*
X88289618Y-85251500D01*
X88356657Y-85271185D01*
X88377299Y-85287819D01*
X90278854Y-87189374D01*
X90278864Y-87189385D01*
X90283194Y-87193715D01*
X90283195Y-87193716D01*
X90394999Y-87305520D01*
X90481810Y-87355639D01*
X90481812Y-87355641D01*
X90519262Y-87377263D01*
X90531930Y-87384577D01*
X90684657Y-87425500D01*
X90684658Y-87425500D01*
X92269616Y-87425500D01*
X92269632Y-87425501D01*
X92277228Y-87425501D01*
X92435339Y-87425501D01*
X92435342Y-87425501D01*
X92588070Y-87384577D01*
X92638189Y-87355639D01*
X92725001Y-87305520D01*
X92836805Y-87193716D01*
X92836805Y-87193714D01*
X92847013Y-87183507D01*
X92847014Y-87183504D01*
X94445520Y-85585001D01*
X94524577Y-85448069D01*
X94565501Y-85295342D01*
X94565501Y-85137227D01*
X94565501Y-85129632D01*
X94565500Y-85129614D01*
X94565500Y-84472774D01*
X94565501Y-84472761D01*
X94565501Y-84304660D01*
X94565501Y-84304658D01*
X94524577Y-84151930D01*
X94489643Y-84091423D01*
X94445520Y-84014999D01*
X94333716Y-83903195D01*
X94333715Y-83903194D01*
X94329385Y-83898864D01*
X94329374Y-83898854D01*
X93994218Y-83563698D01*
X93960733Y-83502375D01*
X93965717Y-83432683D01*
X93981579Y-83403135D01*
X93990181Y-83391296D01*
X94076254Y-83222368D01*
X94134842Y-83042055D01*
X94159963Y-82883442D01*
X94164500Y-82854800D01*
X94164500Y-82665199D01*
X94136045Y-82485542D01*
X94134842Y-82477945D01*
X94076254Y-82297632D01*
X94076252Y-82297629D01*
X94076252Y-82297627D01*
X94005872Y-82159500D01*
X93990181Y-82128704D01*
X93878741Y-81975321D01*
X93744679Y-81841259D01*
X93743389Y-81840322D01*
X93743018Y-81839841D01*
X93740974Y-81838095D01*
X93741340Y-81837665D01*
X93700720Y-81784997D01*
X93694736Y-81715384D01*
X93727337Y-81653587D01*
X93743385Y-81639680D01*
X93744679Y-81638741D01*
X93878741Y-81504679D01*
X93990181Y-81351296D01*
X94076254Y-81182368D01*
X94134842Y-81002055D01*
X94160022Y-80843070D01*
X94164500Y-80814800D01*
X94164500Y-80625199D01*
X94148023Y-80521171D01*
X94134842Y-80437945D01*
X94076254Y-80257632D01*
X94076252Y-80257629D01*
X94076252Y-80257627D01*
X94027715Y-80162368D01*
X93990181Y-80088704D01*
X93990179Y-80088701D01*
X93990178Y-80088699D01*
X93909712Y-79977949D01*
X93886231Y-79912143D01*
X93902056Y-79844089D01*
X93935715Y-79805798D01*
X94021546Y-79741546D01*
X94107796Y-79626331D01*
X94158091Y-79491483D01*
X94164500Y-79431873D01*
X94164499Y-77928128D01*
X94158091Y-77868517D01*
X94128238Y-77788478D01*
X94107797Y-77733671D01*
X94107793Y-77733664D01*
X94021547Y-77618455D01*
X94021544Y-77618452D01*
X93906335Y-77532206D01*
X93906328Y-77532202D01*
X93771482Y-77481908D01*
X93771483Y-77481908D01*
X93711883Y-77475501D01*
X93711881Y-77475500D01*
X93711873Y-77475500D01*
X93711865Y-77475500D01*
X92693198Y-77475500D01*
X92626159Y-77455815D01*
X92605517Y-77439181D01*
X89179911Y-74013575D01*
X90370000Y-74013575D01*
X90370000Y-74236424D01*
X90399085Y-74457354D01*
X90399088Y-74457367D01*
X90456763Y-74672618D01*
X90542045Y-74878502D01*
X90542054Y-74878520D01*
X90653464Y-75071491D01*
X90653473Y-75071504D01*
X90704040Y-75137403D01*
X90704043Y-75137403D01*
X91354152Y-74487293D01*
X91361049Y-74503942D01*
X91448599Y-74634970D01*
X91560030Y-74746401D01*
X91691058Y-74833951D01*
X91707705Y-74840846D01*
X91057595Y-75490955D01*
X91057595Y-75490956D01*
X91123507Y-75541533D01*
X91316485Y-75652949D01*
X91316497Y-75652954D01*
X91522381Y-75738236D01*
X91737632Y-75795911D01*
X91737645Y-75795914D01*
X91958575Y-75825000D01*
X92181425Y-75825000D01*
X92402354Y-75795914D01*
X92402367Y-75795911D01*
X92466560Y-75778711D01*
X93649500Y-75778711D01*
X93649500Y-76021288D01*
X93681161Y-76261785D01*
X93743947Y-76496104D01*
X93830236Y-76704423D01*
X93836776Y-76720212D01*
X93958064Y-76930289D01*
X93958066Y-76930292D01*
X93958067Y-76930293D01*
X94105733Y-77122736D01*
X94105739Y-77122743D01*
X94277256Y-77294260D01*
X94277262Y-77294265D01*
X94469711Y-77441936D01*
X94679788Y-77563224D01*
X94903900Y-77656054D01*
X95138211Y-77718838D01*
X95302753Y-77740500D01*
X95378711Y-77750500D01*
X95378712Y-77750500D01*
X95621289Y-77750500D01*
X95669388Y-77744167D01*
X95861789Y-77718838D01*
X96096100Y-77656054D01*
X96320212Y-77563224D01*
X96530289Y-77441936D01*
X96722738Y-77294265D01*
X96894265Y-77122738D01*
X97041936Y-76930289D01*
X97163224Y-76720212D01*
X97256054Y-76496100D01*
X97318838Y-76261789D01*
X97350500Y-76021288D01*
X97350500Y-75778712D01*
X97349183Y-75768712D01*
X97342584Y-75718586D01*
X97318838Y-75538211D01*
X97256054Y-75303900D01*
X97163224Y-75079788D01*
X97041936Y-74869711D01*
X96949084Y-74748704D01*
X96894266Y-74677263D01*
X96894260Y-74677256D01*
X96722743Y-74505739D01*
X96722736Y-74505733D01*
X96530293Y-74358067D01*
X96530292Y-74358066D01*
X96530289Y-74358064D01*
X96320212Y-74236776D01*
X96319362Y-74236424D01*
X96096104Y-74143947D01*
X95861785Y-74081161D01*
X95621289Y-74049500D01*
X95621288Y-74049500D01*
X95378712Y-74049500D01*
X95378711Y-74049500D01*
X95138214Y-74081161D01*
X94903895Y-74143947D01*
X94679794Y-74236773D01*
X94679785Y-74236777D01*
X94469706Y-74358067D01*
X94277263Y-74505733D01*
X94277256Y-74505739D01*
X94105739Y-74677256D01*
X94105733Y-74677263D01*
X93958067Y-74869706D01*
X93836777Y-75079785D01*
X93836773Y-75079794D01*
X93743947Y-75303895D01*
X93681161Y-75538214D01*
X93649500Y-75778711D01*
X92466560Y-75778711D01*
X92617618Y-75738236D01*
X92806272Y-75660092D01*
X92823502Y-75652954D01*
X92823514Y-75652949D01*
X93016498Y-75541530D01*
X93082403Y-75490957D01*
X93082404Y-75490956D01*
X92432294Y-74840846D01*
X92448942Y-74833951D01*
X92579970Y-74746401D01*
X92691401Y-74634970D01*
X92778951Y-74503942D01*
X92785846Y-74487294D01*
X93435956Y-75137404D01*
X93435957Y-75137403D01*
X93486530Y-75071498D01*
X93597949Y-74878514D01*
X93597954Y-74878502D01*
X93683236Y-74672618D01*
X93740911Y-74457367D01*
X93740914Y-74457354D01*
X93770000Y-74236424D01*
X93770000Y-74013575D01*
X93740914Y-73792645D01*
X93740911Y-73792632D01*
X93683236Y-73577381D01*
X93597954Y-73371497D01*
X93597949Y-73371485D01*
X93486533Y-73178507D01*
X93435956Y-73112595D01*
X93435955Y-73112595D01*
X92785846Y-73762704D01*
X92778951Y-73746058D01*
X92691401Y-73615030D01*
X92579970Y-73503599D01*
X92448942Y-73416049D01*
X92432293Y-73409152D01*
X93082403Y-72759043D01*
X93082403Y-72759040D01*
X93016504Y-72708473D01*
X93016491Y-72708464D01*
X92823520Y-72597054D01*
X92823502Y-72597045D01*
X92617618Y-72511763D01*
X92402367Y-72454088D01*
X92402354Y-72454085D01*
X92181425Y-72425000D01*
X91958575Y-72425000D01*
X91737645Y-72454085D01*
X91737632Y-72454088D01*
X91522381Y-72511763D01*
X91316497Y-72597045D01*
X91316479Y-72597054D01*
X91123511Y-72708462D01*
X91057595Y-72759042D01*
X91707706Y-73409152D01*
X91691058Y-73416049D01*
X91560030Y-73503599D01*
X91448599Y-73615030D01*
X91361049Y-73746058D01*
X91354153Y-73762706D01*
X90704042Y-73112595D01*
X90653462Y-73178511D01*
X90542054Y-73371479D01*
X90542045Y-73371497D01*
X90456763Y-73577381D01*
X90399088Y-73792632D01*
X90399085Y-73792645D01*
X90370000Y-74013575D01*
X89179911Y-74013575D01*
X85216819Y-70050483D01*
X85202115Y-70023555D01*
X85185523Y-69997737D01*
X85184631Y-69991536D01*
X85183334Y-69989160D01*
X85180500Y-69962802D01*
X85180500Y-69774499D01*
X85200185Y-69707460D01*
X85252989Y-69661705D01*
X85304500Y-69650499D01*
X85377871Y-69650499D01*
X85377872Y-69650499D01*
X85437483Y-69644091D01*
X85572331Y-69593796D01*
X85687546Y-69507546D01*
X85773796Y-69392331D01*
X85773853Y-69392179D01*
X89315000Y-69392179D01*
X89315000Y-69607820D01*
X89348734Y-69820809D01*
X89415372Y-70025901D01*
X89513271Y-70218036D01*
X89555410Y-70276034D01*
X89555411Y-70276035D01*
X90165294Y-69666151D01*
X90177141Y-69710362D01*
X90248891Y-69834638D01*
X90350362Y-69936109D01*
X90474638Y-70007859D01*
X90518848Y-70019705D01*
X89908963Y-70629588D01*
X89908964Y-70629589D01*
X89966958Y-70671724D01*
X89966971Y-70671732D01*
X90159098Y-70769627D01*
X90364190Y-70836265D01*
X90577180Y-70870000D01*
X90792820Y-70870000D01*
X91005809Y-70836265D01*
X91210901Y-70769627D01*
X91403036Y-70671728D01*
X91461034Y-70629589D01*
X91461034Y-70629588D01*
X90851151Y-70019705D01*
X90895362Y-70007859D01*
X91019638Y-69936109D01*
X91121109Y-69834638D01*
X91192859Y-69710362D01*
X91204705Y-69666151D01*
X91814588Y-70276034D01*
X91854373Y-70221278D01*
X91909703Y-70178613D01*
X91979317Y-70172635D01*
X92041111Y-70205242D01*
X92055007Y-70221278D01*
X92179641Y-70392821D01*
X92332179Y-70545359D01*
X92506701Y-70672157D01*
X92698911Y-70770092D01*
X92904074Y-70836754D01*
X92983973Y-70849408D01*
X93117134Y-70870500D01*
X93117139Y-70870500D01*
X93332866Y-70870500D01*
X93451230Y-70851752D01*
X93545926Y-70836754D01*
X93751089Y-70770092D01*
X93943299Y-70672157D01*
X94117821Y-70545359D01*
X94270359Y-70392821D01*
X94394682Y-70221704D01*
X94450012Y-70179040D01*
X94519626Y-70173061D01*
X94581420Y-70205667D01*
X94595315Y-70221702D01*
X94719641Y-70392821D01*
X94872179Y-70545359D01*
X95046701Y-70672157D01*
X95238911Y-70770092D01*
X95444074Y-70836754D01*
X95523973Y-70849408D01*
X95657134Y-70870500D01*
X95657139Y-70870500D01*
X95872866Y-70870500D01*
X95991230Y-70851752D01*
X96085926Y-70836754D01*
X96291089Y-70770092D01*
X96483299Y-70672157D01*
X96657821Y-70545359D01*
X96799807Y-70403372D01*
X96861126Y-70369890D01*
X96930818Y-70374874D01*
X96986752Y-70416745D01*
X96999864Y-70438645D01*
X97000181Y-70439326D01*
X97000186Y-70439334D01*
X97092288Y-70588656D01*
X97216344Y-70712712D01*
X97365666Y-70804814D01*
X97532203Y-70859999D01*
X97634991Y-70870500D01*
X98975008Y-70870499D01*
X99077797Y-70859999D01*
X99244334Y-70804814D01*
X99393656Y-70712712D01*
X99517712Y-70588656D01*
X99609814Y-70439334D01*
X99664999Y-70272797D01*
X99675500Y-70170009D01*
X99675499Y-68829992D01*
X99664999Y-68727203D01*
X99609814Y-68560666D01*
X99517712Y-68411344D01*
X99393656Y-68287288D01*
X99244334Y-68195186D01*
X99077797Y-68140001D01*
X99077795Y-68140000D01*
X98975010Y-68129500D01*
X97634998Y-68129500D01*
X97634981Y-68129501D01*
X97532203Y-68140000D01*
X97532200Y-68140001D01*
X97365668Y-68195185D01*
X97365663Y-68195187D01*
X97216342Y-68287289D01*
X97092289Y-68411342D01*
X97000179Y-68560677D01*
X96999861Y-68561360D01*
X96999518Y-68561748D01*
X96996395Y-68566813D01*
X96995529Y-68566278D01*
X96953683Y-68613794D01*
X96886487Y-68632939D01*
X96819608Y-68612716D01*
X96799804Y-68596624D01*
X96657823Y-68454643D01*
X96657821Y-68454641D01*
X96483299Y-68327843D01*
X96291089Y-68229908D01*
X96085926Y-68163246D01*
X96085924Y-68163245D01*
X96085922Y-68163245D01*
X95872866Y-68129500D01*
X95872861Y-68129500D01*
X95657139Y-68129500D01*
X95657134Y-68129500D01*
X95444077Y-68163245D01*
X95238908Y-68229909D01*
X95046700Y-68327843D01*
X94988111Y-68370411D01*
X94872179Y-68454641D01*
X94872177Y-68454643D01*
X94872176Y-68454643D01*
X94719643Y-68607176D01*
X94719643Y-68607177D01*
X94719641Y-68607179D01*
X94670217Y-68675205D01*
X94595318Y-68778294D01*
X94539988Y-68820959D01*
X94470374Y-68826938D01*
X94408579Y-68794332D01*
X94394682Y-68778294D01*
X94357562Y-68727203D01*
X94270359Y-68607179D01*
X94117821Y-68454641D01*
X93943299Y-68327843D01*
X93751089Y-68229908D01*
X93545926Y-68163246D01*
X93545924Y-68163245D01*
X93545922Y-68163245D01*
X93332866Y-68129500D01*
X93332861Y-68129500D01*
X93117139Y-68129500D01*
X93117134Y-68129500D01*
X92904077Y-68163245D01*
X92698908Y-68229909D01*
X92506700Y-68327843D01*
X92448111Y-68370411D01*
X92332179Y-68454641D01*
X92332177Y-68454643D01*
X92332176Y-68454643D01*
X92179642Y-68607177D01*
X92055007Y-68778721D01*
X91999676Y-68821386D01*
X91930063Y-68827365D01*
X91868268Y-68794759D01*
X91854371Y-68778720D01*
X91814588Y-68723964D01*
X91814588Y-68723963D01*
X91204705Y-69333847D01*
X91192859Y-69289638D01*
X91121109Y-69165362D01*
X91019638Y-69063891D01*
X90895362Y-68992141D01*
X90851151Y-68980294D01*
X91461035Y-68370411D01*
X91461034Y-68370410D01*
X91403036Y-68328271D01*
X91210901Y-68230372D01*
X91005809Y-68163734D01*
X90792820Y-68130000D01*
X90577180Y-68130000D01*
X90364190Y-68163734D01*
X90159098Y-68230372D01*
X89966967Y-68328269D01*
X89908964Y-68370410D01*
X90518848Y-68980294D01*
X90474638Y-68992141D01*
X90350362Y-69063891D01*
X90248891Y-69165362D01*
X90177141Y-69289638D01*
X90165294Y-69333848D01*
X89555410Y-68723964D01*
X89513269Y-68781967D01*
X89415372Y-68974098D01*
X89348734Y-69179190D01*
X89315000Y-69392179D01*
X85773853Y-69392179D01*
X85824091Y-69257483D01*
X85830500Y-69197873D01*
X85830499Y-67903509D01*
X85830499Y-66802129D01*
X85830498Y-66802123D01*
X85830497Y-66802116D01*
X85824091Y-66742517D01*
X85781772Y-66629055D01*
X85773797Y-66607671D01*
X85773793Y-66607664D01*
X85687547Y-66492455D01*
X85687544Y-66492452D01*
X85572335Y-66406206D01*
X85572328Y-66406202D01*
X85437482Y-66355908D01*
X85437483Y-66355908D01*
X85377883Y-66349501D01*
X85377881Y-66349500D01*
X85377873Y-66349500D01*
X85377864Y-66349500D01*
X83782129Y-66349500D01*
X83782123Y-66349501D01*
X83722516Y-66355908D01*
X83587671Y-66406202D01*
X83587664Y-66406206D01*
X83472455Y-66492452D01*
X83472452Y-66492455D01*
X83386206Y-66607664D01*
X83386202Y-66607671D01*
X83335908Y-66742517D01*
X83331303Y-66785354D01*
X83329501Y-66802123D01*
X83329500Y-66802135D01*
X83329500Y-68430903D01*
X83309815Y-68497942D01*
X83257011Y-68543697D01*
X83187853Y-68553641D01*
X83124297Y-68524616D01*
X83117819Y-68518584D01*
X82366819Y-67767584D01*
X82333334Y-67706261D01*
X82330500Y-67679903D01*
X82330500Y-67501577D01*
X82299709Y-67307173D01*
X82238882Y-67119970D01*
X82149523Y-66944594D01*
X82136809Y-66927095D01*
X82033828Y-66785354D01*
X81894646Y-66646172D01*
X81841654Y-66607671D01*
X81731614Y-66527721D01*
X81688949Y-66472390D01*
X81680500Y-66427403D01*
X81680500Y-64572596D01*
X81700185Y-64505557D01*
X81731614Y-64472278D01*
X81735403Y-64469524D01*
X81735405Y-64469524D01*
X81894646Y-64353828D01*
X82033828Y-64214646D01*
X82149524Y-64055405D01*
X82238884Y-63880025D01*
X82299709Y-63692826D01*
X82323659Y-63541611D01*
X82330500Y-63498422D01*
X82330500Y-62501577D01*
X82299709Y-62307173D01*
X82260372Y-62186109D01*
X82238884Y-62119975D01*
X82238881Y-62119971D01*
X82238881Y-62119968D01*
X82230302Y-62103131D01*
X82230301Y-62103130D01*
X82213833Y-62070809D01*
X82203222Y-62049984D01*
X83329500Y-62049984D01*
X83329500Y-63950015D01*
X83340000Y-64052795D01*
X83340001Y-64052797D01*
X83367593Y-64136065D01*
X83395186Y-64219335D01*
X83395187Y-64219337D01*
X83487286Y-64368651D01*
X83487289Y-64368655D01*
X83611344Y-64492710D01*
X83611348Y-64492713D01*
X83760662Y-64584812D01*
X83760664Y-64584813D01*
X83760666Y-64584814D01*
X83927203Y-64639999D01*
X84029992Y-64650500D01*
X84029997Y-64650500D01*
X85130003Y-64650500D01*
X85130008Y-64650500D01*
X85232797Y-64639999D01*
X85399334Y-64584814D01*
X85548655Y-64492711D01*
X85672711Y-64368655D01*
X85764814Y-64219334D01*
X85819999Y-64052797D01*
X85830500Y-63950008D01*
X85830500Y-62049992D01*
X85819999Y-61947203D01*
X85764814Y-61780666D01*
X85681856Y-61646172D01*
X85679393Y-61642179D01*
X89315000Y-61642179D01*
X89315000Y-61857820D01*
X89348734Y-62070809D01*
X89415372Y-62275901D01*
X89513271Y-62468036D01*
X89555410Y-62526034D01*
X89555411Y-62526035D01*
X90165294Y-61916151D01*
X90177141Y-61960362D01*
X90248891Y-62084638D01*
X90350362Y-62186109D01*
X90474638Y-62257859D01*
X90518848Y-62269705D01*
X89908963Y-62879588D01*
X89908964Y-62879589D01*
X89966958Y-62921724D01*
X89966971Y-62921732D01*
X90159098Y-63019627D01*
X90364190Y-63086265D01*
X90577180Y-63120000D01*
X90792820Y-63120000D01*
X91005809Y-63086265D01*
X91210901Y-63019627D01*
X91403036Y-62921728D01*
X91461034Y-62879589D01*
X91461034Y-62879588D01*
X90851151Y-62269705D01*
X90895362Y-62257859D01*
X91019638Y-62186109D01*
X91121109Y-62084638D01*
X91192859Y-61960362D01*
X91204705Y-61916151D01*
X91814588Y-62526034D01*
X91854373Y-62471278D01*
X91909703Y-62428613D01*
X91979317Y-62422635D01*
X92041111Y-62455242D01*
X92055007Y-62471278D01*
X92179641Y-62642821D01*
X92332179Y-62795359D01*
X92506701Y-62922157D01*
X92698911Y-63020092D01*
X92904074Y-63086754D01*
X92983973Y-63099408D01*
X93117134Y-63120500D01*
X93117139Y-63120500D01*
X93332866Y-63120500D01*
X93451230Y-63101752D01*
X93545926Y-63086754D01*
X93751089Y-63020092D01*
X93943299Y-62922157D01*
X94117821Y-62795359D01*
X94270359Y-62642821D01*
X94394682Y-62471704D01*
X94450012Y-62429040D01*
X94519626Y-62423061D01*
X94581420Y-62455667D01*
X94595315Y-62471702D01*
X94719641Y-62642821D01*
X94872179Y-62795359D01*
X95046701Y-62922157D01*
X95238911Y-63020092D01*
X95444074Y-63086754D01*
X95523973Y-63099408D01*
X95657134Y-63120500D01*
X95657139Y-63120500D01*
X95872866Y-63120500D01*
X95991230Y-63101752D01*
X96085926Y-63086754D01*
X96291089Y-63020092D01*
X96483299Y-62922157D01*
X96657821Y-62795359D01*
X96799807Y-62653372D01*
X96861126Y-62619890D01*
X96930818Y-62624874D01*
X96986752Y-62666745D01*
X96999864Y-62688645D01*
X97000181Y-62689326D01*
X97000186Y-62689334D01*
X97092288Y-62838656D01*
X97216344Y-62962712D01*
X97365666Y-63054814D01*
X97532203Y-63109999D01*
X97634991Y-63120500D01*
X98975008Y-63120499D01*
X99077797Y-63109999D01*
X99244334Y-63054814D01*
X99393656Y-62962712D01*
X99517712Y-62838656D01*
X99609814Y-62689334D01*
X99664999Y-62522797D01*
X99675500Y-62420009D01*
X99675499Y-61079992D01*
X99664999Y-60977203D01*
X99609814Y-60810666D01*
X99517712Y-60661344D01*
X99393656Y-60537288D01*
X99244334Y-60445186D01*
X99077797Y-60390001D01*
X99077795Y-60390000D01*
X98975010Y-60379500D01*
X97634998Y-60379500D01*
X97634981Y-60379501D01*
X97532203Y-60390000D01*
X97532200Y-60390001D01*
X97365668Y-60445185D01*
X97365663Y-60445187D01*
X97216342Y-60537289D01*
X97092289Y-60661342D01*
X97000179Y-60810677D01*
X96999861Y-60811360D01*
X96999518Y-60811748D01*
X96996395Y-60816813D01*
X96995529Y-60816278D01*
X96953683Y-60863794D01*
X96886487Y-60882939D01*
X96819608Y-60862716D01*
X96799804Y-60846624D01*
X96657823Y-60704643D01*
X96657821Y-60704641D01*
X96483299Y-60577843D01*
X96291089Y-60479908D01*
X96085926Y-60413246D01*
X96085924Y-60413245D01*
X96085922Y-60413245D01*
X95872866Y-60379500D01*
X95872861Y-60379500D01*
X95657139Y-60379500D01*
X95657134Y-60379500D01*
X95444077Y-60413245D01*
X95238908Y-60479909D01*
X95046700Y-60577843D01*
X94988111Y-60620411D01*
X94872179Y-60704641D01*
X94872177Y-60704643D01*
X94872176Y-60704643D01*
X94719643Y-60857176D01*
X94719643Y-60857177D01*
X94719641Y-60857179D01*
X94642729Y-60963038D01*
X94595318Y-61028294D01*
X94539988Y-61070959D01*
X94470374Y-61076938D01*
X94408579Y-61044332D01*
X94394682Y-61028294D01*
X94357562Y-60977203D01*
X94270359Y-60857179D01*
X94117821Y-60704641D01*
X93943299Y-60577843D01*
X93751089Y-60479908D01*
X93545926Y-60413246D01*
X93545924Y-60413245D01*
X93545922Y-60413245D01*
X93332866Y-60379500D01*
X93332861Y-60379500D01*
X93117139Y-60379500D01*
X93117134Y-60379500D01*
X92904077Y-60413245D01*
X92698908Y-60479909D01*
X92506700Y-60577843D01*
X92448111Y-60620411D01*
X92332179Y-60704641D01*
X92332177Y-60704643D01*
X92332176Y-60704643D01*
X92179642Y-60857177D01*
X92055007Y-61028721D01*
X91999676Y-61071386D01*
X91930063Y-61077365D01*
X91868268Y-61044759D01*
X91854371Y-61028720D01*
X91814588Y-60973964D01*
X91814588Y-60973963D01*
X91204705Y-61583847D01*
X91192859Y-61539638D01*
X91121109Y-61415362D01*
X91019638Y-61313891D01*
X90895362Y-61242141D01*
X90851151Y-61230294D01*
X91461035Y-60620411D01*
X91461034Y-60620410D01*
X91403036Y-60578271D01*
X91210901Y-60480372D01*
X91005809Y-60413734D01*
X90792820Y-60380000D01*
X90577180Y-60380000D01*
X90364190Y-60413734D01*
X90159098Y-60480372D01*
X89966967Y-60578269D01*
X89908964Y-60620410D01*
X90518848Y-61230294D01*
X90474638Y-61242141D01*
X90350362Y-61313891D01*
X90248891Y-61415362D01*
X90177141Y-61539638D01*
X90165294Y-61583848D01*
X89555410Y-60973964D01*
X89513269Y-61031967D01*
X89415372Y-61224098D01*
X89348734Y-61429190D01*
X89315000Y-61642179D01*
X85679393Y-61642179D01*
X85672711Y-61631345D01*
X85548655Y-61507289D01*
X85548651Y-61507286D01*
X85399337Y-61415187D01*
X85399335Y-61415186D01*
X85294025Y-61380290D01*
X85232797Y-61360001D01*
X85232795Y-61360000D01*
X85130015Y-61349500D01*
X85130008Y-61349500D01*
X84029992Y-61349500D01*
X84029984Y-61349500D01*
X83927204Y-61360000D01*
X83927203Y-61360001D01*
X83760664Y-61415186D01*
X83760662Y-61415187D01*
X83611348Y-61507286D01*
X83611344Y-61507289D01*
X83487289Y-61631344D01*
X83487286Y-61631348D01*
X83395187Y-61780662D01*
X83395186Y-61780664D01*
X83340001Y-61947203D01*
X83340000Y-61947204D01*
X83329500Y-62049984D01*
X82203222Y-62049984D01*
X82149524Y-61944595D01*
X82033828Y-61785354D01*
X81894646Y-61646172D01*
X81735405Y-61530476D01*
X81689892Y-61507286D01*
X81560029Y-61441117D01*
X81372826Y-61380290D01*
X81178422Y-61349500D01*
X81178417Y-61349500D01*
X80981583Y-61349500D01*
X80981578Y-61349500D01*
X80787173Y-61380290D01*
X80599970Y-61441117D01*
X80424594Y-61530476D01*
X80333741Y-61596485D01*
X80265354Y-61646172D01*
X80265352Y-61646174D01*
X80265351Y-61646174D01*
X80126174Y-61785351D01*
X80126174Y-61785352D01*
X80126172Y-61785354D01*
X80099728Y-61821751D01*
X80010476Y-61944594D01*
X79921117Y-62119970D01*
X79860290Y-62307173D01*
X79829500Y-62501577D01*
X79829500Y-63498422D01*
X79860290Y-63692826D01*
X79921117Y-63880029D01*
X80001426Y-64037643D01*
X80010476Y-64055405D01*
X80126172Y-64214646D01*
X80265354Y-64353828D01*
X80424595Y-64469524D01*
X80428386Y-64472278D01*
X80471051Y-64527608D01*
X80479500Y-64572596D01*
X80479500Y-66427403D01*
X80459815Y-66494442D01*
X80428386Y-66527721D01*
X80265352Y-66646173D01*
X80126174Y-66785351D01*
X80126174Y-66785352D01*
X80126172Y-66785354D01*
X80113980Y-66802135D01*
X80010476Y-66944594D01*
X79921117Y-67119970D01*
X79860290Y-67307173D01*
X79829500Y-67501577D01*
X79829500Y-68498422D01*
X79860290Y-68692826D01*
X79921117Y-68880029D01*
X80001426Y-69037643D01*
X80010476Y-69055405D01*
X80126172Y-69214646D01*
X80265354Y-69353828D01*
X80424595Y-69469524D01*
X80464872Y-69490046D01*
X80599970Y-69558882D01*
X80599972Y-69558882D01*
X80599975Y-69558884D01*
X80700317Y-69591487D01*
X80787173Y-69619709D01*
X80981578Y-69650500D01*
X80981583Y-69650500D01*
X81178422Y-69650500D01*
X81372826Y-69619709D01*
X81560025Y-69558884D01*
X81735405Y-69469524D01*
X81894646Y-69353828D01*
X81986941Y-69261532D01*
X82048260Y-69228050D01*
X82117952Y-69233034D01*
X82162300Y-69261535D01*
X86986734Y-74085969D01*
X87020219Y-74147292D01*
X87015235Y-74216984D01*
X86973363Y-74272917D01*
X86907899Y-74297334D01*
X86842758Y-74284135D01*
X86822372Y-74273748D01*
X86822371Y-74273747D01*
X86822368Y-74273746D01*
X86642055Y-74215158D01*
X86642051Y-74215157D01*
X86642050Y-74215157D01*
X86454800Y-74185500D01*
X86454796Y-74185500D01*
X86265204Y-74185500D01*
X86265200Y-74185500D01*
X86077949Y-74215157D01*
X86077946Y-74215157D01*
X86077945Y-74215158D01*
X86042189Y-74226776D01*
X85897627Y-74273747D01*
X85728703Y-74359819D01*
X85575319Y-74471260D01*
X85441260Y-74605319D01*
X85329819Y-74758703D01*
X85243747Y-74927627D01*
X85185157Y-75107949D01*
X85155500Y-75295199D01*
X85155500Y-75484800D01*
X85180548Y-75642949D01*
X85185158Y-75672055D01*
X85203413Y-75728236D01*
X85243747Y-75852372D01*
X85322270Y-76006481D01*
X85329819Y-76021296D01*
X85441259Y-76174679D01*
X85575321Y-76308741D01*
X85728704Y-76420181D01*
X85728706Y-76420182D01*
X85737211Y-76424516D01*
X85788006Y-76472490D01*
X85804801Y-76540311D01*
X85782263Y-76606446D01*
X85737211Y-76645484D01*
X85728706Y-76649817D01*
X85575319Y-76761260D01*
X85441260Y-76895319D01*
X85329819Y-77048703D01*
X85243747Y-77217627D01*
X85185157Y-77397949D01*
X85155500Y-77585199D01*
X85155500Y-77774800D01*
X85179785Y-77928129D01*
X85185158Y-77962055D01*
X85224750Y-78083905D01*
X85243747Y-78142372D01*
X85324724Y-78301296D01*
X85329819Y-78311296D01*
X85441259Y-78464679D01*
X85575321Y-78598741D01*
X85728704Y-78710181D01*
X85782678Y-78737682D01*
X85897627Y-78796252D01*
X85897629Y-78796252D01*
X85897632Y-78796254D01*
X86077945Y-78854842D01*
X86171574Y-78869671D01*
X86265200Y-78884500D01*
X86265204Y-78884500D01*
X86454800Y-78884500D01*
X86538022Y-78871318D01*
X86642055Y-78854842D01*
X86822368Y-78796254D01*
X86991296Y-78710181D01*
X87144679Y-78598741D01*
X87278741Y-78464679D01*
X87390181Y-78311296D01*
X87476254Y-78142368D01*
X87534842Y-77962055D01*
X87551318Y-77858022D01*
X87564500Y-77774800D01*
X87564500Y-77585199D01*
X87541809Y-77441936D01*
X87534842Y-77397945D01*
X87476254Y-77217632D01*
X87476252Y-77217629D01*
X87476252Y-77217627D01*
X87390180Y-77048703D01*
X87278741Y-76895321D01*
X87144679Y-76761259D01*
X86991296Y-76649819D01*
X86982792Y-76645486D01*
X86931995Y-76597513D01*
X86915198Y-76529692D01*
X86937734Y-76463557D01*
X86982792Y-76424514D01*
X86982803Y-76424508D01*
X86991296Y-76420181D01*
X87144679Y-76308741D01*
X87278741Y-76174679D01*
X87390181Y-76021296D01*
X87476254Y-75852368D01*
X87534842Y-75672055D01*
X87555514Y-75541533D01*
X87564500Y-75484800D01*
X87564500Y-75295199D01*
X87545942Y-75178028D01*
X87534842Y-75107945D01*
X87476254Y-74927632D01*
X87476251Y-74927628D01*
X87476251Y-74927625D01*
X87465865Y-74907242D01*
X87452968Y-74838573D01*
X87479243Y-74773832D01*
X87536349Y-74733575D01*
X87606155Y-74730581D01*
X87664030Y-74763265D01*
X90543181Y-77642416D01*
X90576666Y-77703739D01*
X90579500Y-77730097D01*
X90579500Y-78584263D01*
X90559815Y-78651302D01*
X90528386Y-78684581D01*
X90395319Y-78781260D01*
X90261260Y-78915319D01*
X90149819Y-79068703D01*
X90063747Y-79237627D01*
X90005157Y-79417949D01*
X89975500Y-79605199D01*
X89975500Y-79794800D01*
X90005157Y-79982050D01*
X90005158Y-79982055D01*
X90025531Y-80044755D01*
X90063747Y-80162372D01*
X90112285Y-80257632D01*
X90149819Y-80331296D01*
X90261259Y-80484679D01*
X90395321Y-80618741D01*
X90467958Y-80671515D01*
X90481778Y-80689438D01*
X90482385Y-80688832D01*
X91091414Y-81297861D01*
X91006306Y-81320667D01*
X90903694Y-81379910D01*
X90819910Y-81463694D01*
X90760667Y-81566306D01*
X90737861Y-81651414D01*
X90169253Y-81082806D01*
X90150245Y-81108969D01*
X90064210Y-81277821D01*
X90005645Y-81458062D01*
X89976000Y-81645237D01*
X89976000Y-81834762D01*
X90004722Y-82016102D01*
X89995768Y-82085395D01*
X89950772Y-82138847D01*
X89884020Y-82159487D01*
X89882249Y-82159500D01*
X89605913Y-82159500D01*
X89539373Y-82140135D01*
X89527872Y-82132821D01*
X89513531Y-82118480D01*
X89426719Y-82068360D01*
X89376600Y-82039423D01*
X89223872Y-81998499D01*
X89065758Y-81998499D01*
X89058162Y-81998499D01*
X89058146Y-81998500D01*
X75580328Y-81998500D01*
X75513289Y-81978815D01*
X75467534Y-81926011D01*
X75457590Y-81856853D01*
X75462397Y-81836183D01*
X75466095Y-81824800D01*
X75468402Y-81817701D01*
X75495500Y-81646611D01*
X75495500Y-81473389D01*
X75468402Y-81302299D01*
X75414873Y-81137555D01*
X75336232Y-80983212D01*
X75234414Y-80843072D01*
X75111928Y-80720586D01*
X74971788Y-80618768D01*
X74817445Y-80540127D01*
X74652701Y-80486598D01*
X74652699Y-80486597D01*
X74652698Y-80486597D01*
X74521271Y-80465781D01*
X74481611Y-80459500D01*
X74308389Y-80459500D01*
X74268728Y-80465781D01*
X74137302Y-80486597D01*
X73972552Y-80540128D01*
X73818211Y-80618768D01*
X73745612Y-80671515D01*
X73678072Y-80720586D01*
X73678070Y-80720588D01*
X73678069Y-80720588D01*
X73555588Y-80843069D01*
X73555588Y-80843070D01*
X73555586Y-80843072D01*
X73532504Y-80874842D01*
X73453768Y-80983211D01*
X73375128Y-81137552D01*
X73321597Y-81302302D01*
X73294500Y-81473389D01*
X73294500Y-81646610D01*
X73321597Y-81817698D01*
X73321598Y-81817702D01*
X73327603Y-81836183D01*
X73328406Y-81864301D01*
X73332410Y-81892147D01*
X73329390Y-81898758D01*
X73329598Y-81906024D01*
X73315071Y-81930113D01*
X73303385Y-81955703D01*
X73297270Y-81959632D01*
X73293517Y-81965857D01*
X73268270Y-81978269D01*
X73244607Y-81993477D01*
X73234334Y-81994953D01*
X73230816Y-81996684D01*
X73209672Y-81998500D01*
X73040328Y-81998500D01*
X72973289Y-81978815D01*
X72927534Y-81926011D01*
X72917590Y-81856853D01*
X72922397Y-81836183D01*
X72926095Y-81824800D01*
X72928402Y-81817701D01*
X72955500Y-81646611D01*
X72955500Y-81473389D01*
X72928402Y-81302299D01*
X72874873Y-81137555D01*
X72796232Y-80983212D01*
X72694414Y-80843072D01*
X72571928Y-80720586D01*
X72431788Y-80618768D01*
X72277445Y-80540127D01*
X72112701Y-80486598D01*
X72112699Y-80486597D01*
X72112698Y-80486597D01*
X71981271Y-80465781D01*
X71941611Y-80459500D01*
X71768389Y-80459500D01*
X71728728Y-80465781D01*
X71597302Y-80486597D01*
X71432552Y-80540128D01*
X71278211Y-80618768D01*
X71205612Y-80671515D01*
X71138072Y-80720586D01*
X71138070Y-80720588D01*
X71138069Y-80720588D01*
X71015588Y-80843069D01*
X71015588Y-80843070D01*
X71015586Y-80843072D01*
X70992504Y-80874842D01*
X70913768Y-80983211D01*
X70835128Y-81137552D01*
X70781597Y-81302302D01*
X70754500Y-81473389D01*
X70754500Y-81646610D01*
X70781597Y-81817698D01*
X70781598Y-81817702D01*
X70787603Y-81836183D01*
X70789598Y-81906024D01*
X70753517Y-81965857D01*
X70690816Y-81996684D01*
X70669672Y-81998500D01*
X61287482Y-81998500D01*
X61220443Y-81978815D01*
X61199801Y-81962181D01*
X56139975Y-76902355D01*
X56139973Y-76902352D01*
X56021102Y-76783481D01*
X56021094Y-76783475D01*
X55911518Y-76720212D01*
X55911517Y-76720211D01*
X55911517Y-76720212D01*
X55884170Y-76704423D01*
X55731442Y-76663499D01*
X55573328Y-76663499D01*
X55565732Y-76663499D01*
X55565716Y-76663500D01*
X54215657Y-76663500D01*
X54062928Y-76704423D01*
X54035583Y-76720212D01*
X54035582Y-76720212D01*
X53926002Y-76783477D01*
X53925997Y-76783481D01*
X51804481Y-78904997D01*
X51804479Y-78905000D01*
X51774314Y-78957249D01*
X51774313Y-78957251D01*
X51725423Y-79041929D01*
X51725423Y-79041930D01*
X51684499Y-79194658D01*
X51684499Y-79352772D01*
X51684499Y-79352774D01*
X51684500Y-79362768D01*
X51684500Y-80638330D01*
X51684499Y-80638348D01*
X51684499Y-80804054D01*
X51684498Y-80804054D01*
X40125500Y-80804054D01*
X40125500Y-75768711D01*
X48899500Y-75768711D01*
X48899500Y-76011288D01*
X48921010Y-76174680D01*
X48931162Y-76251789D01*
X48933842Y-76261789D01*
X48993947Y-76486104D01*
X49086773Y-76710205D01*
X49086777Y-76710214D01*
X49108974Y-76748661D01*
X49208064Y-76920289D01*
X49208066Y-76920292D01*
X49208067Y-76920293D01*
X49355733Y-77112736D01*
X49355739Y-77112743D01*
X49527256Y-77284260D01*
X49527263Y-77284266D01*
X49640321Y-77371018D01*
X49719711Y-77431936D01*
X49929788Y-77553224D01*
X50153900Y-77646054D01*
X50388211Y-77708838D01*
X50549692Y-77730097D01*
X50628711Y-77740500D01*
X50628712Y-77740500D01*
X50871289Y-77740500D01*
X50923160Y-77733671D01*
X51111789Y-77708838D01*
X51346100Y-77646054D01*
X51570212Y-77553224D01*
X51780289Y-77431936D01*
X51972738Y-77284265D01*
X52144265Y-77112738D01*
X52291936Y-76920289D01*
X52413224Y-76710212D01*
X52506054Y-76486100D01*
X52568838Y-76251789D01*
X52600500Y-76011288D01*
X52600500Y-75768712D01*
X52568838Y-75528211D01*
X52506054Y-75293900D01*
X52413224Y-75069788D01*
X52291936Y-74859711D01*
X52144265Y-74667262D01*
X52144260Y-74667256D01*
X51972743Y-74495739D01*
X51972736Y-74495733D01*
X51780293Y-74348067D01*
X51780292Y-74348066D01*
X51780289Y-74348064D01*
X51570212Y-74226776D01*
X51542164Y-74215158D01*
X51346102Y-74133946D01*
X51309791Y-74124217D01*
X51111789Y-74071162D01*
X51111788Y-74071161D01*
X51111785Y-74071161D01*
X50871289Y-74039500D01*
X50871288Y-74039500D01*
X50628712Y-74039500D01*
X50628711Y-74039500D01*
X50388214Y-74071161D01*
X50153895Y-74133947D01*
X49929794Y-74226773D01*
X49929785Y-74226777D01*
X49719706Y-74348067D01*
X49527263Y-74495733D01*
X49527256Y-74495739D01*
X49355739Y-74667256D01*
X49355733Y-74667263D01*
X49208067Y-74859706D01*
X49208064Y-74859710D01*
X49208064Y-74859711D01*
X49197215Y-74878502D01*
X49086777Y-75069785D01*
X49086773Y-75069794D01*
X48993947Y-75293895D01*
X48931161Y-75528214D01*
X48899500Y-75768711D01*
X40125500Y-75768711D01*
X40125500Y-74003575D01*
X52480000Y-74003575D01*
X52480000Y-74226424D01*
X52509085Y-74447354D01*
X52509088Y-74447367D01*
X52566763Y-74662618D01*
X52652045Y-74868502D01*
X52652054Y-74868520D01*
X52763464Y-75061491D01*
X52763473Y-75061504D01*
X52814040Y-75127403D01*
X52814043Y-75127403D01*
X53464152Y-74477293D01*
X53471049Y-74493942D01*
X53558599Y-74624970D01*
X53670030Y-74736401D01*
X53801058Y-74823951D01*
X53817705Y-74830846D01*
X53167595Y-75480955D01*
X53167595Y-75480956D01*
X53233507Y-75531533D01*
X53426485Y-75642949D01*
X53426497Y-75642954D01*
X53632381Y-75728236D01*
X53847632Y-75785911D01*
X53847645Y-75785914D01*
X54068575Y-75815000D01*
X54291425Y-75815000D01*
X54512354Y-75785914D01*
X54512367Y-75785911D01*
X54727618Y-75728236D01*
X54933502Y-75642954D01*
X54933514Y-75642949D01*
X55126498Y-75531530D01*
X55192403Y-75480957D01*
X55192404Y-75480956D01*
X55079461Y-75368013D01*
X54996647Y-75285199D01*
X58685500Y-75285199D01*
X58685500Y-75474800D01*
X58714847Y-75660092D01*
X58715158Y-75662055D01*
X58736662Y-75728236D01*
X58773747Y-75842372D01*
X58857366Y-76006481D01*
X58859819Y-76011296D01*
X58971259Y-76164679D01*
X59105321Y-76298741D01*
X59258704Y-76410181D01*
X59258706Y-76410182D01*
X59267211Y-76414516D01*
X59318006Y-76462490D01*
X59334801Y-76530311D01*
X59312263Y-76596446D01*
X59267211Y-76635484D01*
X59258706Y-76639817D01*
X59105319Y-76751260D01*
X58971260Y-76885319D01*
X58859819Y-77038703D01*
X58773747Y-77207627D01*
X58734153Y-77329482D01*
X58719294Y-77375218D01*
X58715157Y-77387949D01*
X58685500Y-77575199D01*
X58685500Y-77764800D01*
X58715157Y-77952049D01*
X58715158Y-77952055D01*
X58754750Y-78073905D01*
X58773747Y-78132372D01*
X58859819Y-78301296D01*
X58971259Y-78454679D01*
X59105321Y-78588741D01*
X59258704Y-78700181D01*
X59332304Y-78737682D01*
X59427627Y-78786252D01*
X59427629Y-78786252D01*
X59427632Y-78786254D01*
X59607945Y-78844842D01*
X59701574Y-78859671D01*
X59795200Y-78874500D01*
X59795204Y-78874500D01*
X59984800Y-78874500D01*
X60068022Y-78861318D01*
X60172055Y-78844842D01*
X60352368Y-78786254D01*
X60447696Y-78737682D01*
X61700000Y-78737682D01*
X61700000Y-78942317D01*
X61732009Y-79144417D01*
X61795244Y-79339031D01*
X61888141Y-79521350D01*
X61888147Y-79521359D01*
X61920523Y-79565921D01*
X61920524Y-79565922D01*
X62600000Y-78886446D01*
X62600000Y-78892661D01*
X62627259Y-78994394D01*
X62679920Y-79085606D01*
X62754394Y-79160080D01*
X62845606Y-79212741D01*
X62947339Y-79240000D01*
X62953553Y-79240000D01*
X62274076Y-79919474D01*
X62318650Y-79951859D01*
X62500968Y-80044755D01*
X62695582Y-80107990D01*
X62897683Y-80140000D01*
X63102317Y-80140000D01*
X63304417Y-80107990D01*
X63499031Y-80044755D01*
X63681349Y-79951859D01*
X63725921Y-79919474D01*
X63046447Y-79240000D01*
X63052661Y-79240000D01*
X63154394Y-79212741D01*
X63245606Y-79160080D01*
X63320080Y-79085606D01*
X63372741Y-78994394D01*
X63400000Y-78892661D01*
X63400000Y-78886447D01*
X64079474Y-79565921D01*
X64111859Y-79521349D01*
X64204755Y-79339031D01*
X64267990Y-79144417D01*
X64300000Y-78942317D01*
X64300000Y-78737682D01*
X64267990Y-78535582D01*
X64204755Y-78340968D01*
X64111859Y-78158650D01*
X64079474Y-78114077D01*
X64079474Y-78114076D01*
X63400000Y-78793551D01*
X63400000Y-78787339D01*
X63372741Y-78685606D01*
X63320080Y-78594394D01*
X63245606Y-78519920D01*
X63154394Y-78467259D01*
X63052661Y-78440000D01*
X63046446Y-78440000D01*
X63725922Y-77760524D01*
X63725921Y-77760523D01*
X63681359Y-77728147D01*
X63681350Y-77728141D01*
X63499031Y-77635244D01*
X63304417Y-77572009D01*
X63102317Y-77540000D01*
X62897683Y-77540000D01*
X62695582Y-77572009D01*
X62500968Y-77635244D01*
X62318644Y-77728143D01*
X62274077Y-77760523D01*
X62274077Y-77760524D01*
X62953554Y-78440000D01*
X62947339Y-78440000D01*
X62845606Y-78467259D01*
X62754394Y-78519920D01*
X62679920Y-78594394D01*
X62627259Y-78685606D01*
X62600000Y-78787339D01*
X62600000Y-78793553D01*
X61920524Y-78114077D01*
X61920523Y-78114077D01*
X61888143Y-78158644D01*
X61795244Y-78340968D01*
X61732009Y-78535582D01*
X61700000Y-78737682D01*
X60447696Y-78737682D01*
X60521296Y-78700181D01*
X60674679Y-78588741D01*
X60808741Y-78454679D01*
X60920181Y-78301296D01*
X61006254Y-78132368D01*
X61064842Y-77952055D01*
X61079364Y-77860359D01*
X61090750Y-77788478D01*
X61090764Y-77788387D01*
X61094500Y-77764796D01*
X61094500Y-77575199D01*
X61073392Y-77441932D01*
X61064842Y-77387945D01*
X61006254Y-77207632D01*
X61006252Y-77207629D01*
X61006252Y-77207627D01*
X60925276Y-77048704D01*
X60920181Y-77038704D01*
X60808741Y-76885321D01*
X60674679Y-76751259D01*
X60521296Y-76639819D01*
X60512792Y-76635486D01*
X60461995Y-76587513D01*
X60445198Y-76519692D01*
X60467734Y-76453557D01*
X60512792Y-76414514D01*
X60512803Y-76414508D01*
X60521296Y-76410181D01*
X60674679Y-76298741D01*
X60808741Y-76164679D01*
X60879239Y-76067648D01*
X82247000Y-76067648D01*
X82247000Y-76272351D01*
X82279022Y-76474534D01*
X82342281Y-76669223D01*
X82435215Y-76851613D01*
X82555528Y-77017213D01*
X82700286Y-77161971D01*
X82855249Y-77274556D01*
X82865890Y-77282287D01*
X82982107Y-77341503D01*
X83048276Y-77375218D01*
X83048278Y-77375218D01*
X83048281Y-77375220D01*
X83118234Y-77397949D01*
X83242965Y-77438477D01*
X83344057Y-77454488D01*
X83445148Y-77470500D01*
X83445149Y-77470500D01*
X83649851Y-77470500D01*
X83649852Y-77470500D01*
X83852034Y-77438477D01*
X84046719Y-77375220D01*
X84229110Y-77282287D01*
X84331872Y-77207627D01*
X84394713Y-77161971D01*
X84394715Y-77161968D01*
X84394719Y-77161966D01*
X84539466Y-77017219D01*
X84539468Y-77017215D01*
X84539471Y-77017213D01*
X84628029Y-76895321D01*
X84659787Y-76851610D01*
X84752720Y-76669219D01*
X84815977Y-76474534D01*
X84848000Y-76272352D01*
X84848000Y-76067648D01*
X84815977Y-75865466D01*
X84808473Y-75842372D01*
X84752718Y-75670776D01*
X84719003Y-75604607D01*
X84659787Y-75488390D01*
X84642864Y-75465097D01*
X84539471Y-75322786D01*
X84394713Y-75178028D01*
X84229113Y-75057715D01*
X84229112Y-75057714D01*
X84229110Y-75057713D01*
X84142145Y-75013402D01*
X84046723Y-74964781D01*
X83852034Y-74901522D01*
X83677495Y-74873878D01*
X83649852Y-74869500D01*
X83445148Y-74869500D01*
X83420829Y-74873351D01*
X83242965Y-74901522D01*
X83048276Y-74964781D01*
X82865886Y-75057715D01*
X82700286Y-75178028D01*
X82555528Y-75322786D01*
X82435215Y-75488386D01*
X82342281Y-75670776D01*
X82279022Y-75865465D01*
X82247000Y-76067648D01*
X60879239Y-76067648D01*
X60920181Y-76011296D01*
X61006254Y-75842368D01*
X61064842Y-75662055D01*
X61084456Y-75538214D01*
X61094500Y-75474800D01*
X61094500Y-75285199D01*
X61077526Y-75178034D01*
X61064842Y-75097945D01*
X61006254Y-74917632D01*
X61006252Y-74917629D01*
X61006252Y-74917627D01*
X60937313Y-74782328D01*
X60920181Y-74748704D01*
X60808741Y-74595321D01*
X60674679Y-74461259D01*
X60521296Y-74349819D01*
X60517852Y-74348064D01*
X60352372Y-74263747D01*
X60269364Y-74236776D01*
X60172055Y-74205158D01*
X60172051Y-74205157D01*
X60172050Y-74205157D01*
X59984800Y-74175500D01*
X59984796Y-74175500D01*
X59795204Y-74175500D01*
X59795200Y-74175500D01*
X59607949Y-74205157D01*
X59607946Y-74205157D01*
X59607945Y-74205158D01*
X59577172Y-74215157D01*
X59427627Y-74263747D01*
X59258703Y-74349819D01*
X59105319Y-74461260D01*
X58971260Y-74595319D01*
X58859819Y-74748703D01*
X58773747Y-74917627D01*
X58715157Y-75097949D01*
X58685500Y-75285199D01*
X54996647Y-75285199D01*
X54542294Y-74830846D01*
X54558942Y-74823951D01*
X54689970Y-74736401D01*
X54801401Y-74624970D01*
X54888951Y-74493942D01*
X54895846Y-74477294D01*
X55545956Y-75127404D01*
X55545957Y-75127403D01*
X55596530Y-75061498D01*
X55707949Y-74868514D01*
X55707954Y-74868502D01*
X55793236Y-74662618D01*
X55850911Y-74447367D01*
X55850914Y-74447354D01*
X55880000Y-74226424D01*
X55880000Y-74003575D01*
X55850914Y-73782645D01*
X55850911Y-73782632D01*
X55793236Y-73567381D01*
X55707954Y-73361497D01*
X55707952Y-73361493D01*
X55701783Y-73350807D01*
X55701782Y-73350805D01*
X55667909Y-73292135D01*
X70754500Y-73292135D01*
X70754500Y-74587870D01*
X70754501Y-74587876D01*
X70760908Y-74647483D01*
X70811202Y-74782328D01*
X70811206Y-74782335D01*
X70897452Y-74897544D01*
X70897455Y-74897547D01*
X71012664Y-74983793D01*
X71012671Y-74983797D01*
X71147517Y-75034091D01*
X71147516Y-75034091D01*
X71154444Y-75034835D01*
X71207127Y-75040500D01*
X72502872Y-75040499D01*
X72562483Y-75034091D01*
X72697331Y-74983796D01*
X72812546Y-74897546D01*
X72898796Y-74782331D01*
X72949091Y-74647483D01*
X72955500Y-74587873D01*
X72955499Y-73853389D01*
X73294500Y-73853389D01*
X73294500Y-74026611D01*
X73297604Y-74046207D01*
X73319665Y-74185500D01*
X73321598Y-74197701D01*
X73375127Y-74362445D01*
X73453768Y-74516788D01*
X73555586Y-74656928D01*
X73678072Y-74779414D01*
X73818212Y-74881232D01*
X73972555Y-74959873D01*
X74137299Y-75013402D01*
X74308389Y-75040500D01*
X74308390Y-75040500D01*
X74481610Y-75040500D01*
X74481611Y-75040500D01*
X74652701Y-75013402D01*
X74817445Y-74959873D01*
X74971788Y-74881232D01*
X75111928Y-74779414D01*
X75234414Y-74656928D01*
X75336232Y-74516788D01*
X75414873Y-74362445D01*
X75468402Y-74197701D01*
X75495500Y-74026611D01*
X75495500Y-73853389D01*
X75468402Y-73682299D01*
X75414873Y-73517555D01*
X75336232Y-73363212D01*
X75234414Y-73223072D01*
X75111928Y-73100586D01*
X74971788Y-72998768D01*
X74817445Y-72920127D01*
X74652701Y-72866598D01*
X74652699Y-72866597D01*
X74652698Y-72866597D01*
X74521271Y-72845781D01*
X74481611Y-72839500D01*
X74308389Y-72839500D01*
X74268728Y-72845781D01*
X74137302Y-72866597D01*
X73972552Y-72920128D01*
X73818211Y-72998768D01*
X73738256Y-73056859D01*
X73678072Y-73100586D01*
X73678070Y-73100588D01*
X73678069Y-73100588D01*
X73555588Y-73223069D01*
X73555588Y-73223070D01*
X73555586Y-73223072D01*
X73548725Y-73232516D01*
X73453768Y-73363211D01*
X73375128Y-73517552D01*
X73321597Y-73682302D01*
X73309062Y-73761446D01*
X73294500Y-73853389D01*
X72955499Y-73853389D01*
X72955499Y-73292128D01*
X72949091Y-73232517D01*
X72945568Y-73223072D01*
X72898797Y-73097671D01*
X72898793Y-73097664D01*
X72812547Y-72982455D01*
X72812544Y-72982452D01*
X72697335Y-72896206D01*
X72697328Y-72896202D01*
X72562482Y-72845908D01*
X72562483Y-72845908D01*
X72502883Y-72839501D01*
X72502881Y-72839500D01*
X72502873Y-72839500D01*
X72502864Y-72839500D01*
X71207129Y-72839500D01*
X71207123Y-72839501D01*
X71147516Y-72845908D01*
X71012671Y-72896202D01*
X71012664Y-72896206D01*
X70897455Y-72982452D01*
X70897452Y-72982455D01*
X70811206Y-73097664D01*
X70811202Y-73097671D01*
X70760908Y-73232517D01*
X70754501Y-73292116D01*
X70754501Y-73292123D01*
X70754500Y-73292135D01*
X55667909Y-73292135D01*
X55596533Y-73168507D01*
X55545956Y-73102595D01*
X55545955Y-73102595D01*
X54895846Y-73752704D01*
X54888951Y-73736058D01*
X54801401Y-73605030D01*
X54689970Y-73493599D01*
X54558942Y-73406049D01*
X54542293Y-73399152D01*
X55192403Y-72749043D01*
X55192403Y-72749040D01*
X55126504Y-72698473D01*
X55126491Y-72698464D01*
X54933520Y-72587054D01*
X54933502Y-72587045D01*
X54727618Y-72501763D01*
X54512367Y-72444088D01*
X54512354Y-72444085D01*
X54291425Y-72415000D01*
X54068575Y-72415000D01*
X53847645Y-72444085D01*
X53847632Y-72444088D01*
X53632381Y-72501763D01*
X53426497Y-72587045D01*
X53426479Y-72587054D01*
X53233511Y-72698462D01*
X53167595Y-72749042D01*
X53817706Y-73399152D01*
X53801058Y-73406049D01*
X53670030Y-73493599D01*
X53558599Y-73605030D01*
X53471049Y-73736058D01*
X53464153Y-73752706D01*
X52814042Y-73102595D01*
X52763462Y-73168511D01*
X52652054Y-73361479D01*
X52652045Y-73361497D01*
X52566763Y-73567381D01*
X52509088Y-73782632D01*
X52509085Y-73782645D01*
X52480000Y-74003575D01*
X40125500Y-74003575D01*
X40125500Y-69392179D01*
X46565000Y-69392179D01*
X46565000Y-69607820D01*
X46598734Y-69820809D01*
X46665372Y-70025901D01*
X46763271Y-70218036D01*
X46805410Y-70276034D01*
X46805411Y-70276035D01*
X47415294Y-69666151D01*
X47427141Y-69710362D01*
X47498891Y-69834638D01*
X47600362Y-69936109D01*
X47724638Y-70007859D01*
X47768848Y-70019705D01*
X47158963Y-70629588D01*
X47158964Y-70629589D01*
X47216958Y-70671724D01*
X47216971Y-70671732D01*
X47409098Y-70769627D01*
X47614190Y-70836265D01*
X47827180Y-70870000D01*
X48042820Y-70870000D01*
X48255809Y-70836265D01*
X48460901Y-70769627D01*
X48653036Y-70671728D01*
X48711034Y-70629589D01*
X48711034Y-70629588D01*
X48101151Y-70019705D01*
X48145362Y-70007859D01*
X48269638Y-69936109D01*
X48371109Y-69834638D01*
X48442859Y-69710362D01*
X48454705Y-69666151D01*
X49064588Y-70276034D01*
X49104373Y-70221278D01*
X49159703Y-70178613D01*
X49229317Y-70172635D01*
X49291111Y-70205242D01*
X49305007Y-70221278D01*
X49429641Y-70392821D01*
X49582179Y-70545359D01*
X49756701Y-70672157D01*
X49948911Y-70770092D01*
X50154074Y-70836754D01*
X50233973Y-70849408D01*
X50367134Y-70870500D01*
X50367139Y-70870500D01*
X50582866Y-70870500D01*
X50701230Y-70851752D01*
X50795926Y-70836754D01*
X51001089Y-70770092D01*
X51193299Y-70672157D01*
X51367821Y-70545359D01*
X51520359Y-70392821D01*
X51644682Y-70221704D01*
X51700012Y-70179040D01*
X51769626Y-70173061D01*
X51831420Y-70205667D01*
X51845315Y-70221702D01*
X51969641Y-70392821D01*
X52122179Y-70545359D01*
X52296701Y-70672157D01*
X52488911Y-70770092D01*
X52694074Y-70836754D01*
X52773973Y-70849408D01*
X52907134Y-70870500D01*
X52907139Y-70870500D01*
X53122866Y-70870500D01*
X53241230Y-70851752D01*
X53335926Y-70836754D01*
X53541089Y-70770092D01*
X53733299Y-70672157D01*
X53907821Y-70545359D01*
X54049807Y-70403372D01*
X54111126Y-70369890D01*
X54180818Y-70374874D01*
X54236752Y-70416745D01*
X54249864Y-70438645D01*
X54250181Y-70439326D01*
X54250186Y-70439334D01*
X54342288Y-70588656D01*
X54466344Y-70712712D01*
X54615666Y-70804814D01*
X54782203Y-70859999D01*
X54884991Y-70870500D01*
X56225008Y-70870499D01*
X56327797Y-70859999D01*
X56494334Y-70804814D01*
X56643656Y-70712712D01*
X56767712Y-70588656D01*
X56859814Y-70439334D01*
X56914999Y-70272797D01*
X56925500Y-70170009D01*
X56925499Y-68829992D01*
X56914999Y-68727203D01*
X56859814Y-68560666D01*
X56767712Y-68411344D01*
X56643656Y-68287288D01*
X56494334Y-68195186D01*
X56327797Y-68140001D01*
X56327795Y-68140000D01*
X56225010Y-68129500D01*
X54884998Y-68129500D01*
X54884981Y-68129501D01*
X54782203Y-68140000D01*
X54782200Y-68140001D01*
X54615668Y-68195185D01*
X54615663Y-68195187D01*
X54466342Y-68287289D01*
X54342289Y-68411342D01*
X54250179Y-68560677D01*
X54249861Y-68561360D01*
X54249518Y-68561748D01*
X54246395Y-68566813D01*
X54245529Y-68566278D01*
X54203683Y-68613794D01*
X54136487Y-68632939D01*
X54069608Y-68612716D01*
X54049804Y-68596624D01*
X53907823Y-68454643D01*
X53907821Y-68454641D01*
X53733299Y-68327843D01*
X53541089Y-68229908D01*
X53335926Y-68163246D01*
X53335924Y-68163245D01*
X53335922Y-68163245D01*
X53122866Y-68129500D01*
X53122861Y-68129500D01*
X52907139Y-68129500D01*
X52907134Y-68129500D01*
X52694077Y-68163245D01*
X52488908Y-68229909D01*
X52296700Y-68327843D01*
X52238111Y-68370411D01*
X52122179Y-68454641D01*
X52122177Y-68454643D01*
X52122176Y-68454643D01*
X51969643Y-68607176D01*
X51969643Y-68607177D01*
X51969641Y-68607179D01*
X51920217Y-68675205D01*
X51845318Y-68778294D01*
X51789988Y-68820959D01*
X51720374Y-68826938D01*
X51658579Y-68794332D01*
X51644682Y-68778294D01*
X51607562Y-68727203D01*
X51520359Y-68607179D01*
X51367821Y-68454641D01*
X51193299Y-68327843D01*
X51001089Y-68229908D01*
X50795926Y-68163246D01*
X50795924Y-68163245D01*
X50795922Y-68163245D01*
X50582866Y-68129500D01*
X50582861Y-68129500D01*
X50367139Y-68129500D01*
X50367134Y-68129500D01*
X50154077Y-68163245D01*
X49948908Y-68229909D01*
X49756700Y-68327843D01*
X49698111Y-68370411D01*
X49582179Y-68454641D01*
X49582177Y-68454643D01*
X49582176Y-68454643D01*
X49429642Y-68607177D01*
X49305007Y-68778721D01*
X49249676Y-68821386D01*
X49180063Y-68827365D01*
X49118268Y-68794759D01*
X49104371Y-68778720D01*
X49064588Y-68723964D01*
X49064588Y-68723963D01*
X48454705Y-69333847D01*
X48442859Y-69289638D01*
X48371109Y-69165362D01*
X48269638Y-69063891D01*
X48145362Y-68992141D01*
X48101151Y-68980294D01*
X48711035Y-68370411D01*
X48711034Y-68370410D01*
X48653036Y-68328271D01*
X48460901Y-68230372D01*
X48255809Y-68163734D01*
X48042820Y-68130000D01*
X47827180Y-68130000D01*
X47614190Y-68163734D01*
X47409098Y-68230372D01*
X47216967Y-68328269D01*
X47158964Y-68370410D01*
X47768848Y-68980294D01*
X47724638Y-68992141D01*
X47600362Y-69063891D01*
X47498891Y-69165362D01*
X47427141Y-69289638D01*
X47415294Y-69333848D01*
X46805410Y-68723964D01*
X46763269Y-68781967D01*
X46665372Y-68974098D01*
X46598734Y-69179190D01*
X46565000Y-69392179D01*
X40125500Y-69392179D01*
X40125500Y-67484077D01*
X60499500Y-67484077D01*
X60499500Y-68480922D01*
X60530290Y-68675326D01*
X60591117Y-68862529D01*
X60647965Y-68974098D01*
X60680476Y-69037905D01*
X60796172Y-69197146D01*
X60935354Y-69336328D01*
X61094595Y-69452024D01*
X61128941Y-69469524D01*
X61269970Y-69541382D01*
X61269972Y-69541382D01*
X61269975Y-69541384D01*
X61370317Y-69573987D01*
X61457173Y-69602209D01*
X61651578Y-69633000D01*
X61651583Y-69633000D01*
X61848422Y-69633000D01*
X62042826Y-69602209D01*
X62068718Y-69593796D01*
X62230025Y-69541384D01*
X62405405Y-69452024D01*
X62564646Y-69336328D01*
X62703828Y-69197146D01*
X62819524Y-69037905D01*
X62908884Y-68862525D01*
X62969709Y-68675326D01*
X62969728Y-68675205D01*
X63000500Y-68480922D01*
X63000500Y-67484077D01*
X62969709Y-67289673D01*
X62914570Y-67119975D01*
X62908884Y-67102475D01*
X62908882Y-67102472D01*
X62908882Y-67102470D01*
X62861743Y-67009955D01*
X62819524Y-66927095D01*
X62716020Y-66784635D01*
X63999500Y-66784635D01*
X63999500Y-69180370D01*
X63999501Y-69180376D01*
X64005908Y-69239983D01*
X64056202Y-69374828D01*
X64056206Y-69374835D01*
X64142452Y-69490044D01*
X64142455Y-69490047D01*
X64257664Y-69576293D01*
X64257671Y-69576297D01*
X64392517Y-69626591D01*
X64392516Y-69626591D01*
X64399444Y-69627335D01*
X64452127Y-69633000D01*
X66047872Y-69632999D01*
X66107483Y-69626591D01*
X66242331Y-69576296D01*
X66357546Y-69490046D01*
X66443796Y-69374831D01*
X66494091Y-69239983D01*
X66500500Y-69180373D01*
X66500499Y-67484117D01*
X70160000Y-67484117D01*
X70160000Y-67732500D01*
X70861518Y-67732500D01*
X70850889Y-67750909D01*
X70810000Y-67903509D01*
X70810000Y-68061491D01*
X70850889Y-68214091D01*
X70861518Y-68232500D01*
X70160000Y-68232500D01*
X70160000Y-68480882D01*
X70190778Y-68675205D01*
X70251581Y-68862335D01*
X70340904Y-69037643D01*
X70456555Y-69196821D01*
X70595678Y-69335944D01*
X70754856Y-69451595D01*
X70930162Y-69540918D01*
X71117283Y-69601718D01*
X71160000Y-69608484D01*
X71160000Y-68530982D01*
X71178409Y-68541611D01*
X71331009Y-68582500D01*
X71488991Y-68582500D01*
X71641591Y-68541611D01*
X71660000Y-68530982D01*
X71660000Y-69608483D01*
X71702716Y-69601718D01*
X71889837Y-69540918D01*
X72065143Y-69451595D01*
X72224321Y-69335944D01*
X72363444Y-69196821D01*
X72479095Y-69037643D01*
X72568418Y-68862335D01*
X72629221Y-68675205D01*
X72660000Y-68480882D01*
X72660000Y-68232500D01*
X71958482Y-68232500D01*
X71969111Y-68214091D01*
X72010000Y-68061491D01*
X72010000Y-67903509D01*
X71969111Y-67750909D01*
X71958482Y-67732500D01*
X72660000Y-67732500D01*
X72660000Y-67484117D01*
X72629221Y-67289794D01*
X72568418Y-67102664D01*
X72479095Y-66927356D01*
X72425938Y-66854192D01*
X72425937Y-66854189D01*
X72375401Y-66784635D01*
X73659500Y-66784635D01*
X73659500Y-69180370D01*
X73659501Y-69180376D01*
X73665908Y-69239983D01*
X73716202Y-69374828D01*
X73716206Y-69374835D01*
X73802452Y-69490044D01*
X73802455Y-69490047D01*
X73917664Y-69576293D01*
X73917671Y-69576297D01*
X74052517Y-69626591D01*
X74052516Y-69626591D01*
X74059444Y-69627335D01*
X74112127Y-69633000D01*
X75707872Y-69632999D01*
X75767483Y-69626591D01*
X75902331Y-69576296D01*
X76017546Y-69490046D01*
X76103796Y-69374831D01*
X76154091Y-69239983D01*
X76160500Y-69180373D01*
X76160499Y-66784628D01*
X76154091Y-66725017D01*
X76118157Y-66628674D01*
X76103797Y-66590171D01*
X76103793Y-66590164D01*
X76017547Y-66474955D01*
X76017544Y-66474952D01*
X75902335Y-66388706D01*
X75902328Y-66388702D01*
X75767482Y-66338408D01*
X75767483Y-66338408D01*
X75707883Y-66332001D01*
X75707881Y-66332000D01*
X75707873Y-66332000D01*
X75707864Y-66332000D01*
X74112129Y-66332000D01*
X74112123Y-66332001D01*
X74052516Y-66338408D01*
X73917671Y-66388702D01*
X73917664Y-66388706D01*
X73802455Y-66474952D01*
X73802452Y-66474955D01*
X73716206Y-66590164D01*
X73716202Y-66590171D01*
X73665908Y-66725017D01*
X73659501Y-66784616D01*
X73659501Y-66784623D01*
X73659500Y-66784635D01*
X72375401Y-66784635D01*
X72363450Y-66768186D01*
X72363443Y-66768177D01*
X72224321Y-66629055D01*
X72065143Y-66513404D01*
X71889835Y-66424081D01*
X71702705Y-66363278D01*
X71660000Y-66356514D01*
X71660000Y-67434017D01*
X71641591Y-67423389D01*
X71488991Y-67382500D01*
X71331009Y-67382500D01*
X71178409Y-67423389D01*
X71160000Y-67434017D01*
X71160000Y-66356514D01*
X71159999Y-66356514D01*
X71117294Y-66363278D01*
X70930164Y-66424081D01*
X70754856Y-66513404D01*
X70595678Y-66629055D01*
X70456555Y-66768178D01*
X70340904Y-66927356D01*
X70251581Y-67102664D01*
X70190778Y-67289794D01*
X70160000Y-67484117D01*
X66500499Y-67484117D01*
X66500499Y-66784628D01*
X66494091Y-66725017D01*
X66458157Y-66628674D01*
X66443797Y-66590171D01*
X66443793Y-66590164D01*
X66357547Y-66474955D01*
X66357544Y-66474952D01*
X66242335Y-66388706D01*
X66242328Y-66388702D01*
X66107482Y-66338408D01*
X66107483Y-66338408D01*
X66047883Y-66332001D01*
X66047881Y-66332000D01*
X66047873Y-66332000D01*
X66047864Y-66332000D01*
X64452129Y-66332000D01*
X64452123Y-66332001D01*
X64392516Y-66338408D01*
X64257671Y-66388702D01*
X64257664Y-66388706D01*
X64142455Y-66474952D01*
X64142452Y-66474955D01*
X64056206Y-66590164D01*
X64056202Y-66590171D01*
X64005908Y-66725017D01*
X63999501Y-66784616D01*
X63999501Y-66784623D01*
X63999500Y-66784635D01*
X62716020Y-66784635D01*
X62703828Y-66767854D01*
X62564646Y-66628672D01*
X62405405Y-66512976D01*
X62365130Y-66492455D01*
X62230029Y-66423617D01*
X62042826Y-66362790D01*
X61848422Y-66332000D01*
X61848417Y-66332000D01*
X61651583Y-66332000D01*
X61651578Y-66332000D01*
X61457173Y-66362790D01*
X61269970Y-66423617D01*
X61094594Y-66512976D01*
X61074300Y-66527721D01*
X60935354Y-66628672D01*
X60935352Y-66628674D01*
X60935351Y-66628674D01*
X60796174Y-66767851D01*
X60796174Y-66767852D01*
X60796172Y-66767854D01*
X60746485Y-66836241D01*
X60680476Y-66927094D01*
X60591117Y-67102470D01*
X60530290Y-67289673D01*
X60499500Y-67484077D01*
X40125500Y-67484077D01*
X40125500Y-61642179D01*
X46565000Y-61642179D01*
X46565000Y-61857820D01*
X46598734Y-62070809D01*
X46665372Y-62275901D01*
X46763271Y-62468036D01*
X46805410Y-62526034D01*
X46805411Y-62526035D01*
X47415294Y-61916151D01*
X47427141Y-61960362D01*
X47498891Y-62084638D01*
X47600362Y-62186109D01*
X47724638Y-62257859D01*
X47768848Y-62269705D01*
X47158963Y-62879588D01*
X47158964Y-62879589D01*
X47216958Y-62921724D01*
X47216971Y-62921732D01*
X47409098Y-63019627D01*
X47614190Y-63086265D01*
X47827180Y-63120000D01*
X48042820Y-63120000D01*
X48255809Y-63086265D01*
X48460901Y-63019627D01*
X48653036Y-62921728D01*
X48711034Y-62879589D01*
X48711034Y-62879588D01*
X48101151Y-62269705D01*
X48145362Y-62257859D01*
X48269638Y-62186109D01*
X48371109Y-62084638D01*
X48442859Y-61960362D01*
X48454705Y-61916151D01*
X49064588Y-62526034D01*
X49104373Y-62471278D01*
X49159703Y-62428613D01*
X49229317Y-62422635D01*
X49291111Y-62455242D01*
X49305007Y-62471278D01*
X49429641Y-62642821D01*
X49582179Y-62795359D01*
X49756701Y-62922157D01*
X49948911Y-63020092D01*
X50154074Y-63086754D01*
X50233973Y-63099408D01*
X50367134Y-63120500D01*
X50367139Y-63120500D01*
X50582866Y-63120500D01*
X50701230Y-63101752D01*
X50795926Y-63086754D01*
X51001089Y-63020092D01*
X51193299Y-62922157D01*
X51367821Y-62795359D01*
X51520359Y-62642821D01*
X51644682Y-62471704D01*
X51700012Y-62429040D01*
X51769626Y-62423061D01*
X51831420Y-62455667D01*
X51845315Y-62471702D01*
X51969641Y-62642821D01*
X52122179Y-62795359D01*
X52296701Y-62922157D01*
X52488911Y-63020092D01*
X52694074Y-63086754D01*
X52773973Y-63099408D01*
X52907134Y-63120500D01*
X52907139Y-63120500D01*
X53122866Y-63120500D01*
X53241230Y-63101752D01*
X53335926Y-63086754D01*
X53541089Y-63020092D01*
X53733299Y-62922157D01*
X53907821Y-62795359D01*
X54049807Y-62653372D01*
X54111126Y-62619890D01*
X54180818Y-62624874D01*
X54236752Y-62666745D01*
X54249864Y-62688645D01*
X54250181Y-62689326D01*
X54250186Y-62689334D01*
X54342288Y-62838656D01*
X54466344Y-62962712D01*
X54615666Y-63054814D01*
X54782203Y-63109999D01*
X54884991Y-63120500D01*
X56225008Y-63120499D01*
X56327797Y-63109999D01*
X56494334Y-63054814D01*
X56643656Y-62962712D01*
X56767712Y-62838656D01*
X56859814Y-62689334D01*
X56914999Y-62522797D01*
X56918955Y-62484077D01*
X60499500Y-62484077D01*
X60499500Y-63480922D01*
X60530290Y-63675326D01*
X60591117Y-63862529D01*
X60635694Y-63950015D01*
X60680476Y-64037905D01*
X60796172Y-64197146D01*
X60935354Y-64336328D01*
X61094595Y-64452024D01*
X61174446Y-64492710D01*
X61269970Y-64541382D01*
X61269972Y-64541382D01*
X61269975Y-64541384D01*
X61349773Y-64567312D01*
X61457173Y-64602209D01*
X61651578Y-64633000D01*
X61651583Y-64633000D01*
X61848422Y-64633000D01*
X62042826Y-64602209D01*
X62044337Y-64601718D01*
X62230025Y-64541384D01*
X62405405Y-64452024D01*
X62564646Y-64336328D01*
X62703828Y-64197146D01*
X62819524Y-64037905D01*
X62908884Y-63862525D01*
X62969709Y-63675326D01*
X62984411Y-63582500D01*
X63000500Y-63480922D01*
X63000500Y-62484077D01*
X62969709Y-62289673D01*
X62914570Y-62119975D01*
X62908884Y-62102475D01*
X62908881Y-62102471D01*
X62908881Y-62102468D01*
X62900302Y-62085631D01*
X62900301Y-62085630D01*
X62873222Y-62032484D01*
X63999500Y-62032484D01*
X63999500Y-63932515D01*
X64010000Y-64035295D01*
X64010001Y-64035297D01*
X64015800Y-64052796D01*
X64065186Y-64201835D01*
X64065187Y-64201837D01*
X64157286Y-64351151D01*
X64157289Y-64351155D01*
X64281344Y-64475210D01*
X64281348Y-64475213D01*
X64430662Y-64567312D01*
X64430664Y-64567313D01*
X64430666Y-64567314D01*
X64597203Y-64622499D01*
X64699992Y-64633000D01*
X64699997Y-64633000D01*
X65800003Y-64633000D01*
X65800008Y-64633000D01*
X65902797Y-64622499D01*
X66069334Y-64567314D01*
X66218655Y-64475211D01*
X66342711Y-64351155D01*
X66434814Y-64201834D01*
X66489999Y-64035297D01*
X66500500Y-63932508D01*
X66500500Y-62484117D01*
X70160000Y-62484117D01*
X70160000Y-62732500D01*
X70861518Y-62732500D01*
X70850889Y-62750909D01*
X70810000Y-62903509D01*
X70810000Y-63061491D01*
X70850889Y-63214091D01*
X70861518Y-63232500D01*
X70160000Y-63232500D01*
X70160000Y-63480882D01*
X70190778Y-63675205D01*
X70251581Y-63862335D01*
X70340904Y-64037643D01*
X70456555Y-64196821D01*
X70595678Y-64335944D01*
X70754856Y-64451595D01*
X70930162Y-64540918D01*
X71117283Y-64601718D01*
X71160000Y-64608484D01*
X71160000Y-63530982D01*
X71178409Y-63541611D01*
X71331009Y-63582500D01*
X71488991Y-63582500D01*
X71641591Y-63541611D01*
X71660000Y-63530982D01*
X71660000Y-64608483D01*
X71702716Y-64601718D01*
X71889837Y-64540918D01*
X72065143Y-64451595D01*
X72224321Y-64335944D01*
X72363444Y-64196821D01*
X72479095Y-64037643D01*
X72568418Y-63862335D01*
X72629221Y-63675205D01*
X72660000Y-63480882D01*
X72660000Y-63232500D01*
X71958482Y-63232500D01*
X71969111Y-63214091D01*
X72010000Y-63061491D01*
X72010000Y-62903509D01*
X71969111Y-62750909D01*
X71958482Y-62732500D01*
X72660000Y-62732500D01*
X72660000Y-62484117D01*
X72629221Y-62289794D01*
X72568418Y-62102662D01*
X72559740Y-62085631D01*
X72559739Y-62085629D01*
X72532661Y-62032484D01*
X73659500Y-62032484D01*
X73659500Y-63932515D01*
X73670000Y-64035295D01*
X73670001Y-64035297D01*
X73675800Y-64052796D01*
X73725186Y-64201835D01*
X73725187Y-64201837D01*
X73817286Y-64351151D01*
X73817289Y-64351155D01*
X73941344Y-64475210D01*
X73941348Y-64475213D01*
X74090662Y-64567312D01*
X74090664Y-64567313D01*
X74090666Y-64567314D01*
X74257203Y-64622499D01*
X74359992Y-64633000D01*
X74359997Y-64633000D01*
X75460003Y-64633000D01*
X75460008Y-64633000D01*
X75562797Y-64622499D01*
X75729334Y-64567314D01*
X75878655Y-64475211D01*
X76002711Y-64351155D01*
X76094814Y-64201834D01*
X76149999Y-64035297D01*
X76160500Y-63932508D01*
X76160500Y-62032492D01*
X76149999Y-61929703D01*
X76094814Y-61763166D01*
X76086692Y-61749999D01*
X76002713Y-61613848D01*
X76002710Y-61613844D01*
X75878655Y-61489789D01*
X75878651Y-61489786D01*
X75729337Y-61397687D01*
X75729335Y-61397686D01*
X75646065Y-61370093D01*
X75562797Y-61342501D01*
X75562795Y-61342500D01*
X75460015Y-61332000D01*
X75460008Y-61332000D01*
X74359992Y-61332000D01*
X74359984Y-61332000D01*
X74257204Y-61342500D01*
X74257203Y-61342501D01*
X74090664Y-61397686D01*
X74090662Y-61397687D01*
X73941348Y-61489786D01*
X73941344Y-61489789D01*
X73817289Y-61613844D01*
X73817286Y-61613848D01*
X73725187Y-61763162D01*
X73725186Y-61763164D01*
X73670001Y-61929703D01*
X73670000Y-61929704D01*
X73659500Y-62032484D01*
X72532661Y-62032484D01*
X72479097Y-61927358D01*
X72363444Y-61768178D01*
X72224321Y-61629055D01*
X72065143Y-61513404D01*
X71889835Y-61424081D01*
X71702705Y-61363278D01*
X71660000Y-61356514D01*
X71660000Y-62434017D01*
X71641591Y-62423389D01*
X71488991Y-62382500D01*
X71331009Y-62382500D01*
X71178409Y-62423389D01*
X71160000Y-62434017D01*
X71160000Y-61356514D01*
X71159999Y-61356514D01*
X71117294Y-61363278D01*
X70930164Y-61424081D01*
X70754856Y-61513404D01*
X70595678Y-61629055D01*
X70456555Y-61768178D01*
X70340904Y-61927356D01*
X70251581Y-62102664D01*
X70190778Y-62289794D01*
X70160000Y-62484117D01*
X66500500Y-62484117D01*
X66500500Y-62032492D01*
X66489999Y-61929703D01*
X66434814Y-61763166D01*
X66426692Y-61749999D01*
X66342713Y-61613848D01*
X66342710Y-61613844D01*
X66218655Y-61489789D01*
X66218651Y-61489786D01*
X66069337Y-61397687D01*
X66069335Y-61397686D01*
X65986065Y-61370093D01*
X65902797Y-61342501D01*
X65902795Y-61342500D01*
X65800015Y-61332000D01*
X65800008Y-61332000D01*
X64699992Y-61332000D01*
X64699984Y-61332000D01*
X64597204Y-61342500D01*
X64597203Y-61342501D01*
X64430664Y-61397686D01*
X64430662Y-61397687D01*
X64281348Y-61489786D01*
X64281344Y-61489789D01*
X64157289Y-61613844D01*
X64157286Y-61613848D01*
X64065187Y-61763162D01*
X64065186Y-61763164D01*
X64010001Y-61929703D01*
X64010000Y-61929704D01*
X63999500Y-62032484D01*
X62873222Y-62032484D01*
X62819524Y-61927095D01*
X62703828Y-61767854D01*
X62564646Y-61628672D01*
X62405405Y-61512976D01*
X62359892Y-61489786D01*
X62230029Y-61423617D01*
X62042826Y-61362790D01*
X61848422Y-61332000D01*
X61848417Y-61332000D01*
X61651583Y-61332000D01*
X61651578Y-61332000D01*
X61457173Y-61362790D01*
X61269970Y-61423617D01*
X61094594Y-61512976D01*
X61070508Y-61530476D01*
X60935354Y-61628672D01*
X60935352Y-61628674D01*
X60935351Y-61628674D01*
X60796174Y-61767851D01*
X60796174Y-61767852D01*
X60796172Y-61767854D01*
X60757013Y-61821751D01*
X60680476Y-61927094D01*
X60591117Y-62102470D01*
X60530290Y-62289673D01*
X60499500Y-62484077D01*
X56918955Y-62484077D01*
X56925500Y-62420009D01*
X56925499Y-61079992D01*
X56914999Y-60977203D01*
X56859814Y-60810666D01*
X56767712Y-60661344D01*
X56643656Y-60537288D01*
X56494334Y-60445186D01*
X56327797Y-60390001D01*
X56327795Y-60390000D01*
X56225010Y-60379500D01*
X54884998Y-60379500D01*
X54884981Y-60379501D01*
X54782203Y-60390000D01*
X54782200Y-60390001D01*
X54615668Y-60445185D01*
X54615663Y-60445187D01*
X54466342Y-60537289D01*
X54342289Y-60661342D01*
X54250179Y-60810677D01*
X54249861Y-60811360D01*
X54249518Y-60811748D01*
X54246395Y-60816813D01*
X54245529Y-60816278D01*
X54203683Y-60863794D01*
X54136487Y-60882939D01*
X54069608Y-60862716D01*
X54049804Y-60846624D01*
X53907823Y-60704643D01*
X53907821Y-60704641D01*
X53733299Y-60577843D01*
X53541089Y-60479908D01*
X53335926Y-60413246D01*
X53335924Y-60413245D01*
X53335922Y-60413245D01*
X53122866Y-60379500D01*
X53122861Y-60379500D01*
X52907139Y-60379500D01*
X52907134Y-60379500D01*
X52694077Y-60413245D01*
X52488908Y-60479909D01*
X52296700Y-60577843D01*
X52238111Y-60620411D01*
X52122179Y-60704641D01*
X52122177Y-60704643D01*
X52122176Y-60704643D01*
X51969643Y-60857176D01*
X51969643Y-60857177D01*
X51969641Y-60857179D01*
X51892729Y-60963038D01*
X51845318Y-61028294D01*
X51789988Y-61070959D01*
X51720374Y-61076938D01*
X51658579Y-61044332D01*
X51644682Y-61028294D01*
X51607562Y-60977203D01*
X51520359Y-60857179D01*
X51367821Y-60704641D01*
X51193299Y-60577843D01*
X51001089Y-60479908D01*
X50795926Y-60413246D01*
X50795924Y-60413245D01*
X50795922Y-60413245D01*
X50582866Y-60379500D01*
X50582861Y-60379500D01*
X50367139Y-60379500D01*
X50367134Y-60379500D01*
X50154077Y-60413245D01*
X49948908Y-60479909D01*
X49756700Y-60577843D01*
X49698111Y-60620411D01*
X49582179Y-60704641D01*
X49582177Y-60704643D01*
X49582176Y-60704643D01*
X49429642Y-60857177D01*
X49305007Y-61028721D01*
X49249676Y-61071386D01*
X49180063Y-61077365D01*
X49118268Y-61044759D01*
X49104371Y-61028720D01*
X49064588Y-60973964D01*
X49064588Y-60973963D01*
X48454705Y-61583847D01*
X48442859Y-61539638D01*
X48371109Y-61415362D01*
X48269638Y-61313891D01*
X48145362Y-61242141D01*
X48101151Y-61230294D01*
X48711035Y-60620411D01*
X48711034Y-60620410D01*
X48653036Y-60578271D01*
X48460901Y-60480372D01*
X48255809Y-60413734D01*
X48042820Y-60380000D01*
X47827180Y-60380000D01*
X47614190Y-60413734D01*
X47409098Y-60480372D01*
X47216967Y-60578269D01*
X47158964Y-60620410D01*
X47768848Y-61230294D01*
X47724638Y-61242141D01*
X47600362Y-61313891D01*
X47498891Y-61415362D01*
X47427141Y-61539638D01*
X47415294Y-61583848D01*
X46805410Y-60973964D01*
X46763269Y-61031967D01*
X46665372Y-61224098D01*
X46598734Y-61429190D01*
X46565000Y-61642179D01*
X40125500Y-61642179D01*
X40125500Y-55253246D01*
X40125670Y-55246756D01*
X40126670Y-55227675D01*
X40149836Y-55161758D01*
X40204962Y-55118829D01*
X40274547Y-55112519D01*
X40336496Y-55144830D01*
X40371142Y-55205505D01*
X40374500Y-55234165D01*
X40374500Y-55404471D01*
X40409086Y-55711437D01*
X40409089Y-55711455D01*
X40477831Y-56012635D01*
X40477835Y-56012647D01*
X40579862Y-56304222D01*
X40579868Y-56304236D01*
X40713903Y-56582562D01*
X40713905Y-56582565D01*
X40878265Y-56844143D01*
X41070880Y-57085674D01*
X41289326Y-57304120D01*
X41530857Y-57496735D01*
X41792435Y-57661095D01*
X42070771Y-57795135D01*
X42070777Y-57795137D01*
X42362352Y-57897164D01*
X42362364Y-57897168D01*
X42663548Y-57965911D01*
X42663554Y-57965911D01*
X42663562Y-57965913D01*
X42868206Y-57988970D01*
X42970529Y-58000499D01*
X42970532Y-58000500D01*
X42970535Y-58000500D01*
X43279468Y-58000500D01*
X43279469Y-58000499D01*
X43436356Y-57982822D01*
X43586437Y-57965913D01*
X43586442Y-57965912D01*
X43586452Y-57965911D01*
X43887636Y-57897168D01*
X44179229Y-57795135D01*
X44457565Y-57661095D01*
X44719143Y-57496735D01*
X44960674Y-57304120D01*
X45179120Y-57085674D01*
X45371735Y-56844143D01*
X45536095Y-56582565D01*
X45670135Y-56304229D01*
X45772168Y-56012636D01*
X45840911Y-55711452D01*
X45875500Y-55404465D01*
X45875500Y-55095535D01*
X45863970Y-54993206D01*
X45840913Y-54788562D01*
X45840910Y-54788544D01*
X45772168Y-54487364D01*
X45772164Y-54487352D01*
X45670137Y-54195777D01*
X45670135Y-54195771D01*
X45536095Y-53917435D01*
X45371735Y-53655857D01*
X45179120Y-53414326D01*
X44960674Y-53195880D01*
X44719143Y-53003265D01*
X44457565Y-52838905D01*
X44457562Y-52838903D01*
X44179236Y-52704868D01*
X44179222Y-52704862D01*
X43887647Y-52602835D01*
X43887635Y-52602831D01*
X43586455Y-52534089D01*
X43586437Y-52534086D01*
X43279471Y-52499500D01*
X43279465Y-52499500D01*
X43109166Y-52499500D01*
X43078638Y-52490535D01*
X43047678Y-52483181D01*
X43045348Y-52480760D01*
X43042127Y-52479815D01*
X43021296Y-52455775D01*
X42999222Y-52432844D01*
X42998570Y-52429548D01*
X42996372Y-52427011D01*
X42991843Y-52395518D01*
X42985673Y-52364301D01*
X42986906Y-52361177D01*
X42986428Y-52357853D01*
X42999645Y-52328910D01*
X43011331Y-52299313D01*
X43014058Y-52297351D01*
X43015453Y-52294297D01*
X43042216Y-52277097D01*
X43068052Y-52258514D01*
X43072501Y-52257634D01*
X43074231Y-52256523D01*
X43102676Y-52251670D01*
X43121756Y-52250670D01*
X43128246Y-52250500D01*
X43190892Y-52250500D01*
X103059108Y-52250500D01*
X103121754Y-52250500D01*
X103128244Y-52250670D01*
G37*
G04 #@! TD.AperFunction*
M02*
