G04 #@! TF.GenerationSoftware,KiCad,Pcbnew,9.0.2*
G04 #@! TF.CreationDate,2025-11-18T17:36:02+08:00*
G04 #@! TF.ProjectId,rio module,72696f20-6d6f-4647-956c-652e6b696361,rev?*
G04 #@! TF.SameCoordinates,Original*
G04 #@! TF.FileFunction,Copper,L2,Bot*
G04 #@! TF.FilePolarity,Positive*
%FSLAX46Y46*%
G04 Gerber Fmt 4.6, Leading zero omitted, Abs format (unit mm)*
G04 Created by KiCad (PCBNEW 9.0.2) date 2025-11-18 17:36:02*
%MOMM*%
%LPD*%
G01*
G04 APERTURE LIST*
G04 Aperture macros list*
%AMRoundRect*
0 Rectangle with rounded corners*
0 $1 Rounding radius*
0 $2 $3 $4 $5 $6 $7 $8 $9 X,Y pos of 4 corners*
0 Add a 4 corners polygon primitive as box body*
4,1,4,$2,$3,$4,$5,$6,$7,$8,$9,$2,$3,0*
0 Add four circle primitives for the rounded corners*
1,1,$1+$1,$2,$3*
1,1,$1+$1,$4,$5*
1,1,$1+$1,$6,$7*
1,1,$1+$1,$8,$9*
0 Add four rect primitives between the rounded corners*
20,1,$1+$1,$2,$3,$4,$5,0*
20,1,$1+$1,$4,$5,$6,$7,0*
20,1,$1+$1,$6,$7,$8,$9,0*
20,1,$1+$1,$8,$9,$2,$3,0*%
%AMFreePoly0*
4,1,23,0.500000,-0.750000,0.000000,-0.750000,0.000000,-0.745722,-0.065263,-0.745722,-0.191342,-0.711940,-0.304381,-0.646677,-0.396677,-0.554381,-0.461940,-0.441342,-0.495722,-0.315263,-0.495722,-0.250000,-0.500000,-0.250000,-0.500000,0.250000,-0.495722,0.250000,-0.495722,0.315263,-0.461940,0.441342,-0.396677,0.554381,-0.304381,0.646677,-0.191342,0.711940,-0.065263,0.745722,0.000000,0.745722,
0.000000,0.750000,0.500000,0.750000,0.500000,-0.750000,0.500000,-0.750000,$1*%
%AMFreePoly1*
4,1,23,0.000000,0.745722,0.065263,0.745722,0.191342,0.711940,0.304381,0.646677,0.396677,0.554381,0.461940,0.441342,0.495722,0.315263,0.495722,0.250000,0.500000,0.250000,0.500000,-0.250000,0.495722,-0.250000,0.495722,-0.315263,0.461940,-0.441342,0.396677,-0.554381,0.304381,-0.646677,0.191342,-0.711940,0.065263,-0.745722,0.000000,-0.745722,0.000000,-0.750000,-0.500000,-0.750000,
-0.500000,0.750000,0.000000,0.750000,0.000000,0.745722,0.000000,0.745722,$1*%
G04 Aperture macros list end*
G04 #@! TA.AperFunction,ComponentPad*
%ADD10R,1.408000X1.408000*%
G04 #@! TD*
G04 #@! TA.AperFunction,ComponentPad*
%ADD11C,1.408000*%
G04 #@! TD*
G04 #@! TA.AperFunction,ComponentPad*
%ADD12C,2.400000*%
G04 #@! TD*
G04 #@! TA.AperFunction,ComponentPad*
%ADD13RoundRect,0.250000X0.620000X0.620000X-0.620000X0.620000X-0.620000X-0.620000X0.620000X-0.620000X0*%
G04 #@! TD*
G04 #@! TA.AperFunction,ComponentPad*
%ADD14C,1.740000*%
G04 #@! TD*
G04 #@! TA.AperFunction,ComponentPad*
%ADD15R,1.500000X2.300000*%
G04 #@! TD*
G04 #@! TA.AperFunction,ComponentPad*
%ADD16RoundRect,0.250001X0.499999X0.899999X-0.499999X0.899999X-0.499999X-0.899999X0.499999X-0.899999X0*%
G04 #@! TD*
G04 #@! TA.AperFunction,ComponentPad*
%ADD17O,1.500000X2.300000*%
G04 #@! TD*
G04 #@! TA.AperFunction,ComponentPad*
%ADD18C,1.600000*%
G04 #@! TD*
G04 #@! TA.AperFunction,ComponentPad*
%ADD19R,1.200000X1.200000*%
G04 #@! TD*
G04 #@! TA.AperFunction,ComponentPad*
%ADD20C,1.200000*%
G04 #@! TD*
G04 #@! TA.AperFunction,SMDPad,CuDef*
%ADD21FreePoly0,270.000000*%
G04 #@! TD*
G04 #@! TA.AperFunction,SMDPad,CuDef*
%ADD22FreePoly1,270.000000*%
G04 #@! TD*
G04 #@! TA.AperFunction,Conductor*
%ADD23C,0.200000*%
G04 #@! TD*
G04 #@! TA.AperFunction,Conductor*
%ADD24C,0.400000*%
G04 #@! TD*
G04 APERTURE END LIST*
D10*
X53290000Y-85810000D03*
D11*
X55070000Y-84790000D03*
X53290000Y-83770000D03*
X55070000Y-82750000D03*
X53290000Y-81730000D03*
X55070000Y-80710000D03*
X53290000Y-79690000D03*
X55070000Y-78670000D03*
X59890000Y-89100000D03*
X59890000Y-86810000D03*
X59890000Y-77670000D03*
X59890000Y-75380000D03*
D12*
X54180000Y-74115000D03*
X54180000Y-90365000D03*
D13*
X98305000Y-61750000D03*
D14*
X95765000Y-61750000D03*
X93225000Y-61750000D03*
X90685000Y-61750000D03*
D15*
X74910000Y-67982500D03*
D16*
X74910000Y-62982500D03*
D17*
X71410000Y-67982500D03*
X71410000Y-62982500D03*
D18*
X83547500Y-76170000D03*
X83547500Y-86330000D03*
D13*
X55555000Y-61750000D03*
D14*
X53015000Y-61750000D03*
X50475000Y-61750000D03*
X47935000Y-61750000D03*
D15*
X65250000Y-67982500D03*
D16*
X65250000Y-62982500D03*
D17*
X61750000Y-67982500D03*
X61750000Y-62982500D03*
D18*
X63000000Y-89000000D03*
X63000000Y-78840000D03*
D13*
X98305000Y-69500000D03*
D14*
X95765000Y-69500000D03*
X93225000Y-69500000D03*
X90685000Y-69500000D03*
D19*
X71855000Y-73940000D03*
D20*
X71855000Y-81560000D03*
X74395000Y-73940000D03*
X74395000Y-81560000D03*
D10*
X92960000Y-78680000D03*
D11*
X91180000Y-79700000D03*
X92960000Y-80720000D03*
X91180000Y-81740000D03*
X92960000Y-82760000D03*
X91180000Y-83780000D03*
X92960000Y-84800000D03*
X91180000Y-85820000D03*
X86360000Y-75390000D03*
X86360000Y-77680000D03*
X86360000Y-86820000D03*
X86360000Y-89110000D03*
D12*
X92070000Y-90375000D03*
X92070000Y-74125000D03*
D18*
X78205000Y-84250000D03*
X68045000Y-84250000D03*
D15*
X84580000Y-68000000D03*
D16*
X84580000Y-63000000D03*
D17*
X81080000Y-68000000D03*
X81080000Y-63000000D03*
D13*
X55555000Y-69500000D03*
D14*
X53015000Y-69500000D03*
X50475000Y-69500000D03*
X47935000Y-69500000D03*
D21*
X95750000Y-64600000D03*
D22*
X95750000Y-65900000D03*
D21*
X93250000Y-64600000D03*
D22*
X93250000Y-65900000D03*
D21*
X53000000Y-64600000D03*
D22*
X53000000Y-65900000D03*
D21*
X50500000Y-64600000D03*
D22*
X50500000Y-65900000D03*
D23*
X83547500Y-76170000D02*
X85580000Y-76170000D01*
X85580000Y-76170000D02*
X86360000Y-75390000D01*
X74000000Y-73000000D02*
X73060000Y-73940000D01*
X79012900Y-73000000D02*
X74000000Y-73000000D01*
X81080000Y-70932900D02*
X79012900Y-73000000D01*
X73060000Y-73940000D02*
X71855000Y-73940000D01*
X81080000Y-68000000D02*
X81080000Y-70932900D01*
X83000000Y-68000000D02*
X81481000Y-69519000D01*
X81481000Y-69519000D02*
X81481000Y-71099000D01*
X84580000Y-68000000D02*
X83000000Y-68000000D01*
X81481000Y-71099000D02*
X79179000Y-73401000D01*
X79179000Y-73401000D02*
X74934000Y-73401000D01*
X74934000Y-73401000D02*
X74395000Y-73940000D01*
D24*
X90722294Y-86925000D02*
X86360000Y-82562706D01*
X44500000Y-62500000D02*
X44500000Y-74980000D01*
X52009448Y-92750000D02*
X56750000Y-92750000D01*
X55555000Y-69500000D02*
X55555000Y-61750000D01*
X47250000Y-59750000D02*
X44500000Y-62500000D01*
X97034000Y-60479000D02*
X98305000Y-61750000D01*
X47250000Y-59750000D02*
X53555000Y-59750000D01*
X52669448Y-83770000D02*
X48699000Y-87740448D01*
X74910000Y-62982500D02*
X77413500Y-60479000D01*
X53555000Y-59750000D02*
X55555000Y-61750000D01*
X74910000Y-62982500D02*
X71677500Y-59750000D01*
X56750000Y-92750000D02*
X58785000Y-90715001D01*
X48699000Y-87740448D02*
X48699000Y-89439552D01*
X53290000Y-83770000D02*
X52669448Y-83770000D01*
X94065000Y-85257706D02*
X92397706Y-86925000D01*
X55580000Y-69475000D02*
X55555000Y-69500000D01*
X92397706Y-86925000D02*
X90722294Y-86925000D01*
X77413500Y-60479000D02*
X97034000Y-60479000D01*
X44500000Y-74980000D02*
X53290000Y-83770000D01*
X58785000Y-87915000D02*
X59890000Y-86810000D01*
X55555000Y-61750000D02*
X57555000Y-59750000D01*
X94065000Y-81825000D02*
X94065000Y-85257706D01*
X98305000Y-69500000D02*
X98305000Y-76767706D01*
X94352706Y-80720000D02*
X92960000Y-80720000D01*
X98305000Y-76767706D02*
X94352706Y-80720000D01*
X48699000Y-89439552D02*
X52009448Y-92750000D01*
X58785000Y-90715001D02*
X58785000Y-87915000D01*
X98305000Y-61750000D02*
X98305000Y-69500000D01*
X86360000Y-82562706D02*
X86360000Y-77680000D01*
X57555000Y-59750000D02*
X71677500Y-59750000D01*
X74910000Y-62982500D02*
X74910000Y-67982500D01*
X92960000Y-80720000D02*
X94065000Y-81825000D01*
D23*
X56075000Y-85206285D02*
X55471285Y-85810000D01*
X55471285Y-85810000D02*
X53290000Y-85810000D01*
X58401000Y-71898600D02*
X58401000Y-82026100D01*
X56075000Y-84352100D02*
X56075000Y-85206285D01*
X62185338Y-69433500D02*
X60866100Y-69433500D01*
X65250000Y-67982500D02*
X63636338Y-67982500D01*
X63636338Y-67982500D02*
X62185338Y-69433500D01*
X65250000Y-62982500D02*
X65250000Y-67982500D01*
X60866100Y-69433500D02*
X58401000Y-71898600D01*
X58401000Y-82026100D02*
X56075000Y-84352100D01*
X61750000Y-67982500D02*
X61750000Y-62982500D01*
X58000000Y-71732500D02*
X61750000Y-67982500D01*
X55070000Y-84790000D02*
X58000000Y-81860000D01*
X58000000Y-81860000D02*
X58000000Y-71732500D01*
X59890000Y-89100000D02*
X62900000Y-89100000D01*
X62900000Y-89100000D02*
X63000000Y-89000000D01*
X74395000Y-81560000D02*
X75515000Y-81560000D01*
X75515000Y-81560000D02*
X78205000Y-84250000D01*
X70735000Y-81560000D02*
X68045000Y-84250000D01*
X71855000Y-81560000D02*
X70735000Y-81560000D01*
X45500000Y-62528955D02*
X47528955Y-60500000D01*
X53290000Y-81730000D02*
X45500000Y-73940000D01*
X49128955Y-63228955D02*
X49128955Y-60628955D01*
X45500000Y-73940000D02*
X45500000Y-62528955D01*
X49128955Y-60628955D02*
X49000000Y-60500000D01*
X51765000Y-60500000D02*
X53015000Y-61750000D01*
X50500000Y-64600000D02*
X49128955Y-63228955D01*
X49000000Y-60500000D02*
X51765000Y-60500000D01*
X47528955Y-60500000D02*
X49000000Y-60500000D01*
X93873100Y-63794000D02*
X94694000Y-64614900D01*
X92666144Y-63794000D02*
X93873100Y-63794000D01*
X95750000Y-65900000D02*
X95750000Y-69485000D01*
X90185808Y-83352907D02*
X87849000Y-81016100D01*
X87849000Y-81016100D02*
X87849000Y-68611144D01*
X90175000Y-84196285D02*
X90175000Y-83363715D01*
X94694000Y-65599000D02*
X94995000Y-65900000D01*
X91180000Y-85201285D02*
X90175000Y-84196285D01*
X87849000Y-68611144D02*
X92666144Y-63794000D01*
X95750000Y-69485000D02*
X95765000Y-69500000D01*
X94995000Y-65900000D02*
X95750000Y-65900000D01*
X94694000Y-64614900D02*
X94694000Y-65599000D01*
X91180000Y-85820000D02*
X91180000Y-85201285D01*
X90175000Y-83363715D02*
X90185808Y-83352907D01*
X88250000Y-68845000D02*
X92495000Y-64600000D01*
X96936000Y-69985045D02*
X94921045Y-72000000D01*
X92495000Y-64600000D02*
X93250000Y-64600000D01*
X88250000Y-80850000D02*
X88250000Y-72000000D01*
X96936000Y-62921000D02*
X96936000Y-69985045D01*
X94921045Y-72000000D02*
X88250000Y-72000000D01*
X88250000Y-72000000D02*
X88250000Y-68845000D01*
X91180000Y-83780000D02*
X88250000Y-80850000D01*
X95765000Y-61750000D02*
X96936000Y-62921000D01*
X52145001Y-70369999D02*
X53015000Y-69500000D01*
X53000000Y-65900000D02*
X53000000Y-69485000D01*
X53290000Y-75670869D02*
X52145001Y-74525870D01*
X53290000Y-79690000D02*
X53290000Y-75670869D01*
X52145001Y-74525870D02*
X52145001Y-70369999D01*
X53000000Y-69485000D02*
X53015000Y-69500000D01*
X53000000Y-64275000D02*
X53000000Y-64600000D01*
X50475000Y-61750000D02*
X53000000Y-64275000D01*
X50500000Y-65900000D02*
X50500000Y-69475000D01*
X50500000Y-69475000D02*
X50475000Y-69500000D01*
X95750000Y-64600000D02*
X93225000Y-62075000D01*
X93225000Y-62075000D02*
X93225000Y-61750000D01*
X93250000Y-65900000D02*
X93250000Y-69475000D01*
X93250000Y-69475000D02*
X93225000Y-69500000D01*
G04 #@! TA.AperFunction,Conductor*
G36*
X97180662Y-70692131D02*
G01*
X97214243Y-70711050D01*
X97216339Y-70712707D01*
X97216344Y-70712712D01*
X97365666Y-70804814D01*
X97510800Y-70852906D01*
X97519504Y-70855791D01*
X97576949Y-70895564D01*
X97603772Y-70960080D01*
X97604500Y-70973497D01*
X97604500Y-76426187D01*
X97584815Y-76493226D01*
X97568185Y-76513863D01*
X97494536Y-76587513D01*
X97462534Y-76619515D01*
X97401211Y-76652999D01*
X97331519Y-76648015D01*
X97275586Y-76606143D01*
X97251169Y-76540678D01*
X97255078Y-76499739D01*
X97256052Y-76496104D01*
X97256054Y-76496100D01*
X97318838Y-76261789D01*
X97350500Y-76021288D01*
X97350500Y-75778712D01*
X97349183Y-75768712D01*
X97332627Y-75642949D01*
X97318838Y-75538211D01*
X97256054Y-75303900D01*
X97163224Y-75079788D01*
X97041936Y-74869711D01*
X96949084Y-74748704D01*
X96894266Y-74677263D01*
X96894260Y-74677256D01*
X96722743Y-74505739D01*
X96722736Y-74505733D01*
X96530293Y-74358067D01*
X96530292Y-74358066D01*
X96530289Y-74358064D01*
X96320212Y-74236776D01*
X96319362Y-74236424D01*
X96096104Y-74143947D01*
X95978944Y-74112554D01*
X95861789Y-74081162D01*
X95861788Y-74081161D01*
X95861785Y-74081161D01*
X95621289Y-74049500D01*
X95621288Y-74049500D01*
X95378712Y-74049500D01*
X95378711Y-74049500D01*
X95138214Y-74081161D01*
X94903895Y-74143947D01*
X94679794Y-74236773D01*
X94679785Y-74236777D01*
X94469706Y-74358067D01*
X94277263Y-74505733D01*
X94277256Y-74505739D01*
X94105739Y-74677256D01*
X94105733Y-74677263D01*
X93958067Y-74869706D01*
X93836777Y-75079785D01*
X93836773Y-75079794D01*
X93743947Y-75303895D01*
X93681161Y-75538214D01*
X93649500Y-75778711D01*
X93649500Y-76021288D01*
X93681161Y-76261785D01*
X93743947Y-76496104D01*
X93827870Y-76698712D01*
X93836776Y-76720212D01*
X93958064Y-76930289D01*
X93958066Y-76930292D01*
X93958067Y-76930293D01*
X94105733Y-77122736D01*
X94105739Y-77122743D01*
X94277256Y-77294260D01*
X94277262Y-77294265D01*
X94469711Y-77441936D01*
X94679788Y-77563224D01*
X94903900Y-77656054D01*
X95138211Y-77718838D01*
X95302753Y-77740500D01*
X95378711Y-77750500D01*
X95378712Y-77750500D01*
X95621289Y-77750500D01*
X95669388Y-77744167D01*
X95861789Y-77718838D01*
X96096100Y-77656054D01*
X96096106Y-77656051D01*
X96099739Y-77655078D01*
X96169589Y-77656741D01*
X96227452Y-77695903D01*
X96254956Y-77760131D01*
X96243370Y-77829034D01*
X96219514Y-77862534D01*
X94297775Y-79784273D01*
X94236452Y-79817758D01*
X94166760Y-79812774D01*
X94110827Y-79770902D01*
X94086410Y-79705438D01*
X94101262Y-79637165D01*
X94105369Y-79630773D01*
X94107793Y-79626334D01*
X94107796Y-79626331D01*
X94158091Y-79491483D01*
X94164500Y-79431873D01*
X94164499Y-77928128D01*
X94158091Y-77868517D01*
X94156726Y-77864858D01*
X94107797Y-77733671D01*
X94107793Y-77733664D01*
X94021547Y-77618455D01*
X94021544Y-77618452D01*
X93906335Y-77532206D01*
X93906328Y-77532202D01*
X93771482Y-77481908D01*
X93771483Y-77481908D01*
X93711883Y-77475501D01*
X93711881Y-77475500D01*
X93711873Y-77475500D01*
X93711864Y-77475500D01*
X92208129Y-77475500D01*
X92208123Y-77475501D01*
X92148516Y-77481908D01*
X92013671Y-77532202D01*
X92013664Y-77532206D01*
X91898455Y-77618452D01*
X91898452Y-77618455D01*
X91812206Y-77733664D01*
X91812202Y-77733671D01*
X91761908Y-77868517D01*
X91760102Y-77885321D01*
X91755501Y-77928123D01*
X91755500Y-77928135D01*
X91755500Y-78449833D01*
X91735815Y-78516872D01*
X91683011Y-78562627D01*
X91613853Y-78572571D01*
X91593182Y-78567764D01*
X91462052Y-78525157D01*
X91274800Y-78495500D01*
X91274796Y-78495500D01*
X91085204Y-78495500D01*
X91085200Y-78495500D01*
X90897949Y-78525157D01*
X90897946Y-78525157D01*
X90897945Y-78525158D01*
X90865864Y-78535582D01*
X90717627Y-78583747D01*
X90548703Y-78669819D01*
X90395319Y-78781260D01*
X90261260Y-78915319D01*
X90149819Y-79068703D01*
X90063747Y-79237627D01*
X90005157Y-79417949D01*
X89975500Y-79605199D01*
X89975500Y-79794800D01*
X90005157Y-79982050D01*
X90005158Y-79982055D01*
X90017325Y-80019500D01*
X90063747Y-80162372D01*
X90107190Y-80247632D01*
X90149819Y-80331296D01*
X90261259Y-80484679D01*
X90395321Y-80618741D01*
X90421255Y-80637583D01*
X90467958Y-80671515D01*
X90481778Y-80689438D01*
X90482385Y-80688832D01*
X91091414Y-81297861D01*
X91006306Y-81320667D01*
X90903694Y-81379910D01*
X90819910Y-81463694D01*
X90760667Y-81566306D01*
X90737861Y-81651414D01*
X90169253Y-81082806D01*
X90150245Y-81108969D01*
X90064210Y-81277821D01*
X90005646Y-81458059D01*
X90002923Y-81475254D01*
X89972991Y-81538387D01*
X89913679Y-81575317D01*
X89843816Y-81574317D01*
X89792769Y-81543533D01*
X88886819Y-80637583D01*
X88853334Y-80576260D01*
X88850500Y-80549902D01*
X88850500Y-72724500D01*
X88870185Y-72657461D01*
X88922989Y-72611706D01*
X88974500Y-72600500D01*
X90935593Y-72600500D01*
X91002632Y-72620185D01*
X91048387Y-72672989D01*
X91059328Y-72732610D01*
X91057595Y-72759042D01*
X91707706Y-73409152D01*
X91691058Y-73416049D01*
X91560030Y-73503599D01*
X91448599Y-73615030D01*
X91361049Y-73746058D01*
X91354153Y-73762706D01*
X90704042Y-73112595D01*
X90653462Y-73178511D01*
X90542054Y-73371479D01*
X90542045Y-73371497D01*
X90456763Y-73577381D01*
X90399088Y-73792632D01*
X90399085Y-73792645D01*
X90370000Y-74013575D01*
X90370000Y-74236424D01*
X90399085Y-74457354D01*
X90399088Y-74457367D01*
X90456763Y-74672618D01*
X90542045Y-74878502D01*
X90542054Y-74878520D01*
X90653464Y-75071491D01*
X90653473Y-75071504D01*
X90704040Y-75137403D01*
X90704043Y-75137403D01*
X91354152Y-74487293D01*
X91361049Y-74503942D01*
X91448599Y-74634970D01*
X91560030Y-74746401D01*
X91691058Y-74833951D01*
X91707705Y-74840846D01*
X91057595Y-75490955D01*
X91057595Y-75490956D01*
X91123507Y-75541533D01*
X91316485Y-75652949D01*
X91316497Y-75652954D01*
X91522381Y-75738236D01*
X91737632Y-75795911D01*
X91737645Y-75795914D01*
X91958575Y-75825000D01*
X92181425Y-75825000D01*
X92402354Y-75795914D01*
X92402367Y-75795911D01*
X92617618Y-75738236D01*
X92823502Y-75652954D01*
X92823514Y-75652949D01*
X93016498Y-75541530D01*
X93082403Y-75490957D01*
X93082404Y-75490956D01*
X92432294Y-74840846D01*
X92448942Y-74833951D01*
X92579970Y-74746401D01*
X92691401Y-74634970D01*
X92778951Y-74503942D01*
X92785846Y-74487294D01*
X93435956Y-75137404D01*
X93435957Y-75137403D01*
X93486530Y-75071498D01*
X93597949Y-74878514D01*
X93597954Y-74878502D01*
X93683236Y-74672618D01*
X93740911Y-74457367D01*
X93740914Y-74457354D01*
X93770000Y-74236424D01*
X93770000Y-74013575D01*
X93740914Y-73792645D01*
X93740911Y-73792632D01*
X93683236Y-73577381D01*
X93597954Y-73371497D01*
X93597949Y-73371485D01*
X93486533Y-73178507D01*
X93435956Y-73112595D01*
X93435955Y-73112595D01*
X92785846Y-73762704D01*
X92778951Y-73746058D01*
X92691401Y-73615030D01*
X92579970Y-73503599D01*
X92448942Y-73416049D01*
X92432293Y-73409152D01*
X93082403Y-72759043D01*
X93080671Y-72732610D01*
X93095929Y-72664427D01*
X93145628Y-72615316D01*
X93204406Y-72600500D01*
X94834376Y-72600500D01*
X94834392Y-72600501D01*
X94841988Y-72600501D01*
X95000099Y-72600501D01*
X95000102Y-72600501D01*
X95152830Y-72559577D01*
X95202949Y-72530639D01*
X95289761Y-72480520D01*
X95401565Y-72368716D01*
X95401565Y-72368714D01*
X95411773Y-72358507D01*
X95411774Y-72358504D01*
X97049649Y-70720630D01*
X97110970Y-70687147D01*
X97180662Y-70692131D01*
G37*
G04 #@! TD.AperFunction*
G04 #@! TA.AperFunction,Conductor*
G36*
X47427141Y-61960362D02*
G01*
X47498891Y-62084638D01*
X47600362Y-62186109D01*
X47724638Y-62257859D01*
X47768846Y-62269704D01*
X47158963Y-62879588D01*
X47158964Y-62879589D01*
X47216958Y-62921724D01*
X47216971Y-62921732D01*
X47409098Y-63019627D01*
X47614190Y-63086265D01*
X47827180Y-63120000D01*
X48042820Y-63120000D01*
X48255809Y-63086266D01*
X48366135Y-63050418D01*
X48435976Y-63048422D01*
X48495809Y-63084502D01*
X48526638Y-63147203D01*
X48528454Y-63168349D01*
X48528454Y-63308009D01*
X48528453Y-63308009D01*
X48569379Y-63460744D01*
X48569380Y-63460745D01*
X48591130Y-63498416D01*
X48591131Y-63498418D01*
X48648430Y-63597664D01*
X48648436Y-63597672D01*
X48767304Y-63716540D01*
X48767310Y-63716545D01*
X49251756Y-64200991D01*
X49285241Y-64262314D01*
X49283850Y-64320765D01*
X49261725Y-64403338D01*
X49244500Y-64534166D01*
X49244500Y-65100002D01*
X49249644Y-65171939D01*
X49260603Y-65209262D01*
X49264363Y-65261841D01*
X49244500Y-65399998D01*
X49244500Y-65965833D01*
X49260266Y-66085582D01*
X49261725Y-66096662D01*
X49295800Y-66223829D01*
X49344312Y-66340947D01*
X49346302Y-66345750D01*
X49346303Y-66345751D01*
X49412120Y-66459749D01*
X49412132Y-66459767D01*
X49453290Y-66513404D01*
X49492459Y-66564449D01*
X49585551Y-66657541D01*
X49585555Y-66657544D01*
X49690232Y-66737867D01*
X49690236Y-66737869D01*
X49690243Y-66737875D01*
X49690250Y-66737879D01*
X49804249Y-66803697D01*
X49804257Y-66803701D01*
X49822951Y-66811444D01*
X49877355Y-66855284D01*
X49899421Y-66921578D01*
X49899500Y-66926006D01*
X49899500Y-68179095D01*
X49879815Y-68246134D01*
X49831796Y-68289579D01*
X49756703Y-68327841D01*
X49679731Y-68383765D01*
X49582179Y-68454641D01*
X49582177Y-68454643D01*
X49582176Y-68454643D01*
X49429642Y-68607177D01*
X49305007Y-68778721D01*
X49249676Y-68821386D01*
X49180063Y-68827365D01*
X49118268Y-68794759D01*
X49104371Y-68778720D01*
X49064588Y-68723964D01*
X49064588Y-68723963D01*
X48454705Y-69333847D01*
X48442859Y-69289638D01*
X48371109Y-69165362D01*
X48269638Y-69063891D01*
X48145362Y-68992141D01*
X48101151Y-68980294D01*
X48711035Y-68370411D01*
X48711034Y-68370410D01*
X48653036Y-68328271D01*
X48460901Y-68230372D01*
X48255809Y-68163734D01*
X48042820Y-68130000D01*
X47827180Y-68130000D01*
X47614190Y-68163734D01*
X47409098Y-68230372D01*
X47216967Y-68328269D01*
X47158964Y-68370410D01*
X47768848Y-68980294D01*
X47724638Y-68992141D01*
X47600362Y-69063891D01*
X47498891Y-69165362D01*
X47427141Y-69289638D01*
X47415294Y-69333848D01*
X46805410Y-68723964D01*
X46763269Y-68781967D01*
X46665372Y-68974098D01*
X46598734Y-69179190D01*
X46565000Y-69392179D01*
X46565000Y-69607820D01*
X46598734Y-69820809D01*
X46665372Y-70025901D01*
X46763271Y-70218036D01*
X46805410Y-70276034D01*
X46805411Y-70276035D01*
X47415294Y-69666151D01*
X47427141Y-69710362D01*
X47498891Y-69834638D01*
X47600362Y-69936109D01*
X47724638Y-70007859D01*
X47768848Y-70019705D01*
X47158963Y-70629588D01*
X47158964Y-70629589D01*
X47216958Y-70671724D01*
X47216971Y-70671732D01*
X47409098Y-70769627D01*
X47614190Y-70836265D01*
X47827180Y-70870000D01*
X48042820Y-70870000D01*
X48255809Y-70836265D01*
X48460901Y-70769627D01*
X48653036Y-70671728D01*
X48711034Y-70629589D01*
X48711034Y-70629588D01*
X48101151Y-70019705D01*
X48145362Y-70007859D01*
X48269638Y-69936109D01*
X48371109Y-69834638D01*
X48442859Y-69710362D01*
X48454705Y-69666151D01*
X49064588Y-70276034D01*
X49104373Y-70221278D01*
X49159703Y-70178613D01*
X49229317Y-70172635D01*
X49291111Y-70205242D01*
X49305007Y-70221278D01*
X49429641Y-70392821D01*
X49582179Y-70545359D01*
X49756701Y-70672157D01*
X49948911Y-70770092D01*
X50154074Y-70836754D01*
X50233973Y-70849408D01*
X50367134Y-70870500D01*
X50367139Y-70870500D01*
X50582866Y-70870500D01*
X50701230Y-70851752D01*
X50795926Y-70836754D01*
X51001089Y-70770092D01*
X51193299Y-70672157D01*
X51347619Y-70560036D01*
X51413421Y-70536558D01*
X51481475Y-70552383D01*
X51530170Y-70602488D01*
X51544501Y-70660356D01*
X51544501Y-74030546D01*
X51524816Y-74097585D01*
X51472012Y-74143340D01*
X51402854Y-74153284D01*
X51373051Y-74145108D01*
X51346106Y-74133948D01*
X51346102Y-74133947D01*
X51346100Y-74133946D01*
X51111789Y-74071162D01*
X51111788Y-74071161D01*
X51111785Y-74071161D01*
X50871289Y-74039500D01*
X50871288Y-74039500D01*
X50628712Y-74039500D01*
X50628711Y-74039500D01*
X50388214Y-74071161D01*
X50153895Y-74133947D01*
X49929794Y-74226773D01*
X49929785Y-74226777D01*
X49719706Y-74348067D01*
X49527263Y-74495733D01*
X49527256Y-74495739D01*
X49355739Y-74667256D01*
X49355733Y-74667263D01*
X49208067Y-74859706D01*
X49208064Y-74859710D01*
X49208064Y-74859711D01*
X49197215Y-74878502D01*
X49086777Y-75069785D01*
X49086773Y-75069794D01*
X48993947Y-75293895D01*
X48931161Y-75528214D01*
X48899500Y-75768711D01*
X48899500Y-76011288D01*
X48924438Y-76200717D01*
X48913672Y-76269752D01*
X48867292Y-76322008D01*
X48800023Y-76340893D01*
X48733223Y-76320412D01*
X48713818Y-76304583D01*
X47546639Y-75137404D01*
X46136819Y-73727583D01*
X46103334Y-73666260D01*
X46100500Y-73639902D01*
X46100500Y-62829052D01*
X46120185Y-62762013D01*
X46136819Y-62741371D01*
X46264098Y-62614092D01*
X46523398Y-62354791D01*
X46584719Y-62321308D01*
X46654410Y-62326292D01*
X46710344Y-62368163D01*
X46721561Y-62386178D01*
X46763269Y-62468033D01*
X46805410Y-62526034D01*
X46805410Y-62526035D01*
X47415294Y-61916151D01*
X47427141Y-61960362D01*
G37*
G04 #@! TD.AperFunction*
G04 #@! TA.AperFunction,Conductor*
G36*
X89462753Y-68583994D02*
G01*
X89518687Y-68625865D01*
X89543104Y-68691330D01*
X89528252Y-68759603D01*
X89519741Y-68773058D01*
X89513271Y-68781962D01*
X89415372Y-68974098D01*
X89348734Y-69179190D01*
X89315000Y-69392179D01*
X89315000Y-69607820D01*
X89348734Y-69820809D01*
X89415372Y-70025901D01*
X89513271Y-70218036D01*
X89555410Y-70276034D01*
X89555410Y-70276035D01*
X90165294Y-69666150D01*
X90177141Y-69710362D01*
X90248891Y-69834638D01*
X90350362Y-69936109D01*
X90474638Y-70007859D01*
X90518848Y-70019705D01*
X89908963Y-70629588D01*
X89908964Y-70629589D01*
X89966958Y-70671724D01*
X89966971Y-70671732D01*
X90159098Y-70769627D01*
X90364190Y-70836265D01*
X90577180Y-70870000D01*
X90792820Y-70870000D01*
X91005809Y-70836265D01*
X91210901Y-70769627D01*
X91403036Y-70671728D01*
X91461034Y-70629589D01*
X91461034Y-70629588D01*
X90851151Y-70019705D01*
X90895362Y-70007859D01*
X91019638Y-69936109D01*
X91121109Y-69834638D01*
X91192859Y-69710362D01*
X91204705Y-69666151D01*
X91814588Y-70276034D01*
X91854373Y-70221278D01*
X91909703Y-70178613D01*
X91979317Y-70172635D01*
X92041111Y-70205242D01*
X92055007Y-70221278D01*
X92179641Y-70392821D01*
X92332179Y-70545359D01*
X92506701Y-70672157D01*
X92698911Y-70770092D01*
X92904074Y-70836754D01*
X92983973Y-70849408D01*
X93117134Y-70870500D01*
X93117139Y-70870500D01*
X93332866Y-70870500D01*
X93451230Y-70851752D01*
X93545926Y-70836754D01*
X93751089Y-70770092D01*
X93943299Y-70672157D01*
X94117821Y-70545359D01*
X94270359Y-70392821D01*
X94394682Y-70221704D01*
X94450012Y-70179040D01*
X94519626Y-70173061D01*
X94581420Y-70205667D01*
X94595315Y-70221702D01*
X94719641Y-70392821D01*
X94872179Y-70545359D01*
X94988110Y-70629588D01*
X95046702Y-70672158D01*
X95128446Y-70713808D01*
X95179243Y-70761782D01*
X95196038Y-70829603D01*
X95173501Y-70895738D01*
X95159834Y-70911974D01*
X95081726Y-70990083D01*
X94708627Y-71363182D01*
X94647306Y-71396666D01*
X94620948Y-71399500D01*
X88974500Y-71399500D01*
X88907461Y-71379815D01*
X88861706Y-71327011D01*
X88850500Y-71275500D01*
X88850500Y-69145097D01*
X88870185Y-69078058D01*
X88886819Y-69057416D01*
X89081900Y-68862335D01*
X89331741Y-68612493D01*
X89393062Y-68579010D01*
X89462753Y-68583994D01*
G37*
G04 #@! TD.AperFunction*
G04 #@! TA.AperFunction,Conductor*
G36*
X91956182Y-66090566D02*
G01*
X92012115Y-66132438D01*
X92032622Y-66174652D01*
X92045798Y-66223825D01*
X92096302Y-66345750D01*
X92096303Y-66345751D01*
X92162120Y-66459749D01*
X92162132Y-66459767D01*
X92203290Y-66513404D01*
X92242459Y-66564449D01*
X92335551Y-66657541D01*
X92335555Y-66657544D01*
X92440232Y-66737867D01*
X92440236Y-66737869D01*
X92440243Y-66737875D01*
X92440250Y-66737879D01*
X92554249Y-66803697D01*
X92554257Y-66803701D01*
X92572951Y-66811444D01*
X92627355Y-66855284D01*
X92649421Y-66921578D01*
X92649500Y-66926006D01*
X92649500Y-68179095D01*
X92629815Y-68246134D01*
X92581796Y-68289579D01*
X92506703Y-68327841D01*
X92429731Y-68383765D01*
X92332179Y-68454641D01*
X92332177Y-68454643D01*
X92332176Y-68454643D01*
X92179642Y-68607177D01*
X92055007Y-68778721D01*
X91999676Y-68821386D01*
X91930063Y-68827365D01*
X91868268Y-68794759D01*
X91854371Y-68778720D01*
X91814588Y-68723964D01*
X91814588Y-68723963D01*
X91204705Y-69333847D01*
X91192859Y-69289638D01*
X91121109Y-69165362D01*
X91019638Y-69063891D01*
X90895362Y-68992141D01*
X90851150Y-68980294D01*
X91461035Y-68370410D01*
X91403036Y-68328271D01*
X91210901Y-68230372D01*
X91005809Y-68163734D01*
X90792820Y-68130000D01*
X90577180Y-68130000D01*
X90364190Y-68163734D01*
X90159098Y-68230372D01*
X89966962Y-68328271D01*
X89958058Y-68334741D01*
X89892251Y-68358218D01*
X89824197Y-68342390D01*
X89775504Y-68292283D01*
X89761631Y-68223804D01*
X89786983Y-68158696D01*
X89797487Y-68146747D01*
X91825169Y-66119065D01*
X91886490Y-66085582D01*
X91956182Y-66090566D01*
G37*
G04 #@! TD.AperFunction*
G04 #@! TA.AperFunction,Conductor*
G36*
X103128244Y-52250670D02*
G01*
X103147324Y-52251670D01*
X103213241Y-52274836D01*
X103256170Y-52329963D01*
X103262480Y-52399547D01*
X103230168Y-52461496D01*
X103169494Y-52496143D01*
X103140834Y-52499500D01*
X102970528Y-52499500D01*
X102663562Y-52534086D01*
X102663544Y-52534089D01*
X102362364Y-52602831D01*
X102362352Y-52602835D01*
X102070777Y-52704862D01*
X102070763Y-52704868D01*
X101792437Y-52838903D01*
X101530858Y-53003264D01*
X101289326Y-53195879D01*
X101070879Y-53414326D01*
X100878264Y-53655858D01*
X100713903Y-53917437D01*
X100579868Y-54195763D01*
X100579862Y-54195777D01*
X100477835Y-54487352D01*
X100477831Y-54487364D01*
X100409089Y-54788544D01*
X100409086Y-54788562D01*
X100374500Y-55095528D01*
X100374500Y-55404471D01*
X100409086Y-55711437D01*
X100409089Y-55711455D01*
X100477831Y-56012635D01*
X100477835Y-56012647D01*
X100579862Y-56304222D01*
X100579868Y-56304236D01*
X100713903Y-56582562D01*
X100713905Y-56582565D01*
X100878265Y-56844143D01*
X101070880Y-57085674D01*
X101289326Y-57304120D01*
X101530857Y-57496735D01*
X101792435Y-57661095D01*
X102070771Y-57795135D01*
X102070777Y-57795137D01*
X102362352Y-57897164D01*
X102362364Y-57897168D01*
X102663548Y-57965911D01*
X102663554Y-57965911D01*
X102663562Y-57965913D01*
X102868206Y-57988970D01*
X102970529Y-58000499D01*
X102970532Y-58000500D01*
X102970535Y-58000500D01*
X103279468Y-58000500D01*
X103279469Y-58000499D01*
X103436356Y-57982822D01*
X103586437Y-57965913D01*
X103586442Y-57965912D01*
X103586452Y-57965911D01*
X103887636Y-57897168D01*
X104179229Y-57795135D01*
X104457565Y-57661095D01*
X104719143Y-57496735D01*
X104960674Y-57304120D01*
X105179120Y-57085674D01*
X105371735Y-56844143D01*
X105536095Y-56582565D01*
X105670135Y-56304229D01*
X105772168Y-56012636D01*
X105840911Y-55711452D01*
X105875500Y-55404465D01*
X105875500Y-55234165D01*
X105884464Y-55203637D01*
X105891819Y-55172677D01*
X105894239Y-55170347D01*
X105895185Y-55167126D01*
X105919224Y-55146295D01*
X105942156Y-55124221D01*
X105945451Y-55123569D01*
X105947989Y-55121371D01*
X105979481Y-55116842D01*
X106010699Y-55110672D01*
X106013822Y-55111905D01*
X106017147Y-55111427D01*
X106046098Y-55124648D01*
X106075687Y-55136331D01*
X106077647Y-55139056D01*
X106080703Y-55140452D01*
X106097905Y-55167219D01*
X106116486Y-55193051D01*
X106117365Y-55197500D01*
X106118477Y-55199230D01*
X106123330Y-55227675D01*
X106124330Y-55246756D01*
X106124500Y-55253246D01*
X106124500Y-95246753D01*
X106124330Y-95253243D01*
X106123330Y-95272324D01*
X106100164Y-95338241D01*
X106045038Y-95381170D01*
X105975453Y-95387480D01*
X105913504Y-95355169D01*
X105878858Y-95294494D01*
X105875500Y-95265834D01*
X105875500Y-95095532D01*
X105875499Y-95095528D01*
X105840913Y-94788562D01*
X105840910Y-94788544D01*
X105772168Y-94487364D01*
X105772164Y-94487352D01*
X105670137Y-94195777D01*
X105670135Y-94195771D01*
X105536095Y-93917435D01*
X105371735Y-93655857D01*
X105179120Y-93414326D01*
X104960674Y-93195880D01*
X104719143Y-93003265D01*
X104457565Y-92838905D01*
X104457562Y-92838903D01*
X104179236Y-92704868D01*
X104179222Y-92704862D01*
X103887647Y-92602835D01*
X103887635Y-92602831D01*
X103586455Y-92534089D01*
X103586437Y-92534086D01*
X103279471Y-92499500D01*
X103279465Y-92499500D01*
X102970535Y-92499500D01*
X102970528Y-92499500D01*
X102663562Y-92534086D01*
X102663544Y-92534089D01*
X102362364Y-92602831D01*
X102362352Y-92602835D01*
X102070777Y-92704862D01*
X102070763Y-92704868D01*
X101792437Y-92838903D01*
X101530858Y-93003264D01*
X101289326Y-93195879D01*
X101070879Y-93414326D01*
X100878264Y-93655858D01*
X100713903Y-93917437D01*
X100579868Y-94195763D01*
X100579862Y-94195777D01*
X100477835Y-94487352D01*
X100477831Y-94487364D01*
X100409089Y-94788544D01*
X100409086Y-94788562D01*
X100374500Y-95095528D01*
X100374500Y-95404471D01*
X100409086Y-95711437D01*
X100409089Y-95711455D01*
X100477831Y-96012635D01*
X100477835Y-96012647D01*
X100579862Y-96304222D01*
X100579868Y-96304236D01*
X100713903Y-96582562D01*
X100713905Y-96582565D01*
X100878265Y-96844143D01*
X101070880Y-97085674D01*
X101289326Y-97304120D01*
X101530857Y-97496735D01*
X101792435Y-97661095D01*
X102070771Y-97795135D01*
X102070777Y-97795137D01*
X102362352Y-97897164D01*
X102362364Y-97897168D01*
X102663548Y-97965911D01*
X102663554Y-97965911D01*
X102663562Y-97965913D01*
X102868206Y-97988970D01*
X102970529Y-98000499D01*
X102970532Y-98000500D01*
X103140834Y-98000500D01*
X103171361Y-98009464D01*
X103202322Y-98016819D01*
X103204651Y-98019239D01*
X103207873Y-98020185D01*
X103228703Y-98044224D01*
X103250778Y-98067156D01*
X103251429Y-98070451D01*
X103253628Y-98072989D01*
X103258156Y-98104481D01*
X103264327Y-98135699D01*
X103263093Y-98138822D01*
X103263572Y-98142147D01*
X103250354Y-98171089D01*
X103238669Y-98200687D01*
X103235941Y-98202648D01*
X103234547Y-98205703D01*
X103207783Y-98222902D01*
X103181948Y-98241486D01*
X103177498Y-98242365D01*
X103175769Y-98243477D01*
X103147324Y-98248330D01*
X103128244Y-98249330D01*
X103121754Y-98249500D01*
X43128246Y-98249500D01*
X43121756Y-98249330D01*
X43102676Y-98248330D01*
X43036759Y-98225164D01*
X42993830Y-98170037D01*
X42987520Y-98100453D01*
X43019832Y-98038504D01*
X43080506Y-98003857D01*
X43109166Y-98000500D01*
X43279468Y-98000500D01*
X43279469Y-98000499D01*
X43436356Y-97982822D01*
X43586437Y-97965913D01*
X43586442Y-97965912D01*
X43586452Y-97965911D01*
X43887636Y-97897168D01*
X44179229Y-97795135D01*
X44457565Y-97661095D01*
X44719143Y-97496735D01*
X44960674Y-97304120D01*
X45179120Y-97085674D01*
X45371735Y-96844143D01*
X45536095Y-96582565D01*
X45670135Y-96304229D01*
X45772168Y-96012636D01*
X45840911Y-95711452D01*
X45875500Y-95404465D01*
X45875500Y-95095535D01*
X45840911Y-94788548D01*
X45772168Y-94487364D01*
X45670135Y-94195771D01*
X45536095Y-93917435D01*
X45371735Y-93655857D01*
X45179120Y-93414326D01*
X44960674Y-93195880D01*
X44719143Y-93003265D01*
X44457565Y-92838905D01*
X44457562Y-92838903D01*
X44179236Y-92704868D01*
X44179222Y-92704862D01*
X43887647Y-92602835D01*
X43887635Y-92602831D01*
X43586455Y-92534089D01*
X43586437Y-92534086D01*
X43279471Y-92499500D01*
X43279465Y-92499500D01*
X42970535Y-92499500D01*
X42970528Y-92499500D01*
X42663562Y-92534086D01*
X42663544Y-92534089D01*
X42362364Y-92602831D01*
X42362352Y-92602835D01*
X42070777Y-92704862D01*
X42070763Y-92704868D01*
X41792437Y-92838903D01*
X41530858Y-93003264D01*
X41289326Y-93195879D01*
X41070879Y-93414326D01*
X40878264Y-93655858D01*
X40713903Y-93917437D01*
X40579868Y-94195763D01*
X40579862Y-94195777D01*
X40477835Y-94487352D01*
X40477831Y-94487364D01*
X40409089Y-94788544D01*
X40409086Y-94788562D01*
X40374500Y-95095528D01*
X40374500Y-95265834D01*
X40365535Y-95296361D01*
X40358181Y-95327322D01*
X40355760Y-95329651D01*
X40354815Y-95332873D01*
X40330775Y-95353703D01*
X40307844Y-95375778D01*
X40304548Y-95376429D01*
X40302011Y-95378628D01*
X40270518Y-95383156D01*
X40239301Y-95389327D01*
X40236177Y-95388093D01*
X40232853Y-95388572D01*
X40203901Y-95375350D01*
X40174313Y-95363668D01*
X40172352Y-95360942D01*
X40169297Y-95359547D01*
X40152094Y-95332779D01*
X40133514Y-95306948D01*
X40132634Y-95302498D01*
X40131523Y-95300769D01*
X40126670Y-95272324D01*
X40125670Y-95253243D01*
X40125500Y-95246753D01*
X40125500Y-75048996D01*
X43799499Y-75048996D01*
X43826418Y-75184322D01*
X43826421Y-75184332D01*
X43879222Y-75311807D01*
X43955887Y-75426545D01*
X43955888Y-75426546D01*
X51901385Y-83372042D01*
X51934870Y-83433365D01*
X51929886Y-83503057D01*
X51901385Y-83547404D01*
X48154887Y-87293902D01*
X48078222Y-87408640D01*
X48025421Y-87536115D01*
X48025418Y-87536127D01*
X48000317Y-87662316D01*
X48000317Y-87662322D01*
X47998500Y-87671455D01*
X47998500Y-89370558D01*
X47998500Y-89508546D01*
X47998500Y-89508548D01*
X47998499Y-89508548D01*
X48025418Y-89643874D01*
X48025421Y-89643884D01*
X48078222Y-89771359D01*
X48154887Y-89886097D01*
X48154888Y-89886098D01*
X51465334Y-93196542D01*
X51562903Y-93294111D01*
X51562907Y-93294115D01*
X51677630Y-93370771D01*
X51677634Y-93370773D01*
X51677637Y-93370775D01*
X51752314Y-93401707D01*
X51805119Y-93423580D01*
X51832039Y-93428934D01*
X51929078Y-93448237D01*
X51940454Y-93450500D01*
X51940455Y-93450500D01*
X56818996Y-93450500D01*
X56927412Y-93428934D01*
X56954328Y-93423580D01*
X57018069Y-93397177D01*
X57081807Y-93370777D01*
X57081808Y-93370776D01*
X57081811Y-93370775D01*
X57196543Y-93294114D01*
X57487393Y-93003264D01*
X58885337Y-91605322D01*
X59329111Y-91161547D01*
X59329112Y-91161546D01*
X59329112Y-91161545D01*
X59329114Y-91161544D01*
X59405775Y-91046812D01*
X59458580Y-90919329D01*
X59485500Y-90783995D01*
X59485500Y-90646007D01*
X59485500Y-90400633D01*
X59505185Y-90333594D01*
X59557989Y-90287839D01*
X59627147Y-90277895D01*
X59628823Y-90278148D01*
X59704428Y-90290122D01*
X59795200Y-90304500D01*
X59795204Y-90304500D01*
X59984800Y-90304500D01*
X60068022Y-90291318D01*
X60172055Y-90274842D01*
X60352368Y-90216254D01*
X60521296Y-90130181D01*
X60674679Y-90018741D01*
X60808741Y-89884679D01*
X60905419Y-89751613D01*
X60960750Y-89708949D01*
X61005737Y-89700500D01*
X61838256Y-89700500D01*
X61905295Y-89720185D01*
X61938573Y-89751614D01*
X61951863Y-89769906D01*
X62008030Y-89847215D01*
X62152786Y-89991971D01*
X62307749Y-90104556D01*
X62318390Y-90112287D01*
X62434607Y-90171503D01*
X62500776Y-90205218D01*
X62500778Y-90205218D01*
X62500781Y-90205220D01*
X62565508Y-90226251D01*
X62695465Y-90268477D01*
X62735652Y-90274842D01*
X62897648Y-90300500D01*
X62897649Y-90300500D01*
X63102351Y-90300500D01*
X63102352Y-90300500D01*
X63304534Y-90268477D01*
X63499219Y-90205220D01*
X63681610Y-90112287D01*
X63806643Y-90021446D01*
X63847213Y-89991971D01*
X63847215Y-89991968D01*
X63847219Y-89991966D01*
X63991966Y-89847219D01*
X63991968Y-89847215D01*
X63991971Y-89847213D01*
X64061425Y-89751616D01*
X64112287Y-89681610D01*
X64205220Y-89499219D01*
X64268477Y-89304534D01*
X64300500Y-89102352D01*
X64300500Y-88897648D01*
X64268477Y-88695466D01*
X64268029Y-88694088D01*
X64205218Y-88500776D01*
X64170070Y-88431795D01*
X64112287Y-88318390D01*
X64104556Y-88307749D01*
X63991971Y-88152786D01*
X63847213Y-88008028D01*
X63681613Y-87887715D01*
X63681612Y-87887714D01*
X63681610Y-87887713D01*
X63616457Y-87854516D01*
X63499223Y-87794781D01*
X63304534Y-87731522D01*
X63129995Y-87703878D01*
X63102352Y-87699500D01*
X62897648Y-87699500D01*
X62873329Y-87703351D01*
X62695465Y-87731522D01*
X62500776Y-87794781D01*
X62318386Y-87887715D01*
X62152786Y-88008028D01*
X62008028Y-88152786D01*
X61887715Y-88318386D01*
X61829930Y-88431795D01*
X61781955Y-88482591D01*
X61719445Y-88499500D01*
X61005737Y-88499500D01*
X60938698Y-88479815D01*
X60905419Y-88448386D01*
X60816005Y-88325319D01*
X60808741Y-88315321D01*
X60674679Y-88181259D01*
X60521296Y-88069819D01*
X60512792Y-88065486D01*
X60461995Y-88017513D01*
X60445198Y-87949692D01*
X60467734Y-87883557D01*
X60512792Y-87844514D01*
X60512803Y-87844508D01*
X60521296Y-87840181D01*
X60674679Y-87728741D01*
X60808741Y-87594679D01*
X60920181Y-87441296D01*
X60963975Y-87355343D01*
X60989159Y-87305920D01*
X60989160Y-87305918D01*
X61006251Y-87272375D01*
X61006251Y-87272371D01*
X61006254Y-87272368D01*
X61064842Y-87092055D01*
X61086106Y-86957796D01*
X61094500Y-86904800D01*
X61094500Y-86715199D01*
X61078023Y-86611171D01*
X61064842Y-86527945D01*
X61006254Y-86347632D01*
X60945137Y-86227682D01*
X82247500Y-86227682D01*
X82247500Y-86432317D01*
X82279509Y-86634417D01*
X82342744Y-86829031D01*
X82435641Y-87011350D01*
X82435647Y-87011359D01*
X82468023Y-87055921D01*
X82468024Y-87055922D01*
X83147500Y-86376446D01*
X83147500Y-86382661D01*
X83174759Y-86484394D01*
X83227420Y-86575606D01*
X83301894Y-86650080D01*
X83393106Y-86702741D01*
X83494839Y-86730000D01*
X83501053Y-86730000D01*
X82821576Y-87409474D01*
X82866150Y-87441859D01*
X83048468Y-87534755D01*
X83243082Y-87597990D01*
X83445183Y-87630000D01*
X83649817Y-87630000D01*
X83851917Y-87597990D01*
X84046531Y-87534755D01*
X84228849Y-87441859D01*
X84273421Y-87409474D01*
X83593947Y-86730000D01*
X83600161Y-86730000D01*
X83701894Y-86702741D01*
X83793106Y-86650080D01*
X83867580Y-86575606D01*
X83920241Y-86484394D01*
X83947500Y-86382661D01*
X83947500Y-86376447D01*
X84626974Y-87055921D01*
X84659359Y-87011349D01*
X84752255Y-86829031D01*
X84785993Y-86725199D01*
X85155500Y-86725199D01*
X85155500Y-86914800D01*
X85178191Y-87058067D01*
X85185158Y-87102055D01*
X85224750Y-87223905D01*
X85243747Y-87282372D01*
X85324724Y-87441296D01*
X85329819Y-87451296D01*
X85441259Y-87604679D01*
X85575321Y-87738741D01*
X85728704Y-87850181D01*
X85728706Y-87850182D01*
X85737211Y-87854516D01*
X85788006Y-87902490D01*
X85804801Y-87970311D01*
X85782263Y-88036446D01*
X85737211Y-88075484D01*
X85728706Y-88079817D01*
X85575319Y-88191260D01*
X85441260Y-88325319D01*
X85329819Y-88478703D01*
X85243747Y-88647627D01*
X85185157Y-88827949D01*
X85155500Y-89015199D01*
X85155500Y-89204800D01*
X85171296Y-89304534D01*
X85185158Y-89392055D01*
X85223009Y-89508546D01*
X85243747Y-89572372D01*
X85299409Y-89681613D01*
X85329819Y-89741296D01*
X85441259Y-89894679D01*
X85575321Y-90028741D01*
X85728704Y-90140181D01*
X85808515Y-90180846D01*
X85897627Y-90226252D01*
X85897629Y-90226252D01*
X85897632Y-90226254D01*
X86077945Y-90284842D01*
X86171574Y-90299671D01*
X86265200Y-90314500D01*
X86265204Y-90314500D01*
X86454800Y-90314500D01*
X86543191Y-90300500D01*
X86642055Y-90284842D01*
X86707507Y-90263575D01*
X90370000Y-90263575D01*
X90370000Y-90486424D01*
X90399085Y-90707354D01*
X90399088Y-90707367D01*
X90456763Y-90922618D01*
X90542045Y-91128502D01*
X90542054Y-91128520D01*
X90653464Y-91321491D01*
X90653473Y-91321504D01*
X90704040Y-91387403D01*
X90704043Y-91387403D01*
X91354152Y-90737293D01*
X91361049Y-90753942D01*
X91448599Y-90884970D01*
X91560030Y-90996401D01*
X91691058Y-91083951D01*
X91707705Y-91090846D01*
X91057595Y-91740955D01*
X91057595Y-91740956D01*
X91123507Y-91791533D01*
X91316485Y-91902949D01*
X91316497Y-91902954D01*
X91522381Y-91988236D01*
X91737632Y-92045911D01*
X91737645Y-92045914D01*
X91958575Y-92075000D01*
X92181425Y-92075000D01*
X92402354Y-92045914D01*
X92402367Y-92045911D01*
X92617618Y-91988236D01*
X92823502Y-91902954D01*
X92823514Y-91902949D01*
X93016498Y-91791530D01*
X93082403Y-91740957D01*
X93082404Y-91740956D01*
X92432294Y-91090846D01*
X92448942Y-91083951D01*
X92579970Y-90996401D01*
X92691401Y-90884970D01*
X92778951Y-90753942D01*
X92785846Y-90737294D01*
X93435956Y-91387404D01*
X93435957Y-91387403D01*
X93486530Y-91321498D01*
X93597949Y-91128514D01*
X93597954Y-91128502D01*
X93683236Y-90922618D01*
X93740911Y-90707367D01*
X93740914Y-90707354D01*
X93770000Y-90486424D01*
X93770000Y-90263575D01*
X93740914Y-90042645D01*
X93740911Y-90042632D01*
X93683236Y-89827381D01*
X93597954Y-89621497D01*
X93597949Y-89621485D01*
X93486533Y-89428507D01*
X93435956Y-89362595D01*
X93435955Y-89362595D01*
X92785846Y-90012704D01*
X92778951Y-89996058D01*
X92691401Y-89865030D01*
X92579970Y-89753599D01*
X92448942Y-89666049D01*
X92432293Y-89659152D01*
X93082403Y-89009043D01*
X93082403Y-89009040D01*
X93016504Y-88958473D01*
X93016491Y-88958464D01*
X92823520Y-88847054D01*
X92823502Y-88847045D01*
X92617618Y-88761763D01*
X92402367Y-88704088D01*
X92402354Y-88704085D01*
X92181425Y-88675000D01*
X91958575Y-88675000D01*
X91737645Y-88704085D01*
X91737632Y-88704088D01*
X91522381Y-88761763D01*
X91316497Y-88847045D01*
X91316479Y-88847054D01*
X91123511Y-88958462D01*
X91057595Y-89009042D01*
X91707706Y-89659152D01*
X91691058Y-89666049D01*
X91560030Y-89753599D01*
X91448599Y-89865030D01*
X91361049Y-89996058D01*
X91354153Y-90012706D01*
X90704042Y-89362595D01*
X90653462Y-89428511D01*
X90542054Y-89621479D01*
X90542045Y-89621497D01*
X90456763Y-89827381D01*
X90399088Y-90042632D01*
X90399085Y-90042645D01*
X90370000Y-90263575D01*
X86707507Y-90263575D01*
X86822368Y-90226254D01*
X86991296Y-90140181D01*
X87144679Y-90028741D01*
X87278741Y-89894679D01*
X87390181Y-89741296D01*
X87476254Y-89572368D01*
X87534842Y-89392055D01*
X87551318Y-89288022D01*
X87564500Y-89204800D01*
X87564500Y-89015199D01*
X87548023Y-88911171D01*
X87534842Y-88827945D01*
X87476254Y-88647632D01*
X87390185Y-88478711D01*
X93649500Y-88478711D01*
X93649500Y-88721288D01*
X93679844Y-88951784D01*
X93681162Y-88961789D01*
X93691144Y-88999042D01*
X93743947Y-89196104D01*
X93825111Y-89392050D01*
X93836776Y-89420212D01*
X93958064Y-89630289D01*
X93958066Y-89630292D01*
X93958067Y-89630293D01*
X94105733Y-89822736D01*
X94105739Y-89822743D01*
X94277256Y-89994260D01*
X94277263Y-89994266D01*
X94299653Y-90011446D01*
X94469711Y-90141936D01*
X94679788Y-90263224D01*
X94903900Y-90356054D01*
X95138211Y-90418838D01*
X95302753Y-90440500D01*
X95378711Y-90450500D01*
X95378712Y-90450500D01*
X95621289Y-90450500D01*
X95672234Y-90443793D01*
X95861789Y-90418838D01*
X96096100Y-90356054D01*
X96320212Y-90263224D01*
X96530289Y-90141936D01*
X96722738Y-89994265D01*
X96894265Y-89822738D01*
X97041936Y-89630289D01*
X97163224Y-89420212D01*
X97256054Y-89196100D01*
X97318838Y-88961789D01*
X97350500Y-88721288D01*
X97350500Y-88478712D01*
X97349183Y-88468712D01*
X97330306Y-88325319D01*
X97318838Y-88238211D01*
X97256054Y-88003900D01*
X97163224Y-87779788D01*
X97041936Y-87569711D01*
X96894265Y-87377262D01*
X96894260Y-87377256D01*
X96722743Y-87205739D01*
X96722736Y-87205733D01*
X96530293Y-87058067D01*
X96530292Y-87058066D01*
X96530289Y-87058064D01*
X96356615Y-86957793D01*
X96320214Y-86936777D01*
X96320205Y-86936773D01*
X96096104Y-86843947D01*
X95861785Y-86781161D01*
X95621289Y-86749500D01*
X95621288Y-86749500D01*
X95378712Y-86749500D01*
X95378711Y-86749500D01*
X95138214Y-86781161D01*
X94903895Y-86843947D01*
X94679794Y-86936773D01*
X94679785Y-86936777D01*
X94469706Y-87058067D01*
X94277263Y-87205733D01*
X94277256Y-87205739D01*
X94105739Y-87377256D01*
X94105733Y-87377263D01*
X93958067Y-87569706D01*
X93958064Y-87569710D01*
X93958064Y-87569711D01*
X93950281Y-87583192D01*
X93836777Y-87779785D01*
X93836773Y-87779794D01*
X93743947Y-88003895D01*
X93681161Y-88238214D01*
X93649500Y-88478711D01*
X87390185Y-88478711D01*
X87390181Y-88478704D01*
X87278741Y-88325321D01*
X87144679Y-88191259D01*
X86991296Y-88079819D01*
X86982792Y-88075486D01*
X86931995Y-88027513D01*
X86915198Y-87959692D01*
X86937734Y-87893557D01*
X86982792Y-87854514D01*
X86982803Y-87854508D01*
X86991296Y-87850181D01*
X87144679Y-87738741D01*
X87278741Y-87604679D01*
X87390181Y-87451296D01*
X87476254Y-87282368D01*
X87534842Y-87102055D01*
X87557690Y-86957793D01*
X87564500Y-86914800D01*
X87564500Y-86725199D01*
X87543854Y-86594845D01*
X87534842Y-86537945D01*
X87476254Y-86357632D01*
X87476252Y-86357629D01*
X87476252Y-86357627D01*
X87390180Y-86188703D01*
X87382922Y-86178713D01*
X87278741Y-86035321D01*
X87144679Y-85901259D01*
X86991296Y-85789819D01*
X86971670Y-85779819D01*
X86822372Y-85703747D01*
X86763905Y-85684750D01*
X86642055Y-85645158D01*
X86642051Y-85645157D01*
X86642050Y-85645157D01*
X86454800Y-85615500D01*
X86454796Y-85615500D01*
X86265204Y-85615500D01*
X86265200Y-85615500D01*
X86077949Y-85645157D01*
X86077946Y-85645157D01*
X86077945Y-85645158D01*
X86019482Y-85664153D01*
X85897627Y-85703747D01*
X85728703Y-85789819D01*
X85575319Y-85901260D01*
X85441260Y-86035319D01*
X85329819Y-86188703D01*
X85243747Y-86357627D01*
X85222927Y-86421706D01*
X85186278Y-86534500D01*
X85185157Y-86537949D01*
X85155500Y-86725199D01*
X84785993Y-86725199D01*
X84800025Y-86682013D01*
X84815490Y-86634417D01*
X84847500Y-86432317D01*
X84847500Y-86227682D01*
X84815490Y-86025582D01*
X84752255Y-85830968D01*
X84659359Y-85648650D01*
X84626974Y-85604077D01*
X84626974Y-85604076D01*
X83947500Y-86283551D01*
X83947500Y-86277339D01*
X83920241Y-86175606D01*
X83867580Y-86084394D01*
X83793106Y-86009920D01*
X83701894Y-85957259D01*
X83600161Y-85930000D01*
X83593946Y-85930000D01*
X84273422Y-85250524D01*
X84273421Y-85250523D01*
X84228859Y-85218147D01*
X84228850Y-85218141D01*
X84046531Y-85125244D01*
X83851917Y-85062009D01*
X83649817Y-85030000D01*
X83445183Y-85030000D01*
X83243082Y-85062009D01*
X83048468Y-85125244D01*
X82866144Y-85218143D01*
X82821577Y-85250523D01*
X82821577Y-85250524D01*
X83501054Y-85930000D01*
X83494839Y-85930000D01*
X83393106Y-85957259D01*
X83301894Y-86009920D01*
X83227420Y-86084394D01*
X83174759Y-86175606D01*
X83147500Y-86277339D01*
X83147500Y-86283553D01*
X82468024Y-85604077D01*
X82468023Y-85604077D01*
X82435643Y-85648644D01*
X82342744Y-85830968D01*
X82279509Y-86025582D01*
X82247500Y-86227682D01*
X60945137Y-86227682D01*
X60920181Y-86178704D01*
X60808741Y-86025321D01*
X60674679Y-85891259D01*
X60521296Y-85779819D01*
X60352372Y-85693747D01*
X60293905Y-85674750D01*
X60172055Y-85635158D01*
X60172051Y-85635157D01*
X60172050Y-85635157D01*
X59984800Y-85605500D01*
X59984796Y-85605500D01*
X59795204Y-85605500D01*
X59795200Y-85605500D01*
X59607949Y-85635157D01*
X59607946Y-85635157D01*
X59607945Y-85635158D01*
X59549482Y-85654153D01*
X59427627Y-85693747D01*
X59258703Y-85779819D01*
X59105319Y-85891260D01*
X58971260Y-86025319D01*
X58859819Y-86178703D01*
X58773747Y-86347627D01*
X58715157Y-86527949D01*
X58685500Y-86715199D01*
X58685500Y-86904796D01*
X58691893Y-86945164D01*
X58682937Y-87014457D01*
X58657100Y-87052241D01*
X58240887Y-87468454D01*
X58164223Y-87583192D01*
X58111421Y-87710668D01*
X58111418Y-87710680D01*
X58101508Y-87760501D01*
X58101508Y-87760502D01*
X58084500Y-87846004D01*
X58084500Y-90373481D01*
X58064815Y-90440520D01*
X58048181Y-90461162D01*
X56496162Y-92013181D01*
X56434839Y-92046666D01*
X56408481Y-92049500D01*
X55125135Y-92049500D01*
X55058096Y-92029815D01*
X55012341Y-91977011D01*
X55002397Y-91907853D01*
X55031422Y-91844297D01*
X55063136Y-91818113D01*
X55126492Y-91781534D01*
X55126497Y-91781530D01*
X55192403Y-91730957D01*
X55192404Y-91730956D01*
X54542294Y-91080846D01*
X54558942Y-91073951D01*
X54689970Y-90986401D01*
X54801401Y-90874970D01*
X54888951Y-90743942D01*
X54895846Y-90727294D01*
X55545956Y-91377404D01*
X55545957Y-91377403D01*
X55596530Y-91311498D01*
X55707949Y-91118514D01*
X55707954Y-91118502D01*
X55793236Y-90912618D01*
X55850911Y-90697367D01*
X55850914Y-90697354D01*
X55880000Y-90476424D01*
X55880000Y-90253575D01*
X55850914Y-90032645D01*
X55850911Y-90032632D01*
X55793236Y-89817381D01*
X55707954Y-89611497D01*
X55707949Y-89611485D01*
X55596533Y-89418507D01*
X55545956Y-89352595D01*
X55545955Y-89352595D01*
X54895846Y-90002704D01*
X54888951Y-89986058D01*
X54801401Y-89855030D01*
X54689970Y-89743599D01*
X54558942Y-89656049D01*
X54542293Y-89649152D01*
X55192403Y-88999043D01*
X55192403Y-88999040D01*
X55126504Y-88948473D01*
X55126491Y-88948464D01*
X54933520Y-88837054D01*
X54933502Y-88837045D01*
X54727618Y-88751763D01*
X54512367Y-88694088D01*
X54512354Y-88694085D01*
X54291425Y-88665000D01*
X54068575Y-88665000D01*
X53847645Y-88694085D01*
X53847632Y-88694088D01*
X53632381Y-88751763D01*
X53426497Y-88837045D01*
X53426479Y-88837054D01*
X53233511Y-88948462D01*
X53167595Y-88999042D01*
X53817706Y-89649152D01*
X53801058Y-89656049D01*
X53670030Y-89743599D01*
X53558599Y-89855030D01*
X53471049Y-89986058D01*
X53464153Y-90002706D01*
X52814042Y-89352595D01*
X52763462Y-89418511D01*
X52652054Y-89611479D01*
X52652045Y-89611497D01*
X52566763Y-89817381D01*
X52509088Y-90032632D01*
X52509085Y-90032645D01*
X52480000Y-90253575D01*
X52480000Y-90476424D01*
X52509085Y-90697354D01*
X52509088Y-90697367D01*
X52566763Y-90912618D01*
X52652045Y-91118502D01*
X52652054Y-91118520D01*
X52763464Y-91311491D01*
X52763473Y-91311504D01*
X52814040Y-91377403D01*
X52814043Y-91377403D01*
X53464152Y-90727293D01*
X53471049Y-90743942D01*
X53558599Y-90874970D01*
X53670030Y-90986401D01*
X53801058Y-91073951D01*
X53817705Y-91080846D01*
X53167595Y-91730955D01*
X53167595Y-91730956D01*
X53233510Y-91781535D01*
X53296864Y-91818113D01*
X53345080Y-91868679D01*
X53358304Y-91937286D01*
X53332336Y-92002151D01*
X53275422Y-92042680D01*
X53234865Y-92049500D01*
X52350966Y-92049500D01*
X52283927Y-92029815D01*
X52263285Y-92013181D01*
X50889424Y-90639319D01*
X50855939Y-90577996D01*
X50860923Y-90508304D01*
X50902795Y-90452371D01*
X50960918Y-90428700D01*
X51111789Y-90408838D01*
X51346100Y-90346054D01*
X51570212Y-90253224D01*
X51780289Y-90131936D01*
X51972738Y-89984265D01*
X52144265Y-89812738D01*
X52291936Y-89620289D01*
X52413224Y-89410212D01*
X52506054Y-89186100D01*
X52568838Y-88951789D01*
X52600500Y-88711288D01*
X52600500Y-88468712D01*
X52568838Y-88228211D01*
X52506054Y-87993900D01*
X52413224Y-87769788D01*
X52291936Y-87559711D01*
X52222417Y-87469112D01*
X52144266Y-87367263D01*
X52144260Y-87367256D01*
X51972743Y-87195739D01*
X51972736Y-87195733D01*
X51780293Y-87048067D01*
X51780292Y-87048066D01*
X51780289Y-87048064D01*
X51570212Y-86926776D01*
X51570205Y-86926773D01*
X51346104Y-86833947D01*
X51111785Y-86771161D01*
X50960920Y-86751300D01*
X50897023Y-86723034D01*
X50858552Y-86664709D01*
X50857721Y-86594845D01*
X50889422Y-86540682D01*
X51873821Y-85556282D01*
X51935142Y-85522799D01*
X52004833Y-85527783D01*
X52060767Y-85569655D01*
X52085184Y-85635119D01*
X52085500Y-85643965D01*
X52085500Y-86561870D01*
X52085501Y-86561876D01*
X52091908Y-86621483D01*
X52142202Y-86756328D01*
X52142206Y-86756335D01*
X52228452Y-86871544D01*
X52228455Y-86871547D01*
X52343664Y-86957793D01*
X52343671Y-86957797D01*
X52478517Y-87008091D01*
X52478516Y-87008091D01*
X52485444Y-87008835D01*
X52538127Y-87014500D01*
X54041872Y-87014499D01*
X54101483Y-87008091D01*
X54236331Y-86957796D01*
X54351546Y-86871546D01*
X54437796Y-86756331D01*
X54488091Y-86621483D01*
X54494500Y-86561873D01*
X54494500Y-86534500D01*
X54514185Y-86467461D01*
X54566989Y-86421706D01*
X54618500Y-86410500D01*
X55384616Y-86410500D01*
X55384632Y-86410501D01*
X55392228Y-86410501D01*
X55550339Y-86410501D01*
X55550342Y-86410501D01*
X55703070Y-86369577D01*
X55753189Y-86340639D01*
X55840001Y-86290520D01*
X55951805Y-86178716D01*
X55951805Y-86178714D01*
X55962013Y-86168507D01*
X55962015Y-86168504D01*
X56433506Y-85697013D01*
X56433511Y-85697009D01*
X56443714Y-85686805D01*
X56443716Y-85686805D01*
X56555520Y-85575001D01*
X56620739Y-85462038D01*
X56632721Y-85441285D01*
X56632723Y-85441279D01*
X56634577Y-85438070D01*
X56675501Y-85285342D01*
X56675501Y-85127228D01*
X56675501Y-85119633D01*
X56675500Y-85119615D01*
X56675500Y-84652197D01*
X56695185Y-84585158D01*
X56711819Y-84564516D01*
X57128687Y-84147648D01*
X66744500Y-84147648D01*
X66744500Y-84352351D01*
X66776522Y-84554534D01*
X66839781Y-84749223D01*
X66932715Y-84931613D01*
X67053028Y-85097213D01*
X67197786Y-85241971D01*
X67314408Y-85326700D01*
X67363390Y-85362287D01*
X67479607Y-85421503D01*
X67545776Y-85455218D01*
X67545778Y-85455218D01*
X67545781Y-85455220D01*
X67650137Y-85489127D01*
X67740465Y-85518477D01*
X67841557Y-85534488D01*
X67942648Y-85550500D01*
X67942649Y-85550500D01*
X68147351Y-85550500D01*
X68147352Y-85550500D01*
X68349534Y-85518477D01*
X68544219Y-85455220D01*
X68726610Y-85362287D01*
X68832521Y-85285339D01*
X68892213Y-85241971D01*
X68892215Y-85241968D01*
X68892219Y-85241966D01*
X69036966Y-85097219D01*
X69036968Y-85097215D01*
X69036971Y-85097213D01*
X69089732Y-85024590D01*
X69157287Y-84931610D01*
X69250220Y-84749219D01*
X69313477Y-84554534D01*
X69345500Y-84352352D01*
X69345500Y-84147648D01*
X69313477Y-83945466D01*
X69308825Y-83931151D01*
X69306832Y-83861312D01*
X69339075Y-83805158D01*
X70853765Y-82290469D01*
X70915088Y-82256984D01*
X70984780Y-82261968D01*
X71029127Y-82290469D01*
X71138072Y-82399414D01*
X71278212Y-82501232D01*
X71432555Y-82579873D01*
X71597299Y-82633402D01*
X71768389Y-82660500D01*
X71768390Y-82660500D01*
X71941610Y-82660500D01*
X71941611Y-82660500D01*
X72112701Y-82633402D01*
X72277445Y-82579873D01*
X72431788Y-82501232D01*
X72571928Y-82399414D01*
X72694414Y-82276928D01*
X72796232Y-82136788D01*
X72874873Y-81982445D01*
X72928402Y-81817701D01*
X72955500Y-81646611D01*
X72955500Y-81473389D01*
X73294500Y-81473389D01*
X73294500Y-81646610D01*
X73318674Y-81799244D01*
X73321598Y-81817701D01*
X73375127Y-81982445D01*
X73453768Y-82136788D01*
X73555586Y-82276928D01*
X73678072Y-82399414D01*
X73818212Y-82501232D01*
X73972555Y-82579873D01*
X74137299Y-82633402D01*
X74308389Y-82660500D01*
X74308390Y-82660500D01*
X74481610Y-82660500D01*
X74481611Y-82660500D01*
X74652701Y-82633402D01*
X74817445Y-82579873D01*
X74971788Y-82501232D01*
X75111928Y-82399414D01*
X75220875Y-82290466D01*
X75282194Y-82256984D01*
X75351886Y-82261968D01*
X75396234Y-82290469D01*
X76910922Y-83805157D01*
X76944407Y-83866480D01*
X76941173Y-83931155D01*
X76936522Y-83945468D01*
X76904500Y-84147648D01*
X76904500Y-84352351D01*
X76936522Y-84554534D01*
X76999781Y-84749223D01*
X77092715Y-84931613D01*
X77213028Y-85097213D01*
X77357786Y-85241971D01*
X77474408Y-85326700D01*
X77523390Y-85362287D01*
X77639607Y-85421503D01*
X77705776Y-85455218D01*
X77705778Y-85455218D01*
X77705781Y-85455220D01*
X77810137Y-85489127D01*
X77900465Y-85518477D01*
X78001557Y-85534488D01*
X78102648Y-85550500D01*
X78102649Y-85550500D01*
X78307351Y-85550500D01*
X78307352Y-85550500D01*
X78509534Y-85518477D01*
X78704219Y-85455220D01*
X78886610Y-85362287D01*
X78992521Y-85285339D01*
X79052213Y-85241971D01*
X79052215Y-85241968D01*
X79052219Y-85241966D01*
X79196966Y-85097219D01*
X79196968Y-85097215D01*
X79196971Y-85097213D01*
X79249732Y-85024590D01*
X79317287Y-84931610D01*
X79410220Y-84749219D01*
X79473477Y-84554534D01*
X79505500Y-84352352D01*
X79505500Y-84147648D01*
X79473477Y-83945466D01*
X79410220Y-83750781D01*
X79410218Y-83750778D01*
X79410218Y-83750776D01*
X79376503Y-83684607D01*
X79317287Y-83568390D01*
X79302040Y-83547404D01*
X79196971Y-83402786D01*
X79052213Y-83258028D01*
X78886613Y-83137715D01*
X78886612Y-83137714D01*
X78886610Y-83137713D01*
X78829653Y-83108691D01*
X78704223Y-83044781D01*
X78509534Y-82981522D01*
X78334995Y-82953878D01*
X78307352Y-82949500D01*
X78102648Y-82949500D01*
X78064599Y-82955526D01*
X77900468Y-82981522D01*
X77891717Y-82984365D01*
X77886154Y-82986173D01*
X77816313Y-82988167D01*
X77760157Y-82955922D01*
X76002590Y-81198355D01*
X76002588Y-81198352D01*
X75883717Y-81079481D01*
X75883716Y-81079480D01*
X75796904Y-81029360D01*
X75796904Y-81029359D01*
X75796900Y-81029358D01*
X75746785Y-81000423D01*
X75594057Y-80959499D01*
X75435943Y-80959499D01*
X75428347Y-80959499D01*
X75428331Y-80959500D01*
X75382185Y-80959500D01*
X75315146Y-80939815D01*
X75281867Y-80908386D01*
X75279044Y-80904500D01*
X75234414Y-80843072D01*
X75111928Y-80720586D01*
X74971788Y-80618768D01*
X74817445Y-80540127D01*
X74652701Y-80486598D01*
X74652699Y-80486597D01*
X74652698Y-80486597D01*
X74521271Y-80465781D01*
X74481611Y-80459500D01*
X74308389Y-80459500D01*
X74268728Y-80465781D01*
X74137302Y-80486597D01*
X73972552Y-80540128D01*
X73818211Y-80618768D01*
X73792315Y-80637583D01*
X73678072Y-80720586D01*
X73678070Y-80720588D01*
X73678069Y-80720588D01*
X73555588Y-80843069D01*
X73555588Y-80843070D01*
X73555586Y-80843072D01*
X73532504Y-80874842D01*
X73453768Y-80983211D01*
X73375128Y-81137552D01*
X73321597Y-81302302D01*
X73294500Y-81473389D01*
X72955500Y-81473389D01*
X72928402Y-81302299D01*
X72874873Y-81137555D01*
X72796232Y-80983212D01*
X72694414Y-80843072D01*
X72571928Y-80720586D01*
X72431788Y-80618768D01*
X72277445Y-80540127D01*
X72112701Y-80486598D01*
X72112699Y-80486597D01*
X72112698Y-80486597D01*
X71981271Y-80465781D01*
X71941611Y-80459500D01*
X71768389Y-80459500D01*
X71728728Y-80465781D01*
X71597302Y-80486597D01*
X71432552Y-80540128D01*
X71278211Y-80618768D01*
X71252315Y-80637583D01*
X71138072Y-80720586D01*
X71138070Y-80720588D01*
X71138069Y-80720588D01*
X71015588Y-80843069D01*
X71015588Y-80843070D01*
X71015586Y-80843072D01*
X70992504Y-80874842D01*
X70968133Y-80908386D01*
X70912803Y-80951051D01*
X70867815Y-80959500D01*
X70655940Y-80959500D01*
X70615019Y-80970464D01*
X70615019Y-80970465D01*
X70577751Y-80980451D01*
X70503214Y-81000423D01*
X70503209Y-81000426D01*
X70366290Y-81079475D01*
X70366282Y-81079481D01*
X70254478Y-81191286D01*
X68489842Y-82955921D01*
X68428519Y-82989406D01*
X68363848Y-82986173D01*
X68349534Y-82981522D01*
X68174995Y-82953878D01*
X68147352Y-82949500D01*
X67942648Y-82949500D01*
X67918329Y-82953351D01*
X67740465Y-82981522D01*
X67545776Y-83044781D01*
X67363386Y-83137715D01*
X67197786Y-83258028D01*
X67053028Y-83402786D01*
X66932715Y-83568386D01*
X66839781Y-83750776D01*
X66776522Y-83945465D01*
X66744500Y-84147648D01*
X57128687Y-84147648D01*
X57773278Y-83503057D01*
X58881520Y-82394816D01*
X58960577Y-82257884D01*
X59001501Y-82105157D01*
X59001501Y-81947042D01*
X59001501Y-81939447D01*
X59001500Y-81939429D01*
X59001500Y-78756674D01*
X59021185Y-78689635D01*
X59073989Y-78643880D01*
X59143147Y-78633936D01*
X59198384Y-78656355D01*
X59237702Y-78684922D01*
X59258702Y-78700180D01*
X59427627Y-78786252D01*
X59427629Y-78786252D01*
X59427632Y-78786254D01*
X59607945Y-78844842D01*
X59701574Y-78859671D01*
X59795200Y-78874500D01*
X59795204Y-78874500D01*
X59984800Y-78874500D01*
X60068022Y-78861318D01*
X60172055Y-78844842D01*
X60352368Y-78786254D01*
X60447696Y-78737682D01*
X61700000Y-78737682D01*
X61700000Y-78942317D01*
X61732009Y-79144417D01*
X61795244Y-79339031D01*
X61888141Y-79521350D01*
X61888147Y-79521359D01*
X61920523Y-79565921D01*
X61920524Y-79565922D01*
X62600000Y-78886446D01*
X62600000Y-78892661D01*
X62627259Y-78994394D01*
X62679920Y-79085606D01*
X62754394Y-79160080D01*
X62845606Y-79212741D01*
X62947339Y-79240000D01*
X62953553Y-79240000D01*
X62274076Y-79919474D01*
X62318650Y-79951859D01*
X62500968Y-80044755D01*
X62695582Y-80107990D01*
X62897683Y-80140000D01*
X63102317Y-80140000D01*
X63304417Y-80107990D01*
X63499031Y-80044755D01*
X63681349Y-79951859D01*
X63725921Y-79919474D01*
X63046447Y-79240000D01*
X63052661Y-79240000D01*
X63154394Y-79212741D01*
X63245606Y-79160080D01*
X63320080Y-79085606D01*
X63372741Y-78994394D01*
X63400000Y-78892661D01*
X63400000Y-78886447D01*
X64079474Y-79565921D01*
X64111859Y-79521349D01*
X64204755Y-79339031D01*
X64267990Y-79144417D01*
X64300000Y-78942317D01*
X64300000Y-78737682D01*
X64267990Y-78535582D01*
X64204755Y-78340968D01*
X64111859Y-78158650D01*
X64079474Y-78114077D01*
X64079474Y-78114076D01*
X63400000Y-78793551D01*
X63400000Y-78787339D01*
X63372741Y-78685606D01*
X63320080Y-78594394D01*
X63245606Y-78519920D01*
X63154394Y-78467259D01*
X63052661Y-78440000D01*
X63046446Y-78440000D01*
X63725922Y-77760524D01*
X63725921Y-77760523D01*
X63681359Y-77728147D01*
X63681350Y-77728141D01*
X63499031Y-77635244D01*
X63304417Y-77572009D01*
X63102317Y-77540000D01*
X62897683Y-77540000D01*
X62695582Y-77572009D01*
X62500968Y-77635244D01*
X62318644Y-77728143D01*
X62274077Y-77760523D01*
X62274077Y-77760524D01*
X62953554Y-78440000D01*
X62947339Y-78440000D01*
X62845606Y-78467259D01*
X62754394Y-78519920D01*
X62679920Y-78594394D01*
X62627259Y-78685606D01*
X62600000Y-78787339D01*
X62600000Y-78793553D01*
X61920524Y-78114077D01*
X61920523Y-78114077D01*
X61888143Y-78158644D01*
X61795244Y-78340968D01*
X61732009Y-78535582D01*
X61700000Y-78737682D01*
X60447696Y-78737682D01*
X60521296Y-78700181D01*
X60674679Y-78588741D01*
X60808741Y-78454679D01*
X60920181Y-78301296D01*
X61006254Y-78132368D01*
X61064842Y-77952055D01*
X61084326Y-77829034D01*
X61090750Y-77788478D01*
X61090764Y-77788387D01*
X61094500Y-77764796D01*
X61094500Y-77575199D01*
X61071809Y-77431936D01*
X61064842Y-77387945D01*
X61006254Y-77207632D01*
X61006252Y-77207629D01*
X61006252Y-77207627D01*
X60925276Y-77048704D01*
X60920181Y-77038704D01*
X60808741Y-76885321D01*
X60674679Y-76751259D01*
X60521296Y-76639819D01*
X60512792Y-76635486D01*
X60461995Y-76587513D01*
X60445198Y-76519692D01*
X60467734Y-76453557D01*
X60512792Y-76414514D01*
X60512803Y-76414508D01*
X60521296Y-76410181D01*
X60674679Y-76298741D01*
X60808741Y-76164679D01*
X60920181Y-76011296D01*
X61006254Y-75842368D01*
X61064842Y-75662055D01*
X61084456Y-75538214D01*
X61094500Y-75474800D01*
X61094500Y-75285199D01*
X61077526Y-75178034D01*
X61064842Y-75097945D01*
X61006254Y-74917632D01*
X61006252Y-74917629D01*
X61006252Y-74917627D01*
X60937313Y-74782328D01*
X60920181Y-74748704D01*
X60808741Y-74595321D01*
X60674679Y-74461259D01*
X60521296Y-74349819D01*
X60517852Y-74348064D01*
X60352372Y-74263747D01*
X60269364Y-74236776D01*
X60172055Y-74205158D01*
X60172051Y-74205157D01*
X60172050Y-74205157D01*
X59984800Y-74175500D01*
X59984796Y-74175500D01*
X59795204Y-74175500D01*
X59795200Y-74175500D01*
X59607949Y-74205157D01*
X59607946Y-74205157D01*
X59607945Y-74205158D01*
X59549482Y-74224153D01*
X59427627Y-74263747D01*
X59258703Y-74349819D01*
X59198386Y-74393643D01*
X59132579Y-74417123D01*
X59064526Y-74401298D01*
X59015831Y-74351192D01*
X59001500Y-74293325D01*
X59001500Y-73292135D01*
X70754500Y-73292135D01*
X70754500Y-74587870D01*
X70754501Y-74587876D01*
X70760908Y-74647483D01*
X70811202Y-74782328D01*
X70811206Y-74782335D01*
X70897452Y-74897544D01*
X70897455Y-74897547D01*
X71012664Y-74983793D01*
X71012671Y-74983797D01*
X71147517Y-75034091D01*
X71147516Y-75034091D01*
X71154444Y-75034835D01*
X71207127Y-75040500D01*
X72502872Y-75040499D01*
X72562483Y-75034091D01*
X72697331Y-74983796D01*
X72812546Y-74897546D01*
X72898796Y-74782331D01*
X72949091Y-74647483D01*
X72949091Y-74647481D01*
X72950874Y-74639938D01*
X72953146Y-74640474D01*
X72975431Y-74586687D01*
X73032827Y-74546843D01*
X73071976Y-74540501D01*
X73139054Y-74540501D01*
X73139057Y-74540501D01*
X73291785Y-74499577D01*
X73298433Y-74495739D01*
X73300397Y-74494605D01*
X73368297Y-74478131D01*
X73434325Y-74500983D01*
X73462716Y-74529104D01*
X73555586Y-74656928D01*
X73678072Y-74779414D01*
X73818212Y-74881232D01*
X73972555Y-74959873D01*
X74137299Y-75013402D01*
X74308389Y-75040500D01*
X74308390Y-75040500D01*
X74481610Y-75040500D01*
X74481611Y-75040500D01*
X74652701Y-75013402D01*
X74817445Y-74959873D01*
X74971788Y-74881232D01*
X75111928Y-74779414D01*
X75234414Y-74656928D01*
X75336232Y-74516788D01*
X75414873Y-74362445D01*
X75468402Y-74197701D01*
X75482910Y-74106102D01*
X75512839Y-74042967D01*
X75572151Y-74006036D01*
X75605383Y-74001500D01*
X79092331Y-74001500D01*
X79092347Y-74001501D01*
X79099943Y-74001501D01*
X79258054Y-74001501D01*
X79258057Y-74001501D01*
X79410785Y-73960577D01*
X79460904Y-73931639D01*
X79547716Y-73881520D01*
X79659520Y-73769716D01*
X79659520Y-73769714D01*
X79669728Y-73759507D01*
X79669729Y-73759504D01*
X81961520Y-71467716D01*
X82040577Y-71330784D01*
X82081501Y-71178057D01*
X82081501Y-71019942D01*
X82081501Y-71012347D01*
X82081500Y-71012329D01*
X82081500Y-69819097D01*
X82101185Y-69752058D01*
X82117819Y-69731416D01*
X83117820Y-68731415D01*
X83179143Y-68697930D01*
X83248835Y-68702914D01*
X83304768Y-68744786D01*
X83329185Y-68810250D01*
X83329501Y-68819096D01*
X83329501Y-69197876D01*
X83335908Y-69257483D01*
X83386202Y-69392328D01*
X83386206Y-69392335D01*
X83472452Y-69507544D01*
X83472455Y-69507547D01*
X83587664Y-69593793D01*
X83587671Y-69593797D01*
X83722517Y-69644091D01*
X83722516Y-69644091D01*
X83729444Y-69644835D01*
X83782127Y-69650500D01*
X85377872Y-69650499D01*
X85437483Y-69644091D01*
X85572331Y-69593796D01*
X85687546Y-69507546D01*
X85773796Y-69392331D01*
X85824091Y-69257483D01*
X85830500Y-69197873D01*
X85830499Y-66802128D01*
X85824091Y-66742517D01*
X85822361Y-66737879D01*
X85773797Y-66607671D01*
X85773793Y-66607664D01*
X85687547Y-66492455D01*
X85687544Y-66492452D01*
X85572335Y-66406206D01*
X85572328Y-66406202D01*
X85437482Y-66355908D01*
X85437483Y-66355908D01*
X85377883Y-66349501D01*
X85377881Y-66349500D01*
X85377873Y-66349500D01*
X85377864Y-66349500D01*
X83782129Y-66349500D01*
X83782123Y-66349501D01*
X83722516Y-66355908D01*
X83587671Y-66406202D01*
X83587664Y-66406206D01*
X83472455Y-66492452D01*
X83472452Y-66492455D01*
X83386206Y-66607664D01*
X83386202Y-66607671D01*
X83335908Y-66742517D01*
X83331303Y-66785354D01*
X83329501Y-66802123D01*
X83329500Y-66802135D01*
X83329500Y-67275500D01*
X83309815Y-67342539D01*
X83257011Y-67388294D01*
X83205500Y-67399500D01*
X82920941Y-67399500D01*
X82897758Y-67405711D01*
X82897759Y-67405712D01*
X82768214Y-67440423D01*
X82768209Y-67440426D01*
X82631290Y-67519475D01*
X82631282Y-67519481D01*
X82542181Y-67608583D01*
X82480858Y-67642068D01*
X82411166Y-67637084D01*
X82355233Y-67595212D01*
X82330816Y-67529748D01*
X82330500Y-67520902D01*
X82330500Y-67501577D01*
X82299709Y-67307173D01*
X82238882Y-67119970D01*
X82149523Y-66944594D01*
X82136809Y-66927095D01*
X82033828Y-66785354D01*
X81894646Y-66646172D01*
X81735405Y-66530476D01*
X81701059Y-66512976D01*
X81560029Y-66441117D01*
X81372826Y-66380290D01*
X81178422Y-66349500D01*
X81178417Y-66349500D01*
X80981583Y-66349500D01*
X80981578Y-66349500D01*
X80787173Y-66380290D01*
X80599970Y-66441117D01*
X80424594Y-66530476D01*
X80342442Y-66590164D01*
X80265354Y-66646172D01*
X80265352Y-66646174D01*
X80265351Y-66646174D01*
X80126174Y-66785351D01*
X80126174Y-66785352D01*
X80126172Y-66785354D01*
X80105932Y-66813212D01*
X80010476Y-66944594D01*
X79921117Y-67119970D01*
X79860290Y-67307173D01*
X79829500Y-67501577D01*
X79829500Y-68498422D01*
X79860290Y-68692826D01*
X79921117Y-68880029D01*
X80001426Y-69037643D01*
X80010476Y-69055405D01*
X80126172Y-69214646D01*
X80265354Y-69353828D01*
X80424595Y-69469524D01*
X80428386Y-69472278D01*
X80471051Y-69527608D01*
X80479500Y-69572596D01*
X80479500Y-70632803D01*
X80459815Y-70699842D01*
X80443181Y-70720484D01*
X78800484Y-72363181D01*
X78739161Y-72396666D01*
X78712803Y-72399500D01*
X74086670Y-72399500D01*
X74086654Y-72399499D01*
X74079058Y-72399499D01*
X73920943Y-72399499D01*
X73863094Y-72415000D01*
X73768214Y-72440423D01*
X73768209Y-72440426D01*
X73631290Y-72519475D01*
X73631282Y-72519481D01*
X73066042Y-73084721D01*
X73004719Y-73118206D01*
X72935027Y-73113222D01*
X72879095Y-73071351D01*
X72812547Y-72982455D01*
X72812544Y-72982452D01*
X72697335Y-72896206D01*
X72697328Y-72896202D01*
X72562482Y-72845908D01*
X72562483Y-72845908D01*
X72502883Y-72839501D01*
X72502881Y-72839500D01*
X72502873Y-72839500D01*
X72502864Y-72839500D01*
X71207129Y-72839500D01*
X71207123Y-72839501D01*
X71147516Y-72845908D01*
X71012671Y-72896202D01*
X71012664Y-72896206D01*
X70897455Y-72982452D01*
X70897452Y-72982455D01*
X70811206Y-73097664D01*
X70811202Y-73097671D01*
X70760908Y-73232517D01*
X70754501Y-73292116D01*
X70754500Y-73292135D01*
X59001500Y-73292135D01*
X59001500Y-72198697D01*
X59021185Y-72131658D01*
X59037819Y-72111016D01*
X61078516Y-70070319D01*
X61139839Y-70036834D01*
X61166197Y-70034000D01*
X62098669Y-70034000D01*
X62098685Y-70034001D01*
X62106281Y-70034001D01*
X62264392Y-70034001D01*
X62264395Y-70034001D01*
X62417123Y-69993077D01*
X62482173Y-69955520D01*
X62554054Y-69914020D01*
X62665858Y-69802216D01*
X62665858Y-69802214D01*
X62676062Y-69792011D01*
X62676065Y-69792006D01*
X63787822Y-68680250D01*
X63849143Y-68646767D01*
X63918835Y-68651751D01*
X63974768Y-68693623D01*
X63999185Y-68759087D01*
X63999501Y-68767933D01*
X63999501Y-69180376D01*
X64005908Y-69239983D01*
X64056202Y-69374828D01*
X64056206Y-69374835D01*
X64142452Y-69490044D01*
X64142455Y-69490047D01*
X64257664Y-69576293D01*
X64257671Y-69576297D01*
X64392517Y-69626591D01*
X64392516Y-69626591D01*
X64399444Y-69627335D01*
X64452127Y-69633000D01*
X66047872Y-69632999D01*
X66107483Y-69626591D01*
X66242331Y-69576296D01*
X66357546Y-69490046D01*
X66443796Y-69374831D01*
X66494091Y-69239983D01*
X66500500Y-69180373D01*
X66500499Y-67484117D01*
X70160000Y-67484117D01*
X70160000Y-67732500D01*
X70861518Y-67732500D01*
X70850889Y-67750909D01*
X70810000Y-67903509D01*
X70810000Y-68061491D01*
X70850889Y-68214091D01*
X70861518Y-68232500D01*
X70160000Y-68232500D01*
X70160000Y-68480882D01*
X70190778Y-68675205D01*
X70251581Y-68862335D01*
X70340904Y-69037643D01*
X70456555Y-69196821D01*
X70595678Y-69335944D01*
X70754856Y-69451595D01*
X70930162Y-69540918D01*
X71117283Y-69601718D01*
X71160000Y-69608484D01*
X71160000Y-68530982D01*
X71178409Y-68541611D01*
X71331009Y-68582500D01*
X71488991Y-68582500D01*
X71641591Y-68541611D01*
X71660000Y-68530982D01*
X71660000Y-69608483D01*
X71702716Y-69601718D01*
X71889837Y-69540918D01*
X72065143Y-69451595D01*
X72224321Y-69335944D01*
X72363444Y-69196821D01*
X72479095Y-69037643D01*
X72568418Y-68862335D01*
X72629221Y-68675205D01*
X72660000Y-68480882D01*
X72660000Y-68232500D01*
X71958482Y-68232500D01*
X71969111Y-68214091D01*
X72010000Y-68061491D01*
X72010000Y-67903509D01*
X71969111Y-67750909D01*
X71958482Y-67732500D01*
X72660000Y-67732500D01*
X72660000Y-67484117D01*
X72629221Y-67289794D01*
X72568418Y-67102664D01*
X72479095Y-66927356D01*
X72363444Y-66768178D01*
X72224321Y-66629055D01*
X72065143Y-66513404D01*
X71889835Y-66424081D01*
X71702705Y-66363278D01*
X71660000Y-66356514D01*
X71660000Y-67434017D01*
X71641591Y-67423389D01*
X71488991Y-67382500D01*
X71331009Y-67382500D01*
X71178409Y-67423389D01*
X71160000Y-67434017D01*
X71160000Y-66356514D01*
X71159999Y-66356514D01*
X71117294Y-66363278D01*
X70930164Y-66424081D01*
X70754856Y-66513404D01*
X70595678Y-66629055D01*
X70456555Y-66768178D01*
X70340904Y-66927356D01*
X70251581Y-67102664D01*
X70190778Y-67289794D01*
X70160000Y-67484117D01*
X66500499Y-67484117D01*
X66500499Y-66784628D01*
X66494091Y-66725017D01*
X66468925Y-66657544D01*
X66443797Y-66590171D01*
X66443793Y-66590164D01*
X66357547Y-66474955D01*
X66357544Y-66474952D01*
X66242335Y-66388706D01*
X66242328Y-66388702D01*
X66107482Y-66338408D01*
X66107483Y-66338408D01*
X66047883Y-66332001D01*
X66047881Y-66332000D01*
X66047873Y-66332000D01*
X66047865Y-66332000D01*
X65974500Y-66332000D01*
X65907461Y-66312315D01*
X65861706Y-66259511D01*
X65850500Y-66208000D01*
X65850500Y-64729369D01*
X65870185Y-64662330D01*
X65922989Y-64616575D01*
X65935486Y-64611666D01*
X66069334Y-64567314D01*
X66218655Y-64475211D01*
X66342711Y-64351155D01*
X66434814Y-64201834D01*
X66489999Y-64035297D01*
X66500500Y-63932508D01*
X66500500Y-62032492D01*
X66489999Y-61929703D01*
X66434814Y-61763166D01*
X66351856Y-61628672D01*
X66342713Y-61613848D01*
X66342710Y-61613844D01*
X66218655Y-61489789D01*
X66218651Y-61489786D01*
X66069337Y-61397687D01*
X66069335Y-61397686D01*
X65984896Y-61369706D01*
X65902797Y-61342501D01*
X65902795Y-61342500D01*
X65800015Y-61332000D01*
X65800008Y-61332000D01*
X64699992Y-61332000D01*
X64699984Y-61332000D01*
X64597204Y-61342500D01*
X64597203Y-61342501D01*
X64430664Y-61397686D01*
X64430662Y-61397687D01*
X64281348Y-61489786D01*
X64281344Y-61489789D01*
X64157289Y-61613844D01*
X64157286Y-61613848D01*
X64065187Y-61763162D01*
X64065186Y-61763164D01*
X64010001Y-61929703D01*
X64010000Y-61929704D01*
X63999500Y-62032484D01*
X63999500Y-63932515D01*
X64010000Y-64035295D01*
X64010001Y-64035297D01*
X64015800Y-64052796D01*
X64065186Y-64201835D01*
X64065187Y-64201837D01*
X64157286Y-64351151D01*
X64157289Y-64351155D01*
X64281344Y-64475210D01*
X64281348Y-64475213D01*
X64430662Y-64567312D01*
X64430664Y-64567313D01*
X64430666Y-64567314D01*
X64564505Y-64611664D01*
X64621949Y-64651435D01*
X64648772Y-64715951D01*
X64649500Y-64729369D01*
X64649500Y-66208000D01*
X64629815Y-66275039D01*
X64577011Y-66320794D01*
X64525502Y-66332000D01*
X64452130Y-66332000D01*
X64452123Y-66332001D01*
X64392516Y-66338408D01*
X64257671Y-66388702D01*
X64257664Y-66388706D01*
X64142455Y-66474952D01*
X64142452Y-66474955D01*
X64056206Y-66590164D01*
X64056202Y-66590171D01*
X64005908Y-66725017D01*
X63999501Y-66784616D01*
X63999501Y-66784623D01*
X63999500Y-66784635D01*
X63999500Y-67258000D01*
X63996949Y-67266685D01*
X63998238Y-67275647D01*
X63987259Y-67299687D01*
X63979815Y-67325039D01*
X63972974Y-67330966D01*
X63969213Y-67339203D01*
X63946978Y-67353492D01*
X63927011Y-67370794D01*
X63916496Y-67373081D01*
X63910435Y-67376977D01*
X63875500Y-67382000D01*
X63723007Y-67382000D01*
X63722991Y-67381999D01*
X63715395Y-67381999D01*
X63557281Y-67381999D01*
X63477348Y-67403417D01*
X63404554Y-67422922D01*
X63374239Y-67440425D01*
X63374238Y-67440424D01*
X63267625Y-67501977D01*
X63211490Y-67558112D01*
X63150166Y-67591596D01*
X63080475Y-67586611D01*
X63024541Y-67544740D01*
X63003374Y-67488560D01*
X63001263Y-67488895D01*
X62969709Y-67289673D01*
X62914570Y-67119975D01*
X62908884Y-67102475D01*
X62908882Y-67102472D01*
X62908882Y-67102470D01*
X62861743Y-67009955D01*
X62819524Y-66927095D01*
X62703828Y-66767854D01*
X62564646Y-66628672D01*
X62511654Y-66590171D01*
X62401614Y-66510221D01*
X62358949Y-66454890D01*
X62350500Y-66409903D01*
X62350500Y-64555096D01*
X62370185Y-64488057D01*
X62401614Y-64454778D01*
X62405403Y-64452024D01*
X62405405Y-64452024D01*
X62564646Y-64336328D01*
X62703828Y-64197146D01*
X62819524Y-64037905D01*
X62908884Y-63862525D01*
X62969709Y-63675326D01*
X62973620Y-63650634D01*
X63000500Y-63480922D01*
X63000500Y-62484077D01*
X62969709Y-62289673D01*
X62914570Y-62119975D01*
X62908884Y-62102475D01*
X62908882Y-62102472D01*
X62908882Y-62102470D01*
X62829769Y-61947203D01*
X62819524Y-61927095D01*
X62703828Y-61767854D01*
X62564646Y-61628672D01*
X62405405Y-61512976D01*
X62359892Y-61489786D01*
X62230029Y-61423617D01*
X62042826Y-61362790D01*
X61848422Y-61332000D01*
X61848417Y-61332000D01*
X61651583Y-61332000D01*
X61651578Y-61332000D01*
X61457173Y-61362790D01*
X61269970Y-61423617D01*
X61094594Y-61512976D01*
X61070508Y-61530476D01*
X60935354Y-61628672D01*
X60935352Y-61628674D01*
X60935351Y-61628674D01*
X60796174Y-61767851D01*
X60796174Y-61767852D01*
X60796172Y-61767854D01*
X60777369Y-61793734D01*
X60680476Y-61927094D01*
X60591117Y-62102470D01*
X60530290Y-62289673D01*
X60499500Y-62484077D01*
X60499500Y-63480922D01*
X60530290Y-63675326D01*
X60591117Y-63862529D01*
X60635694Y-63950015D01*
X60680476Y-64037905D01*
X60796172Y-64197146D01*
X60935354Y-64336328D01*
X61094005Y-64451595D01*
X61098386Y-64454778D01*
X61141051Y-64510108D01*
X61149500Y-64555096D01*
X61149500Y-66409903D01*
X61129815Y-66476942D01*
X61098386Y-66510221D01*
X60935352Y-66628673D01*
X60796174Y-66767851D01*
X60796174Y-66767852D01*
X60796172Y-66767854D01*
X60764502Y-66811444D01*
X60680476Y-66927094D01*
X60591117Y-67102470D01*
X60530290Y-67289673D01*
X60499500Y-67484077D01*
X60499500Y-68332402D01*
X60479815Y-68399441D01*
X60463181Y-68420083D01*
X57519481Y-71363782D01*
X57519477Y-71363787D01*
X57475233Y-71440422D01*
X57475233Y-71440423D01*
X57440423Y-71500714D01*
X57440423Y-71500715D01*
X57399499Y-71653443D01*
X57399499Y-71653445D01*
X57399499Y-71821546D01*
X57399500Y-71821559D01*
X57399500Y-81559902D01*
X57379815Y-81626941D01*
X57363181Y-81647583D01*
X56457230Y-82553533D01*
X56395907Y-82587018D01*
X56326215Y-82582034D01*
X56270282Y-82540162D01*
X56247075Y-82485248D01*
X56244352Y-82468057D01*
X56185789Y-82287821D01*
X56099752Y-82118966D01*
X56080745Y-82092806D01*
X55512137Y-82661413D01*
X55489333Y-82576306D01*
X55430090Y-82473694D01*
X55346306Y-82389910D01*
X55243694Y-82330667D01*
X55158584Y-82307861D01*
X55762235Y-81704210D01*
X55782038Y-81681517D01*
X55854679Y-81628741D01*
X55988741Y-81494679D01*
X56100181Y-81341296D01*
X56186254Y-81172368D01*
X56244842Y-80992055D01*
X56268438Y-80843072D01*
X56274500Y-80804800D01*
X56274500Y-80615199D01*
X56254131Y-80486597D01*
X56244842Y-80427945D01*
X56186254Y-80247632D01*
X56186252Y-80247629D01*
X56186252Y-80247627D01*
X56100180Y-80078703D01*
X56057166Y-80019500D01*
X55988741Y-79925321D01*
X55854679Y-79791259D01*
X55853389Y-79790322D01*
X55853018Y-79789841D01*
X55850974Y-79788095D01*
X55851340Y-79787665D01*
X55810720Y-79734997D01*
X55804736Y-79665384D01*
X55837337Y-79603587D01*
X55853385Y-79589680D01*
X55854679Y-79588741D01*
X55988741Y-79454679D01*
X56100181Y-79301296D01*
X56186254Y-79132368D01*
X56244842Y-78952055D01*
X56270930Y-78787339D01*
X56274500Y-78764800D01*
X56274500Y-78575199D01*
X56249500Y-78417355D01*
X56244842Y-78387945D01*
X56186254Y-78207632D01*
X56186252Y-78207629D01*
X56186252Y-78207627D01*
X56100180Y-78038703D01*
X55988741Y-77885321D01*
X55854679Y-77751259D01*
X55701296Y-77639819D01*
X55659361Y-77618452D01*
X55532372Y-77553747D01*
X55473905Y-77534750D01*
X55352055Y-77495158D01*
X55352051Y-77495157D01*
X55352050Y-77495157D01*
X55164800Y-77465500D01*
X55164796Y-77465500D01*
X54975204Y-77465500D01*
X54975200Y-77465500D01*
X54787949Y-77495157D01*
X54787946Y-77495157D01*
X54787945Y-77495158D01*
X54729482Y-77514153D01*
X54607627Y-77553747D01*
X54438703Y-77639819D01*
X54285319Y-77751260D01*
X54151260Y-77885319D01*
X54132593Y-77911012D01*
X54120159Y-77928127D01*
X54114818Y-77935478D01*
X54059487Y-77978143D01*
X53989874Y-77984122D01*
X53928079Y-77951516D01*
X53893722Y-77890677D01*
X53890500Y-77862592D01*
X53890500Y-75932950D01*
X53910185Y-75865911D01*
X53962989Y-75820156D01*
X54030688Y-75810011D01*
X54068573Y-75814999D01*
X54068583Y-75815000D01*
X54291425Y-75815000D01*
X54512354Y-75785914D01*
X54512367Y-75785911D01*
X54727618Y-75728236D01*
X54933502Y-75642954D01*
X54933514Y-75642949D01*
X55126498Y-75531530D01*
X55192403Y-75480957D01*
X55192404Y-75480956D01*
X54542293Y-74830846D01*
X54558942Y-74823951D01*
X54689970Y-74736401D01*
X54801401Y-74624970D01*
X54888951Y-74493942D01*
X54895846Y-74477294D01*
X55545956Y-75127404D01*
X55545957Y-75127403D01*
X55596530Y-75061498D01*
X55707949Y-74868514D01*
X55707954Y-74868502D01*
X55793236Y-74662618D01*
X55850911Y-74447367D01*
X55850914Y-74447354D01*
X55880000Y-74226424D01*
X55880000Y-74003575D01*
X55850914Y-73782645D01*
X55850911Y-73782632D01*
X55793236Y-73567381D01*
X55707954Y-73361497D01*
X55707949Y-73361485D01*
X55596533Y-73168507D01*
X55545956Y-73102595D01*
X55545955Y-73102595D01*
X54895846Y-73752704D01*
X54888951Y-73736058D01*
X54801401Y-73605030D01*
X54689970Y-73493599D01*
X54558942Y-73406049D01*
X54542293Y-73399152D01*
X55192403Y-72749043D01*
X55192403Y-72749040D01*
X55126504Y-72698473D01*
X55126491Y-72698464D01*
X54933520Y-72587054D01*
X54933502Y-72587045D01*
X54727618Y-72501763D01*
X54512367Y-72444088D01*
X54512354Y-72444085D01*
X54291425Y-72415000D01*
X54068575Y-72415000D01*
X53847645Y-72444085D01*
X53847632Y-72444088D01*
X53632381Y-72501763D01*
X53426497Y-72587045D01*
X53426479Y-72587054D01*
X53233511Y-72698462D01*
X53167595Y-72749042D01*
X53817706Y-73399152D01*
X53801058Y-73406049D01*
X53670030Y-73493599D01*
X53558599Y-73605030D01*
X53471049Y-73736058D01*
X53464152Y-73752706D01*
X52781820Y-73070373D01*
X52767116Y-73043445D01*
X52750524Y-73017627D01*
X52749632Y-73011426D01*
X52748335Y-73009050D01*
X52745501Y-72982692D01*
X52745501Y-70990083D01*
X52765186Y-70923044D01*
X52817990Y-70877289D01*
X52887148Y-70867345D01*
X52888656Y-70867572D01*
X52907139Y-70870500D01*
X52907146Y-70870500D01*
X53122866Y-70870500D01*
X53241230Y-70851752D01*
X53335926Y-70836754D01*
X53541089Y-70770092D01*
X53733299Y-70672157D01*
X53907821Y-70545359D01*
X54049807Y-70403372D01*
X54111126Y-70369890D01*
X54180818Y-70374874D01*
X54236752Y-70416745D01*
X54249864Y-70438645D01*
X54250181Y-70439326D01*
X54250186Y-70439334D01*
X54342288Y-70588656D01*
X54466344Y-70712712D01*
X54615666Y-70804814D01*
X54782203Y-70859999D01*
X54884991Y-70870500D01*
X56225008Y-70870499D01*
X56327797Y-70859999D01*
X56494334Y-70804814D01*
X56643656Y-70712712D01*
X56767712Y-70588656D01*
X56859814Y-70439334D01*
X56914999Y-70272797D01*
X56925500Y-70170009D01*
X56925499Y-68829992D01*
X56914999Y-68727203D01*
X56859814Y-68560666D01*
X56767712Y-68411344D01*
X56643656Y-68287288D01*
X56550888Y-68230069D01*
X56494336Y-68195187D01*
X56494331Y-68195185D01*
X56340496Y-68144209D01*
X56283051Y-68104436D01*
X56256228Y-68039920D01*
X56255500Y-68026503D01*
X56255500Y-63223497D01*
X56275185Y-63156458D01*
X56327989Y-63110703D01*
X56340496Y-63105791D01*
X56346409Y-63103831D01*
X56494334Y-63054814D01*
X56643656Y-62962712D01*
X56767712Y-62838656D01*
X56859814Y-62689334D01*
X56914999Y-62522797D01*
X56925500Y-62420009D01*
X56925499Y-61421517D01*
X56945183Y-61354479D01*
X56961813Y-61333842D01*
X57808838Y-60486819D01*
X57870161Y-60453334D01*
X57896519Y-60450500D01*
X71335981Y-60450500D01*
X71403020Y-60470185D01*
X71423662Y-60486819D01*
X72359332Y-61422489D01*
X72392817Y-61483811D01*
X72387833Y-61553502D01*
X72345961Y-61609436D01*
X72280497Y-61633853D01*
X72212224Y-61619001D01*
X72198765Y-61610487D01*
X72065143Y-61513404D01*
X71889835Y-61424081D01*
X71702705Y-61363278D01*
X71660000Y-61356514D01*
X71660000Y-62434017D01*
X71641591Y-62423389D01*
X71488991Y-62382500D01*
X71331009Y-62382500D01*
X71178409Y-62423389D01*
X71160000Y-62434017D01*
X71160000Y-61356514D01*
X71159999Y-61356514D01*
X71117294Y-61363278D01*
X70930164Y-61424081D01*
X70754856Y-61513404D01*
X70595678Y-61629055D01*
X70456555Y-61768178D01*
X70340904Y-61927356D01*
X70251581Y-62102664D01*
X70190778Y-62289794D01*
X70160000Y-62484117D01*
X70160000Y-62732500D01*
X70861518Y-62732500D01*
X70850889Y-62750909D01*
X70810000Y-62903509D01*
X70810000Y-63061491D01*
X70850889Y-63214091D01*
X70861518Y-63232500D01*
X70160000Y-63232500D01*
X70160000Y-63480882D01*
X70190778Y-63675205D01*
X70251581Y-63862335D01*
X70340904Y-64037643D01*
X70456555Y-64196821D01*
X70595678Y-64335944D01*
X70754856Y-64451595D01*
X70930162Y-64540918D01*
X71117283Y-64601718D01*
X71160000Y-64608484D01*
X71160000Y-63530982D01*
X71178409Y-63541611D01*
X71331009Y-63582500D01*
X71488991Y-63582500D01*
X71641591Y-63541611D01*
X71660000Y-63530982D01*
X71660000Y-64608483D01*
X71702716Y-64601718D01*
X71889837Y-64540918D01*
X72065143Y-64451595D01*
X72224321Y-64335944D01*
X72363444Y-64196821D01*
X72479095Y-64037643D01*
X72568418Y-63862335D01*
X72629221Y-63675205D01*
X72660000Y-63480882D01*
X72660000Y-63232500D01*
X71958482Y-63232500D01*
X71969111Y-63214091D01*
X72010000Y-63061491D01*
X72010000Y-62903509D01*
X71969111Y-62750909D01*
X71958482Y-62732500D01*
X72660000Y-62732500D01*
X72660000Y-62484117D01*
X72629221Y-62289794D01*
X72568418Y-62102664D01*
X72479095Y-61927356D01*
X72382012Y-61793734D01*
X72358532Y-61727928D01*
X72374357Y-61659874D01*
X72424463Y-61611179D01*
X72492941Y-61597303D01*
X72558050Y-61622652D01*
X72570011Y-61633167D01*
X73623181Y-62686337D01*
X73656666Y-62747660D01*
X73659500Y-62774018D01*
X73659500Y-63932515D01*
X73670000Y-64035295D01*
X73670001Y-64035297D01*
X73675800Y-64052796D01*
X73725186Y-64201835D01*
X73725187Y-64201837D01*
X73817286Y-64351151D01*
X73817289Y-64351155D01*
X73941344Y-64475210D01*
X73941348Y-64475213D01*
X74090657Y-64567309D01*
X74090660Y-64567310D01*
X74090666Y-64567314D01*
X74124503Y-64578526D01*
X74181948Y-64618298D01*
X74208772Y-64682813D01*
X74209500Y-64696232D01*
X74209500Y-66210148D01*
X74189815Y-66277187D01*
X74137011Y-66322942D01*
X74098755Y-66333438D01*
X74052516Y-66338409D01*
X73917671Y-66388702D01*
X73917664Y-66388706D01*
X73802455Y-66474952D01*
X73802452Y-66474955D01*
X73716206Y-66590164D01*
X73716202Y-66590171D01*
X73665908Y-66725017D01*
X73659501Y-66784616D01*
X73659501Y-66784623D01*
X73659500Y-66784635D01*
X73659500Y-69180370D01*
X73659501Y-69180376D01*
X73665908Y-69239983D01*
X73716202Y-69374828D01*
X73716206Y-69374835D01*
X73802452Y-69490044D01*
X73802455Y-69490047D01*
X73917664Y-69576293D01*
X73917671Y-69576297D01*
X74052517Y-69626591D01*
X74052516Y-69626591D01*
X74059444Y-69627335D01*
X74112127Y-69633000D01*
X75707872Y-69632999D01*
X75767483Y-69626591D01*
X75902331Y-69576296D01*
X76017546Y-69490046D01*
X76103796Y-69374831D01*
X76154091Y-69239983D01*
X76160500Y-69180373D01*
X76160499Y-66784628D01*
X76154091Y-66725017D01*
X76128925Y-66657544D01*
X76103797Y-66590171D01*
X76103793Y-66590164D01*
X76017547Y-66474955D01*
X76017544Y-66474952D01*
X75902335Y-66388706D01*
X75902328Y-66388702D01*
X75767483Y-66338408D01*
X75721243Y-66333437D01*
X75656693Y-66306699D01*
X75616845Y-66249306D01*
X75610500Y-66210148D01*
X75610500Y-64696232D01*
X75630185Y-64629193D01*
X75682989Y-64583438D01*
X75695492Y-64578527D01*
X75729334Y-64567314D01*
X75878655Y-64475211D01*
X76002711Y-64351155D01*
X76094814Y-64201834D01*
X76149999Y-64035297D01*
X76160500Y-63932508D01*
X76160500Y-62774018D01*
X76180185Y-62706980D01*
X76196819Y-62686338D01*
X77667338Y-61215819D01*
X77728661Y-61182334D01*
X77755019Y-61179500D01*
X80622241Y-61179500D01*
X80689280Y-61199185D01*
X80735035Y-61251989D01*
X80744979Y-61321147D01*
X80715954Y-61384703D01*
X80660561Y-61421430D01*
X80637807Y-61428823D01*
X80599970Y-61441117D01*
X80424594Y-61530476D01*
X80333741Y-61596485D01*
X80265354Y-61646172D01*
X80265352Y-61646174D01*
X80265351Y-61646174D01*
X80126174Y-61785351D01*
X80126174Y-61785352D01*
X80126172Y-61785354D01*
X80120084Y-61793734D01*
X80010476Y-61944594D01*
X79921117Y-62119970D01*
X79860290Y-62307173D01*
X79829500Y-62501577D01*
X79829500Y-63498418D01*
X79829499Y-63498420D01*
X79860290Y-63692826D01*
X79921117Y-63880029D01*
X80001426Y-64037643D01*
X80010476Y-64055405D01*
X80126172Y-64214646D01*
X80265354Y-64353828D01*
X80424595Y-64469524D01*
X80504246Y-64510108D01*
X80599970Y-64558882D01*
X80599972Y-64558882D01*
X80599975Y-64558884D01*
X80660427Y-64578526D01*
X80787173Y-64619709D01*
X80981578Y-64650500D01*
X80981583Y-64650500D01*
X81178422Y-64650500D01*
X81372826Y-64619709D01*
X81397589Y-64611663D01*
X81560025Y-64558884D01*
X81735405Y-64469524D01*
X81894646Y-64353828D01*
X82033828Y-64214646D01*
X82149524Y-64055405D01*
X82238884Y-63880025D01*
X82299709Y-63692826D01*
X82302500Y-63675205D01*
X82330500Y-63498420D01*
X82330500Y-62501577D01*
X82299709Y-62307173D01*
X82238882Y-62119970D01*
X82162524Y-61970110D01*
X82149524Y-61944595D01*
X82033828Y-61785354D01*
X81894646Y-61646172D01*
X81735405Y-61530476D01*
X81689892Y-61507286D01*
X81560029Y-61441117D01*
X81533139Y-61432380D01*
X81499438Y-61421430D01*
X81441765Y-61381993D01*
X81414567Y-61317634D01*
X81426482Y-61248788D01*
X81473726Y-61197312D01*
X81537759Y-61179500D01*
X83706768Y-61179500D01*
X83773807Y-61199185D01*
X83819562Y-61251989D01*
X83829506Y-61321147D01*
X83800481Y-61384703D01*
X83766275Y-61410522D01*
X83766813Y-61411394D01*
X83611348Y-61507286D01*
X83611344Y-61507289D01*
X83487289Y-61631344D01*
X83487286Y-61631348D01*
X83395187Y-61780662D01*
X83395186Y-61780664D01*
X83340001Y-61947203D01*
X83340000Y-61947204D01*
X83329500Y-62049984D01*
X83329500Y-63950015D01*
X83340000Y-64052795D01*
X83340001Y-64052797D01*
X83367593Y-64136065D01*
X83395186Y-64219335D01*
X83395187Y-64219337D01*
X83487286Y-64368651D01*
X83487289Y-64368655D01*
X83611344Y-64492710D01*
X83611348Y-64492713D01*
X83760662Y-64584812D01*
X83760664Y-64584813D01*
X83760666Y-64584814D01*
X83927203Y-64639999D01*
X84029992Y-64650500D01*
X84029997Y-64650500D01*
X85130003Y-64650500D01*
X85130008Y-64650500D01*
X85232797Y-64639999D01*
X85399334Y-64584814D01*
X85548655Y-64492711D01*
X85672711Y-64368655D01*
X85764814Y-64219334D01*
X85819999Y-64052797D01*
X85830500Y-63950008D01*
X85830500Y-62049992D01*
X85819999Y-61947203D01*
X85764814Y-61780666D01*
X85757111Y-61768178D01*
X85672713Y-61631348D01*
X85672710Y-61631344D01*
X85548655Y-61507289D01*
X85548651Y-61507286D01*
X85393187Y-61411394D01*
X85394081Y-61409943D01*
X85348386Y-61369706D01*
X85329236Y-61302512D01*
X85349454Y-61235631D01*
X85402621Y-61190299D01*
X85453232Y-61179500D01*
X89259192Y-61179500D01*
X89326231Y-61199185D01*
X89371986Y-61251989D01*
X89381930Y-61321147D01*
X89377123Y-61341819D01*
X89348734Y-61429190D01*
X89315000Y-61642179D01*
X89315000Y-61857820D01*
X89348734Y-62070809D01*
X89415372Y-62275901D01*
X89513271Y-62468036D01*
X89555410Y-62526034D01*
X89555410Y-62526035D01*
X90165294Y-61916151D01*
X90177141Y-61960362D01*
X90248891Y-62084638D01*
X90350362Y-62186109D01*
X90474638Y-62257859D01*
X90518848Y-62269705D01*
X89908963Y-62879588D01*
X89908964Y-62879589D01*
X89966958Y-62921724D01*
X89966971Y-62921732D01*
X90159098Y-63019627D01*
X90364190Y-63086265D01*
X90577180Y-63120000D01*
X90792820Y-63120000D01*
X91005809Y-63086265D01*
X91210901Y-63019627D01*
X91403036Y-62921728D01*
X91461034Y-62879589D01*
X91461034Y-62879588D01*
X90851151Y-62269705D01*
X90895362Y-62257859D01*
X91019638Y-62186109D01*
X91121109Y-62084638D01*
X91192859Y-61960362D01*
X91204705Y-61916151D01*
X91814588Y-62526034D01*
X91854373Y-62471278D01*
X91909703Y-62428613D01*
X91979317Y-62422635D01*
X92041111Y-62455242D01*
X92055007Y-62471278D01*
X92179641Y-62642821D01*
X92332179Y-62795359D01*
X92448110Y-62879588D01*
X92506702Y-62922158D01*
X92564098Y-62951402D01*
X92595587Y-62967446D01*
X92613969Y-62984807D01*
X92634910Y-62998980D01*
X92638940Y-63008390D01*
X92646383Y-63015420D01*
X92652460Y-63039961D01*
X92662416Y-63063207D01*
X92660718Y-63073304D01*
X92663179Y-63083240D01*
X92655024Y-63107170D01*
X92650831Y-63132110D01*
X92643943Y-63139686D01*
X92640642Y-63149376D01*
X92620840Y-63165101D01*
X92603833Y-63183811D01*
X92589615Y-63189899D01*
X92585928Y-63192828D01*
X92571389Y-63197705D01*
X92546166Y-63204464D01*
X92546165Y-63204464D01*
X92546163Y-63204465D01*
X92525208Y-63210080D01*
X92434358Y-63234423D01*
X92434353Y-63234426D01*
X92297434Y-63313475D01*
X92297426Y-63313481D01*
X87368481Y-68242426D01*
X87368477Y-68242431D01*
X87326979Y-68314310D01*
X87326979Y-68314311D01*
X87289423Y-68379358D01*
X87278511Y-68420083D01*
X87248499Y-68532087D01*
X87248499Y-68532089D01*
X87248499Y-68700190D01*
X87248500Y-68700203D01*
X87248500Y-74303325D01*
X87228815Y-74370364D01*
X87176011Y-74416119D01*
X87106853Y-74426063D01*
X87051614Y-74403643D01*
X87048386Y-74401298D01*
X86991296Y-74359819D01*
X86968789Y-74348351D01*
X86822372Y-74273747D01*
X86763905Y-74254750D01*
X86642055Y-74215158D01*
X86642051Y-74215157D01*
X86642050Y-74215157D01*
X86454800Y-74185500D01*
X86454796Y-74185500D01*
X86265204Y-74185500D01*
X86265200Y-74185500D01*
X86077949Y-74215157D01*
X86077946Y-74215157D01*
X86077945Y-74215158D01*
X86042189Y-74226776D01*
X85897627Y-74273747D01*
X85728703Y-74359819D01*
X85575319Y-74471260D01*
X85441260Y-74605319D01*
X85329819Y-74758703D01*
X85243747Y-74927627D01*
X85185157Y-75107949D01*
X85155500Y-75295199D01*
X85155500Y-75445500D01*
X85135815Y-75512539D01*
X85083011Y-75558294D01*
X85031500Y-75569500D01*
X84777102Y-75569500D01*
X84710063Y-75549815D01*
X84666617Y-75501795D01*
X84659784Y-75488385D01*
X84539471Y-75322786D01*
X84394713Y-75178028D01*
X84229113Y-75057715D01*
X84229112Y-75057714D01*
X84229110Y-75057713D01*
X84142145Y-75013402D01*
X84046723Y-74964781D01*
X83852034Y-74901522D01*
X83677495Y-74873878D01*
X83649852Y-74869500D01*
X83445148Y-74869500D01*
X83420829Y-74873351D01*
X83242965Y-74901522D01*
X83048276Y-74964781D01*
X82865886Y-75057715D01*
X82700286Y-75178028D01*
X82555528Y-75322786D01*
X82435215Y-75488386D01*
X82342281Y-75670776D01*
X82279022Y-75865465D01*
X82247000Y-76067648D01*
X82247000Y-76272351D01*
X82279022Y-76474534D01*
X82342281Y-76669223D01*
X82384082Y-76751260D01*
X82430820Y-76842989D01*
X82435215Y-76851613D01*
X82555528Y-77017213D01*
X82700286Y-77161971D01*
X82855249Y-77274556D01*
X82865890Y-77282287D01*
X82982107Y-77341503D01*
X83048276Y-77375218D01*
X83048278Y-77375218D01*
X83048281Y-77375220D01*
X83118234Y-77397949D01*
X83242965Y-77438477D01*
X83344057Y-77454488D01*
X83445148Y-77470500D01*
X83445149Y-77470500D01*
X83649851Y-77470500D01*
X83649852Y-77470500D01*
X83852034Y-77438477D01*
X84046719Y-77375220D01*
X84229110Y-77282287D01*
X84331872Y-77207627D01*
X84394713Y-77161971D01*
X84394715Y-77161968D01*
X84394719Y-77161966D01*
X84539466Y-77017219D01*
X84539468Y-77017215D01*
X84539471Y-77017213D01*
X84659784Y-76851614D01*
X84659785Y-76851613D01*
X84659787Y-76851610D01*
X84666617Y-76838204D01*
X84714591Y-76787409D01*
X84777102Y-76770500D01*
X85288583Y-76770500D01*
X85355622Y-76790185D01*
X85401377Y-76842989D01*
X85411321Y-76912147D01*
X85388901Y-76967384D01*
X85361484Y-77005120D01*
X85329819Y-77048703D01*
X85243747Y-77217627D01*
X85185157Y-77397949D01*
X85155500Y-77585199D01*
X85155500Y-77774800D01*
X85183489Y-77951516D01*
X85185158Y-77962055D01*
X85210063Y-78038703D01*
X85243747Y-78142372D01*
X85324724Y-78301296D01*
X85329819Y-78311296D01*
X85441259Y-78464679D01*
X85575321Y-78598741D01*
X85608387Y-78622765D01*
X85651051Y-78678092D01*
X85659500Y-78723081D01*
X85659500Y-82493712D01*
X85659500Y-82631700D01*
X85659500Y-82631702D01*
X85659499Y-82631702D01*
X85686418Y-82767028D01*
X85686421Y-82767038D01*
X85739222Y-82894513D01*
X85815887Y-83009251D01*
X85815888Y-83009252D01*
X90178180Y-87371542D01*
X90247934Y-87441296D01*
X90275753Y-87469115D01*
X90390479Y-87545773D01*
X90390481Y-87545774D01*
X90390483Y-87545775D01*
X90424128Y-87559711D01*
X90517965Y-87598580D01*
X90544885Y-87603934D01*
X90639162Y-87622687D01*
X90653300Y-87625500D01*
X90653301Y-87625500D01*
X92466702Y-87625500D01*
X92566245Y-87605699D01*
X92602034Y-87598580D01*
X92671742Y-87569706D01*
X92729513Y-87545777D01*
X92729514Y-87545776D01*
X92729517Y-87545775D01*
X92844249Y-87469114D01*
X94609114Y-85704249D01*
X94685775Y-85589517D01*
X94691788Y-85575002D01*
X94738578Y-85462038D01*
X94738580Y-85462034D01*
X94765500Y-85326700D01*
X94765500Y-85188712D01*
X94765500Y-81756007D01*
X94748491Y-81670500D01*
X94738580Y-81620672D01*
X94685775Y-81493189D01*
X94675740Y-81478170D01*
X94670667Y-81464449D01*
X94669236Y-81443602D01*
X94662993Y-81423666D01*
X94666892Y-81409450D01*
X94665883Y-81394744D01*
X94675949Y-81376434D01*
X94681476Y-81356286D01*
X94694377Y-81342914D01*
X94699544Y-81333517D01*
X94707726Y-81329079D01*
X94718080Y-81318348D01*
X94799249Y-81264114D01*
X98849114Y-77214249D01*
X98925775Y-77099517D01*
X98978580Y-76972034D01*
X98988873Y-76920289D01*
X99005500Y-76836702D01*
X99005500Y-70973497D01*
X99025185Y-70906458D01*
X99077989Y-70860703D01*
X99090496Y-70855791D01*
X99096409Y-70853831D01*
X99244334Y-70804814D01*
X99393656Y-70712712D01*
X99517712Y-70588656D01*
X99609814Y-70439334D01*
X99664999Y-70272797D01*
X99675500Y-70170009D01*
X99675499Y-68829992D01*
X99664999Y-68727203D01*
X99609814Y-68560666D01*
X99517712Y-68411344D01*
X99393656Y-68287288D01*
X99300888Y-68230069D01*
X99244336Y-68195187D01*
X99244331Y-68195185D01*
X99090496Y-68144209D01*
X99033051Y-68104436D01*
X99006228Y-68039920D01*
X99005500Y-68026503D01*
X99005500Y-63223497D01*
X99025185Y-63156458D01*
X99077989Y-63110703D01*
X99090496Y-63105791D01*
X99096409Y-63103831D01*
X99244334Y-63054814D01*
X99393656Y-62962712D01*
X99517712Y-62838656D01*
X99609814Y-62689334D01*
X99664999Y-62522797D01*
X99675500Y-62420009D01*
X99675499Y-61079992D01*
X99664999Y-60977203D01*
X99609814Y-60810666D01*
X99517712Y-60661344D01*
X99393656Y-60537288D01*
X99257544Y-60453334D01*
X99244336Y-60445187D01*
X99244331Y-60445185D01*
X99242862Y-60444698D01*
X99077797Y-60390001D01*
X99077795Y-60390000D01*
X98975016Y-60379500D01*
X98975009Y-60379500D01*
X97976519Y-60379500D01*
X97909480Y-60359815D01*
X97888838Y-60343181D01*
X97480546Y-59934888D01*
X97480545Y-59934887D01*
X97365807Y-59858222D01*
X97238332Y-59805421D01*
X97238322Y-59805418D01*
X97102996Y-59778500D01*
X97102994Y-59778500D01*
X97102993Y-59778500D01*
X77482494Y-59778500D01*
X77344506Y-59778500D01*
X77344504Y-59778500D01*
X77209177Y-59805418D01*
X77209167Y-59805421D01*
X77081692Y-59858222D01*
X76966954Y-59934887D01*
X75601327Y-61300514D01*
X75540004Y-61333999D01*
X75501047Y-61336191D01*
X75460024Y-61332001D01*
X75460012Y-61332000D01*
X75460008Y-61332000D01*
X74359992Y-61332000D01*
X74359987Y-61332000D01*
X74359975Y-61332001D01*
X74318952Y-61336191D01*
X74250259Y-61323420D01*
X74218672Y-61300514D01*
X72124045Y-59205887D01*
X72009307Y-59129222D01*
X71881832Y-59076421D01*
X71881822Y-59076418D01*
X71746496Y-59049500D01*
X71746494Y-59049500D01*
X71746493Y-59049500D01*
X57486007Y-59049500D01*
X57486005Y-59049500D01*
X57350677Y-59076418D01*
X57350667Y-59076421D01*
X57223192Y-59129222D01*
X57108454Y-59205887D01*
X57108453Y-59205888D01*
X55971161Y-60343181D01*
X55909838Y-60376666D01*
X55883480Y-60379500D01*
X55226519Y-60379500D01*
X55159480Y-60359815D01*
X55138838Y-60343181D01*
X54001546Y-59205888D01*
X54001545Y-59205887D01*
X53886807Y-59129222D01*
X53759332Y-59076421D01*
X53759322Y-59076418D01*
X53623996Y-59049500D01*
X53623994Y-59049500D01*
X53623993Y-59049500D01*
X47181007Y-59049500D01*
X47181003Y-59049500D01*
X47072590Y-59071065D01*
X47072589Y-59071065D01*
X47059131Y-59073742D01*
X47045673Y-59076419D01*
X47008330Y-59091887D01*
X46918189Y-59129224D01*
X46876960Y-59156772D01*
X46849412Y-59175180D01*
X46849411Y-59175181D01*
X46803458Y-59205884D01*
X46803453Y-59205888D01*
X43955887Y-62053454D01*
X43879222Y-62168192D01*
X43826421Y-62295667D01*
X43826418Y-62295679D01*
X43801052Y-62423205D01*
X43801051Y-62423212D01*
X43799500Y-62431007D01*
X43799500Y-74911006D01*
X43799500Y-75048994D01*
X43799500Y-75048996D01*
X43799499Y-75048996D01*
X40125500Y-75048996D01*
X40125500Y-55253246D01*
X40125670Y-55246756D01*
X40126670Y-55227675D01*
X40149836Y-55161758D01*
X40204962Y-55118829D01*
X40274547Y-55112519D01*
X40336496Y-55144830D01*
X40371142Y-55205505D01*
X40374500Y-55234165D01*
X40374500Y-55404471D01*
X40409086Y-55711437D01*
X40409089Y-55711455D01*
X40477831Y-56012635D01*
X40477835Y-56012647D01*
X40579862Y-56304222D01*
X40579868Y-56304236D01*
X40713903Y-56582562D01*
X40713905Y-56582565D01*
X40878265Y-56844143D01*
X41070880Y-57085674D01*
X41289326Y-57304120D01*
X41530857Y-57496735D01*
X41792435Y-57661095D01*
X42070771Y-57795135D01*
X42070777Y-57795137D01*
X42362352Y-57897164D01*
X42362364Y-57897168D01*
X42663548Y-57965911D01*
X42663554Y-57965911D01*
X42663562Y-57965913D01*
X42868206Y-57988970D01*
X42970529Y-58000499D01*
X42970532Y-58000500D01*
X42970535Y-58000500D01*
X43279468Y-58000500D01*
X43279469Y-58000499D01*
X43436356Y-57982822D01*
X43586437Y-57965913D01*
X43586442Y-57965912D01*
X43586452Y-57965911D01*
X43887636Y-57897168D01*
X44179229Y-57795135D01*
X44457565Y-57661095D01*
X44719143Y-57496735D01*
X44960674Y-57304120D01*
X45179120Y-57085674D01*
X45371735Y-56844143D01*
X45536095Y-56582565D01*
X45670135Y-56304229D01*
X45772168Y-56012636D01*
X45840911Y-55711452D01*
X45875500Y-55404465D01*
X45875500Y-55095535D01*
X45863970Y-54993206D01*
X45840913Y-54788562D01*
X45840910Y-54788544D01*
X45772168Y-54487364D01*
X45772164Y-54487352D01*
X45670137Y-54195777D01*
X45670135Y-54195771D01*
X45536095Y-53917435D01*
X45371735Y-53655857D01*
X45179120Y-53414326D01*
X44960674Y-53195880D01*
X44719143Y-53003265D01*
X44457565Y-52838905D01*
X44457562Y-52838903D01*
X44179236Y-52704868D01*
X44179222Y-52704862D01*
X43887647Y-52602835D01*
X43887635Y-52602831D01*
X43586455Y-52534089D01*
X43586437Y-52534086D01*
X43279471Y-52499500D01*
X43279465Y-52499500D01*
X43109166Y-52499500D01*
X43078638Y-52490535D01*
X43047678Y-52483181D01*
X43045348Y-52480760D01*
X43042127Y-52479815D01*
X43021296Y-52455775D01*
X42999222Y-52432844D01*
X42998570Y-52429548D01*
X42996372Y-52427011D01*
X42991843Y-52395518D01*
X42985673Y-52364301D01*
X42986906Y-52361177D01*
X42986428Y-52357853D01*
X42999645Y-52328910D01*
X43011331Y-52299313D01*
X43014058Y-52297351D01*
X43015453Y-52294297D01*
X43042216Y-52277097D01*
X43068052Y-52258514D01*
X43072501Y-52257634D01*
X43074231Y-52256523D01*
X43102676Y-52251670D01*
X43121756Y-52250670D01*
X43128246Y-52250500D01*
X43190892Y-52250500D01*
X103059108Y-52250500D01*
X103121754Y-52250500D01*
X103128244Y-52250670D01*
G37*
G04 #@! TD.AperFunction*
M02*
