G04 #@! TF.GenerationSoftware,KiCad,Pcbnew,9.0.2*
G04 #@! TF.CreationDate,2025-11-18T17:36:02+08:00*
G04 #@! TF.ProjectId,rio module,72696f20-6d6f-4647-956c-652e6b696361,rev?*
G04 #@! TF.SameCoordinates,Original*
G04 #@! TF.FileFunction,Legend,Bot*
G04 #@! TF.FilePolarity,Positive*
%FSLAX46Y46*%
G04 Gerber Fmt 4.6, Leading zero omitted, Abs format (unit mm)*
G04 Created by KiCad (PCBNEW 9.0.2) date 2025-11-18 17:36:02*
%MOMM*%
%LPD*%
G01*
G04 APERTURE LIST*
G04 Aperture macros list*
%AMRoundRect*
0 Rectangle with rounded corners*
0 $1 Rounding radius*
0 $2 $3 $4 $5 $6 $7 $8 $9 X,Y pos of 4 corners*
0 Add a 4 corners polygon primitive as box body*
4,1,4,$2,$3,$4,$5,$6,$7,$8,$9,$2,$3,0*
0 Add four circle primitives for the rounded corners*
1,1,$1+$1,$2,$3*
1,1,$1+$1,$4,$5*
1,1,$1+$1,$6,$7*
1,1,$1+$1,$8,$9*
0 Add four rect primitives between the rounded corners*
20,1,$1+$1,$2,$3,$4,$5,0*
20,1,$1+$1,$4,$5,$6,$7,0*
20,1,$1+$1,$6,$7,$8,$9,0*
20,1,$1+$1,$8,$9,$2,$3,0*%
%AMFreePoly0*
4,1,23,0.500000,-0.750000,0.000000,-0.750000,0.000000,-0.745722,-0.065263,-0.745722,-0.191342,-0.711940,-0.304381,-0.646677,-0.396677,-0.554381,-0.461940,-0.441342,-0.495722,-0.315263,-0.495722,-0.250000,-0.500000,-0.250000,-0.500000,0.250000,-0.495722,0.250000,-0.495722,0.315263,-0.461940,0.441342,-0.396677,0.554381,-0.304381,0.646677,-0.191342,0.711940,-0.065263,0.745722,0.000000,0.745722,
0.000000,0.750000,0.500000,0.750000,0.500000,-0.750000,0.500000,-0.750000,$1*%
%AMFreePoly1*
4,1,23,0.000000,0.745722,0.065263,0.745722,0.191342,0.711940,0.304381,0.646677,0.396677,0.554381,0.461940,0.441342,0.495722,0.315263,0.495722,0.250000,0.500000,0.250000,0.500000,-0.250000,0.495722,-0.250000,0.495722,-0.315263,0.461940,-0.441342,0.396677,-0.554381,0.304381,-0.646677,0.191342,-0.711940,0.065263,-0.745722,0.000000,-0.745722,0.000000,-0.750000,-0.500000,-0.750000,
-0.500000,0.750000,0.000000,0.750000,0.000000,0.745722,0.000000,0.745722,$1*%
G04 Aperture macros list end*
%ADD10C,0.100000*%
%ADD11C,0.120000*%
%ADD12C,3.200000*%
%ADD13RoundRect,0.102000X-0.704000X0.704000X-0.704000X-0.704000X0.704000X-0.704000X0.704000X0.704000X0*%
%ADD14C,1.612000*%
%ADD15C,2.604000*%
%ADD16RoundRect,0.250000X0.620000X0.620000X-0.620000X0.620000X-0.620000X-0.620000X0.620000X-0.620000X0*%
%ADD17C,1.740000*%
%ADD18R,1.500000X2.300000*%
%ADD19RoundRect,0.250001X0.499999X0.899999X-0.499999X0.899999X-0.499999X-0.899999X0.499999X-0.899999X0*%
%ADD20O,1.500000X2.300000*%
%ADD21C,1.600000*%
%ADD22R,1.200000X1.200000*%
%ADD23C,1.200000*%
%ADD24RoundRect,0.102000X0.704000X-0.704000X0.704000X0.704000X-0.704000X0.704000X-0.704000X-0.704000X0*%
%ADD25FreePoly0,270.000000*%
%ADD26FreePoly1,270.000000*%
G04 APERTURE END LIST*
D10*
X91743734Y-65646895D02*
X91743734Y-64846895D01*
X91743734Y-64846895D02*
X91553258Y-64846895D01*
X91553258Y-64846895D02*
X91438972Y-64884990D01*
X91438972Y-64884990D02*
X91362782Y-64961180D01*
X91362782Y-64961180D02*
X91324687Y-65037371D01*
X91324687Y-65037371D02*
X91286591Y-65189752D01*
X91286591Y-65189752D02*
X91286591Y-65304038D01*
X91286591Y-65304038D02*
X91324687Y-65456419D01*
X91324687Y-65456419D02*
X91362782Y-65532609D01*
X91362782Y-65532609D02*
X91438972Y-65608800D01*
X91438972Y-65608800D02*
X91553258Y-65646895D01*
X91553258Y-65646895D02*
X91743734Y-65646895D01*
X90943734Y-65646895D02*
X90943734Y-64846895D01*
X90410401Y-64846895D02*
X90258020Y-64846895D01*
X90258020Y-64846895D02*
X90181830Y-64884990D01*
X90181830Y-64884990D02*
X90105639Y-64961180D01*
X90105639Y-64961180D02*
X90067544Y-65113561D01*
X90067544Y-65113561D02*
X90067544Y-65380228D01*
X90067544Y-65380228D02*
X90105639Y-65532609D01*
X90105639Y-65532609D02*
X90181830Y-65608800D01*
X90181830Y-65608800D02*
X90258020Y-65646895D01*
X90258020Y-65646895D02*
X90410401Y-65646895D01*
X90410401Y-65646895D02*
X90486592Y-65608800D01*
X90486592Y-65608800D02*
X90562782Y-65532609D01*
X90562782Y-65532609D02*
X90600878Y-65380228D01*
X90600878Y-65380228D02*
X90600878Y-65113561D01*
X90600878Y-65113561D02*
X90562782Y-64961180D01*
X90562782Y-64961180D02*
X90486592Y-64884990D01*
X90486592Y-64884990D02*
X90410401Y-64846895D01*
X88696116Y-65646895D02*
X89153259Y-65646895D01*
X88924687Y-65646895D02*
X88924687Y-64846895D01*
X88924687Y-64846895D02*
X89000878Y-64961180D01*
X89000878Y-64961180D02*
X89077068Y-65037371D01*
X89077068Y-65037371D02*
X89153259Y-65075466D01*
X87400877Y-65646895D02*
X87400877Y-65227847D01*
X87400877Y-65227847D02*
X87438972Y-65151657D01*
X87438972Y-65151657D02*
X87515163Y-65113561D01*
X87515163Y-65113561D02*
X87667544Y-65113561D01*
X87667544Y-65113561D02*
X87743734Y-65151657D01*
X87400877Y-65608800D02*
X87477068Y-65646895D01*
X87477068Y-65646895D02*
X87667544Y-65646895D01*
X87667544Y-65646895D02*
X87743734Y-65608800D01*
X87743734Y-65608800D02*
X87781830Y-65532609D01*
X87781830Y-65532609D02*
X87781830Y-65456419D01*
X87781830Y-65456419D02*
X87743734Y-65380228D01*
X87743734Y-65380228D02*
X87667544Y-65342133D01*
X87667544Y-65342133D02*
X87477068Y-65342133D01*
X87477068Y-65342133D02*
X87400877Y-65304038D01*
X86905639Y-65646895D02*
X86981829Y-65608800D01*
X86981829Y-65608800D02*
X87019924Y-65532609D01*
X87019924Y-65532609D02*
X87019924Y-64846895D01*
X86715162Y-65113561D02*
X86410400Y-65113561D01*
X86600876Y-64846895D02*
X86600876Y-65532609D01*
X86600876Y-65532609D02*
X86562781Y-65608800D01*
X86562781Y-65608800D02*
X86486591Y-65646895D01*
X86486591Y-65646895D02*
X86410400Y-65646895D01*
X48993734Y-65646895D02*
X48993734Y-64846895D01*
X48993734Y-64846895D02*
X48803258Y-64846895D01*
X48803258Y-64846895D02*
X48688972Y-64884990D01*
X48688972Y-64884990D02*
X48612782Y-64961180D01*
X48612782Y-64961180D02*
X48574687Y-65037371D01*
X48574687Y-65037371D02*
X48536591Y-65189752D01*
X48536591Y-65189752D02*
X48536591Y-65304038D01*
X48536591Y-65304038D02*
X48574687Y-65456419D01*
X48574687Y-65456419D02*
X48612782Y-65532609D01*
X48612782Y-65532609D02*
X48688972Y-65608800D01*
X48688972Y-65608800D02*
X48803258Y-65646895D01*
X48803258Y-65646895D02*
X48993734Y-65646895D01*
X48193734Y-65646895D02*
X48193734Y-64846895D01*
X47660401Y-64846895D02*
X47508020Y-64846895D01*
X47508020Y-64846895D02*
X47431830Y-64884990D01*
X47431830Y-64884990D02*
X47355639Y-64961180D01*
X47355639Y-64961180D02*
X47317544Y-65113561D01*
X47317544Y-65113561D02*
X47317544Y-65380228D01*
X47317544Y-65380228D02*
X47355639Y-65532609D01*
X47355639Y-65532609D02*
X47431830Y-65608800D01*
X47431830Y-65608800D02*
X47508020Y-65646895D01*
X47508020Y-65646895D02*
X47660401Y-65646895D01*
X47660401Y-65646895D02*
X47736592Y-65608800D01*
X47736592Y-65608800D02*
X47812782Y-65532609D01*
X47812782Y-65532609D02*
X47850878Y-65380228D01*
X47850878Y-65380228D02*
X47850878Y-65113561D01*
X47850878Y-65113561D02*
X47812782Y-64961180D01*
X47812782Y-64961180D02*
X47736592Y-64884990D01*
X47736592Y-64884990D02*
X47660401Y-64846895D01*
X46212782Y-64846895D02*
X46136592Y-64846895D01*
X46136592Y-64846895D02*
X46060401Y-64884990D01*
X46060401Y-64884990D02*
X46022306Y-64923085D01*
X46022306Y-64923085D02*
X45984211Y-64999276D01*
X45984211Y-64999276D02*
X45946116Y-65151657D01*
X45946116Y-65151657D02*
X45946116Y-65342133D01*
X45946116Y-65342133D02*
X45984211Y-65494514D01*
X45984211Y-65494514D02*
X46022306Y-65570704D01*
X46022306Y-65570704D02*
X46060401Y-65608800D01*
X46060401Y-65608800D02*
X46136592Y-65646895D01*
X46136592Y-65646895D02*
X46212782Y-65646895D01*
X46212782Y-65646895D02*
X46288973Y-65608800D01*
X46288973Y-65608800D02*
X46327068Y-65570704D01*
X46327068Y-65570704D02*
X46365163Y-65494514D01*
X46365163Y-65494514D02*
X46403259Y-65342133D01*
X46403259Y-65342133D02*
X46403259Y-65151657D01*
X46403259Y-65151657D02*
X46365163Y-64999276D01*
X46365163Y-64999276D02*
X46327068Y-64923085D01*
X46327068Y-64923085D02*
X46288973Y-64884990D01*
X46288973Y-64884990D02*
X46212782Y-64846895D01*
X44650877Y-65646895D02*
X44650877Y-65227847D01*
X44650877Y-65227847D02*
X44688972Y-65151657D01*
X44688972Y-65151657D02*
X44765163Y-65113561D01*
X44765163Y-65113561D02*
X44917544Y-65113561D01*
X44917544Y-65113561D02*
X44993734Y-65151657D01*
X44650877Y-65608800D02*
X44727068Y-65646895D01*
X44727068Y-65646895D02*
X44917544Y-65646895D01*
X44917544Y-65646895D02*
X44993734Y-65608800D01*
X44993734Y-65608800D02*
X45031830Y-65532609D01*
X45031830Y-65532609D02*
X45031830Y-65456419D01*
X45031830Y-65456419D02*
X44993734Y-65380228D01*
X44993734Y-65380228D02*
X44917544Y-65342133D01*
X44917544Y-65342133D02*
X44727068Y-65342133D01*
X44727068Y-65342133D02*
X44650877Y-65304038D01*
X44155639Y-65646895D02*
X44231829Y-65608800D01*
X44231829Y-65608800D02*
X44269924Y-65532609D01*
X44269924Y-65532609D02*
X44269924Y-64846895D01*
X43965162Y-65113561D02*
X43660400Y-65113561D01*
X43850876Y-64846895D02*
X43850876Y-65532609D01*
X43850876Y-65532609D02*
X43812781Y-65608800D01*
X43812781Y-65608800D02*
X43736591Y-65646895D01*
X43736591Y-65646895D02*
X43660400Y-65646895D01*
X102493734Y-65646895D02*
X102493734Y-64846895D01*
X102493734Y-64846895D02*
X102303258Y-64846895D01*
X102303258Y-64846895D02*
X102188972Y-64884990D01*
X102188972Y-64884990D02*
X102112782Y-64961180D01*
X102112782Y-64961180D02*
X102074687Y-65037371D01*
X102074687Y-65037371D02*
X102036591Y-65189752D01*
X102036591Y-65189752D02*
X102036591Y-65304038D01*
X102036591Y-65304038D02*
X102074687Y-65456419D01*
X102074687Y-65456419D02*
X102112782Y-65532609D01*
X102112782Y-65532609D02*
X102188972Y-65608800D01*
X102188972Y-65608800D02*
X102303258Y-65646895D01*
X102303258Y-65646895D02*
X102493734Y-65646895D01*
X101693734Y-65646895D02*
X101693734Y-64846895D01*
X101160401Y-64846895D02*
X101008020Y-64846895D01*
X101008020Y-64846895D02*
X100931830Y-64884990D01*
X100931830Y-64884990D02*
X100855639Y-64961180D01*
X100855639Y-64961180D02*
X100817544Y-65113561D01*
X100817544Y-65113561D02*
X100817544Y-65380228D01*
X100817544Y-65380228D02*
X100855639Y-65532609D01*
X100855639Y-65532609D02*
X100931830Y-65608800D01*
X100931830Y-65608800D02*
X101008020Y-65646895D01*
X101008020Y-65646895D02*
X101160401Y-65646895D01*
X101160401Y-65646895D02*
X101236592Y-65608800D01*
X101236592Y-65608800D02*
X101312782Y-65532609D01*
X101312782Y-65532609D02*
X101350878Y-65380228D01*
X101350878Y-65380228D02*
X101350878Y-65113561D01*
X101350878Y-65113561D02*
X101312782Y-64961180D01*
X101312782Y-64961180D02*
X101236592Y-64884990D01*
X101236592Y-64884990D02*
X101160401Y-64846895D01*
X99941354Y-64846895D02*
X99446116Y-64846895D01*
X99446116Y-64846895D02*
X99712782Y-65151657D01*
X99712782Y-65151657D02*
X99598497Y-65151657D01*
X99598497Y-65151657D02*
X99522306Y-65189752D01*
X99522306Y-65189752D02*
X99484211Y-65227847D01*
X99484211Y-65227847D02*
X99446116Y-65304038D01*
X99446116Y-65304038D02*
X99446116Y-65494514D01*
X99446116Y-65494514D02*
X99484211Y-65570704D01*
X99484211Y-65570704D02*
X99522306Y-65608800D01*
X99522306Y-65608800D02*
X99598497Y-65646895D01*
X99598497Y-65646895D02*
X99827068Y-65646895D01*
X99827068Y-65646895D02*
X99903259Y-65608800D01*
X99903259Y-65608800D02*
X99941354Y-65570704D01*
X98150877Y-65646895D02*
X98150877Y-65227847D01*
X98150877Y-65227847D02*
X98188972Y-65151657D01*
X98188972Y-65151657D02*
X98265163Y-65113561D01*
X98265163Y-65113561D02*
X98417544Y-65113561D01*
X98417544Y-65113561D02*
X98493734Y-65151657D01*
X98150877Y-65608800D02*
X98227068Y-65646895D01*
X98227068Y-65646895D02*
X98417544Y-65646895D01*
X98417544Y-65646895D02*
X98493734Y-65608800D01*
X98493734Y-65608800D02*
X98531830Y-65532609D01*
X98531830Y-65532609D02*
X98531830Y-65456419D01*
X98531830Y-65456419D02*
X98493734Y-65380228D01*
X98493734Y-65380228D02*
X98417544Y-65342133D01*
X98417544Y-65342133D02*
X98227068Y-65342133D01*
X98227068Y-65342133D02*
X98150877Y-65304038D01*
X97655639Y-65646895D02*
X97731829Y-65608800D01*
X97731829Y-65608800D02*
X97769924Y-65532609D01*
X97769924Y-65532609D02*
X97769924Y-64846895D01*
X97465162Y-65113561D02*
X97160400Y-65113561D01*
X97350876Y-64846895D02*
X97350876Y-65532609D01*
X97350876Y-65532609D02*
X97312781Y-65608800D01*
X97312781Y-65608800D02*
X97236591Y-65646895D01*
X97236591Y-65646895D02*
X97160400Y-65646895D01*
X59743734Y-65646895D02*
X59743734Y-64846895D01*
X59743734Y-64846895D02*
X59553258Y-64846895D01*
X59553258Y-64846895D02*
X59438972Y-64884990D01*
X59438972Y-64884990D02*
X59362782Y-64961180D01*
X59362782Y-64961180D02*
X59324687Y-65037371D01*
X59324687Y-65037371D02*
X59286591Y-65189752D01*
X59286591Y-65189752D02*
X59286591Y-65304038D01*
X59286591Y-65304038D02*
X59324687Y-65456419D01*
X59324687Y-65456419D02*
X59362782Y-65532609D01*
X59362782Y-65532609D02*
X59438972Y-65608800D01*
X59438972Y-65608800D02*
X59553258Y-65646895D01*
X59553258Y-65646895D02*
X59743734Y-65646895D01*
X58943734Y-65646895D02*
X58943734Y-64846895D01*
X58410401Y-64846895D02*
X58258020Y-64846895D01*
X58258020Y-64846895D02*
X58181830Y-64884990D01*
X58181830Y-64884990D02*
X58105639Y-64961180D01*
X58105639Y-64961180D02*
X58067544Y-65113561D01*
X58067544Y-65113561D02*
X58067544Y-65380228D01*
X58067544Y-65380228D02*
X58105639Y-65532609D01*
X58105639Y-65532609D02*
X58181830Y-65608800D01*
X58181830Y-65608800D02*
X58258020Y-65646895D01*
X58258020Y-65646895D02*
X58410401Y-65646895D01*
X58410401Y-65646895D02*
X58486592Y-65608800D01*
X58486592Y-65608800D02*
X58562782Y-65532609D01*
X58562782Y-65532609D02*
X58600878Y-65380228D01*
X58600878Y-65380228D02*
X58600878Y-65113561D01*
X58600878Y-65113561D02*
X58562782Y-64961180D01*
X58562782Y-64961180D02*
X58486592Y-64884990D01*
X58486592Y-64884990D02*
X58410401Y-64846895D01*
X57153259Y-64923085D02*
X57115163Y-64884990D01*
X57115163Y-64884990D02*
X57038973Y-64846895D01*
X57038973Y-64846895D02*
X56848497Y-64846895D01*
X56848497Y-64846895D02*
X56772306Y-64884990D01*
X56772306Y-64884990D02*
X56734211Y-64923085D01*
X56734211Y-64923085D02*
X56696116Y-64999276D01*
X56696116Y-64999276D02*
X56696116Y-65075466D01*
X56696116Y-65075466D02*
X56734211Y-65189752D01*
X56734211Y-65189752D02*
X57191354Y-65646895D01*
X57191354Y-65646895D02*
X56696116Y-65646895D01*
X55400877Y-65646895D02*
X55400877Y-65227847D01*
X55400877Y-65227847D02*
X55438972Y-65151657D01*
X55438972Y-65151657D02*
X55515163Y-65113561D01*
X55515163Y-65113561D02*
X55667544Y-65113561D01*
X55667544Y-65113561D02*
X55743734Y-65151657D01*
X55400877Y-65608800D02*
X55477068Y-65646895D01*
X55477068Y-65646895D02*
X55667544Y-65646895D01*
X55667544Y-65646895D02*
X55743734Y-65608800D01*
X55743734Y-65608800D02*
X55781830Y-65532609D01*
X55781830Y-65532609D02*
X55781830Y-65456419D01*
X55781830Y-65456419D02*
X55743734Y-65380228D01*
X55743734Y-65380228D02*
X55667544Y-65342133D01*
X55667544Y-65342133D02*
X55477068Y-65342133D01*
X55477068Y-65342133D02*
X55400877Y-65304038D01*
X54905639Y-65646895D02*
X54981829Y-65608800D01*
X54981829Y-65608800D02*
X55019924Y-65532609D01*
X55019924Y-65532609D02*
X55019924Y-64846895D01*
X54715162Y-65113561D02*
X54410400Y-65113561D01*
X54600876Y-64846895D02*
X54600876Y-65532609D01*
X54600876Y-65532609D02*
X54562781Y-65608800D01*
X54562781Y-65608800D02*
X54486591Y-65646895D01*
X54486591Y-65646895D02*
X54410400Y-65646895D01*
D11*
X94750000Y-64550000D02*
X94750000Y-65950000D01*
X95450000Y-66650000D02*
X96050000Y-66650000D01*
X96050000Y-63850000D02*
X95450000Y-63850000D01*
X96750000Y-65950000D02*
X96750000Y-64550000D01*
X94750000Y-64550000D02*
G75*
G02*
X95450000Y-63850000I699999J1D01*
G01*
X95450000Y-66650000D02*
G75*
G02*
X94750000Y-65950000I0J700000D01*
G01*
X96050000Y-63850000D02*
G75*
G02*
X96750000Y-64550000I1J-699999D01*
G01*
X96750000Y-65950000D02*
G75*
G02*
X96050000Y-66650000I-700000J0D01*
G01*
X92250000Y-64550000D02*
X92250000Y-65950000D01*
X92950000Y-66650000D02*
X93550000Y-66650000D01*
X93550000Y-63850000D02*
X92950000Y-63850000D01*
X94250000Y-65950000D02*
X94250000Y-64550000D01*
X92250000Y-64550000D02*
G75*
G02*
X92950000Y-63850000I699999J1D01*
G01*
X92950000Y-66650000D02*
G75*
G02*
X92250000Y-65950000I0J700000D01*
G01*
X93550000Y-63850000D02*
G75*
G02*
X94250000Y-64550000I1J-699999D01*
G01*
X94250000Y-65950000D02*
G75*
G02*
X93550000Y-66650000I-700000J0D01*
G01*
X52000000Y-64550000D02*
X52000000Y-65950000D01*
X52700000Y-66650000D02*
X53300000Y-66650000D01*
X53300000Y-63850000D02*
X52700000Y-63850000D01*
X54000000Y-65950000D02*
X54000000Y-64550000D01*
X52000000Y-64550000D02*
G75*
G02*
X52700000Y-63850000I699999J1D01*
G01*
X52700000Y-66650000D02*
G75*
G02*
X52000000Y-65950000I0J700000D01*
G01*
X53300000Y-63850000D02*
G75*
G02*
X54000000Y-64550000I1J-699999D01*
G01*
X54000000Y-65950000D02*
G75*
G02*
X53300000Y-66650000I-700000J0D01*
G01*
X49500000Y-64550000D02*
X49500000Y-65950000D01*
X50200000Y-66650000D02*
X50800000Y-66650000D01*
X50800000Y-63850000D02*
X50200000Y-63850000D01*
X51500000Y-65950000D02*
X51500000Y-64550000D01*
X49500000Y-64550000D02*
G75*
G02*
X50200000Y-63850000I699999J1D01*
G01*
X50200000Y-66650000D02*
G75*
G02*
X49500000Y-65950000I0J700000D01*
G01*
X50800000Y-63850000D02*
G75*
G02*
X51500000Y-64550000I1J-699999D01*
G01*
X51500000Y-65950000D02*
G75*
G02*
X50800000Y-66650000I-700000J0D01*
G01*
%LPC*%
G36*
X95000000Y-65100000D02*
G01*
X96500000Y-65100000D01*
X96500000Y-65400000D01*
X95000000Y-65400000D01*
X95000000Y-65100000D01*
G37*
G36*
X92500000Y-65100000D02*
G01*
X94000000Y-65100000D01*
X94000000Y-65400000D01*
X92500000Y-65400000D01*
X92500000Y-65100000D01*
G37*
G36*
X52250000Y-65100000D02*
G01*
X53750000Y-65100000D01*
X53750000Y-65400000D01*
X52250000Y-65400000D01*
X52250000Y-65100000D01*
G37*
G36*
X49750000Y-65100000D02*
G01*
X51250000Y-65100000D01*
X51250000Y-65400000D01*
X49750000Y-65400000D01*
X49750000Y-65100000D01*
G37*
D12*
X50750000Y-75890000D03*
X50750000Y-88590000D03*
D13*
X53290000Y-85810000D03*
D14*
X55070000Y-84790000D03*
X53290000Y-83770000D03*
X55070000Y-82750000D03*
X53290000Y-81730000D03*
X55070000Y-80710000D03*
X53290000Y-79690000D03*
X55070000Y-78670000D03*
X59890000Y-89100000D03*
X59890000Y-86810000D03*
X59890000Y-77670000D03*
X59890000Y-75380000D03*
D15*
X54180000Y-74115000D03*
X54180000Y-90365000D03*
D16*
X98305000Y-61750000D03*
D17*
X95765000Y-61750000D03*
X93225000Y-61750000D03*
X90685000Y-61750000D03*
D18*
X74910000Y-67982500D03*
D19*
X74910000Y-62982500D03*
D20*
X71410000Y-67982500D03*
X71410000Y-62982500D03*
D21*
X83547500Y-76170000D03*
X83547500Y-86330000D03*
D16*
X55555000Y-61750000D03*
D17*
X53015000Y-61750000D03*
X50475000Y-61750000D03*
X47935000Y-61750000D03*
D18*
X65250000Y-67982500D03*
D19*
X65250000Y-62982500D03*
D20*
X61750000Y-67982500D03*
X61750000Y-62982500D03*
D21*
X63000000Y-89000000D03*
X63000000Y-78840000D03*
D16*
X98305000Y-69500000D03*
D17*
X95765000Y-69500000D03*
X93225000Y-69500000D03*
X90685000Y-69500000D03*
D22*
X71855000Y-73940000D03*
D23*
X71855000Y-81560000D03*
X74395000Y-73940000D03*
X74395000Y-81560000D03*
D12*
X95500000Y-88600000D03*
X95500000Y-75900000D03*
D24*
X92960000Y-78680000D03*
D14*
X91180000Y-79700000D03*
X92960000Y-80720000D03*
X91180000Y-81740000D03*
X92960000Y-82760000D03*
X91180000Y-83780000D03*
X92960000Y-84800000D03*
X91180000Y-85820000D03*
X86360000Y-75390000D03*
X86360000Y-77680000D03*
X86360000Y-86820000D03*
X86360000Y-89110000D03*
D15*
X92070000Y-90375000D03*
X92070000Y-74125000D03*
D21*
X78205000Y-84250000D03*
X68045000Y-84250000D03*
D18*
X84580000Y-68000000D03*
D19*
X84580000Y-63000000D03*
D20*
X81080000Y-68000000D03*
X81080000Y-63000000D03*
D16*
X55555000Y-69500000D03*
D17*
X53015000Y-69500000D03*
X50475000Y-69500000D03*
X47935000Y-69500000D03*
D25*
X95750000Y-64600000D03*
D26*
X95750000Y-65900000D03*
D25*
X93250000Y-64600000D03*
D26*
X93250000Y-65900000D03*
D25*
X53000000Y-64600000D03*
D26*
X53000000Y-65900000D03*
D25*
X50500000Y-64600000D03*
D26*
X50500000Y-65900000D03*
%LPD*%
M02*
