G04 #@! TF.GenerationSoftware,KiCad,Pcbnew,9.0.2*
G04 #@! TF.CreationDate,2025-11-18T17:36:02+08:00*
G04 #@! TF.ProjectId,rio module,72696f20-6d6f-4647-956c-652e6b696361,rev?*
G04 #@! TF.SameCoordinates,Original*
G04 #@! TF.FileFunction,Soldermask,Top*
G04 #@! TF.FilePolarity,Negative*
%FSLAX46Y46*%
G04 Gerber Fmt 4.6, Leading zero omitted, Abs format (unit mm)*
G04 Created by KiCad (PCBNEW 9.0.2) date 2025-11-18 17:36:02*
%MOMM*%
%LPD*%
G01*
G04 APERTURE LIST*
G04 Aperture macros list*
%AMRoundRect*
0 Rectangle with rounded corners*
0 $1 Rounding radius*
0 $2 $3 $4 $5 $6 $7 $8 $9 X,Y pos of 4 corners*
0 Add a 4 corners polygon primitive as box body*
4,1,4,$2,$3,$4,$5,$6,$7,$8,$9,$2,$3,0*
0 Add four circle primitives for the rounded corners*
1,1,$1+$1,$2,$3*
1,1,$1+$1,$4,$5*
1,1,$1+$1,$6,$7*
1,1,$1+$1,$8,$9*
0 Add four rect primitives between the rounded corners*
20,1,$1+$1,$2,$3,$4,$5,0*
20,1,$1+$1,$4,$5,$6,$7,0*
20,1,$1+$1,$6,$7,$8,$9,0*
20,1,$1+$1,$8,$9,$2,$3,0*%
G04 Aperture macros list end*
%ADD10C,3.200000*%
%ADD11RoundRect,0.102000X-0.704000X0.704000X-0.704000X-0.704000X0.704000X-0.704000X0.704000X0.704000X0*%
%ADD12C,1.612000*%
%ADD13C,2.604000*%
%ADD14RoundRect,0.250000X0.620000X0.620000X-0.620000X0.620000X-0.620000X-0.620000X0.620000X-0.620000X0*%
%ADD15C,1.740000*%
%ADD16R,1.500000X2.300000*%
%ADD17RoundRect,0.250001X0.499999X0.899999X-0.499999X0.899999X-0.499999X-0.899999X0.499999X-0.899999X0*%
%ADD18O,1.500000X2.300000*%
%ADD19C,1.600000*%
%ADD20R,1.200000X1.200000*%
%ADD21C,1.200000*%
%ADD22RoundRect,0.102000X0.704000X-0.704000X0.704000X0.704000X-0.704000X0.704000X-0.704000X-0.704000X0*%
G04 APERTURE END LIST*
D10*
X50750000Y-75890000D03*
X50750000Y-88590000D03*
D11*
X53290000Y-85810000D03*
D12*
X55070000Y-84790000D03*
X53290000Y-83770000D03*
X55070000Y-82750000D03*
X53290000Y-81730000D03*
X55070000Y-80710000D03*
X53290000Y-79690000D03*
X55070000Y-78670000D03*
X59890000Y-89100000D03*
X59890000Y-86810000D03*
X59890000Y-77670000D03*
X59890000Y-75380000D03*
D13*
X54180000Y-74115000D03*
X54180000Y-90365000D03*
D14*
X98305000Y-61750000D03*
D15*
X95765000Y-61750000D03*
X93225000Y-61750000D03*
X90685000Y-61750000D03*
D16*
X74910000Y-67982500D03*
D17*
X74910000Y-62982500D03*
D18*
X71410000Y-67982500D03*
X71410000Y-62982500D03*
D19*
X83547500Y-76170000D03*
X83547500Y-86330000D03*
D14*
X55555000Y-61750000D03*
D15*
X53015000Y-61750000D03*
X50475000Y-61750000D03*
X47935000Y-61750000D03*
D16*
X65250000Y-67982500D03*
D17*
X65250000Y-62982500D03*
D18*
X61750000Y-67982500D03*
X61750000Y-62982500D03*
D19*
X63000000Y-89000000D03*
X63000000Y-78840000D03*
D14*
X98305000Y-69500000D03*
D15*
X95765000Y-69500000D03*
X93225000Y-69500000D03*
X90685000Y-69500000D03*
D20*
X71855000Y-73940000D03*
D21*
X71855000Y-81560000D03*
X74395000Y-73940000D03*
X74395000Y-81560000D03*
D10*
X95500000Y-88600000D03*
X95500000Y-75900000D03*
D22*
X92960000Y-78680000D03*
D12*
X91180000Y-79700000D03*
X92960000Y-80720000D03*
X91180000Y-81740000D03*
X92960000Y-82760000D03*
X91180000Y-83780000D03*
X92960000Y-84800000D03*
X91180000Y-85820000D03*
X86360000Y-75390000D03*
X86360000Y-77680000D03*
X86360000Y-86820000D03*
X86360000Y-89110000D03*
D13*
X92070000Y-90375000D03*
X92070000Y-74125000D03*
D19*
X78205000Y-84250000D03*
X68045000Y-84250000D03*
D16*
X84580000Y-68000000D03*
D17*
X84580000Y-63000000D03*
D18*
X81080000Y-68000000D03*
X81080000Y-63000000D03*
D14*
X55555000Y-69500000D03*
D15*
X53015000Y-69500000D03*
X50475000Y-69500000D03*
X47935000Y-69500000D03*
M02*
