M48
; DRILL file {KiCad 9.0.2} date 2025-11-18T17:36:28+0800
; FORMAT={-:-/ absolute / metric / decimal}
; #@! TF.CreationDate,2025-11-18T17:36:28+08:00
; #@! TF.GenerationSoftware,Kicad,Pcbnew,9.0.2
; #@! TF.FileFunction,MixedPlating,1,2
FMAT,2
METRIC
; #@! TA.AperFunction,Plated,PTH,ComponentDrill
T1C0.600
; #@! TA.AperFunction,Plated,PTH,ComponentDrill
T2C0.800
; #@! TA.AperFunction,Plated,PTH,ComponentDrill
T3C0.900
; #@! TA.AperFunction,Plated,PTH,ComponentDrill
T4C1.090
; #@! TA.AperFunction,Plated,PTH,ComponentDrill
T5C1.200
; #@! TA.AperFunction,Plated,PTH,ComponentDrill
T6C1.600
; #@! TA.AperFunction,NonPlated,NPTH,ComponentDrill
T7C3.200
%
G90
G05
T1
X71.855Y-73.94
X71.855Y-81.56
X74.395Y-73.94
X74.395Y-81.56
T2
X63.0Y-78.84
X63.0Y-89.0
X68.045Y-84.25
X78.205Y-84.25
X83.547Y-76.17
X83.547Y-86.33
T3
X53.29Y-79.69
X53.29Y-81.73
X53.29Y-83.77
X53.29Y-85.81
X55.07Y-78.67
X55.07Y-80.71
X55.07Y-82.75
X55.07Y-84.79
X59.89Y-75.38
X59.89Y-77.67
X59.89Y-86.81
X59.89Y-89.1
X86.36Y-75.39
X86.36Y-77.68
X86.36Y-86.82
X86.36Y-89.11
X91.18Y-79.7
X91.18Y-81.74
X91.18Y-83.78
X91.18Y-85.82
X92.96Y-78.68
X92.96Y-80.72
X92.96Y-82.76
X92.96Y-84.8
T4
X47.935Y-61.75
X47.935Y-69.5
X50.475Y-61.75
X50.475Y-69.5
X53.015Y-61.75
X53.015Y-69.5
X55.555Y-61.75
X55.555Y-69.5
X90.685Y-61.75
X90.685Y-69.5
X93.225Y-61.75
X93.225Y-69.5
X95.765Y-61.75
X95.765Y-69.5
X98.305Y-61.75
X98.305Y-69.5
T5
X61.75Y-62.982
X61.75Y-67.983
X65.25Y-62.982
X65.25Y-67.983
X71.41Y-62.982
X71.41Y-67.983
X74.91Y-62.982
X74.91Y-67.983
X81.08Y-63.0
X81.08Y-68.0
X84.58Y-63.0
X84.58Y-68.0
T6
X54.18Y-74.115
X54.18Y-90.365
X92.07Y-74.125
X92.07Y-90.375
T7
X50.75Y-75.89
X50.75Y-88.59
X95.5Y-75.9
X95.5Y-88.6
M30
