G04 #@! TF.GenerationSoftware,KiCad,Pcbnew,9.0.2*
G04 #@! TF.CreationDate,2025-11-18T17:29:13+08:00*
G04 #@! TF.ProjectId,swerve module,73776572-7665-4206-9d6f-64756c652e6b,rev?*
G04 #@! TF.SameCoordinates,Original*
G04 #@! TF.FileFunction,Legend,Bot*
G04 #@! TF.FilePolarity,Positive*
%FSLAX46Y46*%
G04 Gerber Fmt 4.6, Leading zero omitted, Abs format (unit mm)*
G04 Created by KiCad (PCBNEW 9.0.2) date 2025-11-18 17:29:13*
%MOMM*%
%LPD*%
G01*
G04 APERTURE LIST*
G04 Aperture macros list*
%AMRoundRect*
0 Rectangle with rounded corners*
0 $1 Rounding radius*
0 $2 $3 $4 $5 $6 $7 $8 $9 X,Y pos of 4 corners*
0 Add a 4 corners polygon primitive as box body*
4,1,4,$2,$3,$4,$5,$6,$7,$8,$9,$2,$3,0*
0 Add four circle primitives for the rounded corners*
1,1,$1+$1,$2,$3*
1,1,$1+$1,$4,$5*
1,1,$1+$1,$6,$7*
1,1,$1+$1,$8,$9*
0 Add four rect primitives between the rounded corners*
20,1,$1+$1,$2,$3,$4,$5,0*
20,1,$1+$1,$4,$5,$6,$7,0*
20,1,$1+$1,$6,$7,$8,$9,0*
20,1,$1+$1,$8,$9,$2,$3,0*%
G04 Aperture macros list end*
%ADD10R,1.500000X2.300000*%
%ADD11RoundRect,0.250001X0.499999X0.899999X-0.499999X0.899999X-0.499999X-0.899999X0.499999X-0.899999X0*%
%ADD12O,1.500000X2.300000*%
%ADD13C,3.200000*%
%ADD14RoundRect,0.102000X0.704000X-0.704000X0.704000X0.704000X-0.704000X0.704000X-0.704000X-0.704000X0*%
%ADD15C,1.612000*%
%ADD16C,2.604000*%
%ADD17RoundRect,0.102000X-0.704000X0.704000X-0.704000X-0.704000X0.704000X-0.704000X0.704000X0.704000X0*%
%ADD18C,1.600000*%
%ADD19R,1.200000X1.200000*%
%ADD20C,1.200000*%
G04 APERTURE END LIST*
%LPC*%
D10*
X93910000Y-53932500D03*
D11*
X93910000Y-48932500D03*
D12*
X90410000Y-53932500D03*
X90410000Y-48932500D03*
D13*
X129500000Y-62600000D03*
X129500000Y-49900000D03*
D14*
X126960000Y-52680000D03*
D15*
X125180000Y-53700000D03*
X126960000Y-54720000D03*
X125180000Y-55740000D03*
X126960000Y-56760000D03*
X125180000Y-57780000D03*
X126960000Y-58800000D03*
X125180000Y-59820000D03*
X120360000Y-49390000D03*
X120360000Y-51680000D03*
X120360000Y-60820000D03*
X120360000Y-63110000D03*
D16*
X126070000Y-64375000D03*
X126070000Y-48125000D03*
D13*
X76500000Y-49900000D03*
X76500000Y-62600000D03*
D17*
X79040000Y-59820000D03*
D15*
X80820000Y-58800000D03*
X79040000Y-57780000D03*
X80820000Y-56760000D03*
X79040000Y-55740000D03*
X80820000Y-54720000D03*
X79040000Y-53700000D03*
X80820000Y-52680000D03*
X85640000Y-63110000D03*
X85640000Y-60820000D03*
X85640000Y-51680000D03*
X85640000Y-49390000D03*
D16*
X79930000Y-48125000D03*
X79930000Y-64375000D03*
D18*
X117400000Y-67800000D03*
X117400000Y-57640000D03*
D10*
X103410000Y-53932500D03*
D11*
X103410000Y-48932500D03*
D12*
X99910000Y-53932500D03*
X99910000Y-48932500D03*
D10*
X112910000Y-53932500D03*
D11*
X112910000Y-48932500D03*
D12*
X109410000Y-53932500D03*
X109410000Y-48932500D03*
D18*
X98580000Y-63000000D03*
X88420000Y-63000000D03*
X117350000Y-54280000D03*
X117350000Y-44120000D03*
D19*
X107230000Y-60190000D03*
D20*
X107230000Y-67810000D03*
X109770000Y-60190000D03*
X109770000Y-67810000D03*
%LPD*%
M02*
