M48
; DRILL file {KiCad 9.0.2} date 2025-11-18T17:30:56+0800
; FORMAT={-:-/ absolute / metric / decimal}
; #@! TF.CreationDate,2025-11-18T17:30:56+08:00
; #@! TF.GenerationSoftware,Kicad,Pcbnew,9.0.2
; #@! TF.FileFunction,MixedPlating,1,2
FMAT,2
METRIC
; #@! TA.AperFunction,Plated,PTH,ComponentDrill
T1C0.600
; #@! TA.AperFunction,Plated,PTH,ComponentDrill
T2C0.800
; #@! TA.AperFunction,Plated,PTH,ComponentDrill
T3C0.900
; #@! TA.AperFunction,Plated,PTH,ComponentDrill
T4C1.200
; #@! TA.AperFunction,Plated,PTH,ComponentDrill
T5C1.600
; #@! TA.AperFunction,NonPlated,NPTH,ComponentDrill
T6C3.200
%
G90
G05
T1
X107.23Y-60.19
X107.23Y-67.81
X109.77Y-60.19
X109.77Y-67.81
T2
X88.42Y-63.0
X98.58Y-63.0
X117.35Y-44.12
X117.35Y-54.28
X117.4Y-57.64
X117.4Y-67.8
T3
X79.04Y-53.7
X79.04Y-55.74
X79.04Y-57.78
X79.04Y-59.82
X80.82Y-52.68
X80.82Y-54.72
X80.82Y-56.76
X80.82Y-58.8
X85.64Y-49.39
X85.64Y-51.68
X85.64Y-60.82
X85.64Y-63.11
X120.36Y-49.39
X120.36Y-51.68
X120.36Y-60.82
X120.36Y-63.11
X125.18Y-53.7
X125.18Y-55.74
X125.18Y-57.78
X125.18Y-59.82
X126.96Y-52.68
X126.96Y-54.72
X126.96Y-56.76
X126.96Y-58.8
T4
X90.41Y-48.932
X90.41Y-53.932
X93.91Y-48.932
X93.91Y-53.932
X99.91Y-48.932
X99.91Y-53.932
X103.41Y-48.932
X103.41Y-53.932
X109.41Y-48.932
X109.41Y-53.932
X112.91Y-48.932
X112.91Y-53.932
T5
X79.93Y-48.125
X79.93Y-64.375
X126.07Y-48.125
X126.07Y-64.375
T6
X76.5Y-49.9
X76.5Y-62.6
X129.5Y-49.9
X129.5Y-62.6
M30
